<svg xmlns="http://www.w3.org/2000/svg" width="17.77" height="15.499" viewBox="0 0 17.77 15.499">
  <g id="heart" transform="translate(-1.549 -2.998)">
    <path id="Path_1186" data-name="Path 1186" d="M14.641,3.8A3.85,3.85,0,0,0,11.9,4.934l-.9.9a.8.8,0,0,1-1.131,0l-.9-.9a3.877,3.877,0,0,0-5.482,5.482l.9.9,6.048,6.048,6.048-6.048.9-.9A3.877,3.877,0,0,0,14.641,3.8m0-.8a4.677,4.677,0,0,1,3.307,7.984l-.9.9L10.433,18.5,3.82,11.883l-.9-.9A4.677,4.677,0,0,1,9.532,4.368l.9.9.9-.9A4.661,4.661,0,0,1,14.641,3Z"/>
  </g>
</svg>
