<?xml version="1.0" encoding="UTF-8"?>
<svg width="23px" height="20px" viewBox="0 0 23 20" version="1.1" xmlns="http://www.w3.org/2000/svg" xmlns:xlink="http://www.w3.org/1999/xlink">
    <title>Group</title>
    <g id="Page-1" stroke="none" stroke-width="1" fill="none" fill-rule="evenodd">
        <g id="Group" transform="translate(0.000000, 0.925695)" fill="#A0A0A0">
            <g id="eye-icon" transform="translate(0.000000, 3.074305)">
                <path d="M10.1261845,0.0532937114 C8.46111449,0.238991711 6.76110449,0.856262711 5.06169449,1.89210271 C3.74927449,2.69211271 2.24189449,3.92688271 1.11059449,5.12876271 C0.0869544881,6.21622271 -0.0556805119,6.43587271 0.0155004881,6.81527271 C0.0568044881,7.03542271 0.551784488,7.63179271 1.40784449,8.49285271 C4.52166449,11.6247327 7.92746449,13.3222327 11.0974845,13.3222327 C14.0326845,13.3222327 17.1576845,11.8712327 20.1510845,9.11839271 C20.7767845,8.54308271 21.6424845,7.62531271 21.9842845,7.17515271 C22.1552845,6.94991271 22.1746845,6.89778271 22.1746845,6.66278271 C22.1746845,6.42736271 22.1552845,6.37556271 21.9812845,6.14509271 C21.6508845,5.70751271 20.7763845,4.78211271 20.1435845,4.20064271 C16.8120845,1.13899271 13.3272845,-0.303720289 10.1261845,0.0532937114 Z M11.9202845,1.53199271 C14.0222845,1.76292271 16.2199845,2.82254271 18.4282845,4.66990271 C18.6572845,4.86143271 19.2191845,5.38851271 19.6770845,5.84117271 L20.5095845,6.66426271 L19.6308845,7.53110271 C17.0530845,10.0739327 14.4439845,11.5163327 11.9202845,11.7935327 C8.88163449,12.1274327 5.57610449,10.5786327 2.31039449,7.29073271 L1.68665449,6.66278271 L2.31039449,6.03483271 C4.36575449,3.96550271 6.35168449,2.63342271 8.39853449,1.95116271 C9.61958449,1.54411271 10.7768845,1.40637271 11.9202845,1.53199271 Z M10.4036845,3.02910271 C9.53948449,3.21244271 8.82997449,3.63050271 8.27615449,4.28278271 C7.22718449,5.51825271 7.11275449,7.31316271 7.99666449,8.66712271 C9.28508449,10.6407327 12.0456845,10.9332327 13.7067845,9.27209271 C15.3678845,7.61097271 15.0753845,4.85033271 13.1017845,3.56196271 C12.7537845,3.33472271 12.4384845,3.19717271 11.9769845,3.07123271 C11.6170845,2.97304271 10.7743845,2.95047271 10.4036845,3.02910271 Z M11.6273845,4.51353271 C12.4251845,4.72134271 13.0395845,5.33777271 13.2485845,6.13982271 C13.5480845,7.28995271 12.8118845,8.50349271 11.6273845,8.81203271 C10.4700845,9.11349271 9.25768449,8.38069271 8.94823449,7.19273271 C8.53599449,5.61010271 10.0447845,4.10129271 11.6273845,4.51353271 Z" id="Shape"></path>
            </g>
            <g id="1" transform="translate(10.849190, 9.160254) rotate(-30.000000) translate(-10.849190, -9.160254) translate(9.849190, -0.839746)" fill-rule="nonzero">
                <rect id="Rectangle" x="0" y="0" width="2" height="20"></rect>
            </g>
        </g>
    </g>
</svg>