<svg width="37" height="37" viewBox="0 0 37 37" fill="none" xmlns="http://www.w3.org/2000/svg">
<path d="M1.32422 4.88605H9.02984M35.9995 4.88605H16.7355M1.32422 18.3709H24.4411M35.9995 18.3709H32.1467M1.32422 31.8557H5.17703M35.9995 31.8557H12.8826" stroke="#F5F5F5" stroke-width="2" stroke-linecap="round"/>
<path d="M12.8928 8.73845C15.0207 8.73845 16.7457 7.01349 16.7457 4.88564C16.7457 2.7578 15.0207 1.03284 12.8928 1.03284C10.765 1.03284 9.04004 2.7578 9.04004 4.88564C9.04004 7.01349 10.765 8.73845 12.8928 8.73845Z" stroke="#F5F5F5" stroke-width="2" stroke-linecap="round"/>
<path d="M28.305 22.2234C30.4328 22.2234 32.1578 20.4984 32.1578 18.3706C32.1578 16.2427 30.4328 14.5178 28.305 14.5178C26.1771 14.5178 24.4521 16.2427 24.4521 18.3706C24.4521 20.4984 26.1771 22.2234 28.305 22.2234Z" stroke="#F5F5F5" stroke-width="2" stroke-linecap="round"/>
<path d="M9.0198 35.7082C11.1476 35.7082 12.8726 33.9832 12.8726 31.8554C12.8726 29.7275 11.1476 28.0026 9.0198 28.0026C6.89195 28.0026 5.16699 29.7275 5.16699 31.8554C5.16699 33.9832 6.89195 35.7082 9.0198 35.7082Z" stroke="#F5F5F5" stroke-width="2" stroke-linecap="round"/>
</svg>
