<svg width="18" height="18" viewBox="0 0 18 18" fill="none" xmlns="http://www.w3.org/2000/svg">
<path d="M9.0227 12.8834C9.2629 12.8834 9.46439 12.802 9.62716 12.6393C9.78937 12.477 9.87048 12.2758 9.87048 12.0356V8.62333C9.87048 8.38313 9.78937 8.18531 9.62716 8.02989C9.46439 7.87446 9.2629 7.79675 9.0227 7.79675C8.7825 7.79675 8.58129 7.87785 8.41908 8.04006C8.25631 8.20283 8.17492 8.40432 8.17492 8.64453V12.0568C8.17492 12.297 8.25631 12.4948 8.41908 12.6503C8.58129 12.8057 8.7825 12.8834 9.0227 12.8834ZM9.0227 6.10119C9.2629 6.10119 9.46439 6.01981 9.62716 5.85703C9.78937 5.69482 9.87048 5.49362 9.87048 5.25341C9.87048 5.01321 9.78937 4.81172 9.62716 4.64895C9.46439 4.48674 9.2629 4.40564 9.0227 4.40564C8.7825 4.40564 8.58129 4.48674 8.41908 4.64895C8.25631 4.81172 8.17492 5.01321 8.17492 5.25341C8.17492 5.49362 8.25631 5.69482 8.41908 5.85703C8.58129 6.01981 8.7825 6.10119 9.0227 6.10119ZM9.0227 17.1223C7.84994 17.1223 6.74783 16.8996 5.71637 16.4543C4.6849 16.0095 3.78767 15.4056 3.02467 14.6426C2.26167 13.8796 1.65777 12.9823 1.21297 11.9509C0.767605 10.9194 0.544922 9.81728 0.544922 8.64453C0.544922 7.47177 0.767605 6.36966 1.21297 5.33819C1.65777 4.30673 2.26167 3.4095 3.02467 2.6465C3.78767 1.8835 4.6849 1.27931 5.71637 0.833949C6.74783 0.389148 7.84994 0.166748 9.0227 0.166748C10.1955 0.166748 11.2976 0.389148 12.329 0.833949C13.3605 1.27931 14.2577 1.8835 15.0207 2.6465C15.7837 3.4095 16.3876 4.30673 16.8324 5.33819C17.2778 6.36966 17.5005 7.47177 17.5005 8.64453C17.5005 9.81728 17.2778 10.9194 16.8324 11.9509C16.3876 12.9823 15.7837 13.8796 15.0207 14.6426C14.2577 15.4056 13.3605 16.0095 12.329 16.4543C11.2976 16.8996 10.1955 17.1223 9.0227 17.1223ZM9.0227 15.4267C10.9019 15.4267 12.5023 14.7663 13.8237 13.4455C15.1445 12.1241 15.8049 10.5238 15.8049 8.64453C15.8049 6.76529 15.1445 5.16496 13.8237 3.84356C12.5023 2.52272 10.9019 1.8623 9.0227 1.8623C7.14346 1.8623 5.54342 2.52272 4.22258 3.84356C2.90118 5.16496 2.24048 6.76529 2.24048 8.64453C2.24048 10.5238 2.90118 12.1241 4.22258 13.4455C5.54342 14.7663 7.14346 15.4267 9.0227 15.4267Z" fill="#A0A0A0"/>
</svg>
