<svg width="19" height="16" viewBox="0 0 19 16" fill="none" xmlns="http://www.w3.org/2000/svg">
<path d="M0.646875 5.41523V12.6267C0.646875 13.4373 0.968916 14.2148 1.54215 14.7881C2.11539 15.3613 2.89286 15.6833 3.70354 15.6833H15.3302C16.1409 15.6833 16.9184 15.3613 17.4916 14.7881C18.0648 14.2148 18.3869 13.4373 18.3869 12.6267V3.90667C18.3869 3.09599 18.0648 2.31851 17.4916 1.74528C16.9184 1.17204 16.1409 0.85 15.3302 0.85H3.70354C2.89286 0.85 2.11539 1.17204 1.54215 1.74528C0.968916 2.31851 0.646875 3.09599 0.646875 3.90667V5.41523ZM3.70354 2.60333H15.3302C15.6759 2.60333 16.0074 2.74065 16.2518 2.98507C16.4962 3.22949 16.6335 3.561 16.6335 3.90667V4.89253L9.51687 8.72415L2.40021 4.89253V3.90667C2.40021 3.561 2.53752 3.22949 2.78195 2.98507C3.02637 2.74065 3.35788 2.60333 3.70354 2.60333ZM2.40021 12.6267V6.88422L9.10133 10.4915C9.22905 10.5603 9.37183 10.5963 9.51687 10.5963C9.66192 10.5963 9.8047 10.5603 9.93242 10.4915L16.6335 6.88422V12.6267C16.6335 12.9723 16.4962 13.3038 16.2518 13.5483C16.0074 13.7927 15.6759 13.93 15.3302 13.93H3.70354C3.35788 13.93 3.02637 13.7927 2.78195 13.5483C2.53752 13.3038 2.40021 12.9723 2.40021 12.6267Z" fill="#A0A0A0" stroke="#A0A0A0" stroke-width="0.3"/>
</svg>
