<svg width="109" height="110" viewBox="0 0 109 110" fill="none" xmlns="http://www.w3.org/2000/svg">
<path d="M0 -1H109V93.5502C109 96.6411 106.652 99.2262 103.575 99.5226L6.57532 108.867C3.0506 109.206 0 106.435 0 102.894V-1Z" fill="#C71B4A"/>
<path fill-rule="evenodd" clip-rule="evenodd" d="M46.5825 16.2253C46.543 16.2892 45.5817 22.4376 44.4463 29.8884C43.3108 37.3393 42.351 43.5701 42.3135 43.7347L42.2453 44.0339H46.0127H49.7801L50.5462 38.8146C50.9676 35.944 51.3556 33.4831 51.4084 33.3458C51.4831 33.1516 52.3047 34.308 55.1167 38.5651L58.7291 44.0339H63.3369H67.9449L67.7414 43.7235C67.6296 43.5528 65.7901 40.9348 63.6539 37.9059C61.5176 34.8769 59.7511 32.3388 59.7283 32.2657C59.7055 32.1926 62.1678 29.9486 65.2001 27.2792C68.2325 24.6097 70.8727 22.2611 71.0673 22.06L71.4213 21.6943H66.9687H62.5159L57.0705 26.8647C54.0754 29.7085 51.6137 32.0258 51.6 32.0145C51.5862 32.0032 52.1098 28.5622 52.7635 24.3678C53.4172 20.1736 53.952 16.5995 53.952 16.4256V16.1094H50.3031C48.2961 16.1094 46.6218 16.1616 46.5825 16.2253ZM83.4765 25.3843C80.5972 30.4124 78.1806 34.6054 78.1066 34.702C78.0098 34.8284 77.4896 33.0292 76.2632 28.3262C75.3234 24.7228 74.5304 21.7503 74.5009 21.7207C74.4712 21.6912 72.9443 22.9985 71.1076 24.6259C69.2709 26.2533 67.7923 27.6506 67.822 27.7311C67.8515 27.8117 68.991 31.3527 70.3538 35.6001L72.8319 43.3229L70.0637 48.1662C68.5411 50.83 66.4218 54.5436 65.354 56.4182L63.4124 59.827L64.0212 60.4739C64.356 60.8299 64.9706 61.5772 65.3868 62.1349C65.8032 62.6925 66.4449 63.7396 66.8127 64.462C67.1807 65.1841 67.5818 66.0832 67.7042 66.4598L67.9268 67.1444L68.6689 66.6974C69.0773 66.4516 69.7177 66.1454 70.0923 66.0171C70.5586 65.8571 71.1293 65.7897 71.9035 65.8029C72.6067 65.8148 73.3105 65.9155 73.7662 66.0692C74.169 66.2052 74.8368 66.541 75.2502 66.8155C75.6636 67.0898 76.2048 67.5664 76.4529 67.8745C76.7009 68.1826 77.034 68.6601 77.1932 68.9357C77.3522 69.2114 77.5793 69.7701 77.6977 70.1773C77.849 70.6978 77.8966 71.2598 77.8579 72.0697C77.8211 72.8401 77.7037 73.4744 77.5035 73.9849C77.3389 74.4048 76.9747 75.0537 76.6941 75.4271C76.4137 75.8005 75.8786 76.3356 75.5052 76.616C75.1318 76.8966 74.4829 77.2608 74.063 77.4254C73.5501 77.6265 72.9182 77.743 72.137 77.7802C71.2239 77.8237 70.7799 77.7765 70.0679 77.5603C69.5694 77.4088 68.9053 77.0994 68.592 76.8724C68.2788 76.6455 68.0113 76.4792 67.9975 76.5029C67.9838 76.5265 67.7709 77.0546 67.5244 77.6762C67.2777 78.2979 66.8404 79.2254 66.5522 79.7373C66.2642 80.2493 65.7342 81.0652 65.3743 81.5505C65.0145 82.0359 64.6288 82.5089 64.5169 82.6017C64.3391 82.7493 64.36 82.8018 64.6845 83.0228C64.8885 83.1617 65.4443 83.4744 65.9197 83.7179C66.395 83.9614 67.2642 84.3119 67.851 84.497C68.4378 84.6821 69.4203 84.9069 70.0345 84.9967C70.714 85.096 71.7281 85.1297 72.6245 85.0825C73.4574 85.0386 74.5598 84.8818 75.1613 84.7217C75.7464 84.566 76.6743 84.2443 77.2232 84.0071C77.7722 83.7697 78.6697 83.2832 79.2178 82.9259C79.766 82.5686 80.7681 81.7169 81.4449 81.0333L82.6754 79.7902C82.7802 79.502 82.8031 79.4699 82.8031 79.4699L83.2814 78.7053C83.5444 78.2847 83.9615 77.4398 84.2083 76.8276C84.4553 76.2155 84.7856 75.0939 84.9426 74.3351C85.1789 73.1935 85.216 72.6691 85.1582 71.2935C85.1147 70.2609 84.9858 69.2413 84.8178 68.6018C84.6691 68.0356 84.3997 67.2065 84.2191 66.7595C84.0385 66.3124 83.6021 65.466 83.2493 64.8787C82.8966 64.2912 82.1902 63.3616 81.6797 62.8128C81.1692 62.2639 80.3614 61.5186 79.8846 61.1565C79.4077 60.7944 78.4192 60.2071 77.6878 59.8514C76.9565 59.4957 75.9299 59.0877 75.4064 58.9447C74.883 58.8018 74.0577 58.6422 73.5723 58.5904C73.0869 58.5384 72.7074 58.4539 72.7289 58.4029C72.7503 58.3517 73.1568 57.6115 73.6321 56.7581L74.4965 55.2065L79.6976 55.2051L84.8988 55.2037L84.9833 54.5867C85.0299 54.2474 85.0679 52.7225 85.0679 51.1981V48.4265L81.6946 48.391L78.3212 48.3555L81.3458 43.257C83.0093 40.4529 84.4526 38.0784 84.553 37.9802C84.0616 38.7444 84.6533 37.8821 84.553 37.9802C84.4528 38.0784 83.9978 38.8479 84.7074 37.7169C84.7074 37.7169 84.5795 38.0598 84.553 37.9802C84.5266 37.9007 85.1672 37.1372 85.1672 37.1372C85.3127 37.0594 84.553 37.9802 85.1672 37.1372C85.0217 37.2151 84.932 37.2279 84.9676 37.1658C85.0034 37.1035 87.0479 33.6486 89.5109 29.4881C91.974 25.3276 94.0016 21.873 94.0165 21.8112C94.0314 21.7495 92.8822 20.4712 91.4629 18.9706C90.0434 17.4701 88.8437 16.2423 88.7967 16.2423C88.7498 16.2423 86.3557 20.3563 83.4765 25.3843ZM32.4768 18.6884C31.8917 18.7853 31.024 18.9715 30.5486 19.1022C30.0733 19.2329 29.2581 19.5331 28.7373 19.7692C28.2164 20.0054 27.4348 20.4399 27.0004 20.7349C26.5659 21.0299 25.9216 21.5609 25.5682 21.915C25.2151 22.269 24.6943 22.9134 24.411 23.3469C24.1277 23.7804 23.7735 24.5283 23.6238 25.009C23.4739 25.4897 23.3175 26.275 23.2762 26.7542C23.2243 27.3551 23.2665 27.8512 23.4123 28.3525C23.5286 28.7524 23.8166 29.371 24.0526 29.7271C24.2885 30.0832 24.8443 30.6446 25.2878 30.9745C25.7311 31.3044 26.8121 31.9168 27.6897 32.3352C28.5673 32.7538 30.1678 33.4103 31.2465 33.7941C32.325 34.178 33.5198 34.6793 33.9014 34.9081C34.2831 35.1369 34.7373 35.5335 34.9108 35.7895C35.1557 36.1508 35.2127 36.3787 35.1656 36.8079C35.1324 37.112 34.9764 37.5417 34.8191 37.7626C34.6618 37.9836 34.3348 38.2869 34.0924 38.4366C33.8501 38.5865 33.2678 38.8073 32.7984 38.9275C32.1822 39.0854 31.594 39.1289 30.6818 39.0837C29.7681 39.0383 29.2254 38.9375 28.7213 38.719C28.338 38.5531 27.8155 38.1861 27.5603 37.9036C27.2937 37.6084 27.0315 37.1321 26.9437 36.7839C26.8598 36.4505 26.7473 36.1951 26.6939 36.2163C26.6404 36.2375 25.2718 36.8486 23.6526 37.5743C21.8597 38.3778 20.7086 38.966 20.7086 39.0786C20.7086 39.1803 20.8672 39.5876 21.0611 39.9836C21.2551 40.3796 21.7462 41.0388 22.1525 41.4485C22.6765 41.9765 23.2413 42.363 24.0938 42.7769C24.7551 43.0979 25.8347 43.4965 26.4929 43.6629C27.5542 43.9312 28.0059 43.9649 30.4822 43.9602C32.8718 43.9557 33.4543 43.913 34.5199 43.6646C35.2047 43.5048 36.2411 43.1683 36.8227 42.9169C37.4045 42.6654 38.2147 42.2603 38.6232 42.0168C39.0318 41.7732 39.7656 41.1829 40.2537 40.705C40.8953 40.0768 41.2919 39.5352 41.6852 38.7495C41.9843 38.1519 42.3005 37.3191 42.3877 36.8989C42.4749 36.4787 42.5204 35.6233 42.4889 34.9982C42.443 34.0885 42.355 33.7066 42.0483 33.0864C41.8171 32.6187 41.3657 32.0342 40.9097 31.6121C40.4942 31.2274 39.6236 30.6386 38.9749 30.3038C38.3264 29.969 36.7263 29.3286 35.4195 28.8806C34.1125 28.4326 32.7974 27.9407 32.497 27.7875C32.1966 27.6342 31.7251 27.3594 31.449 27.1768C31.1731 26.9942 30.8204 26.6396 30.6654 26.3886C30.4615 26.0587 30.4041 25.806 30.458 25.4743C30.4989 25.2223 30.6651 24.8295 30.8275 24.6016C31.0034 24.3544 31.4765 24.0195 31.9991 23.7717C32.8077 23.3886 32.9841 23.3564 34.2719 23.3564C35.3052 23.3564 35.8317 23.4195 36.2974 23.5993C36.6898 23.7507 37.1263 24.0689 37.4577 24.4454C37.7498 24.7773 38.0268 25.2515 38.0732 25.4992C38.1198 25.7468 38.2013 25.9494 38.2545 25.9494C38.3077 25.9494 39.6024 25.4065 41.1318 24.743C42.6612 24.0794 43.9575 23.493 44.0124 23.4397C44.0673 23.3864 43.9513 23.0168 43.7547 22.6183C43.558 22.2198 43.0044 21.4997 42.5245 21.0182C41.9198 20.4113 41.346 19.9931 40.6546 19.6551C40.1061 19.387 39.1786 19.042 38.5936 18.8885C37.8078 18.6824 37.0085 18.5968 35.5352 18.5609C34.2731 18.5302 33.1499 18.577 32.4768 18.6884ZM18.0713 48.5481C18.0957 48.6173 19.1029 50.1406 20.3097 51.9329L22.5037 55.1917L26.3674 55.2309L30.2311 55.2701L27.3367 60.3896C25.7448 63.2054 24.44 65.547 24.437 65.5933C24.4342 65.6396 26.0027 65.7067 27.9224 65.7424C30.6429 65.793 31.5635 65.8553 32.095 66.0243C32.4701 66.1437 33.0587 66.3986 33.4029 66.591C33.7472 66.7834 34.3238 67.2358 34.6843 67.5963C35.0448 67.9568 35.4939 68.5561 35.6825 68.9283C35.8711 69.3003 36.1089 69.8801 36.2109 70.2165C36.3131 70.5528 36.3972 71.2824 36.398 71.8377C36.399 72.5053 36.3092 73.1102 36.1329 73.6224C35.9863 74.0484 35.7228 74.642 35.5473 74.9415C35.3719 75.2409 34.9085 75.7879 34.5174 76.1569C34.1264 76.526 33.4666 76.9939 33.0511 77.1967C32.6357 77.3995 31.868 77.6317 31.3452 77.7125C30.6278 77.8236 30.1605 77.8201 29.441 77.6982C28.9167 77.6093 28.1634 77.3736 27.767 77.1744C27.3707 76.9752 26.7596 76.5542 26.4088 76.2388C26.058 75.9235 25.5611 75.3198 25.3044 74.8973C25.0478 74.4749 24.7473 73.7454 24.6368 73.2764C24.5239 72.7971 24.4349 71.7977 24.4338 70.9943L24.4319 69.5648H20.771C17.442 69.5648 17.1021 69.5854 17.0228 69.7918C16.9749 69.9167 17.0049 70.9789 17.0894 72.1521C17.1846 73.4751 17.3493 74.6642 17.5225 75.2827C17.6763 75.8312 18.0317 76.7701 18.3123 77.3693C18.5928 77.9684 19.0523 78.8054 19.3334 79.2295C19.6143 79.6537 20.2332 80.4139 20.7086 80.9192C21.184 81.4244 21.9619 82.1335 22.4372 82.4952C22.9126 82.8568 23.9 83.4438 24.6313 83.7999C25.3627 84.1559 26.4398 84.5838 27.0248 84.7508C27.96 85.0178 28.378 85.0539 30.4822 85.049C32.7088 85.0436 32.9587 85.0178 34.0657 84.677C34.7202 84.4756 35.7338 84.0696 36.3182 83.7749C36.9027 83.4803 37.6262 83.0703 37.926 82.8641C38.2259 82.6578 38.7102 82.2887 39.0023 82.044C39.2946 81.7992 39.7572 81.351 40.0303 81.0479L40.5271 80.4969L40.066 79.7182C39.8123 79.2899 39.4189 78.4726 39.1917 77.902C38.9646 77.3314 38.6663 76.4252 38.5289 75.8883C38.3916 75.3512 38.2152 74.4524 38.1372 73.8909C38.0591 73.3293 37.9956 72.3805 37.996 71.7826C37.9964 71.1844 38.0855 70.1062 38.194 69.3865C38.3025 68.6667 38.6043 67.44 38.8648 66.6605C39.1253 65.8809 39.6125 64.7355 39.9475 64.115L40.5566 62.987L39.6417 62.1327C39.1383 61.6627 38.2851 60.9886 37.7454 60.6344C37.2058 60.2805 36.7121 59.9907 36.6484 59.9907C36.5846 59.9907 36.5325 59.9422 36.5325 59.8829C36.5325 59.8234 37.7937 57.5347 39.3354 54.7966C40.877 52.0584 42.3175 49.504 42.5365 49.1201L42.9348 48.422H30.4808C22.6908 48.422 18.0435 48.4692 18.0713 48.5481ZM46.6385 56.6069C44.0422 61.1069 41.6659 65.286 41.3578 65.894C41.0497 66.5019 40.6355 67.5318 40.4372 68.1824C40.1064 69.2676 40.0758 69.5576 40.0664 71.6924C40.0575 73.7332 40.0943 74.1585 40.3648 75.1497C40.5346 75.7714 40.903 76.7701 41.1836 77.3693C41.4643 77.9684 41.9238 78.8054 42.2049 79.2295C42.4858 79.6537 43.1042 80.4127 43.5789 80.9164C44.0536 81.4201 44.7822 82.0939 45.198 82.4138C45.6138 82.7337 46.399 83.2356 46.9428 83.5291C47.4868 83.8224 48.344 84.2064 48.8476 84.3824C49.3513 84.5583 50.2667 84.8043 50.8817 84.9289C51.7437 85.1036 52.4143 85.1398 53.8071 85.0871C55.0243 85.041 55.9521 84.9286 56.6493 84.7426C57.2185 84.5907 58.1874 84.2308 58.8022 83.9426C59.4173 83.6545 60.2679 83.189 60.6927 82.9086C61.1175 82.628 61.9634 81.9217 62.5725 81.3389C63.1816 80.756 63.9975 79.7982 64.3858 79.2103C64.774 78.6226 65.2749 77.7198 65.4987 77.2043C65.7226 76.6888 66.0298 75.8154 66.1811 75.2633C66.3326 74.7113 66.5091 73.697 66.5735 73.0092C66.643 72.2655 66.6403 71.2471 66.5667 70.4956C66.4985 69.8009 66.3517 68.9033 66.2404 68.501C66.129 68.0988 65.8913 67.3789 65.7124 66.9012C65.5332 66.4236 65.1327 65.6025 64.8221 65.0764C64.5116 64.5504 63.9006 63.6935 63.4643 63.1722C63.0282 62.6509 62.1904 61.8393 61.6027 61.3689C61.0151 60.8983 59.9358 60.2184 59.2045 59.8577C58.4731 59.4972 57.4286 59.0809 56.8834 58.9325C56.3381 58.7841 55.5154 58.6241 55.055 58.5771C54.5947 58.5299 54.218 58.4477 54.218 58.3945C54.218 58.3413 55.3597 56.2701 56.7551 53.792C58.1504 51.3139 59.405 49.0919 59.543 48.8542L59.794 48.422L55.5764 48.4236L51.359 48.4252L46.6385 56.6069ZM55.3853 66.157C55.6984 66.2711 56.2764 66.5781 56.67 66.8394C57.0636 67.1006 57.5885 67.5664 57.8366 67.8745C58.0846 68.1826 58.4165 68.6579 58.5739 68.9309C58.7315 69.2039 58.9528 69.7384 59.0657 70.1185C59.1786 70.4988 59.2703 71.2628 59.2695 71.8163C59.2687 72.3698 59.1845 73.0979 59.0824 73.4342C58.9804 73.7707 58.7481 74.3391 58.5665 74.6975C58.3848 75.056 57.9326 75.6526 57.5615 76.0236C57.1905 76.3945 56.5959 76.8563 56.2405 77.0498C55.8851 77.2433 55.2421 77.4933 54.8117 77.6054C54.3813 77.7174 53.6953 77.8092 53.2872 77.8092C52.8791 77.8092 52.1885 77.7164 51.7526 77.6028C51.3168 77.4893 50.6918 77.2391 50.3637 77.047C50.0357 76.8547 49.4814 76.4303 49.1323 76.1035C48.7831 75.777 48.3207 75.2009 48.1048 74.8237C47.889 74.4464 47.6203 73.7843 47.5079 73.3526C47.3954 72.9207 47.3033 72.2018 47.3033 71.755C47.3033 71.3084 47.3997 70.6178 47.5177 70.2207C47.6355 69.8233 47.8685 69.2288 48.0352 68.8992C48.2021 68.5696 48.6559 67.9778 49.0437 67.5839C49.4977 67.1226 50.0881 66.7064 50.7017 66.4151C51.2949 66.1333 51.9755 65.9263 52.5042 65.8667C52.9713 65.8139 53.6828 65.8111 54.085 65.8602C54.4872 65.9094 55.0725 66.043 55.3853 66.157Z" fill="white"/>
</svg>
