<svg width="45" height="45" viewBox="0 0 45 45" fill="none" xmlns="http://www.w3.org/2000/svg">
<g clip-path="url(#clip0_3843_15580)">
<path fill-rule="evenodd" clip-rule="evenodd" d="M17.6393 4.46827L10.6737 20.1072H18.3917C19.9366 20.1072 21.0248 21.6153 20.5367 23.0786L16.8288 34.1756L33.1694 17.8731H27.415C27.0295 17.873 26.6504 17.7746 26.3138 17.5872C25.9771 17.3998 25.694 17.1296 25.4915 16.8024C25.2889 16.4751 25.1735 16.1016 25.1563 15.7173C25.1391 15.3331 25.2206 14.9508 25.3932 14.6068L30.4736 4.46827H17.6393ZM14.133 1.34048C14.4957 0.525022 15.304 0 16.1996 0H34.0605C35.7398 0 36.8347 1.76497 36.0824 3.26631L31.002 13.4048H38.5207C40.5358 13.4048 41.5434 15.8356 40.1194 17.2565L13.356 43.9611C11.6678 45.6456 8.85555 43.9119 9.61235 41.6532L15.3174 24.5755H7.26135C6.88462 24.5755 6.51386 24.4816 6.18275 24.3023C5.85164 24.1229 5.57066 23.8639 5.36535 23.5488C5.16004 23.2336 5.03689 22.8722 5.00709 22.4975C4.97729 22.1228 5.04178 21.7466 5.19471 21.403L14.133 1.34048Z" fill="#F5F5F5" stroke="#F5F5F5" stroke-width="0.2"/>
</g>
<defs>
<clipPath id="clip0_3843_15580">
<rect width="45" height="45" fill="white"/>
</clipPath>
</defs>
</svg>
