<svg width="28" height="20" viewBox="0 0 28 20" fill="none" xmlns="http://www.w3.org/2000/svg">
<path d="M17.5 0C16.1739 0 14.9021 0.526784 13.9645 1.46447C13.0268 2.40215 12.5 3.67392 12.5 5C12.5 6.32608 13.0268 7.59785 13.9645 8.53553C14.9021 9.47322 16.1739 10 17.5 10C18.8261 10 20.0979 9.47322 21.0355 8.53553C21.9732 7.59785 22.5 6.32608 22.5 5C22.5 3.67392 21.9732 2.40215 21.0355 1.46447C20.0979 0.526784 18.8261 0 17.5 0ZM17.5 2.375C17.8447 2.375 18.1861 2.4429 18.5045 2.57482C18.823 2.70673 19.1124 2.90009 19.3562 3.14384C19.5999 3.3876 19.7933 3.67698 19.9252 3.99546C20.0571 4.31394 20.125 4.65528 20.125 5C20.125 5.34472 20.0571 5.68606 19.9252 6.00454C19.7933 6.32302 19.5999 6.6124 19.3562 6.85616C19.1124 7.09991 18.823 7.29327 18.5045 7.42518C18.1861 7.5571 17.8447 7.625 17.5 7.625C17.1553 7.625 16.8139 7.5571 16.4955 7.42518C16.177 7.29327 15.8876 7.09991 15.6438 6.85616C15.4001 6.6124 15.2067 6.32302 15.0748 6.00454C14.9429 5.68606 14.875 5.34472 14.875 5C14.875 4.30381 15.1516 3.63613 15.6438 3.14384C16.1361 2.65156 16.8038 2.375 17.5 2.375ZM3.75 3.75V7.5H0V10H3.75V13.75H6.25V10H10V7.5H6.25V3.75H3.75ZM17.5 11.25C14.1625 11.25 7.5 12.9125 7.5 16.25V20H27.5V16.25C27.5 12.9125 20.8375 11.25 17.5 11.25ZM17.5 13.625C21.2125 13.625 25.125 15.45 25.125 16.25V17.625H9.875V16.25C9.875 15.45 13.75 13.625 17.5 13.625Z" fill="white"/>
</svg>
