<svg width="120" height="120" viewBox="0 0 120 120" fill="none" xmlns="http://www.w3.org/2000/svg">
<g style="mix-blend-mode:luminosity">
<g style="mix-blend-mode:luminosity">
<path d="M35.5627 51.2073C35.5627 52.579 35.7117 53.6911 35.9724 54.5066C36.2704 55.3222 36.6429 56.2119 37.1644 57.1758C37.3507 57.4723 37.4252 57.7689 37.4252 58.0284C37.4252 58.3991 37.2017 58.7698 36.7174 59.1405L34.3707 60.6975C34.0354 60.9199 33.7002 61.0311 33.4022 61.0311C33.0297 61.0311 32.6572 60.8458 32.2847 60.5121C31.7632 59.9561 31.3162 59.3629 30.9436 58.7698C30.5711 58.1396 30.1986 57.4352 29.7889 56.5826C26.8834 59.9931 23.2329 61.6984 18.8374 61.6984C15.7084 61.6984 13.2126 60.8087 11.3874 59.0293C9.56211 57.2499 8.63086 54.8774 8.63086 51.9117C8.63086 48.7606 9.74836 46.2028 12.0206 44.2751C14.2929 42.3474 17.3101 41.3835 21.1469 41.3835C22.4134 41.3835 23.7171 41.4947 25.0954 41.6801C26.4736 41.8655 27.8891 42.162 29.3791 42.4957V39.7895C29.3791 36.9721 28.7831 35.0073 27.6284 33.8581C26.4364 32.7089 24.4249 32.1529 21.5566 32.1529C20.2529 32.1529 18.9119 32.3011 17.5336 32.6348C16.1554 32.9684 14.8144 33.3762 13.5106 33.8952C12.9146 34.1547 12.4676 34.303 12.2069 34.3771C11.9461 34.4513 11.7599 34.4883 11.6109 34.4883C11.0894 34.4883 10.8286 34.1176 10.8286 33.3391V31.5227C10.8286 30.9295 10.9031 30.4847 11.0894 30.2252C11.2756 29.9657 11.6109 29.7062 12.1324 29.4467C13.4361 28.7794 15.0006 28.2233 16.8259 27.7785C18.6511 27.2966 20.5881 27.0741 22.6369 27.0741C27.0696 27.0741 30.3104 28.0751 32.3964 30.0769C34.4452 32.0787 35.4882 35.1185 35.4882 39.1963V51.2073H35.5627ZM20.4391 56.8421C21.6684 56.8421 22.9349 56.6197 24.2759 56.1748C25.6169 55.73 26.8089 54.9144 27.8146 53.8023C28.4106 53.0979 28.8576 52.3195 29.0811 51.4298C29.3046 50.5401 29.4536 49.465 29.4536 48.2046V46.6476C28.3734 46.3881 27.2186 46.1657 26.0266 46.0174C24.8346 45.8691 23.6799 45.795 22.5251 45.795C20.0294 45.795 18.2041 46.2769 16.9749 47.2778C15.7456 48.2787 15.1496 49.6874 15.1496 51.541C15.1496 53.2833 15.5966 54.5808 16.5279 55.4705C17.4219 56.3973 18.7256 56.8421 20.4391 56.8421ZM50.3509 60.8458C49.6804 60.8458 49.2334 60.7346 48.9354 60.4751C48.6374 60.2526 48.3767 59.7336 48.1532 59.0293L39.3994 30.3735C39.1759 29.632 39.0642 29.1501 39.0642 28.8906C39.0642 28.2975 39.3622 27.9638 39.9582 27.9638H43.6087C44.3164 27.9638 44.8007 28.0751 45.0614 28.3346C45.3594 28.557 45.5829 29.076 45.8064 29.7803L52.0644 54.3213L57.8754 29.7803C58.0617 29.0389 58.2852 28.557 58.5832 28.3346C58.8812 28.1121 59.4027 27.9638 60.0732 27.9638H63.0532C63.761 27.9638 64.2452 28.0751 64.5432 28.3346C64.8412 28.557 65.102 29.076 65.251 29.7803L71.1365 54.6179L77.5807 29.7803C77.8042 29.0389 78.065 28.557 78.3257 28.3346C78.6237 28.1121 79.108 27.9638 79.7785 27.9638H83.2427C83.8387 27.9638 84.174 28.2604 84.174 28.8906C84.174 29.076 84.1367 29.2613 84.0995 29.4838C84.0622 29.7062 83.9877 30.0027 83.8387 30.4105L74.8615 59.0664C74.638 59.8078 74.3772 60.2897 74.0792 60.5121C73.7812 60.7346 73.297 60.8828 72.6637 60.8828H69.4602C68.7525 60.8828 68.2682 60.7716 67.9702 60.5121C67.6722 60.2526 67.4115 59.7707 67.2625 59.0293L61.4887 35.1185L55.7522 58.9922C55.5659 59.7336 55.3424 60.2156 55.0444 60.4751C54.7464 60.7346 54.2249 60.8458 53.5544 60.8458H50.3509ZM98.2173 61.8467C96.2803 61.8467 94.3433 61.6243 92.4808 61.1794C90.6182 60.7346 89.1655 60.2526 88.197 59.6966C87.601 59.3629 87.1912 58.9922 87.0423 58.6586C86.8932 58.325 86.8187 57.9542 86.8187 57.6206V55.73C86.8187 54.9515 87.1167 54.5808 87.6755 54.5808C87.899 54.5808 88.1225 54.6179 88.346 54.692C88.5695 54.7661 88.9048 54.9144 89.2773 55.0627C90.5438 55.6188 91.922 56.0636 93.3748 56.3602C94.8648 56.6568 96.3175 56.805 97.8075 56.805C100.154 56.805 101.98 56.3973 103.246 55.5817C104.513 54.7661 105.183 53.5799 105.183 52.06C105.183 51.022 104.848 50.1693 104.177 49.465C103.507 48.7606 102.24 48.1304 100.415 47.5373L95.0138 45.8691C92.2945 45.0165 90.283 43.7561 89.0537 42.0879C87.8245 40.4568 87.1912 38.6403 87.1912 36.7126C87.1912 35.1556 87.5265 33.784 88.197 32.5977C88.8675 31.4114 89.7615 30.3735 90.879 29.5579C91.9965 28.7053 93.263 28.0751 94.753 27.6302C96.243 27.1854 97.8075 27 99.4465 27C100.266 27 101.123 27.0371 101.942 27.1483C102.799 27.2595 103.581 27.4078 104.364 27.5561C105.109 27.7414 105.816 27.9268 106.487 28.1492C107.157 28.3716 107.679 28.5941 108.051 28.8165C108.573 29.113 108.945 29.4096 109.169 29.7433C109.392 30.0398 109.504 30.4476 109.504 30.9666V32.7089C109.504 33.4874 109.206 33.8952 108.647 33.8952C108.349 33.8952 107.865 33.7469 107.232 33.4503C105.109 32.4865 102.725 32.0046 100.08 32.0046C97.9565 32.0046 96.2803 32.3382 95.1255 33.0426C93.9708 33.7469 93.3748 34.822 93.3748 36.3419C93.3748 37.3799 93.7473 38.2696 94.4923 38.9739C95.2373 39.6783 96.6155 40.3826 98.5898 41.0128L103.879 42.681C106.561 43.5336 108.498 44.7199 109.653 46.2398C110.808 47.7597 111.367 49.5021 111.367 51.4298C111.367 53.0238 111.031 54.4696 110.398 55.73C109.728 56.9904 108.834 58.1025 107.679 58.9922C106.524 59.919 105.146 60.5863 103.544 61.0682C101.868 61.5872 100.117 61.8467 98.2173 61.8467Z" fill="white"/>
<path fill-rule="evenodd" clip-rule="evenodd" d="M105.258 79.8637C93.0024 88.872 75.1968 93.6541 59.8871 93.6541C38.431 93.6541 19.0982 85.758 4.49618 72.6349C3.34142 71.5969 4.38443 70.1882 5.76268 71.0038C21.5567 80.1232 41.0385 85.6468 61.1908 85.6468C74.7871 85.6468 89.7244 82.8294 103.47 77.0463C105.518 76.1196 107.269 78.3809 105.258 79.8637Z" fill="#FF9900"/>
<path fill-rule="evenodd" clip-rule="evenodd" d="M110.361 74.0804C108.796 72.0786 100.005 73.1166 96.0195 73.5985C94.8275 73.7468 94.6413 72.7088 95.7215 71.9303C102.725 67.037 114.235 68.4457 115.576 70.0768C116.917 71.745 115.203 83.1999 108.647 88.6864C107.642 89.539 106.673 89.0942 107.12 87.9821C108.61 84.312 111.925 76.0452 110.361 74.0804Z" fill="#FF9900"/>
</g>
</g>
</svg>
