<svg width="64" height="64" viewBox="0 0 64 64" fill="none" xmlns="http://www.w3.org/2000/svg">
<rect width="64" height="64" rx="16" fill="url(#paint0_linear)"/>
<path d="M40.336 17.2253L39.3028 16.8555L39.1871 16.5105C39.0906 16.2243 38.972 15.9343 38.8333 15.6474L38.6745 15.3198L39.1485 14.3151L36.7437 11.8733L35.7535 12.3538L35.4301 12.1926C35.152 12.0533 34.8656 11.9328 34.5801 11.8334L34.2403 11.7151L33.8769 10.6667H30.4767L30.1125 11.7151L29.7728 11.8334C29.4872 11.9328 29.2009 12.0533 28.9228 12.1926L28.5993 12.3538L27.6091 11.8733L25.2044 14.3151L25.6783 15.3198L25.5196 15.6474C25.3809 15.9343 25.2622 16.2243 25.1658 16.5105L25.0501 16.8555L24.0176 17.2253V18.1983H18.8253C17.5985 18.1983 16.6001 19.2121 16.6001 20.4578V21.211H12.9893L17.3418 27.8411L21.6944 21.211H18.0836V20.4578C18.0836 20.0428 18.4159 19.7047 18.8253 19.7047H24.0176V20.6777L25.0508 21.0476L25.1665 21.3925C25.263 21.6787 25.3816 21.9687 25.5204 22.2556L25.6791 22.5832L25.2051 23.588L27.6099 26.0297L28.6001 25.5492L28.9235 25.7104C29.2017 25.8497 29.488 25.9702 29.7735 26.0696L30.1133 26.1879L30.4767 27.2363H33.8769L34.2411 26.1879L34.5808 26.0696C34.8664 25.9702 35.1527 25.8497 35.4309 25.7104L35.7543 25.5492L36.7445 26.0297L39.1492 23.588L38.6753 22.5832L38.834 22.2556C38.9727 21.9687 39.0914 21.6787 39.1878 21.3925L39.3035 21.0476L40.336 20.6777V17.2253ZM32.1768 24.2236C29.3092 24.2236 26.9846 21.8632 26.9846 18.9515C26.9846 16.0398 29.3092 13.6794 32.1768 13.6794C35.0444 13.6794 37.369 16.0398 37.369 18.9515C37.369 21.8632 35.0444 24.2236 32.1768 24.2236Z" fill="url(#paint1_linear)"/>
<path d="M32.1789 21.2111C33.4078 21.2111 34.4041 20.1995 34.4041 18.9516C34.4041 17.7037 33.4078 16.6921 32.1789 16.6921C30.9499 16.6921 29.9536 17.7037 29.9536 18.9516C29.9536 20.1995 30.9499 21.2111 32.1789 21.2111Z" fill="url(#paint2_linear)"/>
<path d="M40.3379 52.8435C40.3379 53.6742 41.0032 54.3498 41.8214 54.3498H52.2059C53.024 54.3498 53.6894 53.6742 53.6894 52.8435V49.8308H40.3379V52.8435ZM43.3049 51.3371H50.7224V52.8435H43.3049V51.3371Z" fill="url(#paint3_linear)"/>
<path d="M53.6894 48.3247H40.3379V36.2742H53.6894V48.3247Z" fill="url(#paint4_linear)"/>
<path d="M52.2059 30.2492V20.4581C52.2059 19.2124 51.2075 18.1986 49.9806 18.1986H49.2389V14.5315L42.7093 18.9518L49.2389 23.3721V19.7049H49.9806C50.3901 19.7049 50.7224 20.0431 50.7224 20.4581V30.2492H41.8214C41.0032 30.2492 40.3379 30.9248 40.3379 31.7555V34.7681H53.6894V31.7555C53.6894 30.9248 53.024 30.2492 52.2059 30.2492ZM49.2389 33.2618H44.7884V31.7555H49.2389V33.2618Z" fill="url(#paint5_linear)"/>
<path d="M10.667 52.8435C10.667 53.6742 11.3323 54.3498 12.1505 54.3498H22.535C23.3531 54.3498 24.0185 53.6742 24.0185 52.8435V49.8308H10.667V52.8435ZM13.634 51.3371H21.0515V52.8435H13.634V51.3371Z" fill="url(#paint6_linear)"/>
<path d="M22.535 30.2488H12.1505C11.3323 30.2488 10.667 30.9244 10.667 31.7551V34.7677H24.0185V31.7551C24.0185 30.9244 23.3531 30.2488 22.535 30.2488ZM19.568 33.2614H15.1175V31.7551H19.568V33.2614Z" fill="url(#paint7_linear)"/>
<path d="M24.0185 48.3247H10.667V36.2742H24.0185V48.3247Z" fill="url(#paint8_linear)"/>
<defs>
<linearGradient id="paint0_linear" x1="0" y1="0" x2="64.9147" y2="0.941607" gradientUnits="userSpaceOnUse">
<stop stop-color="#12F282"/>
<stop offset="1" stop-color="#2CF2B8"/>
</linearGradient>
<linearGradient id="paint1_linear" x1="12.9893" y1="10.6667" x2="42.1888" y2="14.8223" gradientUnits="userSpaceOnUse">
<stop stop-color="#4040BA"/>
<stop offset="1" stop-color="#10137B"/>
</linearGradient>
<linearGradient id="paint2_linear" x1="29.9536" y1="16.6921" x2="34.7646" y2="17.1156" gradientUnits="userSpaceOnUse">
<stop stop-color="#4040BA"/>
<stop offset="1" stop-color="#10137B"/>
</linearGradient>
<linearGradient id="paint3_linear" x1="40.3379" y1="49.8308" x2="53.9346" y2="53.4212" gradientUnits="userSpaceOnUse">
<stop stop-color="#4040BA"/>
<stop offset="1" stop-color="#10137B"/>
</linearGradient>
<linearGradient id="paint4_linear" x1="40.3379" y1="36.2742" x2="54.7414" y2="37.7005" gradientUnits="userSpaceOnUse">
<stop stop-color="#4040BA"/>
<stop offset="1" stop-color="#10137B"/>
</linearGradient>
<linearGradient id="paint5_linear" x1="40.3379" y1="14.5315" x2="54.8323" y2="15.3862" gradientUnits="userSpaceOnUse">
<stop stop-color="#4040BA"/>
<stop offset="1" stop-color="#10137B"/>
</linearGradient>
<linearGradient id="paint6_linear" x1="10.667" y1="49.8308" x2="24.2637" y2="53.4212" gradientUnits="userSpaceOnUse">
<stop stop-color="#4040BA"/>
<stop offset="1" stop-color="#10137B"/>
</linearGradient>
<linearGradient id="paint7_linear" x1="10.667" y1="30.2488" x2="24.2637" y2="33.8392" gradientUnits="userSpaceOnUse">
<stop stop-color="#4040BA"/>
<stop offset="1" stop-color="#10137B"/>
</linearGradient>
<linearGradient id="paint8_linear" x1="10.667" y1="36.2742" x2="25.0705" y2="37.7005" gradientUnits="userSpaceOnUse">
<stop stop-color="#4040BA"/>
<stop offset="1" stop-color="#10137B"/>
</linearGradient>
</defs>
</svg>
