<svg width="64" height="64" viewBox="0 0 64 64" fill="none" xmlns="http://www.w3.org/2000/svg">
<rect width="64" height="64" rx="16" fill="url(#paint0_linear)"/>
<path d="M24.7723 28.9716C20.056 28.9716 16.2183 25.1646 16.2183 20.4851C16.2183 15.8065 20.0554 12 24.7723 12C29.4891 12 33.3263 15.8065 33.3263 20.4851C33.3263 25.1646 29.4886 28.9716 24.7723 28.9716Z" fill="url(#paint1_linear)"/>
<path d="M42.2664 28.7126C38.7918 28.7126 35.6581 30.1509 33.4309 32.4571C30.9666 31.0384 28.1547 30.2862 25.2901 30.2862C17.5186 30.2862 10.8117 35.7769 9.34271 43.3417C9.31276 43.4918 9.35304 43.6471 9.45118 43.7649C9.54932 43.8828 9.69549 43.9509 9.84941 43.9509H30.431C31.8111 49.1557 36.5863 52.9955 42.2669 52.9955C49.0265 52.9955 54.5062 47.5586 54.5062 40.8541C54.5062 34.1485 49.026 28.7126 42.2664 28.7126ZM39.1353 47.8189H35.5793V38.8009H39.1353V47.8189ZM50.9077 42.7166C51.8462 43.1531 51.7274 45.0003 50.528 45.0664C50.5497 45.0843 50.5678 45.115 50.5879 45.1376C51.0218 45.2933 51.3348 45.7032 51.3348 46.1864C51.3348 46.8044 50.8297 47.307 50.2057 47.307H42.0381C42.0381 47.307 41.1946 46.8981 40.9684 46.2418C40.9673 46.2382 40.9689 46.2341 40.9679 46.23C40.3062 44.9485 40.455 41.0334 40.6724 39.5208C40.8852 38.0375 42.2075 37.3263 43.1362 36.1355C44.2823 34.667 45.1031 33.1622 45.6015 30.9651C48.1521 30.7622 47.4945 33.3697 46.869 35.3864C46.8525 35.4433 46.3432 37.1972 46.6459 37.3734C47.8907 38.0472 50.4077 37.0368 51.7599 37.6404C52.9055 38.1502 52.6824 40.1475 51.1917 40.2725C52.1747 40.665 51.9805 42.5741 50.9077 42.7166Z" fill="url(#paint2_linear)"/>
<defs>
<linearGradient id="paint0_linear" x1="0" y1="0" x2="64.9147" y2="0.941607" gradientUnits="userSpaceOnUse">
<stop stop-color="#12F282"/>
<stop offset="1" stop-color="#2CF2B8"/>
</linearGradient>
<linearGradient id="paint1_linear" x1="16.2183" y1="12" x2="34.7052" y2="13.6656" gradientUnits="userSpaceOnUse">
<stop stop-color="#4040BA"/>
<stop offset="1" stop-color="#10137B"/>
</linearGradient>
<linearGradient id="paint2_linear" x1="9.33301" y1="28.7126" x2="57.2198" y2="36.6746" gradientUnits="userSpaceOnUse">
<stop stop-color="#4040BA"/>
<stop offset="1" stop-color="#10137B"/>
</linearGradient>
</defs>
</svg>
