<svg width="285" height="175" viewBox="0 0 285 175" fill="none" xmlns="http://www.w3.org/2000/svg">
<g opacity="0.8" filter="url(#filter0_f)">
<path fill-rule="evenodd" clip-rule="evenodd" d="M131.053 49.2915C121.608 43.8385 107.3 43.2454 99.1218 47.9669L50.4939 76.0421C42.316 80.7636 43.3433 89.0247 52.7882 94.4777L87.0104 114.236C96.4553 119.689 110.764 120.282 118.942 115.56L167.57 87.4852C175.748 82.7637 174.72 74.5026 165.276 69.0496L131.053 49.2915Z" fill="#2E0059"/>
</g>
<path fill-rule="evenodd" clip-rule="evenodd" d="M131.051 19.0505C121.606 13.5975 107.297 13.0044 99.1196 17.7259L49.6742 44.904C41.4946 49.6264 43.3411 67.2112 52.786 72.6642L87.0081 92.4223C96.453 97.8753 110.762 98.4684 118.94 93.7469L167.567 65.6717C175.745 60.9502 176.704 44.9418 167.259 39.4888L131.051 19.0505Z" fill="url(#paint0_linear)"/>
<path fill-rule="evenodd" clip-rule="evenodd" d="M127.851 17.1194C120.095 12.6416 108.345 12.1545 101.63 16.0317L61.0265 38.3495C54.3097 42.2274 41.0571 47.7622 48.813 52.24L91.6839 77.37C99.4398 81.8479 111.19 82.3349 117.905 78.4577L169.957 49.0797C176.278 43.8126 166.797 38.5454 157.584 33.9027L127.851 17.1194Z" fill="url(#paint1_linear)"/>
<g filter="url(#filter1_d)">
<path d="M113.551 71.596L67.1687 43.8999C66.194 43.3179 66.1473 42.4114 67.0644 41.8752L105.33 19.5034C106.247 18.9672 107.78 19.0043 108.755 19.5864L155.137 47.2825C156.112 47.8645 156.159 48.771 155.242 49.3072L116.976 71.6791C116.059 72.2152 114.526 72.1781 113.551 71.596Z" fill="url(#paint2_linear)"/>
<path d="M115.507 71.424L68.9562 43.6272C68.4688 43.3362 68.4455 42.8829 68.904 42.6149L106.693 20.5213C107.152 20.2532 107.918 20.2718 108.406 20.5628L154.957 48.3597C155.444 48.6507 155.468 49.1039 155.009 49.372L117.22 71.4655C116.761 71.7336 115.995 71.715 115.507 71.424Z" fill="#5100D1"/>
<path d="M155.959 47.8942C156.133 47.9057 156.299 47.9537 156.426 48.029V48.029C156.708 48.1977 156.721 48.4571 156.456 48.6125L137.822 59.5065C137.106 59.9251 135.811 59.6201 135.706 59.0083L134.957 54.6246L133.686 47.2297C133.612 46.7978 134.211 46.4552 134.955 46.5045L155.959 47.8942Z" fill="url(#paint3_linear)"/>
<path d="M116.136 72.1641C115.677 72.4322 114.91 72.4136 114.423 72.1226L110.837 69.9815C110.625 69.8547 110.492 69.69 110.462 69.5177L107.741 53.6463C107.666 53.2105 108.259 52.8641 108.995 52.9128L142.337 55.1191C143.375 55.1877 143.882 55.9419 143.171 56.358L116.136 72.1641Z" fill="url(#paint4_linear)"/>
<path d="M115.457 32.5579C119.768 35.1315 120.411 38.8845 116.895 40.9404C113.378 42.9963 107.034 42.5765 102.724 40.0029C98.4134 37.429 97.7697 33.676 101.286 31.6203C104.803 29.5643 111.148 29.9841 115.457 32.5579Z" fill="white"/>
</g>
<g opacity="0.8" filter="url(#filter2_f)">
<path fill-rule="evenodd" clip-rule="evenodd" d="M214.201 100.874C208.283 97.4566 199.317 97.085 194.192 100.043L163.722 117.636C158.598 120.594 159.241 125.771 165.16 129.187L186.603 141.568C192.522 144.985 201.487 145.356 206.612 142.398L237.082 124.806C242.207 121.847 241.563 116.671 235.645 113.254L214.201 100.874Z" fill="#2E0059"/>
</g>
<path fill-rule="evenodd" clip-rule="evenodd" d="M214.199 81.9242C208.28 78.5073 199.315 78.1356 194.19 81.0942L163.208 98.1241C158.082 101.083 159.239 112.102 165.157 115.519L186.601 127.899C192.519 131.316 201.485 131.688 206.61 128.729L237.08 111.137C242.204 108.179 242.805 98.1478 236.887 94.7309L214.199 81.9242Z" fill="url(#paint5_linear)"/>
<path fill-rule="evenodd" clip-rule="evenodd" d="M212.194 80.7142C207.334 77.9084 199.971 77.6032 195.763 80.0326L170.321 94.0171C166.113 96.447 157.808 99.9151 162.668 102.721L189.531 118.468C194.391 121.273 201.754 121.579 205.962 119.149L238.578 100.741C242.538 97.4403 236.598 94.1399 230.825 91.2307L212.194 80.7142Z" fill="url(#paint6_linear)"/>
<g filter="url(#filter3_d)">
<path d="M203.42 114.74L174.358 97.3857C173.87 97.0947 173.847 96.6414 174.305 96.3733L198.33 82.3273C198.789 82.0592 199.555 82.0778 200.043 82.3688L229.105 99.7228C229.593 100.014 229.616 100.467 229.157 100.735L205.133 114.781C204.674 115.049 203.907 115.031 203.42 114.74Z" fill="#39F4A7"/>
<path d="M204.083 114.308L176.006 97.543C175.519 97.252 175.496 96.7987 175.954 96.5306L198.659 83.2561C199.118 82.988 199.884 83.0066 200.372 83.2977L228.449 100.063C228.936 100.354 228.959 100.807 228.501 101.075L205.796 114.35C205.337 114.618 204.571 114.599 204.083 114.308Z" fill="#5100D1"/>
<path d="M229.404 99.9772C229.512 99.9843 229.615 100.014 229.693 100.06V100.06C229.867 100.165 229.875 100.325 229.711 100.421L218.908 106.737C218.192 107.155 216.897 106.85 216.793 106.239L216.433 104.134L215.702 99.8798C215.628 99.4478 216.227 99.1053 216.971 99.1545L229.404 99.9772Z" fill="#39F4A7"/>
<path d="M205.126 114.781C204.668 115.049 203.901 115.03 203.414 114.739L201.662 113.694C201.45 113.567 201.317 113.402 201.287 113.23L199.678 103.845C199.603 103.409 200.196 103.063 200.933 103.112L219.978 104.372C221.015 104.441 221.523 105.195 220.811 105.611L205.126 114.781Z" fill="#39F4A7"/>
<path d="M204.39 90.5043C207.052 92.0939 207.449 94.4119 205.278 95.6817C203.106 96.9515 199.187 96.6922 196.525 95.1026C193.863 93.5129 193.465 91.1949 195.637 89.9253C197.809 88.6554 201.728 88.9147 204.39 90.5043Z" fill="white"/>
</g>
<defs>
<filter id="filter0_f" x="0.974121" y="0.779907" width="216.116" height="161.967" filterUnits="userSpaceOnUse" color-interpolation-filters="sRGB">
<feFlood flood-opacity="0" result="BackgroundImageFix"/>
<feBlend mode="normal" in="SourceGraphic" in2="BackgroundImageFix" result="shape"/>
<feGaussianBlur stdDeviation="22" result="effect1_foregroundBlur"/>
</filter>
<filter id="filter1_d" x="62.4058" y="19.1243" width="98.2405" height="61.2293" filterUnits="userSpaceOnUse" color-interpolation-filters="sRGB">
<feFlood flood-opacity="0" result="BackgroundImageFix"/>
<feColorMatrix in="SourceAlpha" type="matrix" values="0 0 0 0 0 0 0 0 0 0 0 0 0 0 0 0 0 0 127 0" result="hardAlpha"/>
<feOffset dy="4"/>
<feGaussianBlur stdDeviation="2"/>
<feComposite in2="hardAlpha" operator="out"/>
<feColorMatrix type="matrix" values="0 0 0 0 0.0256944 0 0 0 0 0.0827932 0 0 0 0 0.308333 0 0 0 0.26 0"/>
<feBlend mode="normal" in2="BackgroundImageFix" result="effect1_dropShadow"/>
<feBlend mode="normal" in="SourceGraphic" in2="effect1_dropShadow" result="shape"/>
</filter>
<filter id="filter2_f" x="116.263" y="54.0465" width="168.278" height="134.348" filterUnits="userSpaceOnUse" color-interpolation-filters="sRGB">
<feFlood flood-opacity="0" result="BackgroundImageFix"/>
<feBlend mode="normal" in="SourceGraphic" in2="BackgroundImageFix" result="shape"/>
<feGaussianBlur stdDeviation="22" result="effect1_foregroundBlur"/>
</filter>
<filter id="filter3_d" x="169.976" y="82.1378" width="63.8533" height="40.8329" filterUnits="userSpaceOnUse" color-interpolation-filters="sRGB">
<feFlood flood-opacity="0" result="BackgroundImageFix"/>
<feColorMatrix in="SourceAlpha" type="matrix" values="0 0 0 0 0 0 0 0 0 0 0 0 0 0 0 0 0 0 127 0" result="hardAlpha"/>
<feOffset dy="4"/>
<feGaussianBlur stdDeviation="2"/>
<feComposite in2="hardAlpha" operator="out"/>
<feColorMatrix type="matrix" values="0 0 0 0 0.0256944 0 0 0 0 0.0827932 0 0 0 0 0.308333 0 0 0 0.26 0"/>
<feBlend mode="normal" in2="BackgroundImageFix" result="effect1_dropShadow"/>
<feBlend mode="normal" in="SourceGraphic" in2="effect1_dropShadow" result="shape"/>
</filter>
<linearGradient id="paint0_linear" x1="170.563" y1="53.7532" x2="56.878" y2="75.0257" gradientUnits="userSpaceOnUse">
<stop stop-color="#671CE6"/>
<stop offset="0.46" stop-color="#B460FC"/>
<stop offset="0.7" stop-color="#8A00AA"/>
<stop offset="1" stop-color="#4F26E9"/>
</linearGradient>
<linearGradient id="paint1_linear" x1="109.912" y1="80.6826" x2="108.859" y2="14.3165" gradientUnits="userSpaceOnUse">
<stop stop-color="white"/>
<stop offset="1" stop-color="#A691F4"/>
</linearGradient>
<linearGradient id="paint2_linear" x1="90.3598" y1="57.748" x2="111.993" y2="21.5196" gradientUnits="userSpaceOnUse">
<stop stop-color="#12F282"/>
<stop offset="1" stop-color="#2CF2B8"/>
</linearGradient>
<linearGradient id="paint3_linear" x1="133.993" y1="46.1888" x2="140.124" y2="58.5237" gradientUnits="userSpaceOnUse">
<stop stop-color="#12F282"/>
<stop offset="1" stop-color="#2CF2B8"/>
</linearGradient>
<linearGradient id="paint4_linear" x1="134.694" y1="49.1469" x2="119.253" y2="75.0066" gradientUnits="userSpaceOnUse">
<stop stop-color="#12F282"/>
<stop offset="1" stop-color="#2CF2B8"/>
</linearGradient>
<linearGradient id="paint5_linear" x1="238.957" y1="103.669" x2="167.721" y2="116.998" gradientUnits="userSpaceOnUse">
<stop stop-color="#671CE6"/>
<stop offset="0.46" stop-color="#B460FC"/>
<stop offset="0.7" stop-color="#8A00AA"/>
<stop offset="1" stop-color="#4F26E9"/>
</linearGradient>
<linearGradient id="paint6_linear" x1="200.953" y1="120.543" x2="200.293" y2="78.9579" gradientUnits="userSpaceOnUse">
<stop stop-color="white"/>
<stop offset="1" stop-color="#A691F4"/>
</linearGradient>
</defs>
</svg>
