<svg width="120" height="120" viewBox="0 0 120 120" fill="none" xmlns="http://www.w3.org/2000/svg">
<g style="mix-blend-mode:luminosity">
<path d="M110 87.5116C106.363 88.4366 104.112 87.5522 102.094 84.5209L87.7375 64.6585L85.6625 61.9085L68.8969 84.5866C66.9813 87.3147 64.9719 88.5022 61.3969 87.5366L82.8656 58.7178L62.8781 32.6866C66.3156 32.0178 68.6906 32.3585 70.8 35.4366L85.6906 55.546L100.691 35.546C102.613 32.8178 104.678 31.7803 108.128 32.7866L100.378 43.0616L89.8781 56.7335C88.6281 58.296 88.8 59.3647 89.95 60.8741L110 87.5116ZM10.025 58.2366L11.7812 49.5991C16.5625 32.5053 36.1563 25.4022 49.6688 35.9647C57.5656 42.1772 59.5281 50.9647 59.1375 60.8085H14.625C13.9562 78.5272 26.7094 89.221 42.9688 83.7647C48.6719 81.8491 52.0312 77.3835 53.7125 71.796C54.5656 68.996 55.9781 68.5585 58.6094 69.3585C57.2656 76.346 54.2344 82.1835 47.8281 85.8366C38.2562 91.3053 24.5937 89.5366 17.4062 81.9366C13.125 77.5272 11.3563 71.9397 10.5625 65.9647C10.4375 64.9772 10.1875 64.0366 10 63.0897C10.0167 61.473 10.025 59.8564 10.025 58.2397V58.2366ZM14.7063 57.0491H54.9313C54.6688 44.2366 46.6906 35.1366 35.7875 35.0585C23.8187 34.9647 15.225 43.8491 14.7063 57.0491Z" fill="white"/>
</g>
</svg>
