<svg width="253" height="169" viewBox="0 0 253 169" fill="none" xmlns="http://www.w3.org/2000/svg">
<path d="M139.25 6.80996L130.201 12.0794L136.73 22.6894L147.34 28.4024L159.582 32.4831L160.398 30.0347V12.7323L148.999 6.63403C145.939 4.99691 142.249 5.0635 139.25 6.80996Z" fill="url(#paint0_linear)"/>
<g opacity="0.8" filter="url(#filter0_f)">
<path fill-rule="evenodd" clip-rule="evenodd" d="M84.1724 111.898C80.1643 111.898 75.9397 110.921 72.6381 109.014L48.9923 95.3631C42.9575 91.8781 42.302 86.6071 47.5279 83.5882L54.0167 79.8417L72.6381 90.5942C75.9397 92.5005 80.1643 93.4748 84.1755 93.4748C87.495 93.4748 90.6642 92.8073 93.0306 91.4391L98.052 88.5405L174.351 44.4901L179.375 47.3887C185.41 50.8736 186.063 56.1446 180.84 59.1635L175.818 62.0622L93.0306 109.859C90.6642 111.227 87.495 111.898 84.1724 111.898Z" fill="#2E0059"/>
</g>
<path fill-rule="evenodd" clip-rule="evenodd" d="M84.1775 93.5465C80.1664 93.5465 75.9418 92.5722 72.6402 90.6659L54.0188 79.9134L48.9944 77.0148C45.6477 75.0814 43.9549 72.5977 44.003 70.2554C44.0421 68.3731 44 64.9242 44 64.9242L52.5515 62.3383L57.2181 59.6472L98.0541 83.2239L175.82 38.3256L180.842 35.4269C183.211 34.0588 184.375 32.2247 184.372 30.3033C184.372 30.3033 184.387 33.4124 184.372 35.7367C184.354 37.64 183.196 39.4562 180.842 40.8153L175.82 43.7139L174.353 44.5618L98.0541 88.6122L93.0327 91.5108C90.6663 92.8789 87.4971 93.5465 84.1775 93.5465Z" fill="url(#paint1_linear)"/>
<path d="M98.0505 83.141L175.817 38.2427L130.314 11.9718L52.5479 56.8702L98.0505 83.141Z" fill="#5100D1"/>
<path fill-rule="evenodd" clip-rule="evenodd" d="M100.762 73.6803H100.738H100.762ZM159.203 40.1058L159.417 39.7389V39.7089C159.426 39.8622 159.353 40.0186 159.203 40.1058Z" fill="url(#paint2_linear)"/>
<path d="M169.647 39.1456C169.879 39.0133 170.153 38.7818 170.153 38.448C170.153 38.1083 169.87 37.7535 169.386 37.4708L131.605 15.6591C130.6 15.0758 129.079 15.0036 128.213 15.5058L58.445 55.7856C58.2135 55.9179 57.9399 56.1494 57.9399 56.4862C57.9399 56.8229 58.2195 57.1777 58.7066 57.4604L96.4877 79.2751C97.4949 79.8554 99.0194 79.9276 99.8824 79.4255L169.647 39.1456ZM96.2441 79.7021L58.463 57.8873C57.8166 57.5145 57.4497 57.0033 57.4497 56.4862C57.4497 56.0412 57.7143 55.6412 58.1984 55.3616L127.966 15.0787C128.986 14.4954 130.691 14.5616 131.851 15.2321L169.632 37.0438C170.273 37.4167 170.646 37.9278 170.646 38.448C170.646 38.89 170.381 39.293 169.894 39.5726L100.126 79.8524C99.6629 80.12 99.0555 80.2523 98.4211 80.2523C97.6664 80.2523 96.8725 80.0659 96.2441 79.7021Z" fill="#360066"/>
<path fill-rule="evenodd" clip-rule="evenodd" d="M175.818 38.327L159.418 28.8584V24.9525C160.119 24.5105 160.119 23.8309 159.418 23.3889V21.0406C160.119 20.5956 160.119 19.916 159.418 19.474V12.1312L179.375 23.6535C182.67 25.5568 184.363 27.9954 184.369 30.3047C184.372 32.2261 183.209 34.0602 180.839 35.4283L175.818 38.327Z" fill="url(#paint3_linear)"/>
<path fill-rule="evenodd" clip-rule="evenodd" d="M93.0306 86.0932L98.052 83.1946L52.5494 56.9237L47.5279 59.8223C42.302 62.8412 42.9575 68.1122 48.9923 71.5971L72.6381 85.2483C78.6729 88.7332 87.8047 89.112 93.0306 86.0932Z" fill="url(#paint4_linear)"/>
<path d="M68.7307 77.3501C71.4891 77.3501 73.7251 76.1318 73.7251 74.6289C73.7251 73.126 71.4891 71.9077 68.7307 71.9077C65.9724 71.9077 63.7363 73.126 63.7363 74.6289C63.7363 76.1318 65.9724 77.3501 68.7307 77.3501Z" fill="#6533DA"/>
<path fill-rule="evenodd" clip-rule="evenodd" d="M65.8823 73.5823C65.317 73.91 64.9953 74.3009 64.9953 74.6558C64.9953 75.0106 65.317 75.4044 65.8823 75.7292C67.4218 76.6162 70.0258 76.6162 71.5653 75.7292C72.1276 75.4044 72.4523 75.0106 72.4523 74.6558C72.4523 74.3009 72.1276 73.91 71.5653 73.5823C70.7955 73.1403 69.7581 72.9178 68.7238 72.9178C67.6894 72.9178 66.6521 73.1403 65.8823 73.5823ZM64.8991 77.431C63.7084 76.7455 63.0288 75.7322 63.0288 74.6558C63.0288 73.5793 63.7084 72.566 64.8991 71.8804C67.04 70.6416 70.4046 70.6416 72.5485 71.8804C73.7362 72.566 74.4187 73.5793 74.4187 74.6558C74.4187 75.7322 73.7362 76.7455 72.5485 77.431C71.4751 78.0505 70.1009 78.3602 68.7238 78.3602C67.3466 78.3602 65.9695 78.0505 64.8991 77.431Z" fill="#1EF29B"/>
<path fill-rule="evenodd" clip-rule="evenodd" d="M159.418 21.0304V19.4638C160.119 19.9058 160.119 20.5854 159.418 21.0304Z" fill="url(#paint5_linear)"/>
<path fill-rule="evenodd" clip-rule="evenodd" d="M163.295 24.953C164.079 25.407 165.351 25.407 166.139 24.953C166.924 24.499 166.924 23.7653 166.139 23.3112C165.351 22.8572 164.079 22.8572 163.295 23.3112C162.51 23.7653 162.51 24.499 163.295 24.953Z" fill="url(#paint6_linear)"/>
<path fill-rule="evenodd" clip-rule="evenodd" d="M157.722 24.953C158.507 25.407 159.779 25.407 160.566 24.953C161.351 24.499 161.351 23.7653 160.566 23.3112C159.779 22.8572 158.507 22.8572 157.722 23.3112C156.937 23.7653 156.937 24.499 157.722 24.953Z" fill="url(#paint7_linear)"/>
<path fill-rule="evenodd" clip-rule="evenodd" d="M79.5183 79.1503C80.3031 79.6013 81.575 79.6013 82.3628 79.1503C83.1475 78.6963 83.1475 77.9596 82.3628 77.5086C81.575 77.0545 80.3031 77.0545 79.5183 77.5086C78.7335 77.9596 78.7335 78.6963 79.5183 79.1503Z" fill="url(#paint8_linear)"/>
<path fill-rule="evenodd" clip-rule="evenodd" d="M163.295 19.3262C162.51 19.7803 162.51 20.517 163.295 20.968C164.079 21.422 165.351 21.422 166.139 20.968C166.924 20.517 166.924 19.7803 166.139 19.3262C165.351 18.8722 164.079 18.8722 163.295 19.3262Z" fill="url(#paint9_linear)"/>
<path fill-rule="evenodd" clip-rule="evenodd" d="M157.722 19.3261C156.937 19.7802 156.937 20.5169 157.722 20.9679C158.507 21.4219 159.779 21.4219 160.566 20.9679C161.351 20.5169 161.351 19.7802 160.566 19.3261C159.779 18.8721 158.507 18.8721 157.722 19.3261Z" fill="url(#paint10_linear)"/>
<path fill-rule="evenodd" clip-rule="evenodd" d="M159.418 24.8531V23.2895C160.119 23.7315 160.119 24.4111 159.418 24.8531Z" fill="url(#paint11_linear)"/>
<path fill-rule="evenodd" clip-rule="evenodd" d="M167.135 30.2392L169.979 28.5975L167.135 26.9557L164.291 28.5975L167.135 30.2392Z" fill="url(#paint12_linear)"/>
<path fill-rule="evenodd" clip-rule="evenodd" d="M53.0264 60.4012L53.8051 59.9532L54.614 60.4192L55.4228 59.9532L56.2016 60.4012L55.3928 60.8703L56.2016 61.3363L55.4228 61.7874L54.614 61.3183L53.8051 61.7874L53.0264 61.3363L53.8352 60.8703L53.0264 60.4012Z" fill="url(#paint13_linear)"/>
<path fill-rule="evenodd" clip-rule="evenodd" d="M51.3733 66.2385C52.1611 66.6926 53.433 66.6926 54.2177 66.2385C55.0025 65.7845 55.0025 65.0508 54.2177 64.5968C53.433 64.1428 52.1611 64.1428 51.3733 64.5968C50.5885 65.0508 50.5885 65.7845 51.3733 66.2385Z" fill="url(#paint14_linear)"/>
<path fill-rule="evenodd" clip-rule="evenodd" d="M58.1482 70.0651C58.933 70.5191 60.2079 70.5191 60.9926 70.0651C61.7774 69.611 61.7774 68.8774 60.9926 68.4234C60.2079 67.9693 58.933 67.9693 58.1482 68.4234C57.3634 68.8774 57.3634 69.611 58.1482 70.0651Z" fill="url(#paint15_linear)"/>
<path fill-rule="evenodd" clip-rule="evenodd" d="M58.1482 64.5968C57.3634 65.0508 57.3634 65.7845 58.1482 66.2385C58.933 66.6926 60.2079 66.6926 60.9926 66.2385C61.7774 65.7845 61.7774 65.0508 60.9926 64.5968C60.2079 64.1428 58.933 64.1428 58.1482 64.5968Z" fill="url(#paint16_linear)"/>
<path fill-rule="evenodd" clip-rule="evenodd" d="M51.3733 68.4234C50.5885 68.8774 50.5885 69.611 51.3733 70.0651C52.1611 70.5191 53.433 70.5191 54.2177 70.0651C55.0025 69.611 55.0025 68.8774 54.2177 68.4234C53.433 67.9693 52.1611 67.9693 51.3733 68.4234Z" fill="url(#paint17_linear)"/>
<path fill-rule="evenodd" clip-rule="evenodd" d="M100.742 73.7677C100.556 73.7677 100.366 73.7166 100.201 73.6203L68.2593 55.1703L100.201 73.6203C100.366 73.7166 100.556 73.7677 100.742 73.7677Z" fill="url(#paint18_linear)"/>
<path fill-rule="evenodd" clip-rule="evenodd" d="M68.1918 55.071L68.1557 55.0109L68.1196 55.0169L68.1557 55.0109L68.1918 55.071Z" fill="url(#paint19_linear)"/>
<path d="M148.931 17.733C151.689 17.733 153.925 16.5147 153.925 15.0118C153.925 13.5089 151.689 12.2906 148.931 12.2906C146.173 12.2906 143.937 13.5089 143.937 15.0118C143.937 16.5147 146.173 17.733 148.931 17.733Z" fill="url(#paint20_linear)"/>
<g opacity="0.8" filter="url(#filter1_f)">
<path fill-rule="evenodd" clip-rule="evenodd" d="M196.247 140.613C198.491 140.613 200.632 140.211 202.015 139.827C204.353 139.176 207.861 136.951 211.324 133.953C214.621 131.097 222.351 121.57 222.88 120.271C223.552 118.617 224.6 113.205 224.096 111.431C223.619 109.056 220.329 106.157 218.857 105.306C218.827 105.29 218.796 105.272 218.766 105.256C216.33 108.195 213.514 111.362 211.84 112.811C208.378 115.811 204.871 118.036 202.534 118.686C201.148 119.071 199.008 119.473 196.763 119.473C195.214 119.473 193.617 119.282 192.186 118.761C191.418 118.481 191.146 117.819 191.146 116.926V115.606C191.146 115.572 191.146 115.539 191.148 115.507V114.419C191.146 114.396 191.146 114.374 191.146 114.35C191.146 114.329 191.146 114.305 191.148 114.281V114.277C191.165 112.417 191.893 109.738 192.368 107.204C192.21 106.597 191.91 106.104 191.406 105.814C187.293 103.439 180.798 99.6886 180.798 99.6886C180.798 99.6886 174.304 95.9399 170.191 93.5649C170.187 93.5629 170.183 93.559 170.179 93.557C165.362 94.9307 160.179 96.4957 157.551 97.5067C152.358 99.5072 148.503 104.748 147.377 106.096C146.711 106.896 146.019 108.136 146.021 109.435L146.015 109.439C146.015 109.439 145.98 110.381 146.017 111.713C146.041 112.574 146.38 113.459 147.247 114.256C147.364 114.36 147.525 114.447 147.712 114.522L147.777 114.549C147.963 114.618 148.182 114.672 148.426 114.715L148.485 114.729V114.725C149.019 114.813 149.677 114.851 150.43 114.851C152.311 114.851 154.778 114.618 157.34 114.384C159.901 114.151 162.557 113.917 164.814 113.917C166.907 113.917 168.657 114.118 169.674 114.705C173.788 117.08 180.282 120.829 180.282 120.829C180.282 120.829 186.776 124.579 190.89 126.952C191.392 127.244 191.69 127.737 191.845 128.34C191.372 130.867 190.671 133.516 190.647 135.378L190.629 135.418V138.068C190.629 138.959 190.901 139.622 191.668 139.901C193.101 140.422 194.697 140.613 196.247 140.613ZM221.845 110.231C221.963 110.41 222.076 110.59 222.186 110.769H222.184C222.074 110.59 221.963 110.41 221.845 110.231Z" fill="#2E0059"/>
</g>
<path fill-rule="evenodd" clip-rule="evenodd" d="M196.247 118.546C198.491 118.546 200.632 118.144 202.015 117.759C204.353 117.109 207.861 114.884 211.324 111.886C214.621 109.03 222.351 99.5025 222.88 98.2037C223.552 96.5501 224.6 91.1379 224.096 89.3641C223.619 86.9891 220.298 84.79 218.826 83.9386C218.172 84.6386 218.233 83.9543 218.203 83.9386C215.767 86.8772 218.632 83.1124 216.958 84.561C213.495 87.5607 218.673 83.2881 216.336 83.9386C214.95 84.3229 217.958 84.561 215.714 84.561C214.164 84.561 215.9 85.0813 214.469 84.561C213.7 84.2811 212.601 86.6987 212.601 85.8059L210.734 86.4283C211.979 84.561 208.865 86.4598 208.867 86.4283V85.8059C206.045 83.6168 207.622 85.1834 207.622 85.1834C207.622 85.1834 208.244 84.561 209.489 84.561H208.867C209.157 83.7587 207.769 84.6058 208.244 82.0712C208.087 81.4642 198.167 73.0244 197.663 72.7346C193.549 70.3597 181.479 69.6224 181.479 69.6224C181.479 69.6224 176.5 69.6224 170.191 71.4976C170.187 71.4957 170.183 71.4917 170.179 71.4898C165.362 72.8635 160.179 74.4284 157.551 75.4395C152.358 77.44 148.503 82.6807 147.377 84.0288C146.711 84.829 146.019 86.0687 146.021 87.3676L146.015 87.3715C146.015 87.3715 145.98 88.3136 146.017 89.6459C146.041 90.5072 146.38 91.3922 147.247 92.1885C147.364 92.2929 147.525 92.3796 147.712 92.4545L147.777 92.4821C147.963 92.5511 148.182 92.6043 148.426 92.6476L148.485 92.6615V92.6575C149.019 92.7462 149.677 92.7836 150.43 92.7836C152.311 92.7836 154.778 92.5511 157.34 92.3165C159.901 92.084 162.557 91.8494 164.814 91.8494C166.907 91.8494 168.657 92.0505 169.674 92.6378C173.788 95.0128 180.282 98.7615 180.282 98.7615C180.282 98.7615 186.776 102.512 190.89 104.885C191.392 105.177 191.69 105.67 191.845 106.273C192.683 106.969 191.438 110.703 191.438 111.948V113.816V116.305C191.438 117.196 190.901 117.554 191.668 117.834C193.101 118.354 194.697 118.546 196.247 118.546ZM221.845 88.1638C221.963 88.3432 222.076 88.5225 222.186 88.7019H222.184C222.074 88.5225 221.963 88.3432 221.845 88.1638Z" fill="url(#paint21_linear)"/>
<path fill-rule="evenodd" clip-rule="evenodd" d="M202.534 118.73C204.872 118.08 208.378 115.855 211.841 112.855C213.514 111.406 216.33 108.239 218.767 105.301C221.13 102.449 223.136 99.8134 223.396 99.1749C224.068 97.5212 225.117 92.1091 224.612 90.3352C224.466 89.8188 223.978 89.6257 223.313 89.6257C223.124 89.6257 222.919 89.6415 222.704 89.671C223.215 90.4929 223.635 91.3089 223.804 92.0913C223.964 92.8245 223.903 93.5301 223.487 94.1845L223.302 94.4545C221.841 96.522 215.138 104.603 211.841 107.457C208.388 110.449 204.891 115.865 202.554 116.541L202.534 118.73ZM192.368 107.248C192.597 106.018 192.768 104.822 192.77 103.771C192.772 102.259 192.427 101.047 191.406 100.458C187.293 98.083 180.799 94.3343 180.799 94.3343C180.799 94.3343 174.304 90.5836 170.191 88.2106C169.596 87.8657 168.744 87.7218 167.722 87.7218C165.155 87.7218 161.495 88.6265 157.995 89.5311C154.493 90.4358 151.15 91.3404 149.216 91.3404C149.149 91.3404 149.084 91.3385 149.021 91.3365L149.002 93.6326C149.534 93.7213 150.188 93.7587 150.937 93.7587C152.819 93.7587 155.289 93.5242 157.853 93.2897C160.417 93.0551 163.076 92.8206 165.337 92.8206C167.418 92.8206 169.16 93.0197 170.179 93.6011C170.183 93.6031 170.187 93.607 170.191 93.609C174.304 95.9839 180.799 99.7326 180.799 99.7326C180.799 99.7326 187.293 103.483 191.406 105.858C191.911 106.148 192.21 106.641 192.368 107.248ZM223.396 93.7469C223.398 92.588 222.724 91.3365 221.906 90.081C222.724 91.3365 223.398 92.588 223.396 93.7469Z" fill="url(#paint22_linear)"/>
<path fill-rule="evenodd" clip-rule="evenodd" d="M149.002 93.598L149.022 91.3018C148.448 91.2821 148.017 91.1698 147.767 90.9412C146.876 90.1232 146.541 89.2126 146.533 88.3297C146.531 88.4223 146.517 88.8125 146.517 89.392C146.517 89.731 146.523 90.135 146.535 90.5824C146.558 91.4437 146.899 92.3287 147.767 93.1249C148.015 93.3516 148.439 93.5034 149.002 93.598Z" fill="url(#paint23_linear)"/>
<path fill-rule="evenodd" clip-rule="evenodd" d="M196.76 119.541C199.005 119.541 201.146 119.139 202.531 118.755L202.551 116.565C202.543 116.567 202.537 116.569 202.531 116.571C201.147 116.955 199.005 117.357 196.76 117.357C195.211 117.357 193.615 117.166 192.184 116.646C191.431 116.372 191.155 115.583 191.145 114.488V115.576C191.143 115.607 191.143 115.641 191.143 115.674V116.995C191.143 117.887 191.415 118.55 192.184 118.83C193.615 119.35 195.211 119.541 196.76 119.541ZM191.145 114.35V114.346V114.35Z" fill="url(#paint24_linear)"/>
<path d="M224.616 90.2979C224.141 87.9229 220.849 85.0236 219.377 84.1722C217.905 83.3227 216.131 83.4982 215.437 83.0981C214.745 82.698 207.818 78.699 207.818 78.699C207.818 78.699 200.892 74.6999 200.198 74.2998C199.506 73.8997 199.81 72.8749 198.337 72.0254C196.865 71.1759 191.843 69.2759 187.73 69L185.118 69.5026C186.638 69.6445 188.223 69.952 189.807 70.3008C192.882 70.9749 196.301 72.6009 196.865 72.9241C197.427 73.2493 197.817 74.0751 198.726 74.5994C199.636 75.1237 206.822 79.2745 206.822 79.2745C206.822 79.2745 214.008 83.4233 214.919 83.9475C215.827 84.4738 217.256 84.6985 217.82 85.0237C218.382 85.3489 221.196 87.3218 222.365 89.0976C222.968 90.0121 223.502 90.9266 223.747 91.8056L224.616 90.2979Z" fill="#5100D1"/>
<path d="M215.433 83.1022L214.915 83.9516C215.823 84.4779 217.252 84.7026 217.816 85.0278L219.373 84.1763C217.901 83.3269 216.127 83.5023 215.433 83.1022Z" fill="#6627FF"/>
<path d="M200.195 74.3137C199.504 73.9136 199.807 72.8887 198.335 72.0392L196.862 72.938C197.424 73.2632 197.814 74.089 198.723 74.6133L200.195 74.3137Z" fill="#3B00AD"/>
<path fill-rule="evenodd" clip-rule="evenodd" d="M223.303 94.481L223.488 94.211C223.904 93.5566 223.965 92.851 223.806 92.1178C223.532 91.29 223.027 90.4307 222.463 89.5734C221.261 87.7483 218.368 85.7182 217.788 85.3851C217.786 85.3832 217.782 85.3812 217.78 85.3792C217.779 85.3792 217.777 85.3792 217.775 85.3773C217.739 85.3615 217.688 85.3536 217.623 85.3516H217.55C217.315 85.3615 216.951 85.4344 216.505 85.5448C215.916 85.6926 215.187 85.9035 214.438 86.1144C213.086 86.4967 211.669 86.8771 210.9 86.8771C210.817 86.8771 210.74 86.8732 210.673 86.8633C210.589 86.8515 210.518 86.8318 210.462 86.8022C210.457 86.8003 210.453 86.7983 210.447 86.7943C209.512 86.2563 194.732 77.7222 193.798 77.1821C193.698 77.125 193.654 77.0343 193.654 76.918C193.66 76.0291 196.301 73.6483 196.299 73.053C196.299 73.0038 196.282 72.9663 196.242 72.9446C195.663 72.6096 192.147 70.9402 188.985 70.2445C188.01 70.0316 187.036 69.8325 186.074 69.6768C185.175 69.5566 184.294 69.4857 183.445 69.4857C182.617 69.4857 181.819 69.5527 181.06 69.7143C180.934 69.7399 180.77 69.7774 180.589 69.8207C180.995 69.7833 181.409 69.7675 181.831 69.7675C183.774 69.7675 185.871 70.1341 187.98 70.5874C188.104 70.613 188.232 70.6406 188.357 70.6682C191.518 71.362 195.036 73.0333 195.613 73.3684C196.193 73.7015 192.235 77.0658 193.17 77.6059C194.106 78.1459 208.886 86.6781 209.82 87.2181C209.92 87.2752 210.074 87.3009 210.273 87.3009C211.04 87.3009 212.457 86.9205 213.811 86.5381C215.163 86.1558 216.454 85.7734 216.97 85.7734C217.057 85.7734 217.12 85.7852 217.162 85.8069C217.739 86.142 220.634 88.172 221.835 89.9971C221.858 90.0346 221.884 90.07 221.908 90.1075C222.726 91.363 223.4 92.6145 223.398 93.7734C223.398 94.0139 223.368 94.2504 223.303 94.481Z" fill="url(#paint25_linear)"/>
<path fill-rule="evenodd" clip-rule="evenodd" d="M223.803 92.0488C223.633 91.2664 223.213 90.4504 222.703 89.6286C222.593 89.4492 222.478 89.2718 222.36 89.0925C221.191 87.3166 218.377 85.3437 217.815 85.0185C217.251 84.6933 215.822 84.4686 214.914 83.9424C214.003 83.4181 206.817 79.2694 206.817 79.2694C206.817 79.2694 199.631 75.1186 198.721 74.5943C197.812 74.07 197.422 73.2442 196.86 72.919C196.296 72.5938 192.877 70.9698 189.802 70.2957C188.549 70.0198 187.293 69.7714 186.071 69.6078C187.293 69.7714 188.549 70.0198 189.802 70.2957C192.877 70.9698 196.296 72.5938 196.86 72.919C197.422 73.2442 197.812 74.07 198.721 74.5943C199.631 75.1186 206.817 79.2694 206.817 79.2694C206.817 79.2694 214.003 83.4181 214.914 83.9424C215.822 84.4686 217.251 84.6933 217.815 85.0185C218.377 85.3437 221.191 87.3166 222.36 89.0925C223.02 90.0937 223.596 91.0969 223.803 92.0488Z" fill="url(#paint26_linear)"/>
<path fill-rule="evenodd" clip-rule="evenodd" d="M223.803 92.0488C223.596 91.0969 223.02 90.0937 222.36 89.0925C221.191 87.3166 218.377 85.3437 217.815 85.0185C217.251 84.6933 215.822 84.4686 214.914 83.9424C214.003 83.4181 206.817 79.2694 206.817 79.2694C206.817 79.2694 199.631 75.1186 198.721 74.5943C197.812 74.07 197.422 73.2442 196.86 72.919C196.296 72.5938 192.877 70.9698 189.802 70.2957C188.549 70.0198 187.293 69.7714 186.071 69.6078C187.033 69.7636 188.007 69.9626 188.982 70.1755C192.144 70.8712 195.66 72.5406 196.239 72.8757C196.279 72.8973 196.296 72.9348 196.296 72.984C196.298 73.5793 193.657 75.9601 193.652 76.849C193.652 76.9653 193.695 77.056 193.795 77.1131C194.73 77.6532 209.51 86.1873 210.444 86.7254C210.45 86.7293 210.454 86.7313 210.46 86.7332C210.515 86.7628 210.586 86.7825 210.67 86.7944C210.737 86.8042 210.814 86.8082 210.897 86.8082C211.666 86.8082 213.083 86.4277 214.435 86.0454C215.184 85.8345 215.913 85.6236 216.502 85.4758C216.948 85.3654 217.312 85.2925 217.547 85.2827H217.62C217.685 85.2846 217.736 85.2925 217.772 85.3083C217.774 85.3102 217.776 85.3102 217.778 85.3102C217.78 85.3122 217.784 85.3142 217.786 85.3162C218.365 85.6492 221.258 87.6793 222.461 89.5044C223.024 90.3617 223.529 91.2211 223.803 92.0488Z" fill="url(#paint27_linear)"/>
<path fill-rule="evenodd" clip-rule="evenodd" d="M183.917 79.0572C185.364 79.0572 186.812 78.7398 187.916 78.1013C190.126 76.8261 190.126 74.7586 187.916 73.4834C186.812 72.8448 185.364 72.5255 183.917 72.5255C182.469 72.5255 181.022 72.8448 179.916 73.4834C177.707 74.7586 177.707 76.8261 179.916 78.1013C181.022 78.7398 182.469 79.0572 183.917 79.0572Z" fill="#39F4A7"/>
<path fill-rule="evenodd" clip-rule="evenodd" d="M187.4 77.8682C185.474 78.9798 182.354 78.9798 180.428 77.8682C178.505 76.7586 178.505 74.9552 180.428 73.8455C182.354 72.7339 185.474 72.7339 187.4 73.8455C189.325 74.9552 189.325 76.7586 187.4 77.8682Z" fill="url(#paint28_linear)"/>
<path fill-rule="evenodd" clip-rule="evenodd" d="M187.057 77.6304C185.324 78.6316 182.514 78.6316 180.779 77.6304C179.047 76.6292 179.047 75.0071 180.779 74.0059C182.514 73.0046 185.324 73.0046 187.057 74.0059C188.791 75.0071 188.791 76.6292 187.057 77.6304Z" fill="url(#paint29_linear)"/>
<path fill-rule="evenodd" clip-rule="evenodd" d="M186.003 77.0146C184.852 77.6788 182.984 77.6788 181.831 77.0146C180.678 76.3484 180.678 75.2703 181.831 74.6041C182.984 73.9399 184.852 73.9399 186.003 74.6041C187.156 75.2703 187.156 76.3484 186.003 77.0146Z" fill="url(#paint30_linear)"/>
<path fill-rule="evenodd" clip-rule="evenodd" d="M197.206 96.6849C198.653 96.6849 200.102 96.3675 201.205 95.729C203.415 94.4538 203.415 92.3863 201.205 91.1091C200.102 90.4725 198.653 90.1532 197.206 90.1532C195.758 90.1532 194.309 90.4725 193.205 91.1091C190.996 92.3863 190.996 94.4538 193.205 95.729C194.309 96.3675 195.758 96.6849 197.206 96.6849Z" fill="#39F4A7"/>
<path fill-rule="evenodd" clip-rule="evenodd" d="M200.69 95.3763C198.764 96.4879 195.645 96.4879 193.719 95.3763C191.795 94.2647 191.795 92.4633 193.719 91.3516C195.645 90.24 198.764 90.24 200.69 91.3516C202.614 92.4633 202.614 94.2647 200.69 95.3763Z" fill="url(#paint31_linear)"/>
<path fill-rule="evenodd" clip-rule="evenodd" d="M200.346 95.2581C198.614 96.2593 195.803 96.2593 194.069 95.2581C192.334 94.2569 192.334 92.6348 194.069 91.6336C195.803 90.6323 198.614 90.6323 200.346 91.6336C202.081 92.6348 202.081 94.2569 200.346 95.2581Z" fill="url(#paint32_linear)"/>
<path fill-rule="evenodd" clip-rule="evenodd" d="M199.293 94.6417C198.142 95.3079 196.272 95.3079 195.121 94.6417C193.968 93.9775 193.968 92.8994 195.121 92.2333C196.272 91.5671 198.142 91.5671 199.293 92.2333C200.446 92.8994 200.446 93.9775 199.293 94.6417Z" fill="url(#paint33_linear)"/>
<path fill-rule="evenodd" clip-rule="evenodd" d="M210.784 91.6085C209.725 92.2194 208.011 92.2194 206.952 91.6085C205.894 90.9975 205.894 90.0061 206.952 89.3951C208.011 88.7841 209.725 88.7841 210.784 89.3951C211.842 90.0061 211.842 90.9975 210.784 91.6085Z" fill="url(#paint34_linear)"/>
<path fill-rule="evenodd" clip-rule="evenodd" d="M218.404 95.9837C217.346 96.5947 215.631 96.5947 214.573 95.9837C213.515 95.3727 213.515 94.3813 214.573 93.7723C215.631 93.1613 217.346 93.1613 218.404 93.7723C219.463 94.3813 219.463 95.3727 218.404 95.9837Z" fill="url(#paint35_linear)"/>
<path fill-rule="evenodd" clip-rule="evenodd" d="M214.573 91.6085C213.515 90.9975 213.515 90.0061 214.573 89.3951C215.631 88.7841 217.346 88.7841 218.404 89.3951C219.463 90.0061 219.463 90.9975 218.404 91.6085C217.346 92.2194 215.631 92.2194 214.573 91.6085Z" fill="url(#paint36_linear)"/>
<path fill-rule="evenodd" clip-rule="evenodd" d="M206.952 95.9837C205.894 95.3727 205.894 94.3813 206.952 93.7723C208.011 93.1613 209.725 93.1613 210.784 93.7723C211.842 94.3813 211.842 95.3727 210.784 95.9837C209.725 96.5947 208.011 96.5947 206.952 95.9837Z" fill="url(#paint37_linear)"/>
<path fill-rule="evenodd" clip-rule="evenodd" d="M210.784 90.6346C209.725 91.2456 208.011 91.2456 206.952 90.6346C205.894 90.0236 205.894 89.0322 206.952 88.4232C208.011 87.8122 209.725 87.8122 210.784 88.4232C211.842 89.0322 211.842 90.0236 210.784 90.6346Z" fill="#39F4A7"/>
<path fill-rule="evenodd" clip-rule="evenodd" d="M218.404 95.0111C217.346 95.6221 215.631 95.6221 214.573 95.0111C213.515 94.4001 213.515 93.4107 214.573 92.7997C215.631 92.1887 217.346 92.1887 218.404 92.7997C219.463 93.4107 219.463 94.4001 218.404 95.0111Z" fill="#39F4A7"/>
<path fill-rule="evenodd" clip-rule="evenodd" d="M214.573 90.6346C213.515 90.0236 213.515 89.0322 214.573 88.4232C215.631 87.8122 217.346 87.8122 218.404 88.4232C219.463 89.0322 219.463 90.0236 218.404 90.6346C217.346 91.2456 215.631 91.2456 214.573 90.6346Z" fill="#39F4A7"/>
<path fill-rule="evenodd" clip-rule="evenodd" d="M206.952 95.0111C205.894 94.4001 205.894 93.4107 206.952 92.7997C208.011 92.1887 209.725 92.1887 210.784 92.7997C211.842 93.4107 211.842 94.4001 210.784 95.0111C209.725 95.6221 208.011 95.6221 206.952 95.0111Z" fill="#39F4A7"/>
<path fill-rule="evenodd" clip-rule="evenodd" d="M186.555 86.2222L184.779 85.1973L186.555 84.1724C187.176 83.8137 187.176 83.2323 186.555 82.8736L185.731 82.3986C185.11 82.0399 184.103 82.0399 183.48 82.3986L181.706 83.4235L179.931 82.3986C179.308 82.0399 178.301 82.0399 177.68 82.3986L176.856 82.8736C176.235 83.2323 176.235 83.8137 176.856 84.1724L178.632 85.1973L176.856 86.2222C176.235 86.5809 176.235 87.1643 176.856 87.523L177.68 87.998C178.301 88.3567 179.308 88.3567 179.931 87.998L181.706 86.9731L183.48 87.998C184.103 88.3567 185.11 88.3567 185.731 87.998L186.555 87.523C187.176 87.1643 187.176 86.5809 186.555 86.2222Z" fill="url(#paint38_linear)"/>
<path fill-rule="evenodd" clip-rule="evenodd" d="M186.555 85.6144L184.779 84.5895L186.555 83.5646C187.176 83.2059 187.176 82.6245 186.555 82.2657L185.731 81.7908C185.11 81.4321 184.103 81.4321 183.48 81.7908L181.706 82.8157L179.931 81.7908C179.308 81.4321 178.301 81.4321 177.68 81.7908L176.856 82.2657C176.235 82.6245 176.235 83.2059 176.856 83.5646L178.632 84.5895L176.856 85.6144C176.235 85.9731 176.235 86.5545 176.856 86.9152L177.68 87.3882C178.301 87.7489 179.308 87.7489 179.931 87.3882L181.706 86.3653L183.48 87.3882C184.103 87.7489 185.11 87.7489 185.731 87.3882L186.555 86.9152C187.176 86.5545 187.176 85.9731 186.555 85.6144Z" fill="#39F4A7"/>
<path fill-rule="evenodd" clip-rule="evenodd" d="M177.207 86.6755C176.777 86.4271 176.777 86.0231 177.207 85.7767L179.327 84.5508L177.207 83.3269C176.777 83.0785 176.777 82.6745 177.207 82.4261L178.029 81.9511C178.458 81.7028 179.158 81.7028 179.588 81.9511L181.71 83.1771L183.831 81.9511C184.261 81.7028 184.96 81.7028 185.39 81.9511L186.212 82.4261C186.642 82.6745 186.642 83.0785 186.212 83.3269L184.091 84.5508L186.212 85.7767C186.642 86.0231 186.642 86.4271 186.212 86.6755L185.39 87.1505C184.96 87.3988 184.261 87.3988 183.831 87.1505L181.71 85.9265L179.588 87.1505C179.158 87.3988 178.458 87.3988 178.029 87.1505L177.207 86.6755Z" fill="url(#paint39_linear)"/>
<defs>
<filter id="filter0_f" x="0" y="0.490112" width="228.366" height="155.408" filterUnits="userSpaceOnUse" color-interpolation-filters="sRGB">
<feFlood flood-opacity="0" result="BackgroundImageFix"/>
<feBlend mode="normal" in="SourceGraphic" in2="BackgroundImageFix" result="shape"/>
<feGaussianBlur stdDeviation="22" result="effect1_foregroundBlur"/>
</filter>
<filter id="filter1_f" x="118" y="65.557" width="134.228" height="103.056" filterUnits="userSpaceOnUse" color-interpolation-filters="sRGB">
<feFlood flood-opacity="0" result="BackgroundImageFix"/>
<feBlend mode="normal" in="SourceGraphic" in2="BackgroundImageFix" result="shape"/>
<feGaussianBlur stdDeviation="14" result="effect1_foregroundBlur"/>
</filter>
<linearGradient id="paint0_linear" x1="132.863" y1="31.3011" x2="157.783" y2="6.10434" gradientUnits="userSpaceOnUse">
<stop stop-color="white"/>
<stop offset="1" stop-color="#A691F4"/>
</linearGradient>
<linearGradient id="paint1_linear" x1="184.378" y1="53.0261" x2="44.0012" y2="53.0261" gradientUnits="userSpaceOnUse">
<stop stop-color="#671CE6"/>
<stop offset="0.7" stop-color="#B563FE"/>
<stop offset="0.8" stop-color="#900DB5"/>
<stop offset="1" stop-color="#8A00AA"/>
</linearGradient>
<linearGradient id="paint2_linear" x1="159.417" y1="47.2621" x2="68.1231" y2="47.2621" gradientUnits="userSpaceOnUse">
<stop stop-color="#00DFFF"/>
<stop offset="1" stop-color="#00ACFF"/>
</linearGradient>
<linearGradient id="paint3_linear" x1="161.618" y1="37.2399" x2="184.433" y2="16.5154" gradientUnits="userSpaceOnUse">
<stop stop-color="white"/>
<stop offset="1" stop-color="#A691F4"/>
</linearGradient>
<linearGradient id="paint4_linear" x1="48.765" y1="86.8361" x2="72.9589" y2="46.8721" gradientUnits="userSpaceOnUse">
<stop stop-color="white"/>
<stop offset="1" stop-color="#A691F4"/>
</linearGradient>
<linearGradient id="paint5_linear" x1="159.942" y1="20.2456" x2="155.92" y2="20.2456" gradientUnits="userSpaceOnUse">
<stop stop-color="#420090"/>
<stop offset="1" stop-color="#520069"/>
</linearGradient>
<linearGradient id="paint6_linear" x1="166.725" y1="24.1321" x2="162.703" y2="24.1321" gradientUnits="userSpaceOnUse">
<stop stop-color="#420090"/>
<stop offset="1" stop-color="#520069"/>
</linearGradient>
<linearGradient id="paint7_linear" x1="161.153" y1="24.1321" x2="157.131" y2="24.1321" gradientUnits="userSpaceOnUse">
<stop stop-color="#420090"/>
<stop offset="1" stop-color="#520069"/>
</linearGradient>
<linearGradient id="paint8_linear" x1="82.9491" y1="78.3294" x2="78.9271" y2="78.3294" gradientUnits="userSpaceOnUse">
<stop stop-color="#420090"/>
<stop offset="1" stop-color="#520069"/>
</linearGradient>
<linearGradient id="paint9_linear" x1="166.725" y1="20.1471" x2="162.704" y2="20.1471" gradientUnits="userSpaceOnUse">
<stop stop-color="#420090"/>
<stop offset="1" stop-color="#520069"/>
</linearGradient>
<linearGradient id="paint10_linear" x1="161.153" y1="20.147" x2="157.131" y2="20.147" gradientUnits="userSpaceOnUse">
<stop stop-color="#420090"/>
<stop offset="1" stop-color="#520069"/>
</linearGradient>
<linearGradient id="paint11_linear" x1="159.942" y1="24.0713" x2="155.92" y2="24.0713" gradientUnits="userSpaceOnUse">
<stop stop-color="#420090"/>
<stop offset="1" stop-color="#520069"/>
</linearGradient>
<linearGradient id="paint12_linear" x1="169.976" y1="28.5975" x2="164.289" y2="28.5975" gradientUnits="userSpaceOnUse">
<stop stop-color="#420090"/>
<stop offset="1" stop-color="#520069"/>
</linearGradient>
<linearGradient id="paint13_linear" x1="56.2016" y1="60.8703" x2="53.0267" y2="60.8703" gradientUnits="userSpaceOnUse">
<stop stop-color="#420090"/>
<stop offset="1" stop-color="#520069"/>
</linearGradient>
<linearGradient id="paint14_linear" x1="54.8071" y1="65.4177" x2="50.7851" y2="65.4177" gradientUnits="userSpaceOnUse">
<stop stop-color="#420090"/>
<stop offset="1" stop-color="#520069"/>
</linearGradient>
<linearGradient id="paint15_linear" x1="61.582" y1="69.2442" x2="57.56" y2="69.2442" gradientUnits="userSpaceOnUse">
<stop stop-color="#420090"/>
<stop offset="1" stop-color="#520069"/>
</linearGradient>
<linearGradient id="paint16_linear" x1="61.582" y1="65.4177" x2="57.56" y2="65.4177" gradientUnits="userSpaceOnUse">
<stop stop-color="#420090"/>
<stop offset="1" stop-color="#520069"/>
</linearGradient>
<linearGradient id="paint17_linear" x1="54.8071" y1="69.2442" x2="50.7851" y2="69.2442" gradientUnits="userSpaceOnUse">
<stop stop-color="#420090"/>
<stop offset="1" stop-color="#520069"/>
</linearGradient>
<linearGradient id="paint18_linear" x1="113.774" y1="-65.913" x2="113.774" y2="-205.82" gradientUnits="userSpaceOnUse">
<stop stop-color="#5000D1"/>
<stop offset="1" stop-color="#5000D1"/>
</linearGradient>
<linearGradient id="paint19_linear" x1="113.741" y1="-65.933" x2="113.741" y2="-205.87" gradientUnits="userSpaceOnUse">
<stop stop-color="#5000D1"/>
<stop offset="1" stop-color="#5000D1"/>
</linearGradient>
<linearGradient id="paint20_linear" x1="153.92" y1="15.0118" x2="143.931" y2="15.0118" gradientUnits="userSpaceOnUse">
<stop stop-color="#420090"/>
<stop offset="1" stop-color="#520069"/>
</linearGradient>
<linearGradient id="paint21_linear" x1="217.332" y1="116.515" x2="178.073" y2="56.6474" gradientUnits="userSpaceOnUse">
<stop stop-color="white"/>
<stop offset="1" stop-color="#A691F4"/>
</linearGradient>
<linearGradient id="paint22_linear" x1="146.516" y1="97.3281" x2="224.745" y2="97.3281" gradientUnits="userSpaceOnUse">
<stop stop-color="#671CE6"/>
<stop offset="0.6" stop-color="#B460FC"/>
<stop offset="0.9" stop-color="#8A00AA"/>
<stop offset="1" stop-color="#4F26E9"/>
</linearGradient>
<linearGradient id="paint23_linear" x1="146.517" y1="90.953" x2="149.045" y2="90.953" gradientUnits="userSpaceOnUse">
<stop stop-color="#6700BD"/>
<stop offset="1" stop-color="#5D00C8"/>
</linearGradient>
<linearGradient id="paint24_linear" x1="191.143" y1="116.943" x2="202.567" y2="116.943" gradientUnits="userSpaceOnUse">
<stop stop-color="#B664FF"/>
<stop offset="1" stop-color="#B664FF"/>
</linearGradient>
<linearGradient id="paint25_linear" x1="180.589" y1="81.9833" x2="223.886" y2="81.9833" gradientUnits="userSpaceOnUse">
<stop stop-color="#7021FF"/>
<stop offset="1" stop-color="#704DFF"/>
</linearGradient>
<linearGradient id="paint26_linear" x1="180.586" y1="80.8283" x2="223.883" y2="80.8283" gradientUnits="userSpaceOnUse">
<stop stop-color="#7C79FF"/>
<stop offset="1" stop-color="#8980FF"/>
</linearGradient>
<linearGradient id="paint27_linear" x1="181.215" y1="80.8283" x2="224.512" y2="80.8283" gradientUnits="userSpaceOnUse">
<stop stop-color="#7C79FF"/>
<stop offset="1" stop-color="#8980FF"/>
</linearGradient>
<linearGradient id="paint28_linear" x1="178.986" y1="75.8579" x2="188.843" y2="75.8579" gradientUnits="userSpaceOnUse">
<stop stop-color="#420090"/>
<stop offset="1" stop-color="#520069"/>
</linearGradient>
<linearGradient id="paint29_linear" x1="179.48" y1="75.8172" x2="188.358" y2="75.8172" gradientUnits="userSpaceOnUse">
<stop stop-color="#5600BD"/>
<stop offset="1" stop-color="#5200B0"/>
</linearGradient>
<linearGradient id="paint30_linear" x1="180.966" y1="75.8103" x2="186.868" y2="75.8103" gradientUnits="userSpaceOnUse">
<stop stop-color="#7C64FF"/>
<stop offset="0.6" stop-color="#7151FF"/>
<stop offset="1" stop-color="#7E83FF"/>
</linearGradient>
<linearGradient id="paint31_linear" x1="192.276" y1="93.364" x2="202.134" y2="93.364" gradientUnits="userSpaceOnUse">
<stop stop-color="#420090"/>
<stop offset="1" stop-color="#520069"/>
</linearGradient>
<linearGradient id="paint32_linear" x1="192.768" y1="93.4448" x2="201.646" y2="93.4448" gradientUnits="userSpaceOnUse">
<stop stop-color="#5600BD"/>
<stop offset="1" stop-color="#5200B0"/>
</linearGradient>
<linearGradient id="paint33_linear" x1="194.255" y1="93.4375" x2="200.157" y2="93.4375" gradientUnits="userSpaceOnUse">
<stop stop-color="#7C64FF"/>
<stop offset="0.6" stop-color="#7151FF"/>
<stop offset="1" stop-color="#7E83FF"/>
</linearGradient>
<linearGradient id="paint34_linear" x1="206.16" y1="90.5028" x2="211.579" y2="90.5028" gradientUnits="userSpaceOnUse">
<stop stop-color="#5600BD"/>
<stop offset="1" stop-color="#5200B0"/>
</linearGradient>
<linearGradient id="paint35_linear" x1="213.781" y1="94.878" x2="219.199" y2="94.878" gradientUnits="userSpaceOnUse">
<stop stop-color="#5600BD"/>
<stop offset="1" stop-color="#5200B0"/>
</linearGradient>
<linearGradient id="paint36_linear" x1="213.781" y1="90.5028" x2="219.199" y2="90.5028" gradientUnits="userSpaceOnUse">
<stop stop-color="#5600BD"/>
<stop offset="1" stop-color="#5200B0"/>
</linearGradient>
<linearGradient id="paint37_linear" x1="206.16" y1="94.878" x2="211.579" y2="94.878" gradientUnits="userSpaceOnUse">
<stop stop-color="#5600BD"/>
<stop offset="1" stop-color="#5200B0"/>
</linearGradient>
<linearGradient id="paint38_linear" x1="176.391" y1="85.1973" x2="187.021" y2="85.1973" gradientUnits="userSpaceOnUse">
<stop stop-color="#5600BD"/>
<stop offset="1" stop-color="#5200B0"/>
</linearGradient>
<linearGradient id="paint39_linear" x1="176.886" y1="84.5508" x2="186.535" y2="84.5508" gradientUnits="userSpaceOnUse">
<stop stop-color="#420090"/>
<stop offset="1" stop-color="#520069"/>
</linearGradient>
</defs>
</svg>
