<svg width="64" height="64" viewBox="0 0 64 64" fill="none" xmlns="http://www.w3.org/2000/svg">
<rect width="64" height="64" rx="16" fill="url(#paint0_linear)"/>
<path d="M14.9289 30.5676C13.5226 30.4358 12.1602 30.3039 10.666 30.216C11.545 23.0084 14.8849 17.4269 21.0815 13.7352C27.4978 9.91159 34.1777 9.77974 41.0335 12.6804C40.4182 13.9988 39.803 15.2734 39.2316 16.5479C27.7175 11.318 15.676 19.6683 14.9289 30.5676ZM48.8561 29.0733C49.6032 34.0396 48.5924 38.5663 45.5161 42.4778C42.4837 46.3892 38.4406 48.5427 33.4746 49.0701C33.6064 50.4765 33.6943 51.8389 33.8262 53.2013C44.1977 52.8497 55.3163 42.4338 53.031 28.2823C51.6687 28.5899 50.3063 28.8096 48.8561 29.0733ZM14.8849 33.5561C13.5665 33.688 12.2042 33.7759 10.7979 33.9077C11.1055 42.6096 18.7083 52.4102 30.1346 53.3332C30.2664 51.9268 30.3983 50.5644 30.4862 49.202C21.5649 47.7077 16.3791 42.5217 14.8849 33.5561ZM45.56 21.602C46.6148 22.9644 47.4498 24.5026 48.109 26.1727C49.4274 25.6893 50.7458 25.2058 52.1082 24.7224C50.5261 20.5033 47.9332 17.1632 44.2856 14.5262C43.4506 15.6689 42.6595 16.8116 41.8245 17.9982C43.2308 19.053 44.5053 20.2396 45.56 21.602ZM33.2548 45.7739H30.7938C30.3104 45.7739 29.8709 45.3784 29.8709 44.851V42.7854C28.4207 42.5217 27.1022 41.9504 25.9157 41.1593L24.4654 42.6096C24.1138 42.9612 23.5425 42.9612 23.1909 42.6096L21.4331 40.8517C21.0815 40.5001 21.0815 39.9287 21.4331 39.5771L22.8833 38.1268C22.0923 36.9402 21.521 35.6217 21.2573 34.1714H19.1918C18.7083 34.1714 18.2689 33.7759 18.2689 33.2485V30.7873C18.2689 30.3039 18.6644 29.8644 19.1918 29.8644H21.2573C21.521 28.4141 22.0923 27.0956 22.8833 25.909L21.477 24.5466C21.1254 24.195 21.1254 23.6237 21.477 23.2721L23.2349 21.5141C23.5865 21.1625 24.1578 21.1625 24.5094 21.5141L25.9596 22.9644C27.1462 22.1734 28.4646 21.602 29.9149 21.3383V19.2727C29.9149 18.7893 30.3104 18.3498 30.8377 18.3498H33.2988C33.7822 18.3498 34.2217 18.7453 34.2217 19.2727V21.3383C35.6719 21.602 36.9903 22.1734 38.1769 22.9644L39.6272 21.5141C39.9788 21.1625 40.5501 21.1625 40.9016 21.5141L42.6595 23.2721C43.0111 23.6237 43.0111 24.195 42.6595 24.5466L41.2093 25.9969C42.0003 27.1835 42.5716 28.502 42.8353 29.9523H44.9008C45.3842 29.9523 45.8237 30.3479 45.8237 30.8752V33.2924C45.8237 33.7759 45.4282 34.2154 44.9008 34.2154H42.8353C42.5716 35.6657 42.0003 36.9842 41.2093 38.1708L42.6595 39.6211C43.0111 39.9727 43.0111 40.544 42.6595 40.8956L40.9016 42.6536C40.5501 43.0052 39.9788 43.0052 39.6272 42.6536L38.1769 41.2033C36.9903 41.9943 35.6719 42.5657 34.2217 42.8294V44.895C34.1338 45.3345 33.7383 45.7739 33.2548 45.7739ZM36.0235 32.8969C36.1553 32.7211 36.0235 32.5014 35.8477 32.5014H33.914V27.3593C33.914 27.1396 33.7383 26.9638 33.5185 26.9638H30.618C30.3983 26.9638 30.2225 27.1396 30.2225 27.3593V32.5014H28.2888C28.0691 32.5014 27.9812 32.7211 28.113 32.8969L31.8485 37.4676C31.9804 37.5994 32.2001 37.5994 32.3319 37.4676L36.0235 32.8969Z" fill="url(#paint1_linear)"/>
<defs>
<linearGradient id="paint0_linear" x1="0" y1="0" x2="64.9147" y2="0.941607" gradientUnits="userSpaceOnUse">
<stop stop-color="#12F282"/>
<stop offset="1" stop-color="#2CF2B8"/>
</linearGradient>
<linearGradient id="paint1_linear" x1="10.666" y1="10.6665" x2="56.7777" y2="14.7878" gradientUnits="userSpaceOnUse">
<stop stop-color="#4040BA"/>
<stop offset="1" stop-color="#10137B"/>
</linearGradient>
</defs>
</svg>
