<svg width="120" height="120" viewBox="0 0 120 120" fill="none" xmlns="http://www.w3.org/2000/svg">
<g style="mix-blend-mode:luminosity">
<path d="M59.836 14L20 37V83L59.836 106L99.672 83V37L59.836 14ZM55.7228 19.5392H55.7267C56.9134 20.4151 58.3495 20.8878 59.8245 20.8878C61.2995 20.8878 62.7356 20.4151 63.9223 19.5392L92.8027 36.2142C92.7446 36.7275 92.7446 37.2457 92.8027 37.759L63.9185 54.434C62.7322 53.5589 61.2967 53.0868 59.8226 53.0868C58.3484 53.0868 56.913 53.5589 55.7267 54.434L26.8387 37.759C26.8964 37.247 26.8964 36.73 26.8387 36.218L55.7228 19.5392ZM95.578 42.3667C95.9958 42.6733 96.4443 42.9302 96.9158 43.1372V76.4872C95.5636 77.077 94.4359 78.0847 93.6984 79.3624C92.9609 80.6401 92.6524 82.1205 92.818 83.5865L63.9338 100.261C63.5179 99.9568 63.0692 99.6996 62.596 99.4948L62.5615 66.325C63.9138 65.736 65.0417 64.7292 65.7799 63.4522C66.5181 62.1752 66.8277 60.6953 66.6632 59.2295L95.578 42.3667ZM24.094 42.5507L52.9782 59.2257C52.8125 60.6916 53.1211 62.1721 53.8586 63.4498C54.5961 64.7275 55.7237 65.7352 57.076 66.325V99.675C56.6007 99.882 56.156 100.143 55.7382 100.449L26.854 83.7743C27.0196 82.3084 26.7111 80.8279 25.9736 79.5502C25.236 78.2725 24.1084 77.2648 22.7562 76.675V43.325C23.2303 43.1167 23.6802 42.857 24.0978 42.5507H24.094Z" fill="white"/>
</g>
</svg>
