<svg width="120" height="120" viewBox="0 0 120 120" fill="none" xmlns="http://www.w3.org/2000/svg">
<g style="mix-blend-mode:luminosity">
<g style="mix-blend-mode:luminosity">
<path d="M19.8416 36.8118C11.701 48.5194 12.7078 63.7479 18.9326 76.2206C19.0765 76.5197 19.2347 76.8131 19.3871 77.1065L19.6748 77.6675C19.7323 77.7768 19.7956 77.8832 19.856 77.9897C19.9624 78.191 20.0717 78.3751 20.181 78.5707L20.7765 79.589L21.1159 80.1471L21.8063 81.2258L22.0997 81.6803C22.4248 82.1635 22.7556 82.6468 23.0979 83.1185L23.2935 83.3832C23.59 83.7907 23.893 84.1935 24.2025 84.5913L24.5476 85.0286L25.3876 86.0641L25.7098 86.4496C26.0924 86.9012 26.4864 87.3499 26.8805 87.7872C26.9208 87.8303 26.9381 87.8447 26.9496 87.862C27.3404 88.2858 27.7374 88.7039 28.1405 89.1161L28.523 89.5016L29.4723 90.4336L29.8606 90.8076C30.2878 91.2104 30.7223 91.6055 31.1637 91.9927L32.5905 93.2008L33.0795 93.5921L34.0661 94.363L34.5926 94.7657L35.7 95.5596L36.2178 95.9249C36.5716 96.1694 36.9312 96.4024 37.2936 96.6354L37.7596 96.9461C38.3149 97.2986 38.8759 97.6419 39.4424 97.9759L39.9084 98.2636L41.1741 98.9712C41.4042 99.0949 41.6401 99.2128 41.8731 99.3308L42.7763 99.7996L42.9863 99.9003L43.3603 100.079L44.7928 100.74L45.0948 100.875C45.6478 101.116 46.205 101.347 46.7661 101.569L47.1688 101.73L48.7452 102.314L48.9465 102.383C49.5286 102.583 50.1135 102.775 50.7012 102.958L51.127 103.085C51.7023 103.266 52.3236 103.487 52.9392 103.597C92.3306 110.779 103.768 79.9227 103.768 79.9227C94.1601 92.4414 77.1022 95.7437 60.9072 92.0675C60.2945 91.9294 59.6991 91.7396 59.1036 91.5612L58.6549 91.426C58.0726 91.247 57.4933 91.0581 56.9174 90.8593L56.6787 90.773C56.166 90.5911 55.6559 90.4022 55.1484 90.2064L54.7169 90.0338C54.1609 89.815 53.6094 89.5848 53.0629 89.3434L52.7321 89.1996L51.3369 88.5495L50.9342 88.3567C50.5718 88.1841 50.2151 87.9914 49.8555 87.7814L49.1364 87.4075C48.6991 87.1774 48.2734 86.93 47.8419 86.6826L47.4047 86.4381C46.8384 86.1037 46.2774 85.7604 45.7219 85.4083C45.5695 85.3105 45.4199 85.2069 45.2674 85.1062L44.0708 84.3094C43.9385 84.2231 43.7831 84.1253 43.6853 84.039L42.552 83.2192L42.0486 82.8395L41.0274 82.0398L40.5729 81.6745L39.3015 80.6016C39.2552 80.5611 39.2072 80.5227 39.1576 80.4865L37.82 79.2697L37.4461 78.9073L36.4911 77.958L36.1171 77.5841C35.7144 77.1727 35.3232 76.7585 34.9665 76.3356C34.9464 76.3155 34.9262 76.2954 34.909 76.2724C34.5017 75.8253 34.1027 75.3707 33.7123 74.9089L33.4247 74.5349L32.5617 73.4706L32.2741 73.0765L31.2788 71.7533C22.2522 59.5222 19.0247 42.6138 26.1988 28.7489L19.8416 36.8118ZM45.1265 26.951C39.2353 35.4282 39.5546 46.7992 44.1484 55.7395C44.9182 57.2463 45.7889 58.6994 46.7546 60.0889C47.6377 61.3546 48.6157 62.859 49.7865 63.8744C50.2122 64.3433 50.6552 64.7949 51.1097 65.2465L51.4549 65.5917C51.8945 66.0205 52.3444 66.4386 52.804 66.8459C52.8241 66.8603 52.8385 66.8804 52.8615 66.8948C53.385 67.355 53.9143 67.7578 54.4522 68.2123L54.8089 68.4913C55.3486 68.9075 55.8992 69.3094 56.4601 69.6966L56.509 69.7311C56.7564 69.9037 57.0095 70.0619 57.2626 70.2287C57.3834 70.3064 57.4985 70.3898 57.6193 70.4646C58.0215 70.7226 58.4291 70.9719 58.8419 71.2125L59.0145 71.3132L60.096 71.8885C60.2226 71.9604 60.3837 72.0208 60.4815 72.0898L61.238 72.4811C61.2754 72.5012 61.3157 72.5156 61.3531 72.5328C61.872 72.7912 62.3976 73.0358 62.9294 73.2664L63.2746 73.4102C63.7031 73.5921 64.1346 73.7666 64.5691 73.9337L65.1214 74.1351C65.5152 74.2782 65.9113 74.4154 66.3094 74.5464L66.8473 74.719C67.414 74.8916 67.9979 75.1217 68.5646 75.2167C98.9783 80.2564 106 56.8067 106 56.8067C99.6716 65.9254 87.4175 70.269 74.3349 66.8747C73.7567 66.7225 73.1822 66.5566 72.6119 66.377C72.4393 66.3252 72.2667 66.2677 72.0941 66.2102L70.886 65.796L70.3107 65.5946C69.8764 65.427 69.4449 65.2525 69.0162 65.0711L68.6653 64.9272C68.1301 64.6946 67.6007 64.4491 67.0774 64.1908L66.2806 63.7881L65.8204 63.5522C65.4819 63.3685 65.1463 63.1796 64.8136 62.9856L64.5719 62.8504C64.1604 62.6093 63.7538 62.3599 63.3523 62.1025C63.2286 62.0248 63.1078 61.9385 62.9841 61.858L62.193 61.3344C61.6359 60.9483 61.0892 60.5473 60.5534 60.132L60.1795 59.8444C54.4264 55.3224 49.9159 49.1436 47.7585 42.1421C45.4975 34.8788 45.9837 26.7238 49.9015 20.1077L45.1265 26.951ZM66.3899 19.5813C62.9208 24.7159 62.5756 31.0386 64.9862 36.6824C67.5262 42.6742 72.7327 47.3717 78.8109 49.6269L79.5645 49.9145L79.8982 50.0181L80.9827 50.3057C97.7759 53.5505 102.327 41.6876 103.543 39.9415C99.5536 45.686 92.8484 47.0639 84.6215 45.0675C83.9714 44.9093 83.258 44.6734 82.6309 44.452C81.8261 44.1667 81.0368 43.8393 80.2664 43.4711C78.8042 42.7678 77.4157 41.9208 76.1213 40.9426C68.7602 35.3592 64.1865 24.6757 68.9903 16" fill="#62688F"/>
</g>
</g>
</svg>
