<svg width="279" height="279" viewBox="0 0 279 279" fill="none" xmlns="http://www.w3.org/2000/svg">
<g opacity="0.5" filter="url(#filter0_d)">
<mask id="mask0" style="mask-type:alpha" maskUnits="userSpaceOnUse" x="37" y="37" width="205" height="205">
<circle cx="139.184" cy="139.184" r="101.89" transform="rotate(30 139.184 139.184)" fill="url(#paint0_linear)"/>
</mask>
<g mask="url(#mask0)">
<rect x="10.5425" y="-62.5432" width="424.541" height="16.9816" rx="8.49081" transform="rotate(30 10.5425 -62.5432)" fill="url(#paint1_linear)"/>
<rect x="-6.43896" y="-33.1304" width="424.541" height="16.9816" rx="8.49081" transform="rotate(30 -6.43896 -33.1304)" fill="url(#paint2_linear)"/>
<rect x="-23.4209" y="-3.71729" width="424.541" height="16.9816" rx="8.49081" transform="rotate(30 -23.4209 -3.71729)" fill="url(#paint3_linear)"/>
<rect x="-40.4023" y="25.6956" width="424.541" height="16.9816" rx="8.49081" transform="rotate(30 -40.4023 25.6956)" fill="url(#paint4_linear)"/>
<rect x="-57.3838" y="55.1086" width="424.541" height="16.9816" rx="8.49081" transform="rotate(30 -57.3838 55.1086)" fill="url(#paint5_linear)"/>
<rect x="-74.3657" y="84.5217" width="424.541" height="16.9816" rx="8.49081" transform="rotate(30 -74.3657 84.5217)" fill="url(#paint6_linear)"/>
<rect x="-91.3472" y="113.935" width="424.541" height="16.9816" rx="8.49081" transform="rotate(30 -91.3472 113.935)" fill="url(#paint7_linear)"/>
</g>
</g>
<defs>
<filter id="filter0_d" x="13.2773" y="21.2771" width="251.813" height="251.813" filterUnits="userSpaceOnUse" color-interpolation-filters="sRGB">
<feFlood flood-opacity="0" result="BackgroundImageFix"/>
<feColorMatrix in="SourceAlpha" type="matrix" values="0 0 0 0 0 0 0 0 0 0 0 0 0 0 0 0 0 0 127 0" result="hardAlpha"/>
<feOffset dy="8"/>
<feGaussianBlur stdDeviation="12"/>
<feColorMatrix type="matrix" values="0 0 0 0 0 0 0 0 0 0 0 0 0 0 0 0 0 0 0.24 0"/>
<feBlend mode="normal" in2="BackgroundImageFix" result="effect1_dropShadow"/>
<feBlend mode="normal" in="SourceGraphic" in2="effect1_dropShadow" result="shape"/>
</filter>
<linearGradient id="paint0_linear" x1="139.184" y1="37.2942" x2="139.184" y2="241.074" gradientUnits="userSpaceOnUse">
<stop stop-color="#12F282"/>
<stop offset="1" stop-color="#2CF2B8"/>
</linearGradient>
<linearGradient id="paint1_linear" x1="222.813" y1="-62.5432" x2="222.813" y2="-45.5616" gradientUnits="userSpaceOnUse">
<stop stop-color="#12F282"/>
<stop offset="1" stop-color="#2CF2B8"/>
</linearGradient>
<linearGradient id="paint2_linear" x1="205.831" y1="-33.1304" x2="205.831" y2="-16.1487" gradientUnits="userSpaceOnUse">
<stop stop-color="#12F282"/>
<stop offset="1" stop-color="#2CF2B8"/>
</linearGradient>
<linearGradient id="paint3_linear" x1="188.849" y1="-3.71729" x2="188.849" y2="13.2643" gradientUnits="userSpaceOnUse">
<stop stop-color="#12F282"/>
<stop offset="1" stop-color="#2CF2B8"/>
</linearGradient>
<linearGradient id="paint4_linear" x1="171.868" y1="25.6956" x2="171.868" y2="42.6772" gradientUnits="userSpaceOnUse">
<stop stop-color="#12F282"/>
<stop offset="1" stop-color="#2CF2B8"/>
</linearGradient>
<linearGradient id="paint5_linear" x1="154.886" y1="55.1086" x2="154.886" y2="72.0903" gradientUnits="userSpaceOnUse">
<stop stop-color="#12F282"/>
<stop offset="1" stop-color="#2CF2B8"/>
</linearGradient>
<linearGradient id="paint6_linear" x1="137.905" y1="84.5217" x2="137.905" y2="101.503" gradientUnits="userSpaceOnUse">
<stop stop-color="#12F282"/>
<stop offset="1" stop-color="#2CF2B8"/>
</linearGradient>
<linearGradient id="paint7_linear" x1="120.923" y1="113.935" x2="120.923" y2="130.916" gradientUnits="userSpaceOnUse">
<stop stop-color="#12F282"/>
<stop offset="1" stop-color="#2CF2B8"/>
</linearGradient>
</defs>
</svg>
