<svg width="120" height="120" viewBox="0 0 120 120" fill="none" xmlns="http://www.w3.org/2000/svg">
<g style="mix-blend-mode:luminosity">
<g style="mix-blend-mode:luminosity">
<path fill-rule="evenodd" clip-rule="evenodd" d="M61.6901 106L59.2411 105.163C59.2411 105.163 59.5401 92.6778 55.0601 91.7819C52.0734 88.317 55.5379 -55.1788 66.2898 91.304C66.2898 91.304 62.5866 93.1557 61.9293 96.3221C61.2123 99.4287 61.6901 106 61.6901 106Z" fill="white"/>
<path fill-rule="evenodd" clip-rule="evenodd" d="M61.6901 106L59.2411 105.163C59.2411 105.163 59.5401 92.6778 55.0601 91.7819C52.0734 88.317 55.5379 -55.1788 66.2898 91.304C66.2898 91.304 62.5866 93.1557 61.9293 96.3221C61.2123 99.4287 61.6901 106 61.6901 106Z" fill="#A6A385"/>
<path fill-rule="evenodd" clip-rule="evenodd" d="M63.0047 93.9327C63.0047 93.9327 84.4491 79.834 79.4315 50.5013C74.5932 29.1743 63.1836 22.1848 61.9294 19.4963C60.5557 17.5847 59.2412 14.2394 59.2412 14.2394L60.1377 73.561C60.1377 73.6208 58.2855 91.7221 63.0047 93.9327Z" fill="white"/>
<path fill-rule="evenodd" clip-rule="evenodd" d="M63.0047 93.9327C63.0047 93.9327 84.4491 79.834 79.4315 50.5013C74.5932 29.1743 63.1836 22.1848 61.9294 19.4963C60.5557 17.5847 59.2412 14.2394 59.2412 14.2394L60.1377 73.561C60.1377 73.6208 58.2855 91.7221 63.0047 93.9327Z" fill="#499D4A"/>
<path fill-rule="evenodd" clip-rule="evenodd" d="M57.9867 94.7089C57.9867 94.7089 37.8563 80.9684 39.0512 56.7741C40.1857 32.5792 54.4026 20.6911 57.1501 18.5403C58.9424 16.6287 59.0022 15.9116 59.1218 14C60.376 16.6885 60.1373 54.2052 60.3162 58.6259C60.8538 75.6518 59.3605 91.4832 57.9867 94.7089Z" fill="white"/>
<path fill-rule="evenodd" clip-rule="evenodd" d="M57.9867 94.7089C57.9867 94.7089 37.8563 80.9684 39.0512 56.7741C40.1857 32.5792 54.4026 20.6911 57.1501 18.5403C58.9424 16.6287 59.0022 15.9116 59.1218 14C60.376 16.6885 60.1373 54.2052 60.3162 58.6259C60.8538 75.6518 59.3605 91.4832 57.9867 94.7089Z" fill="#58AA50"/>
</g>
</g>
</svg>
