<svg width="64" height="64" viewBox="0 0 64 64" fill="none" xmlns="http://www.w3.org/2000/svg">
<rect width="64" height="64" rx="16" fill="url(#paint0_linear)"/>
<path d="M33.1839 30.7439C33.1839 29.9518 32.5315 29.2994 31.7394 29.2994C30.9473 29.2994 30.2949 29.9518 30.2949 30.7439C30.2949 31.2565 30.5745 31.7225 30.9939 31.9554L30.5745 34.9842H32.9043L32.4849 31.9554C32.9043 31.7225 33.1839 31.2565 33.1839 30.7439Z" fill="url(#paint1_linear)"/>
<path d="M48.6075 14.296L34.0228 9.68297C32.5317 9.217 30.9008 9.217 29.4098 9.68297L14.8251 14.296C13.9397 14.5756 13.334 15.4143 13.334 16.3463V21.8446C13.334 34.4257 19.4847 46.2146 29.7825 53.437C30.3417 53.8564 31.0406 54.0428 31.693 54.0428C32.3454 54.0428 33.0443 53.8564 33.6034 53.437C38.7757 49.8491 42.8761 45.0963 45.7185 39.6445C48.5609 34.2393 50.0986 28.1352 50.0986 21.8446V16.3463C50.1452 15.4143 49.5394 14.5756 48.6075 14.296ZM25.915 21.3787C25.915 18.9091 27.9187 16.9054 30.3883 16.9054H33.0909C35.5605 16.9054 37.5641 18.9091 37.5641 21.3787V25.1064L35.0479 24.7802V21.3321C35.0479 20.2604 34.1626 19.375 33.0909 19.375H30.3883C29.3166 19.375 28.4312 20.2604 28.4312 21.3321V24.7802L25.915 25.1064V21.3787ZM40.1269 36.1032C40.1269 37.1283 39.3814 37.967 38.3563 38.1068L31.9726 38.899C31.8328 38.899 31.5532 38.899 31.5066 38.899L25.1229 38.1068C24.0978 37.967 23.3522 37.1283 23.3522 36.1032V28.3216C23.3522 27.2964 24.0978 26.4577 25.1229 26.3179L31.5066 25.5724C31.5998 25.5724 31.6464 25.5724 31.7396 25.5724C31.8328 25.5724 31.8794 25.5724 31.9726 25.5724L38.3563 26.3179C39.3348 26.4577 40.1269 27.2964 40.1269 28.3216V36.1032Z" fill="url(#paint2_linear)"/>
<defs>
<linearGradient id="paint0_linear" x1="0" y1="0" x2="64.9147" y2="0.941607" gradientUnits="userSpaceOnUse">
<stop stop-color="#12F282"/>
<stop offset="1" stop-color="#2CF2B8"/>
</linearGradient>
<linearGradient id="paint1_linear" x1="30.2949" y1="29.2994" x2="33.4356" y2="29.4421" gradientUnits="userSpaceOnUse">
<stop stop-color="#4040BA"/>
<stop offset="1" stop-color="#10137B"/>
</linearGradient>
<linearGradient id="paint2_linear" x1="13.334" y1="9.3335" x2="53.172" y2="12.2616" gradientUnits="userSpaceOnUse">
<stop stop-color="#4040BA"/>
<stop offset="1" stop-color="#10137B"/>
</linearGradient>
</defs>
</svg>
