<svg width="64" height="64" viewBox="0 0 64 64" fill="none" xmlns="http://www.w3.org/2000/svg">
<rect width="64" height="64" rx="16" fill="url(#paint0_linear)"/>
<path d="M18.8689 25.8433H15.2236V36.8497H18.8689V25.8433Z" fill="url(#paint1_linear)"/>
<path d="M10.6655 20.3399C10.6655 21.3674 11.4857 22.1744 12.4882 22.1744H21.6014C22.6039 22.1744 23.4241 21.3674 23.4241 20.3399V11.1679C23.4241 10.159 22.6039 9.3335 21.6014 9.3335H12.4882C11.4857 9.3335 10.6655 10.159 10.6655 11.1679V20.3399Z" fill="url(#paint2_linear)"/>
<path d="M10.6655 51.5245C10.6655 52.552 11.4857 53.3589 12.4882 53.3589H21.6014C22.6039 53.3589 23.4241 52.552 23.4241 51.5245V42.3525C23.4241 41.3435 22.6039 40.5181 21.6014 40.5181H12.4882C11.4857 40.5181 10.6655 41.3435 10.6655 42.3525V51.5245Z" fill="url(#paint3_linear)"/>
<path d="M38.0057 45.104H27.0698V48.7728H38.0057V45.104Z" fill="url(#paint4_linear)"/>
<path d="M54.4084 11.1679C54.4084 10.159 53.5883 9.3335 52.5858 9.3335H43.4726C42.4701 9.3335 41.6499 10.159 41.6499 11.1679V20.3399C41.6499 21.3674 42.4701 22.1744 43.4726 22.1744H52.5858C53.5883 22.1744 54.4084 21.3674 54.4084 20.3399V11.1679Z" fill="url(#paint5_linear)"/>
<path d="M38.0057 13.9194H27.0698V17.5883H38.0057V13.9194Z" fill="url(#paint6_linear)"/>
<path d="M54.4084 42.3525C54.4084 41.3435 53.5883 40.5181 52.5858 40.5181H43.4726C42.4701 40.5181 41.6499 41.3435 41.6499 42.3525V51.5245C41.6499 52.552 42.4701 53.3589 43.4726 53.3589H52.5858C53.5883 53.3589 54.4084 52.552 54.4084 51.5245V42.3525Z" fill="url(#paint7_linear)"/>
<path d="M49.8543 25.8433H46.209V36.8497H49.8543V25.8433Z" fill="url(#paint8_linear)"/>
<defs>
<linearGradient id="paint0_linear" x1="0" y1="0" x2="64.9147" y2="0.941607" gradientUnits="userSpaceOnUse">
<stop stop-color="#12F282"/>
<stop offset="1" stop-color="#2CF2B8"/>
</linearGradient>
<linearGradient id="paint1_linear" x1="15.2236" y1="25.8433" x2="19.1913" y2="25.9607" gradientUnits="userSpaceOnUse">
<stop stop-color="#4040BA"/>
<stop offset="1" stop-color="#10137B"/>
</linearGradient>
<linearGradient id="paint2_linear" x1="10.6655" y1="9.3335" x2="24.4556" y2="10.5581" gradientUnits="userSpaceOnUse">
<stop stop-color="#4040BA"/>
<stop offset="1" stop-color="#10137B"/>
</linearGradient>
<linearGradient id="paint3_linear" x1="10.6655" y1="40.5181" x2="24.4556" y2="41.7427" gradientUnits="userSpaceOnUse">
<stop stop-color="#4040BA"/>
<stop offset="1" stop-color="#10137B"/>
</linearGradient>
<linearGradient id="paint4_linear" x1="27.0698" y1="45.104" x2="38.1936" y2="48.0675" gradientUnits="userSpaceOnUse">
<stop stop-color="#4040BA"/>
<stop offset="1" stop-color="#10137B"/>
</linearGradient>
<linearGradient id="paint5_linear" x1="41.6499" y1="9.3335" x2="55.44" y2="10.5581" gradientUnits="userSpaceOnUse">
<stop stop-color="#4040BA"/>
<stop offset="1" stop-color="#10137B"/>
</linearGradient>
<linearGradient id="paint6_linear" x1="27.0698" y1="13.9194" x2="38.1936" y2="16.8829" gradientUnits="userSpaceOnUse">
<stop stop-color="#4040BA"/>
<stop offset="1" stop-color="#10137B"/>
</linearGradient>
<linearGradient id="paint7_linear" x1="41.6499" y1="40.5181" x2="55.44" y2="41.7427" gradientUnits="userSpaceOnUse">
<stop stop-color="#4040BA"/>
<stop offset="1" stop-color="#10137B"/>
</linearGradient>
<linearGradient id="paint8_linear" x1="46.209" y1="25.8433" x2="50.1766" y2="25.9607" gradientUnits="userSpaceOnUse">
<stop stop-color="#4040BA"/>
<stop offset="1" stop-color="#10137B"/>
</linearGradient>
</defs>
</svg>
