<svg width="289" height="192" viewBox="0 0 289 192" fill="none" xmlns="http://www.w3.org/2000/svg">
<g opacity="0.8" filter="url(#filter0_f)">
<path d="M61.5067 116.525C41.5609 125.799 40.4092 142.69 58.8793 154.197C77.2709 165.638 108.453 167.401 128.399 158.127C148.341 148.783 149.493 131.892 131.026 120.455C121.789 114.667 109.452 111.363 96.8751 110.677C84.2945 109.921 71.4778 111.853 61.5067 116.525Z" fill="#2E0059"/>
</g>
<path d="M45.9106 114.497C45.9106 121.795 50.7345 129.052 60.3402 134.631C79.5937 145.747 110.802 145.747 130.055 134.631C139.661 129.052 144.485 121.795 144.485 114.497V100.822L45.9106 100.025V114.497Z" fill="url(#paint0_linear)"/>
<path d="M48.9976 99.8309V124.462C49.5069 125.203 50.0625 125.944 50.6644 126.685V99.7383L48.9976 99.8309Z" fill="#2E0059"/>
<path d="M54.7188 99.5325V130.646C55.2743 131.063 55.7836 131.526 56.3855 131.942V99.4399L54.7188 99.5325Z" fill="#2E0059"/>
<path d="M60.3652 99.3651V134.645C60.9208 134.923 61.4764 135.247 62.032 135.525V99.2725L60.3652 99.3651Z" fill="#2E0059"/>
<path d="M66.0117 99.0318V137.368C66.5673 137.6 67.1229 137.831 67.6785 138.063V98.9855L66.0117 99.0318Z" fill="#2E0059"/>
<path d="M71.6582 98.8671V139.565C72.2138 139.703 72.7694 139.889 73.325 140.028V98.8208L71.6582 98.8671Z" fill="#2E0059"/>
<path d="M77.3794 98.6123V141.023C77.935 141.162 78.4906 141.254 79.0462 141.393V98.5197L77.3794 98.6123Z" fill="#2E0059"/>
<path d="M84.4969 98.1708L83.0153 98.2171V141.97C83.5709 142.063 84.1265 142.109 84.6821 142.202V98.1708H84.4969Z" fill="#2E0059"/>
<path d="M88.6719 142.772V98.2317H90.2923V142.772H88.6719Z" fill="#2E0059"/>
<path d="M94.3184 142.911V98.2317H95.9851V142.911H94.3184Z" fill="#2E0059"/>
<path d="M100.04 142.679V98.2317H101.66V142.679H100.04Z" fill="#2E0059"/>
<path d="M105.686 98.2317V142.263C106.242 142.216 106.797 142.124 107.353 142.031V98.2317H105.686Z" fill="#2E0059"/>
<path d="M111.332 98.2317V141.337C111.888 141.244 112.443 141.105 112.999 140.966V98.2317H111.332Z" fill="#2E0059"/>
<path d="M116.979 98.2327V139.949C117.534 139.81 118.09 139.625 118.645 139.439V98.2327H116.979Z" fill="#2E0059"/>
<path d="M122.7 98.2327V138.051C123.255 137.819 123.811 137.634 124.366 137.402V98.2327H122.7Z" fill="#2E0059"/>
<path d="M128.346 98.2317V135.503C128.902 135.225 129.457 134.901 130.013 134.577V98.2317H128.346Z" fill="#2E0059"/>
<path d="M133.993 98.2317V131.984C134.595 131.568 135.104 131.151 135.659 130.688V98.2317H133.993Z" fill="#2E0059"/>
<path d="M139.639 98.2317V126.706C140.241 125.965 140.797 125.224 141.306 124.484V98.2317H139.639Z" fill="#2E0059"/>
<path d="M60.3111 81.2492C41.0564 92.312 41.1066 110.35 60.3644 121.484C79.539 132.551 110.796 132.556 130.051 121.493C149.297 110.356 149.246 92.3175 129.997 81.2586C120.364 75.6547 107.812 72.8802 95.2067 72.9053C82.5928 72.8559 69.9341 75.6806 60.3111 81.2492Z" fill="url(#paint1_linear)"/>
<path d="M71.2911 85.5759C58.1001 93.1548 58.1345 105.512 71.3276 113.14C84.4638 120.722 105.877 120.725 119.068 113.146C132.254 105.516 132.219 93.1586 119.032 85.5824C112.432 81.7432 103.833 79.8425 95.1975 79.8597C86.5559 79.8258 77.8837 81.761 71.2911 85.5759Z" fill="url(#paint2_linear)"/>
<path d="M125.586 117.528C108.776 127.231 81.5249 127.23 64.7174 117.528C47.9092 107.824 47.9101 92.0884 64.7174 82.3857C81.5257 72.6813 108.777 72.6829 125.585 82.3871C142.391 92.0903 142.391 107.824 125.586 117.528Z" stroke="#39F4A7" stroke-width="2" stroke-miterlimit="10"/>
<path d="M90.9661 108.705L81.6709 103.338L83.2561 102.423L92.7558 104.104L86.5503 100.521L88.0568 99.6512L97.3521 105.018L95.7219 105.959L86.41 104.335L92.4727 107.835L90.9661 108.705Z" fill="url(#paint3_linear)"/>
<path d="M99.0965 104.037L89.8013 98.6704L95.3103 95.4898L96.8811 96.3967L92.9911 98.6426L95.1981 99.9168L98.5597 97.976L100.131 98.8829L96.7689 100.824L100.715 103.102L99.0965 104.037Z" fill="url(#paint4_linear)"/>
<path d="M107.74 99.0407L100.016 94.5811L97.6211 95.9637L96.0503 95.0568L102.447 91.3634L104.018 92.2703L101.635 93.6464L109.359 98.106L107.74 99.0407Z" fill="url(#paint5_linear)"/>
<g opacity="0.8" filter="url(#filter1_f)">
<path d="M160.278 63.074C140.332 72.3479 139.181 89.2389 157.651 100.746C176.042 112.187 207.224 113.95 227.17 104.676C247.112 95.3322 248.264 78.4412 229.798 67.0043C220.561 61.2156 208.224 57.9116 195.647 57.2258C183.066 56.4697 170.249 58.402 160.278 63.074Z" fill="#2E0059"/>
</g>
<path d="M144.682 61.046C144.682 68.3446 149.506 75.6014 159.112 81.1802C178.365 92.296 209.573 92.296 228.827 81.1802C238.433 75.6014 243.256 68.3446 243.256 61.046V47.3714L144.682 46.5745V61.046Z" fill="url(#paint6_linear)"/>
<path d="M147.769 46.3801V71.0116C148.278 71.7524 148.834 72.4932 149.436 73.234V46.2875L147.769 46.3801Z" fill="#2E0059"/>
<path d="M153.49 46.0817V77.1952C154.046 77.6119 154.555 78.0749 155.157 78.4916V45.9891L153.49 46.0817Z" fill="#2E0059"/>
<path d="M159.137 45.9143V81.1947C159.692 81.4725 160.248 81.7966 160.804 82.0744V45.8217L159.137 45.9143Z" fill="#2E0059"/>
<path d="M164.783 45.581V83.9172C165.339 84.1487 165.894 84.3802 166.45 84.6117V45.5347L164.783 45.581Z" fill="#2E0059"/>
<path d="M170.43 45.4163V86.1138C170.985 86.2527 171.541 86.4379 172.096 86.5768V45.37L170.43 45.4163Z" fill="#2E0059"/>
<path d="M176.151 45.1614V87.572C176.706 87.7109 177.262 87.8035 177.818 87.9424V45.0688L176.151 45.1614Z" fill="#2E0059"/>
<path d="M183.268 44.72L181.787 44.7663V88.5196C182.342 88.6122 182.898 88.6585 183.454 88.7511V44.72H183.268Z" fill="#2E0059"/>
<path d="M187.443 89.3212V44.7809H189.064V89.3212H187.443Z" fill="#2E0059"/>
<path d="M193.09 89.4602V44.7809H194.757V89.4602H193.09Z" fill="#2E0059"/>
<path d="M198.811 89.2286V44.7809H200.432V89.2286H198.811Z" fill="#2E0059"/>
<path d="M204.458 44.7809V88.812C205.013 88.7657 205.569 88.6731 206.124 88.5805V44.7809H204.458Z" fill="#2E0059"/>
<path d="M210.104 44.7809V87.886C210.659 87.7934 211.215 87.6545 211.77 87.5156V44.7809H210.104Z" fill="#2E0059"/>
<path d="M215.75 44.7819V86.4979C216.306 86.359 216.861 86.1738 217.417 85.9886V44.7819H215.75Z" fill="#2E0059"/>
<path d="M221.471 44.7819V84.5996C222.027 84.3681 222.582 84.1829 223.138 83.9514V44.7819H221.471Z" fill="#2E0059"/>
<path d="M227.118 44.7809V82.0522C227.673 81.7744 228.229 81.4503 228.784 81.1262V44.7809H227.118Z" fill="#2E0059"/>
<path d="M232.764 44.7809V78.5334C233.366 78.1167 233.875 77.7 234.431 77.237V44.7809H232.764Z" fill="#2E0059"/>
<path d="M238.411 44.7809V73.2552C239.013 72.5144 239.568 71.7736 240.077 71.0329V44.7809H238.411Z" fill="#2E0059"/>
<path d="M159.083 27.7983C139.828 38.861 139.878 56.8993 159.136 68.0326C178.31 79.1001 209.567 79.1048 228.822 68.0421C248.068 56.9048 248.018 38.8666 228.769 27.8077C219.136 22.2038 206.584 19.4293 193.978 19.4544C181.364 19.405 168.706 22.2297 159.083 27.7983Z" fill="url(#paint7_linear)"/>
<path d="M169.072 32.5542C155.334 40.4474 155.37 53.3176 169.11 61.2611C182.791 69.1577 205.092 69.161 218.83 61.2678C232.562 53.3215 232.526 40.4513 218.792 32.561C211.919 28.5626 202.963 26.583 193.97 26.6009C184.97 26.5657 175.938 28.5811 169.072 32.5542Z" fill="url(#paint8_linear)"/>
<path d="M188.457 53.3093L179.162 47.9427L180.747 47.0275L190.247 48.7083L184.042 45.1256L185.548 44.2558L194.843 49.6224L193.213 50.5636L183.901 48.9393L189.964 52.4395L188.457 53.3093Z" fill="url(#paint9_linear)"/>
<path d="M196.588 48.6417L187.292 43.2751L192.801 40.0945L194.372 41.0015L190.482 43.2474L192.689 44.5215L196.051 42.5807L197.622 43.4876L194.26 45.4285L198.207 47.707L196.588 48.6417Z" fill="url(#paint10_linear)"/>
<path d="M205.231 43.6455L197.507 39.1858L195.112 40.5684L193.542 39.6615L199.939 35.9681L201.51 36.875L199.126 38.2511L206.85 42.7108L205.231 43.6455Z" fill="url(#paint11_linear)"/>
<path d="M224.357 64.077C207.547 73.7804 180.296 73.7788 163.489 64.0773C146.681 54.3731 146.682 38.6376 163.489 28.9349C180.297 19.2305 207.548 19.2321 224.356 28.9363C241.163 38.6395 241.163 54.3733 224.357 64.077Z" stroke="#39F4A7" stroke-width="2" stroke-miterlimit="10"/>
<defs>
<filter id="filter0_f" x="0.555664" y="63.7561" width="188.791" height="147.079" filterUnits="userSpaceOnUse" color-interpolation-filters="sRGB">
<feFlood flood-opacity="0" result="BackgroundImageFix"/>
<feBlend mode="normal" in="SourceGraphic" in2="BackgroundImageFix" result="shape"/>
<feGaussianBlur stdDeviation="22" result="effect1_foregroundBlur"/>
</filter>
<filter id="filter1_f" x="99.3271" y="10.3052" width="188.791" height="147.079" filterUnits="userSpaceOnUse" color-interpolation-filters="sRGB">
<feFlood flood-opacity="0" result="BackgroundImageFix"/>
<feBlend mode="normal" in="SourceGraphic" in2="BackgroundImageFix" result="shape"/>
<feGaussianBlur stdDeviation="22" result="effect1_foregroundBlur"/>
</filter>
<linearGradient id="paint0_linear" x1="81.329" y1="142.955" x2="81.329" y2="100.015" gradientUnits="userSpaceOnUse">
<stop stop-color="#671CE6"/>
<stop offset="0.7" stop-color="#B563FE"/>
<stop offset="0.8" stop-color="#900DB5"/>
<stop offset="1" stop-color="#8A00AA"/>
</linearGradient>
<linearGradient id="paint1_linear" x1="137.136" y1="72.5753" x2="104.793" y2="150.038" gradientUnits="userSpaceOnUse">
<stop stop-color="white"/>
<stop offset="1" stop-color="#A691F4"/>
</linearGradient>
<linearGradient id="paint2_linear" x1="91.386" y1="170.98" x2="106.269" y2="67.7603" gradientUnits="userSpaceOnUse">
<stop stop-color="white"/>
<stop offset="1" stop-color="#D8D8FD"/>
</linearGradient>
<linearGradient id="paint3_linear" x1="91.1433" y1="108.157" x2="92.0248" y2="100.828" gradientUnits="userSpaceOnUse">
<stop stop-color="#458BF4"/>
<stop offset="1" stop-color="#671CE6"/>
</linearGradient>
<linearGradient id="paint4_linear" x1="99.1964" y1="103.534" x2="100.257" y2="96.9214" gradientUnits="userSpaceOnUse">
<stop stop-color="#458BF4"/>
<stop offset="1" stop-color="#671CE6"/>
</linearGradient>
<linearGradient id="paint5_linear" x1="105.524" y1="99.875" x2="106.403" y2="92.5376" gradientUnits="userSpaceOnUse">
<stop stop-color="#458BF4"/>
<stop offset="1" stop-color="#671CE6"/>
</linearGradient>
<linearGradient id="paint6_linear" x1="180.101" y1="89.5039" x2="180.101" y2="46.5646" gradientUnits="userSpaceOnUse">
<stop stop-color="#671CE6"/>
<stop offset="0.7" stop-color="#B563FE"/>
<stop offset="0.8" stop-color="#900DB5"/>
<stop offset="1" stop-color="#8A00AA"/>
</linearGradient>
<linearGradient id="paint7_linear" x1="214.5" y1="-16.5002" x2="235" y2="65.9997" gradientUnits="userSpaceOnUse">
<stop stop-color="#5100D1"/>
<stop offset="1" stop-color="#D8D8FD"/>
</linearGradient>
<linearGradient id="paint8_linear" x1="190" y1="121.5" x2="205.5" y2="13.9997" gradientUnits="userSpaceOnUse">
<stop stop-color="white"/>
<stop offset="1" stop-color="#D8D8FD"/>
</linearGradient>
<linearGradient id="paint9_linear" x1="188.635" y1="52.7616" x2="189.516" y2="45.4327" gradientUnits="userSpaceOnUse">
<stop stop-color="#458BF4"/>
<stop offset="1" stop-color="#671CE6"/>
</linearGradient>
<linearGradient id="paint10_linear" x1="196.688" y1="48.1386" x2="197.748" y2="41.5261" gradientUnits="userSpaceOnUse">
<stop stop-color="#458BF4"/>
<stop offset="1" stop-color="#671CE6"/>
</linearGradient>
<linearGradient id="paint11_linear" x1="203.015" y1="44.4798" x2="203.894" y2="37.1423" gradientUnits="userSpaceOnUse">
<stop stop-color="#458BF4"/>
<stop offset="1" stop-color="#671CE6"/>
</linearGradient>
</defs>
</svg>
