<svg width="120" height="120" viewBox="0 0 120 120" fill="none" xmlns="http://www.w3.org/2000/svg">
<g style="mix-blend-mode:luminosity">
<g style="mix-blend-mode:luminosity">
<path d="M26.4024 96.8034L19 14H100.341L92.931 96.7904L59.6208 106L26.4024 96.8034Z" fill="#62688F"/>
<path opacity="0.7" d="M59.6709 98.9596L86.5872 91.5178L92.9199 20.7697H59.6709V98.9596Z" fill="#8A92B2"/>
<path d="M59.6707 51.4807H46.1957L45.2651 41.0813H59.6707V30.9257H34.1362L34.38 33.6502L36.8828 61.6361H59.6707V51.4807ZM59.6707 77.8556L59.6263 77.8675L48.285 74.8135L47.56 66.714H37.3378L38.7644 82.6596L59.6238 88.4346L59.6707 88.4216V77.8556Z" fill="#EBEBEB"/>
<path d="M59.6357 51.4807V61.6361H72.1749L70.9929 74.807L59.6357 77.8641V88.4296L80.5114 82.6596L80.6646 80.9438L83.0575 54.2077L83.306 51.4807H80.5619H59.6357ZM59.6357 30.9257V41.0813H84.2326L84.4369 38.7986L84.9008 33.6502L85.1444 30.9257H59.6357Z" fill="white"/>
</g>
</g>
</svg>
