<svg width="271" height="271" viewBox="0 0 271 271" fill="none" xmlns="http://www.w3.org/2000/svg">
<g opacity="0.5" filter="url(#filter0_d)">
<mask id="mask0" style="mask-type:alpha" maskUnits="userSpaceOnUse" x="33" y="33" width="205" height="205">
<circle cx="135.404" cy="135.404" r="101.89" transform="rotate(-25 135.404 135.404)" fill="url(#paint0_linear)"/>
</mask>
<g mask="url(#mask0)">
<rect x="-103.627" y="125.074" width="424.541" height="16.9816" rx="8.49081" transform="rotate(-25 -103.627 125.074)" fill="url(#paint1_linear)"/>
<rect x="-89.2734" y="155.856" width="424.541" height="16.9816" rx="8.49081" transform="rotate(-25 -89.2734 155.856)" fill="url(#paint2_linear)"/>
<rect x="-74.9199" y="186.637" width="424.541" height="16.9816" rx="8.49081" transform="rotate(-25 -74.9199 186.637)" fill="url(#paint3_linear)"/>
<rect x="-60.5664" y="217.418" width="424.541" height="16.9816" rx="8.49081" transform="rotate(-25 -60.5664 217.418)" fill="url(#paint4_linear)"/>
<rect x="-46.2129" y="248.199" width="424.541" height="16.9816" rx="8.49081" transform="rotate(-25 -46.2129 248.199)" fill="url(#paint5_linear)"/>
<rect x="-31.8594" y="278.98" width="424.541" height="16.9816" rx="8.49081" transform="rotate(-25 -31.8594 278.98)" fill="url(#paint6_linear)"/>
<rect x="-17.5059" y="309.762" width="424.541" height="16.9816" rx="8.49081" transform="rotate(-25 -17.5059 309.762)" fill="url(#paint7_linear)"/>
</g>
</g>
<defs>
<filter id="filter0_d" x="9.48975" y="17.4897" width="251.828" height="251.828" filterUnits="userSpaceOnUse" color-interpolation-filters="sRGB">
<feFlood flood-opacity="0" result="BackgroundImageFix"/>
<feColorMatrix in="SourceAlpha" type="matrix" values="0 0 0 0 0 0 0 0 0 0 0 0 0 0 0 0 0 0 127 0" result="hardAlpha"/>
<feOffset dy="8"/>
<feGaussianBlur stdDeviation="12"/>
<feColorMatrix type="matrix" values="0 0 0 0 0 0 0 0 0 0 0 0 0 0 0 0 0 0 0.24 0"/>
<feBlend mode="normal" in2="BackgroundImageFix" result="effect1_dropShadow"/>
<feBlend mode="normal" in="SourceGraphic" in2="effect1_dropShadow" result="shape"/>
</filter>
<linearGradient id="paint0_linear" x1="135.404" y1="33.5141" x2="135.404" y2="237.294" gradientUnits="userSpaceOnUse">
<stop stop-color="#12F282"/>
<stop offset="1" stop-color="#2CF2B8"/>
</linearGradient>
<linearGradient id="paint1_linear" x1="108.643" y1="125.074" x2="108.643" y2="142.056" gradientUnits="userSpaceOnUse">
<stop stop-color="#12F282"/>
<stop offset="1" stop-color="#2CF2B8"/>
</linearGradient>
<linearGradient id="paint2_linear" x1="122.997" y1="155.856" x2="122.997" y2="172.837" gradientUnits="userSpaceOnUse">
<stop stop-color="#12F282"/>
<stop offset="1" stop-color="#2CF2B8"/>
</linearGradient>
<linearGradient id="paint3_linear" x1="137.35" y1="186.637" x2="137.35" y2="203.619" gradientUnits="userSpaceOnUse">
<stop stop-color="#12F282"/>
<stop offset="1" stop-color="#2CF2B8"/>
</linearGradient>
<linearGradient id="paint4_linear" x1="151.704" y1="217.418" x2="151.704" y2="234.399" gradientUnits="userSpaceOnUse">
<stop stop-color="#12F282"/>
<stop offset="1" stop-color="#2CF2B8"/>
</linearGradient>
<linearGradient id="paint5_linear" x1="166.057" y1="248.199" x2="166.057" y2="265.181" gradientUnits="userSpaceOnUse">
<stop stop-color="#12F282"/>
<stop offset="1" stop-color="#2CF2B8"/>
</linearGradient>
<linearGradient id="paint6_linear" x1="180.411" y1="278.98" x2="180.411" y2="295.962" gradientUnits="userSpaceOnUse">
<stop stop-color="#12F282"/>
<stop offset="1" stop-color="#2CF2B8"/>
</linearGradient>
<linearGradient id="paint7_linear" x1="194.764" y1="309.762" x2="194.764" y2="326.743" gradientUnits="userSpaceOnUse">
<stop stop-color="#12F282"/>
<stop offset="1" stop-color="#2CF2B8"/>
</linearGradient>
</defs>
</svg>
