<svg width="94" height="100" viewBox="0 0 94 100" fill="none" xmlns="http://www.w3.org/2000/svg">
<path d="M93.9984 39.6152V90.6002C93.9957 95.7903 89.7887 99.9973 84.5986 100H9.39985C7.25735 100.003 5.17818 99.2703 3.51118 97.9255L1.36501 95.4837C0.470003 94.0122 -0.00182515 92.3223 5.3057e-06 90.6002V39.651L18.7997 55.5693L40.9389 74.3148C44.4464 77.2853 49.5878 77.2834 53.0926 74.3102L75.1987 55.5601L93.9984 39.6152Z" fill="url(#paint0_linear)"/>
<path d="M93.9984 39.6152L75.1987 55.5601V23.697L93.9984 39.6152Z" fill="#4040BA"/>
<path d="M93.9984 39.6152L75.1987 55.5601V23.697L93.9984 39.6152Z" fill="black" fill-opacity="0.2"/>
<path d="M75.1984 23.697V55.56L53.0922 74.3101C49.5875 77.2834 44.446 77.2852 40.9385 74.3147L18.7993 55.5692V7.45194C18.8002 3.33676 22.1361 0.000917953 26.2513 0H54.6784L55.0566 0.037636V12.6898C55.0566 16.805 58.3934 20.1417 62.5086 20.1417H75.1984V23.697Z" fill="#2CF2B8"/>
<path d="M75.1986 20.0995V20.1417H62.5088C58.3936 20.1417 55.0569 16.8049 55.0569 12.6897V0.0375977L55.0973 0.0421876L75.1986 20.0995Z" fill="url(#paint1_linear)"/>
<path d="M18.7997 23.7061V55.5691L0 39.6509L18.7997 23.7061Z" fill="#4040BA"/>
<path d="M18.7997 23.7061V55.5691L0 39.6509L18.7997 23.7061Z" fill="black" fill-opacity="0.2"/>
<path d="M92.6286 95.491C92.0595 96.4227 91.3324 97.248 90.4806 97.93C90.3759 97.8667 90.2805 97.7896 90.196 97.7024L66.6725 73.7676C66.0355 73.1196 66.0437 72.0786 66.6918 71.4416C67.339 70.8036 68.3808 70.8128 69.0179 71.4599L92.5414 95.3946C92.5717 95.4249 92.6001 95.458 92.6286 95.491Z" fill="#4040BA"/>
<path d="M27.1959 73.763L3.80008 97.6904C3.71287 97.7794 3.61557 97.8584 3.51092 97.9254L1.36475 95.4836C1.39137 95.4506 1.41891 95.4221 1.44736 95.3918L24.8432 71.4645C25.484 70.8448 26.5001 70.8476 27.1372 71.47C27.7743 72.0923 27.8009 73.1085 27.1959 73.763Z" fill="#4040BA"/>
<path d="M63.4492 42.9502C63.4492 33.8652 56.0845 26.5005 46.9995 26.5005C37.9145 26.5005 30.5498 33.8652 30.5498 42.9502C30.5498 52.0352 37.9145 59.3999 46.9995 59.3999C56.0845 59.3999 63.4492 52.0352 63.4492 42.9502Z" fill="#6FE3FF"/>
<path d="M46.9992 26.5005C54.6568 26.5032 61.3 31.7907 63.0194 39.2527C64.7387 46.7147 61.0788 54.3769 54.1951 57.7293C47.3104 61.0825 39.0222 59.2393 34.2076 53.2854C29.392 47.3307 29.325 38.8405 34.0442 32.8105C37.1625 28.8266 41.9404 26.4996 46.9992 26.5005Z" fill="#4040BA"/>
<path d="M43.9903 48.8866C43.5084 48.8866 43.0503 48.6763 42.7382 48.3092L38.2099 43.0052C37.817 42.56 37.694 41.9377 37.8896 41.3759C38.0851 40.815 38.5679 40.4028 39.1527 40.2982C39.7374 40.1926 40.3332 40.4111 40.7114 40.8692L44.1968 44.9513L53.5003 37.3846C53.9538 36.9991 54.5807 36.8898 55.1388 37.0973C55.6969 37.3057 56.099 37.7995 56.1899 38.3879C56.2808 38.9773 56.0458 39.5684 55.5767 39.9356L45.0276 48.5175C44.7347 48.7562 44.3685 48.8866 43.9903 48.8866Z" fill="white"/>
<defs>
<linearGradient id="paint0_linear" x1="8.28653" y1="97.4941" x2="87.8837" y2="-12.1285" gradientUnits="userSpaceOnUse">
<stop stop-color="white"/>
<stop offset="1" stop-color="#4040BA"/>
</linearGradient>
<linearGradient id="paint1_linear" x1="65.6327" y1="9.38513" x2="57.0297" y2="17.9882" gradientUnits="userSpaceOnUse">
<stop stop-color="#2CF2B8"/>
<stop offset="1" stop-color="#4040BA"/>
</linearGradient>
</defs>
</svg>
