<svg width="120" height="120" viewBox="0 0 120 120" fill="none" xmlns="http://www.w3.org/2000/svg">
<g style="mix-blend-mode:luminosity">
<g style="mix-blend-mode:luminosity">
<path d="M101.45 17L65.5103 43.5928L72.1936 27.9208L101.45 17Z" fill="#E17726" stroke="#E17726" stroke-width="0.25" stroke-linecap="round" stroke-linejoin="round"/>
<path d="M18.5503 17L54.17 43.841L47.8069 27.9208L18.5503 17Z" fill="#E27625" stroke="#E27625" stroke-width="0.25" stroke-linecap="round" stroke-linejoin="round"/>
<path d="M88.5098 78.6606L78.9473 93.2689L99.4232 98.9067L105.289 78.9799L88.5098 78.6606Z" fill="#E27625" stroke="#E27625" stroke-width="0.25" stroke-linecap="round" stroke-linejoin="round"/>
<path d="M14.7466 78.9799L20.5765 98.9067L41.017 93.2689L31.4899 78.6606L14.7466 78.9799Z" fill="#E27625" stroke="#E27625" stroke-width="0.25" stroke-linecap="round" stroke-linejoin="round"/>
<path d="M39.9152 53.9813L34.2275 62.562L54.4902 63.4839L53.8149 41.6778L39.9152 53.9813Z" fill="#E27625" stroke="#E27625" stroke-width="0.25" stroke-linecap="round" stroke-linejoin="round"/>
<path d="M80.084 53.9825L65.9715 41.4307L65.5093 63.4851L85.7718 62.5632L80.084 53.9825Z" fill="#E27625" stroke="#E27625" stroke-width="0.25" stroke-linecap="round" stroke-linejoin="round"/>
<path d="M41.0176 93.2674L53.2817 87.3462L42.724 79.1201L41.0176 93.2674Z" fill="#E27625" stroke="#E27625" stroke-width="0.25" stroke-linecap="round" stroke-linejoin="round"/>
<path d="M66.7188 87.3462L78.9473 93.2674L77.2765 79.1201L66.7188 87.3462Z" fill="#E27625" stroke="#E27625" stroke-width="0.25" stroke-linecap="round" stroke-linejoin="round"/>
<path d="M78.9473 93.2683L66.7188 87.3471L67.714 95.2894L67.6072 98.6579L78.9473 93.2683Z" fill="#D5BFB2" stroke="#D5BFB2" stroke-width="0.25" stroke-linecap="round" stroke-linejoin="round"/>
<path d="M41.0176 93.2683L52.3932 98.6579L52.3221 95.2894L53.2817 87.3471L41.0176 93.2683Z" fill="#D5BFB2" stroke="#D5BFB2" stroke-width="0.25" stroke-linecap="round" stroke-linejoin="round"/>
<path d="M52.6059 73.8735L42.439 70.8953L49.6197 67.5977L52.6059 73.8735Z" fill="#233447" stroke="#233447" stroke-width="0.25" stroke-linecap="round" stroke-linejoin="round"/>
<path d="M67.3936 73.8735L70.3798 67.5977L77.5961 70.8953L67.3936 73.8735Z" fill="#233447" stroke="#233447" stroke-width="0.25" stroke-linecap="round" stroke-linejoin="round"/>
<path d="M41.0167 93.2689L42.7942 78.6606L31.4897 78.9799L41.0167 93.2689Z" fill="#CC6228" stroke="#CC6228" stroke-width="0.25" stroke-linecap="round" stroke-linejoin="round"/>
<path d="M77.2051 78.6606L78.947 93.2689L88.5095 78.9799L77.2051 78.6606Z" fill="#CC6228" stroke="#CC6228" stroke-width="0.25" stroke-linecap="round" stroke-linejoin="round"/>
<path d="M85.7718 62.5633L65.5093 63.4852L67.3933 73.8743L70.3795 67.5982L77.5958 70.8958L85.7718 62.5633Z" fill="#CC6228" stroke="#CC6228" stroke-width="0.25" stroke-linecap="round" stroke-linejoin="round"/>
<path d="M42.4392 70.8958L49.62 67.5982L52.6062 73.8743L54.4902 63.4852L34.2275 62.5633L42.4392 70.8958Z" fill="#CC6228" stroke="#CC6228" stroke-width="0.25" stroke-linecap="round" stroke-linejoin="round"/>
<path d="M34.228 62.5633L42.7242 79.1219L42.4396 70.8958L34.228 62.5633Z" fill="#E27525" stroke="#E27525" stroke-width="0.25" stroke-linecap="round" stroke-linejoin="round"/>
<path d="M77.5967 70.8958L77.2769 79.1219L85.773 62.5633L77.5967 70.8958Z" fill="#E27525" stroke="#E27525" stroke-width="0.25" stroke-linecap="round" stroke-linejoin="round"/>
<path d="M54.4907 63.4851L52.6064 73.8742L54.9882 86.1422L55.5215 69.9738L54.4907 63.4851Z" fill="#E27525" stroke="#E27525" stroke-width="0.25" stroke-linecap="round" stroke-linejoin="round"/>
<path d="M65.5101 63.4851L64.5146 69.9385L65.0124 86.1422L67.3941 73.8742L65.5101 63.4851Z" fill="#E27525" stroke="#E27525" stroke-width="0.25" stroke-linecap="round" stroke-linejoin="round"/>
<path d="M67.3939 73.8744L65.0122 86.1423L66.7186 87.348L77.2766 79.1219L77.5965 70.8958L67.3939 73.8744Z" fill="#F5841F" stroke="#F5841F" stroke-width="0.25" stroke-linecap="round" stroke-linejoin="round"/>
<path d="M42.439 70.8958L42.7235 79.1219L53.2813 87.348L54.9877 86.1423L52.6059 73.8744L42.439 70.8958Z" fill="#F5841F" stroke="#F5841F" stroke-width="0.25" stroke-linecap="round" stroke-linejoin="round"/>
<path d="M67.6079 98.6582L67.7144 95.2898L66.7903 94.5096H53.2108L52.3221 95.2898L52.3932 98.6582L41.0176 93.2687L44.999 96.5307L53.0685 102.098H66.8968L75.0019 96.5307L78.9477 93.2687L67.6079 98.6582Z" fill="#C0AC9D" stroke="#C0AC9D" stroke-width="0.25" stroke-linecap="round" stroke-linejoin="round"/>
<path d="M66.7184 87.3472L65.012 86.1418H54.9873L53.2812 87.3472L52.3213 95.2898L53.2101 94.5097H66.7895L67.7139 95.2898L66.7184 87.3472Z" fill="#161616" stroke="#161616" stroke-width="0.25" stroke-linecap="round" stroke-linejoin="round"/>
<path d="M102.978 45.3301L106 30.651L101.45 17L66.7188 42.7065L80.0848 53.9817L98.9611 59.4777L103.12 54.6201L101.308 53.308L104.187 50.6844L101.983 48.9824L104.862 46.784L102.978 45.3301Z" fill="#763E1A" stroke="#763E1A" stroke-width="0.25" stroke-linecap="round" stroke-linejoin="round"/>
<path d="M14 30.651L17.0572 45.3301L15.102 46.784L18.017 48.9824L15.813 50.6844L18.6924 53.308L16.8794 54.6201L21.0386 59.4777L39.915 53.9817L53.2811 42.7065L18.5502 17L14 30.651Z" fill="#763E1A" stroke="#763E1A" stroke-width="0.25" stroke-linecap="round" stroke-linejoin="round"/>
<path d="M98.9615 59.4785L80.0852 53.9828L85.773 62.5635L77.2769 79.1218L88.5102 78.98H105.289L98.9615 59.4785Z" fill="#F5841F" stroke="#F5841F" stroke-width="0.25" stroke-linecap="round" stroke-linejoin="round"/>
<path d="M39.9148 53.9828L21.0387 59.4785L14.7466 78.98H31.4899L42.7232 79.1218L34.2272 62.5635L39.9148 53.9828Z" fill="#F5841F" stroke="#F5841F" stroke-width="0.25" stroke-linecap="round" stroke-linejoin="round"/>
<path d="M65.5098 63.484L66.7185 42.706L72.1929 27.9205H47.8066L53.281 42.706L54.4897 63.484L54.9518 70.0081L54.9874 86.1411H65.0121L65.0477 70.0081L65.5098 63.484Z" fill="#F5841F" stroke="#F5841F" stroke-width="0.25" stroke-linecap="round" stroke-linejoin="round"/>
</g>
</g>
</svg>
