<svg width="42" height="50" viewBox="0 0 42 50" fill="none" xmlns="http://www.w3.org/2000/svg">
<path d="M30.7232 46.5784H6.93995C5.18781 46.5784 3.50743 45.8824 2.26848 44.6435C1.02953 43.4045 0.333496 41.7241 0.333496 39.972V6.93973C0.333496 5.18759 1.02953 3.50721 2.26848 2.26826C3.50743 1.02931 5.18781 0.333276 6.93995 0.333276H23.4825C24.5308 0.330701 25.5693 0.536074 26.5377 0.937509C27.5061 1.33894 28.3853 1.92847 29.1244 2.67196L34.9909 8.53849C35.7376 9.28069 36.329 10.1642 36.7305 11.1374C37.132 12.1106 37.3357 13.154 37.3296 14.2068V39.972C37.3296 41.7241 36.6336 43.4045 35.3946 44.6435C34.1557 45.8824 32.4753 46.5784 30.7232 46.5784Z" fill="#E1EAF6"/>
<path d="M30.7232 49.221H6.93995C5.18781 49.221 3.50743 48.525 2.26848 47.286C1.02953 46.0471 0.333496 44.3667 0.333496 42.6146V9.58231C0.333496 7.83017 1.02953 6.14979 2.26848 4.91084C3.50743 3.67189 5.18781 2.97585 6.93995 2.97585H23.4825C24.5308 2.97328 25.5693 3.17865 26.5377 3.58009C27.5061 3.98152 28.3853 4.57105 29.1244 5.31454L34.9909 11.1811C35.7376 11.9233 36.329 12.8068 36.7305 13.78C37.132 14.7532 37.3357 15.7966 37.3296 16.8494V42.6146C37.3296 44.3667 36.6336 46.0471 35.3946 47.286C34.1557 48.525 32.4753 49.221 30.7232 49.221Z" fill="url(#paint0_linear)"/>
<path d="M6.8212 37.8449C6.64688 37.6735 6.51083 37.4672 6.42201 37.2394C6.33319 37.0117 6.29362 36.7677 6.3059 36.5236C6.41351 35.8089 6.66443 35.1233 7.04361 34.5079C7.42279 33.8926 7.9224 33.3603 8.51245 32.9429C10.1234 31.5864 11.962 30.5262 13.9429 29.8114C14.555 27.8619 14.9103 25.8409 15 23.7995C13.2676 22.2719 11.8726 20.3999 10.904 18.303C10.5258 17.2914 10.3161 16.2246 10.283 15.1451C10.2598 14.4847 10.4199 13.8307 10.7454 13.2557C10.8965 12.9934 11.1113 12.7735 11.37 12.6165C11.6287 12.4594 11.9229 12.3702 12.2253 12.3572C13.8372 12.4629 14.9736 13.9427 15.8852 16.4268C16.4778 18.397 16.7586 20.4477 16.7177 22.5047C16.7177 22.7029 16.7177 22.9011 16.7177 23.1125C18.5979 24.7965 20.6584 26.2676 22.8617 27.4992C24.3019 27.1953 25.7024 26.9178 26.9312 26.6403C27.8574 26.4156 28.8059 26.2959 29.7588 26.2836C30.6125 26.2467 31.4618 26.4239 32.2296 26.7989C32.5553 26.9503 32.8333 27.188 33.0336 27.4861C33.2339 27.7842 33.3488 28.1314 33.3659 28.4901C33.2206 30.221 31.45 31.1327 29.0453 31.1327C28.3305 31.1291 27.6178 31.0538 26.918 30.9081C25.4412 30.5587 24.0125 30.0307 22.6635 29.3358C20.2646 29.7979 17.8953 30.4024 15.5681 31.1459L15.3171 31.2384C14.8642 32.7185 14.1024 34.0857 13.082 35.2496C12.0616 36.4135 10.8059 37.3476 9.39771 37.9902C8.97788 38.1608 8.52957 38.2505 8.07642 38.2545C7.61476 38.2636 7.16659 38.0985 6.8212 37.792V37.8449ZM8.14249 36.5236C8.37837 36.5167 8.6111 36.4675 8.82956 36.3782C10.7387 35.5505 12.2538 34.0165 13.0577 32.0972C11.8407 32.6565 10.7069 33.3812 9.6884 34.251C8.9036 34.7984 8.3337 35.6019 8.07642 36.5236H8.14249ZM27.3012 29.1376C27.8884 29.2569 28.4858 29.3188 29.0849 29.3225C29.8253 29.3613 30.5631 29.2064 31.2254 28.8733C31.6614 28.6355 31.6879 28.4505 31.6747 28.4373C31.6237 28.3647 31.5556 28.3057 31.4765 28.2655C30.9621 28.0368 30.3997 27.9371 29.8381 27.9748C29.0146 27.9859 28.1948 28.0878 27.3937 28.2787L25.5835 28.6751C26.1466 28.8803 26.7255 29.0394 27.3144 29.1508L27.3012 29.1376ZM15.9777 29.1376C17.3783 28.7147 18.8978 28.3316 20.4305 27.988C19.1112 27.1665 17.8487 26.2572 16.6516 25.2662C16.5257 26.5719 16.3004 27.8661 15.9777 29.1376ZM12.2253 14.0881C12.2253 14.0881 12.2253 14.0881 12.146 14.1673C11.9916 14.469 11.9231 14.8072 11.9478 15.1451C11.9739 16.0494 12.1526 16.9429 12.4763 17.7877C13.0434 19.1729 13.894 20.4241 14.9736 21.4609C14.933 19.9636 14.6885 18.4789 14.2468 17.0478C13.9842 16.1928 13.5629 15.3949 13.0048 14.6959C12.8192 14.4299 12.5491 14.2343 12.2385 14.1409L12.2253 14.0881Z" fill="#EFF4F9"/>
<path d="M6.82112 36.5233C6.65511 36.3596 6.52389 36.164 6.43534 35.9483C6.34679 35.7326 6.30273 35.5013 6.30582 35.2681C6.41342 34.5534 6.66435 33.8678 7.04353 33.2525C7.42271 32.6372 7.92232 32.1048 8.51237 31.6874C10.1233 30.331 11.9619 29.2708 13.9429 28.556C14.5549 26.6064 14.9102 24.5854 14.9999 22.5441C13.2601 20.9972 11.8646 19.102 10.9039 16.9814C10.5258 15.9698 10.316 14.9031 10.2829 13.8236C10.2597 13.1631 10.4198 12.5092 10.7453 11.9341C10.8964 11.6719 11.1112 11.452 11.3699 11.2949C11.6286 11.1379 11.9228 11.0487 12.2252 11.0356C13.8372 11.1413 14.9735 12.6212 15.8852 15.1052C16.4777 17.0754 16.7585 19.1262 16.7176 21.1832C16.7176 21.3813 16.7176 21.5795 16.7176 21.7909C18.5978 23.4749 20.6583 24.9461 22.8616 26.1776C24.3018 25.8737 25.7024 25.5963 26.9312 25.3188C27.8573 25.094 28.8058 24.9744 29.7587 24.962C30.6124 24.9252 31.4617 25.1024 32.2295 25.4773C32.5552 25.6288 32.8332 25.8664 33.0335 26.1645C33.2338 26.4626 33.3487 26.8099 33.3658 27.1686C33.2205 28.8995 31.45 29.8112 29.0452 29.8112C28.3304 29.8075 27.6178 29.7323 26.9179 29.5866C25.4412 29.2372 24.0125 28.7092 22.6634 28.0142C20.2645 28.4764 17.8952 29.0809 15.5681 29.8244L15.317 29.9169C14.8641 31.397 14.1023 32.7642 13.0819 33.928C12.0615 35.0919 10.8058 36.026 9.39764 36.6687C8.9778 36.8393 8.5295 36.9289 8.07634 36.9329C7.61468 36.9421 7.16651 36.7769 6.82112 36.4705V36.5233ZM8.14241 35.202C8.37829 35.1952 8.61102 35.1459 8.82948 35.0567C10.7386 34.229 12.2537 32.695 13.0576 30.7757C11.8406 31.335 10.7068 32.0597 9.68832 32.9294C8.90352 33.4769 8.33362 34.2804 8.07634 35.202H8.14241ZM27.3011 27.816C27.8883 27.9353 28.4857 27.9973 29.0849 28.001C29.8253 28.0397 30.563 27.8849 31.2254 27.5518C31.6614 27.3139 31.6878 27.129 31.6746 27.1157C31.6236 27.0431 31.5555 26.9841 31.4764 26.944C30.962 26.7153 30.3996 26.6155 29.838 26.6533C29.0145 26.6643 28.1947 26.7663 27.3936 26.9572L25.5834 27.3536C26.1466 27.5588 26.7254 27.7178 27.3143 27.8292L27.3011 27.816ZM15.9777 27.816C17.3782 27.3932 18.8977 27.01 20.4304 26.6665C19.1112 25.845 17.8487 24.9357 16.6515 23.9446C16.5256 25.2504 16.3004 26.5446 15.9777 27.816ZM12.2252 12.7665C12.2252 12.7665 12.2252 12.7665 12.1459 12.8458C11.9916 13.1474 11.923 13.4856 11.9477 13.8236C11.9738 14.7279 12.1525 15.6213 12.4762 16.4661C13.0433 17.8513 13.894 19.1025 14.9735 20.1393C14.933 18.6421 14.6885 17.1574 14.2468 15.7262C13.9841 14.8712 13.5628 14.0733 13.0048 13.3743C12.8191 13.1083 12.5491 12.9128 12.2384 12.8194L12.2252 12.7665Z" fill="#A7BDDB"/>
<path d="M34.687 14.2068H27.8559C27.0395 14.2068 26.2564 13.8824 25.679 13.3051C25.1017 12.7277 24.7773 11.9447 24.7773 11.1282V5.61841C24.7773 5.44319 24.8469 5.27516 24.9708 5.15126C25.0947 5.02737 25.2628 4.95776 25.438 4.95776C25.6132 4.95776 25.7812 5.02737 25.9051 5.15126C26.029 5.27516 26.0986 5.44319 26.0986 5.61841V11.1282C26.0986 11.5943 26.2838 12.0412 26.6133 12.3708C26.9429 12.7004 27.3899 12.8855 27.8559 12.8855H34.687C34.8622 12.8855 35.0303 12.9551 35.1542 13.079C35.2781 13.2029 35.3477 13.3709 35.3477 13.5461C35.3477 13.7214 35.2781 13.8894 35.1542 14.0133C35.0303 14.1372 34.8622 14.2068 34.687 14.2068Z" fill="#A7C1DB"/>
<path d="M38.7696 34.4753H20.1262C18.7324 34.4753 17.6025 35.6052 17.6025 36.999V43.5394C17.6025 44.9332 18.7324 46.0631 20.1262 46.0631H38.7696C40.1634 46.0631 41.2933 44.9332 41.2933 43.5394V36.999C41.2933 35.6052 40.1634 34.4753 38.7696 34.4753Z" fill="url(#paint1_linear)"/>
<path d="M23.9451 40.6326H22.7955V42.3503C22.8106 42.5504 22.7492 42.7487 22.6238 42.9053C22.5692 42.9663 22.5019 43.0146 22.4265 43.0466C22.3511 43.0786 22.2696 43.0935 22.1877 43.0902C22.1037 43.0955 22.0196 43.0816 21.9418 43.0495C21.864 43.0175 21.7945 42.9681 21.7385 42.9053C21.6154 42.7475 21.5543 42.5501 21.5667 42.3503V37.7258C21.5572 37.6235 21.5687 37.5203 21.6005 37.4226C21.6323 37.3249 21.6838 37.2347 21.7517 37.1576C21.9198 37.0238 22.1319 36.9578 22.3463 36.9727H23.9318C24.2925 36.9603 24.653 37.0003 25.0021 37.0916C25.2435 37.1494 25.4663 37.2677 25.6495 37.4351C25.8294 37.5944 25.9696 37.7935 26.0591 38.0165C26.1521 38.2656 26.1969 38.5302 26.1912 38.796C26.2106 39.0575 26.1694 39.3198 26.0709 39.5627C25.9724 39.8057 25.8191 40.0226 25.6231 40.1966C25.1333 40.5366 24.5384 40.6912 23.9451 40.6326ZM23.6412 37.8447H22.7955V39.6945H23.6279C23.8726 39.6995 24.1168 39.6729 24.3547 39.6152C24.5333 39.5651 24.6909 39.4585 24.8039 39.3113C24.9065 39.1498 24.9572 38.9608 24.9492 38.7696C24.9549 38.6513 24.9368 38.533 24.896 38.4218C24.8551 38.3106 24.7924 38.2087 24.7114 38.1222C24.3944 37.9183 24.0134 37.8383 23.6412 37.8976V37.8447Z" fill="#4040BA"/>
<path d="M28.0015 36.9728H29.6002C29.9606 36.9664 30.3203 37.0064 30.6705 37.0918C30.9731 37.1729 31.2533 37.3221 31.4897 37.5278C31.8182 37.8453 32.0726 38.2313 32.2347 38.6584C32.3969 39.0855 32.4628 39.5431 32.4278 39.9986C32.4323 40.3313 32.4013 40.6635 32.3353 40.9896C32.2766 41.2747 32.1788 41.5504 32.0446 41.8088C31.9079 42.0503 31.734 42.2688 31.5293 42.4562C31.3733 42.5991 31.1947 42.7152 31.0008 42.7997C30.8053 42.8951 30.5955 42.9576 30.3798 42.9847C30.1292 43.0067 29.8772 43.0067 29.6266 42.9847H28.0807C27.9029 42.9929 27.7257 42.9566 27.5654 42.879C27.5116 42.8484 27.4648 42.8066 27.4284 42.7565C27.3919 42.7064 27.3666 42.649 27.354 42.5883C27.3299 42.4307 27.3299 42.2703 27.354 42.1127V37.726C27.3434 37.6246 27.3532 37.5221 27.3827 37.4246C27.4122 37.327 27.4608 37.2363 27.5258 37.1578C27.6601 37.0463 27.8271 36.9813 28.0015 36.9728ZM28.4771 37.9506V42.073H29.402H29.8909C30.0129 42.0633 30.133 42.0366 30.2477 41.9938C30.3644 41.9533 30.4721 41.8904 30.5648 41.8088C30.7926 41.5724 30.9662 41.2891 31.0735 40.9788C31.1807 40.6685 31.219 40.3385 31.1858 40.0118C31.2092 39.5548 31.1136 39.0995 30.9083 38.6905C30.7679 38.4244 30.5318 38.2213 30.2477 38.1224C29.9336 38.0363 29.6087 37.9963 29.2831 38.0034L28.4771 37.9506Z" fill="#4040BA"/>
<path d="M37.1312 37.9899H34.6868V39.5491H36.7084C36.8589 39.5382 37.0084 39.5803 37.1312 39.668C37.1793 39.7109 37.2173 39.764 37.2425 39.8234C37.2676 39.8828 37.2792 39.9471 37.2766 40.0115C37.2773 40.0737 37.2647 40.1354 37.2397 40.1924C37.2146 40.2494 37.1776 40.3003 37.1312 40.3418C37.0084 40.4295 36.8589 40.4716 36.7084 40.4607H34.6868V42.4691C34.6964 42.5684 34.6861 42.6685 34.6566 42.7638C34.6271 42.8591 34.579 42.9475 34.5151 43.0241C34.4605 43.0851 34.3932 43.1334 34.3178 43.1654C34.2424 43.1974 34.1609 43.2123 34.079 43.209C33.995 43.2143 33.9109 43.2004 33.8331 43.1683C33.7553 43.1363 33.6858 43.0869 33.6298 43.0241C33.5659 42.9475 33.5178 42.8591 33.4883 42.7638C33.4588 42.6685 33.4485 42.5684 33.458 42.4691V37.7257C33.4523 37.5806 33.4794 37.436 33.5373 37.3029C33.5606 37.2465 33.5947 37.1954 33.6378 37.1523C33.6809 37.1092 33.732 37.0751 33.7884 37.0518C33.9215 36.9939 34.0661 36.9668 34.2112 36.9725H37.1048C37.2612 36.9635 37.4157 37.0103 37.5408 37.1047C37.5905 37.1463 37.6296 37.1992 37.6549 37.2589C37.6801 37.3187 37.6909 37.3835 37.6862 37.4482C37.692 37.513 37.6818 37.5782 37.6564 37.6381C37.6311 37.6981 37.5914 37.7508 37.5408 37.7917C37.436 37.9095 37.2886 37.9808 37.1312 37.9899Z" fill="#4040BA"/>
<defs>
<linearGradient id="paint0_linear" x1="18.8316" y1="-0.287733" x2="18.8316" y2="46.3802" gradientUnits="userSpaceOnUse">
<stop stop-color="#F1F5F9"/>
<stop offset="1" stop-color="#D8E5F4"/>
</linearGradient>
<linearGradient id="paint1_linear" x1="29.4479" y1="34.4753" x2="29.4479" y2="46.0631" gradientUnits="userSpaceOnUse">
<stop stop-color="#12F282"/>
<stop offset="1" stop-color="#2CF2B8"/>
</linearGradient>
</defs>
</svg>
