<svg width="64" height="64" viewBox="0 0 64 64" fill="none" xmlns="http://www.w3.org/2000/svg">
<rect width="64" height="64" rx="16" fill="url(#paint0_linear)"/>
<path d="M52.4321 52.5864H12.777C12.3479 52.5864 12 52.9374 12 53.3702C12 53.8029 12.3479 54.1539 12.777 54.1539H52.4314C52.8612 54.1539 53.2083 53.8029 53.2083 53.3702C53.2091 52.9374 52.8612 52.5864 52.4321 52.5864Z" fill="url(#paint1_linear)"/>
<path d="M18.3037 42.2478L18.5414 50.6895C18.5533 51.1135 18.8981 51.451 19.3184 51.451H23.7701C23.9795 51.451 24.1803 51.366 24.3267 51.2143C24.4731 51.0635 24.5526 50.8586 24.5471 50.6474L24.3062 41.4553C22.3169 41.8786 20.3103 42.1438 18.3037 42.2478Z" fill="url(#paint2_linear)"/>
<path d="M29.6022 50.6853C29.6125 51.1117 29.9573 51.4508 30.3792 51.4508H34.8309C35.0395 51.4508 35.2395 51.3666 35.3859 51.2157C35.5323 51.0656 35.6118 50.8624 35.6071 50.6511L35.3418 37.2935C33.4667 38.3638 31.4656 39.2778 29.3574 40.0266L29.6022 50.6853Z" fill="url(#paint3_linear)"/>
<path d="M40.4141 33.7485L40.662 50.6794C40.6683 51.1074 41.0139 51.4513 41.439 51.4513H45.8899C46.0977 51.4513 46.2969 51.3679 46.4425 51.2194C46.5882 51.0709 46.6693 50.8692 46.6669 50.6596L46.4071 26.2732C45.9647 27.1586 45.4483 28.0289 44.8555 28.8833C43.6472 30.627 42.1601 32.2556 40.4141 33.7485Z" fill="url(#paint4_linear)"/>
<path d="M16.3473 41.2547C20.0165 41.2547 23.703 40.6997 27.303 39.6054C30.8179 38.5366 34.0581 37.0152 36.9314 35.0825C39.8669 33.1092 42.2474 30.8216 44.0077 28.2837C45.7293 25.8023 46.7818 23.1819 47.1431 20.4861H48.8601C49.1387 20.4861 49.3946 20.3368 49.5331 20.0938C49.6717 19.8508 49.6717 19.5523 49.5331 19.3101L44.047 9.72576C43.9077 9.48278 43.6518 9.3335 43.3747 9.3335C43.0961 9.3335 42.8402 9.48278 42.7017 9.72576L37.2156 19.3101C37.077 19.553 37.077 19.8516 37.2156 20.0938C37.3549 20.336 37.6115 20.4861 37.8886 20.4861H39.9598C38.1492 29.902 30.1527 39.6864 16.3473 39.6864C15.9183 39.6864 15.5703 40.0374 15.5703 40.4702C15.5703 40.9037 15.9183 41.2547 16.3473 41.2547Z" fill="url(#paint5_linear)"/>
<defs>
<linearGradient id="paint0_linear" x1="0" y1="0" x2="64.9147" y2="0.941607" gradientUnits="userSpaceOnUse">
<stop stop-color="#12F282"/>
<stop offset="1" stop-color="#2CF2B8"/>
</linearGradient>
<linearGradient id="paint1_linear" x1="12" y1="52.5864" x2="18.8842" y2="68.762" gradientUnits="userSpaceOnUse">
<stop stop-color="#4040BA"/>
<stop offset="1" stop-color="#10137B"/>
</linearGradient>
<linearGradient id="paint2_linear" x1="18.3037" y1="41.4553" x2="25.0843" y2="41.8339" gradientUnits="userSpaceOnUse">
<stop stop-color="#4040BA"/>
<stop offset="1" stop-color="#10137B"/>
</linearGradient>
<linearGradient id="paint3_linear" x1="29.3574" y1="37.2935" x2="36.1553" y2="37.5617" gradientUnits="userSpaceOnUse">
<stop stop-color="#4040BA"/>
<stop offset="1" stop-color="#10137B"/>
</linearGradient>
<linearGradient id="paint4_linear" x1="40.4141" y1="26.2732" x2="47.2225" y2="26.4243" gradientUnits="userSpaceOnUse">
<stop stop-color="#4040BA"/>
<stop offset="1" stop-color="#10137B"/>
</linearGradient>
<linearGradient id="paint5_linear" x1="15.5703" y1="9.3335" x2="52.3472" y2="12.8414" gradientUnits="userSpaceOnUse">
<stop stop-color="#4040BA"/>
<stop offset="1" stop-color="#10137B"/>
</linearGradient>
</defs>
</svg>
