<svg width="63" height="64" viewBox="0 0 63 64" fill="none" xmlns="http://www.w3.org/2000/svg">
<rect width="63" height="64" rx="16" fill="url(#paint0_linear)"/>
<path d="M12.5762 30.6897L16.8335 35.0467C17.686 35.9191 18.2312 37.0249 18.4096 38.2523L18.4641 38.6378L26.9789 38.5465L26.8847 34.1895C26.8699 33.449 26.5775 32.749 26.062 32.2266L23.5393 29.6449C23.1329 29.2289 22.5976 28.9449 22.0326 28.8485L20.5259 28.5797C20.5111 28.5797 20.4962 28.5696 20.4813 28.5645C20.4466 28.5543 20.4169 28.5391 20.3872 28.5239C20.3574 28.5087 20.3277 28.4884 20.3029 28.4681C20.288 28.458 20.2732 28.4529 20.2632 28.4377L16.4321 24.522C15.9216 23.9995 15.0196 23.9995 14.5091 24.522C14.2563 24.7806 14.1126 25.1306 14.1126 25.506C14.1126 25.8762 14.2563 26.2262 14.5091 26.49L18.9052 30.989C19.0985 31.1868 19.0985 31.5114 18.9052 31.7092C18.8111 31.8056 18.6822 31.8563 18.5583 31.8563C18.4294 31.8563 18.3006 31.8056 18.2064 31.7092L13.8103 27.2051C13.3642 26.7537 13.1213 26.1501 13.1213 25.506C13.1213 24.8618 13.3642 24.2582 13.8103 23.8017C13.9589 23.6495 14.1324 23.5278 14.3108 23.4213L13.6665 20.7381C13.6566 20.7178 13.6665 20.6925 13.6616 20.6671C13.6616 20.6468 13.6517 20.6265 13.6517 20.6012L13.7607 17.1267C13.8003 15.8181 12.7893 14.7124 11.5056 14.6667C11.2925 14.6616 11.0943 14.7479 10.9456 14.9C10.8018 15.0421 10.7275 15.2247 10.7176 15.4275L10.4995 22.4627L11.0001 27.3167C11.129 28.5848 11.689 29.7818 12.5762 30.6897Z" fill="url(#paint1_linear)"/>
<path d="M18.2969 48.7977L27.3717 48.6962C28.3233 48.6861 29.0965 47.8847 29.0816 46.9057L29.0271 41.3111C29.0172 40.3423 28.2391 39.5562 27.2924 39.5562L18.2027 39.6576C17.2462 39.6677 16.478 40.4691 16.4879 41.4481L16.5474 47.0427C16.5573 48.0115 17.3354 48.7977 18.2771 48.7977V49.3049L18.2969 48.7977Z" fill="url(#paint2_linear)"/>
<path d="M44.0291 48.7977L44.0489 49.3049V48.7977C44.9906 48.7977 45.7687 48.0115 45.7786 47.0427L45.8381 41.4481C45.848 40.4691 45.0798 39.6677 44.1232 39.6576L35.0484 39.5562C34.0869 39.5562 33.3088 40.3423 33.2989 41.3111L33.2444 46.9057C33.2295 47.8847 34.0027 48.6861 34.9542 48.6962L44.0291 48.7977Z" fill="url(#paint3_linear)"/>
<path d="M38.7853 29.6449L36.2626 32.2267C35.7472 32.7491 35.4547 33.449 35.4399 34.1896L35.3457 38.5466L43.8605 38.6379L43.915 38.2524C44.0934 37.0249 44.6386 35.9192 45.4911 35.0468L49.7485 30.6898C50.6356 29.7819 51.1957 28.5848 51.3245 27.3219L51.8251 22.4627L51.607 15.4276C51.5971 15.2247 51.5228 15.0421 51.379 14.9001C51.2304 14.7479 51.0222 14.6668 50.814 14.6719C49.5353 14.7124 48.5243 15.8182 48.5639 17.1268L48.673 20.6012C48.673 20.6266 48.663 20.6469 48.663 20.6672C48.6581 20.6925 48.668 20.7179 48.6581 20.7382L48.0138 23.4214C48.1922 23.5279 48.3657 23.6496 48.5144 23.8018C48.9604 24.2583 49.2033 24.8619 49.2033 25.506C49.2033 26.1502 48.9604 26.7538 48.5144 27.2052L44.1182 31.7093C44.024 31.8057 43.8952 31.8564 43.7663 31.8564C43.6424 31.8564 43.5135 31.8057 43.4194 31.7093C43.2261 31.5115 43.2261 31.1869 43.4194 30.989L47.8155 26.49C48.0683 26.2263 48.212 25.8763 48.212 25.506C48.212 25.1307 48.0683 24.7807 47.8155 24.522C47.305 23.9996 46.403 23.9945 45.8925 24.522L42.0614 28.4377C42.0515 28.453 42.0366 28.458 42.0217 28.4682C41.9969 28.4885 41.9672 28.5087 41.9375 28.524C41.9077 28.5392 41.878 28.5544 41.8433 28.5645C41.8284 28.5696 41.8136 28.5798 41.7987 28.5798L40.292 28.8486C39.727 28.945 39.1917 29.229 38.7853 29.6449Z" fill="url(#paint4_linear)"/>
<defs>
<linearGradient id="paint0_linear" x1="0" y1="0" x2="63.9008" y2="0.912418" gradientUnits="userSpaceOnUse">
<stop stop-color="#12F282"/>
<stop offset="1" stop-color="#2CF2B8"/>
</linearGradient>
<linearGradient id="paint1_linear" x1="10.4995" y1="14.6665" x2="28.3843" y2="15.7654" gradientUnits="userSpaceOnUse">
<stop stop-color="#4040BA"/>
<stop offset="1" stop-color="#10137B"/>
</linearGradient>
<linearGradient id="paint2_linear" x1="16.4878" y1="39.5562" x2="30.0269" y2="41.1194" gradientUnits="userSpaceOnUse">
<stop stop-color="#4040BA"/>
<stop offset="1" stop-color="#10137B"/>
</linearGradient>
<linearGradient id="paint3_linear" x1="33.2441" y1="39.5562" x2="46.7833" y2="41.1194" gradientUnits="userSpaceOnUse">
<stop stop-color="#4040BA"/>
<stop offset="1" stop-color="#10137B"/>
</linearGradient>
<linearGradient id="paint4_linear" x1="35.3457" y1="14.6716" x2="53.2304" y2="15.7708" gradientUnits="userSpaceOnUse">
<stop stop-color="#4040BA"/>
<stop offset="1" stop-color="#10137B"/>
</linearGradient>
</defs>
</svg>
