<svg width="27" height="31" viewBox="0 0 27 31" fill="none" xmlns="http://www.w3.org/2000/svg">
<path d="M15.5591 4.73424L15.5631 4.72527L15.5634 4.72451C15.5636 4.72421 15.5637 4.72391 15.5638 4.72361C15.8097 4.18229 15.7639 3.55313 15.4421 3.05309C15.1201 2.55254 14.5657 2.25 13.9704 2.25C12.6105 2.25 11.2101 2.81101 9.9683 3.57238C8.69481 4.35317 7.43025 5.44068 6.31073 6.71539C4.10043 9.23209 2.25 12.7225 2.25 16.3846C2.25 23.396 7.15248 28.75 13.5172 28.75C16.5362 28.75 19.3575 27.7315 21.4398 25.7928C23.5377 23.8396 24.7845 21.044 24.7845 17.7115C24.7845 16.3884 24.5171 14.9336 23.9615 13.6457C23.4148 12.3784 22.5015 11.0811 21.0827 10.3888C20.239 9.97708 19.3909 10.123 18.755 10.5135C18.234 10.8336 17.8679 11.3028 17.6351 11.6355C17.3832 11.9955 17.1472 12.4062 16.9458 12.7603C16.919 12.8074 16.8927 12.8539 16.8666 12.8997C16.6832 13.2228 16.5174 13.515 16.3424 13.7926C16.1431 14.1086 15.9712 14.3411 15.8194 14.5023C15.7602 14.5652 15.7135 14.6069 15.6798 14.6341C15.5893 14.5876 15.4318 14.4809 15.1927 14.2476C14.0686 13.1505 13.8895 11.115 14.3312 8.74358C14.5364 7.64245 14.8473 6.62765 15.1106 5.88227C15.2414 5.51205 15.3584 5.2143 15.441 5.01267C15.4823 4.91199 15.5148 4.83568 15.5361 4.7867C15.5467 4.76222 15.5545 4.74461 15.5591 4.73424ZM15.7762 14.6648C15.777 14.6685 15.761 14.6688 15.7257 14.655C15.7578 14.6543 15.7754 14.6612 15.7762 14.6648Z" stroke="white" stroke-width="3.5" stroke-linecap="round" stroke-linejoin="round"/>
</svg>
