<svg width="19" height="19" viewBox="0 0 19 19" fill="none" xmlns="http://www.w3.org/2000/svg">
<path d="M12.2767 0.777406C11.5936 0.0942829 10.4045 0.0942829 9.72134 0.777406L0.776575 9.72217C0.437998 10.0612 0.247824 10.5207 0.247824 10.9999C0.247824 11.479 0.437998 11.9385 0.776575 12.2776L5.88826 17.3892C6.22982 17.7308 6.68342 17.9187 7.16595 17.9187C7.64847 17.9187 8.10208 17.7308 8.44364 17.3892L17.3884 8.44447C17.73 8.10291 17.9179 7.6493 17.9179 7.16678C17.9179 6.68426 17.73 6.23065 17.3884 5.88909L12.2767 0.777406ZM7.16595 16.1115L2.05427 10.9999L10.999 2.0551L16.1107 7.16678L7.16595 16.1115Z" fill="#F5F5F5"/>
<path d="M6.37266 12.6978C6.87171 12.6978 7.27626 12.2932 7.27626 11.7942C7.27626 11.2951 6.87171 10.8906 6.37266 10.8906C5.87361 10.8906 5.46906 11.2951 5.46906 11.7942C5.46906 12.2932 5.87361 12.6978 6.37266 12.6978Z" fill="#F5F5F5"/>
<path d="M12.4328 17.8546L11.1551 16.5769L16.5767 11.1552L17.8544 12.4338L12.4328 17.8546ZM5.73347 0.312012L7.01117 1.58971L1.58955 7.01132L0.311858 5.73272L5.73347 0.312012Z" fill="#F5F5F5"/>
<path fill-rule="evenodd" clip-rule="evenodd" d="M0.620713 9.56618L9.56547 0.62142C10.3348 -0.147881 11.6636 -0.147881 12.4329 0.62142L17.5446 5.7331C17.9275 6.11601 18.1388 6.62573 18.1388 7.16683C18.1388 7.70793 17.9275 8.21765 17.5446 8.60056L8.59986 17.5453C8.21695 17.9282 7.70723 18.1395 7.16612 18.1395C6.62502 18.1395 6.1153 17.9282 5.73239 17.5453L0.620713 12.4336C0.240814 12.0533 0.0273288 11.5375 0.0273288 10.9999C0.0273288 10.4623 0.240814 9.94658 0.620713 9.56618ZM12.4329 18.1667L10.8432 16.5769L16.5769 10.8432L18.1666 12.434L12.4329 18.1667ZM5.73366 0L7.32342 1.58976L1.58967 7.3235L0 5.73271L5.73366 0ZM0.776575 9.72217L9.72134 0.777406C10.4045 0.0942829 11.5936 0.0942829 12.2767 0.777406L17.3884 5.88909C17.73 6.23065 17.9179 6.68426 17.9179 7.16678C17.9179 7.6493 17.73 8.10291 17.3884 8.44447L8.44364 17.3892C8.10208 17.7308 7.64847 17.9187 7.16595 17.9187C6.68342 17.9187 6.22982 17.7308 5.88826 17.3892L0.776575 12.2776C0.437998 11.9385 0.247824 11.479 0.247824 10.9999C0.247824 10.5207 0.437998 10.0612 0.776575 9.72217ZM7.16595 16.1115L2.05427 10.9999L10.999 2.0551L16.1107 7.16678L7.16595 16.1115ZM15.7988 7.16683L7.16612 15.7995L2.36652 10.9999L10.9992 2.36723L15.7988 7.16683ZM7.49711 11.7942C7.49711 12.4151 6.99376 12.9185 6.37284 12.9185C5.75192 12.9185 5.24856 12.4151 5.24856 11.7942C5.24856 11.1733 5.75192 10.6699 6.37284 10.6699C6.99376 10.6699 7.49711 11.1733 7.49711 11.7942ZM17.8544 12.4338L16.5767 11.1552L11.1551 16.5769L12.4328 17.8546L17.8544 12.4338ZM0.311858 5.73272L5.73347 0.312012L7.01117 1.58971L1.58955 7.01132L0.311858 5.73272ZM6.37266 12.6978C6.87171 12.6978 7.27626 12.2932 7.27626 11.7942C7.27626 11.2951 6.87171 10.8906 6.37266 10.8906C5.87361 10.8906 5.46906 11.2951 5.46906 11.7942C5.46906 12.2932 5.87361 12.6978 6.37266 12.6978Z" fill="#F5F5F5"/>
</svg>
