<svg width="39" height="37" viewBox="0 0 39 37" fill="none" xmlns="http://www.w3.org/2000/svg">
<path d="M36.159 13.2431L25.2736 11.661L20.4076 1.79605C20.2747 1.52595 20.056 1.3073 19.7859 1.17439C19.1085 0.839987 18.2854 1.11866 17.9467 1.79605L13.0806 11.661L2.19527 13.2431C1.89516 13.2859 1.62078 13.4274 1.4107 13.6418C1.15673 13.9028 1.01678 14.254 1.02161 14.6182C1.02643 14.9823 1.17563 15.3297 1.43642 15.5839L9.31213 23.2624L7.45146 34.1049C7.40782 34.3571 7.43573 34.6165 7.53202 34.8537C7.62831 35.0908 7.78913 35.2963 7.99623 35.4467C8.20334 35.5971 8.44845 35.6865 8.70376 35.7047C8.95908 35.7229 9.21439 35.6692 9.44075 35.5497L19.1771 30.4307L28.9135 35.5497C29.1793 35.6912 29.488 35.7383 29.7838 35.6869C30.5298 35.5583 31.0314 34.8509 30.9028 34.1049L29.0421 23.2624L36.9178 15.5839C37.1322 15.3738 37.2737 15.0994 37.3165 14.7993C37.4323 14.0491 36.9092 13.3545 36.159 13.2431V13.2431Z" stroke="#F5F5F5" stroke-width="2"/>
</svg>
