<svg width="24" height="24" viewBox="0 0 24 24" fill="none" xmlns="http://www.w3.org/2000/svg">
<rect x="1" y="1" width="22" height="22" rx="5" stroke="#C7C7CC" stroke-width="2"/>
<path d="M9.5 8C9.5 7.73478 9.60536 7.48043 9.79289 7.29289C9.98043 7.10536 10.2348 7 10.5 7H13.5C13.7652 7 14.0196 7.10536 14.2071 7.29289C14.3946 7.48043 14.5 7.73478 14.5 8V9H16.5C16.6326 9 16.7598 9.05268 16.8536 9.14645C16.9473 9.24021 17 9.36739 17 9.5C17 9.63261 16.9473 9.75979 16.8536 9.85355C16.7598 9.94732 16.6326 10 16.5 10H15.9655L15.532 16.071C15.514 16.3233 15.4011 16.5594 15.2161 16.7318C15.031 16.9042 14.7874 17 14.5345 17H9.465C9.21207 17 8.96853 16.9042 8.78344 16.7318C8.59835 16.5594 8.48546 16.3233 8.4675 16.071L8.035 10H7.5C7.36739 10 7.24021 9.94732 7.14645 9.85355C7.05268 9.75979 7 9.63261 7 9.5C7 9.36739 7.05268 9.24021 7.14645 9.14645C7.24021 9.05268 7.36739 9 7.5 9H9.5V8ZM10.5 9H13.5V8H10.5V9ZM9.037 10L9.4655 16H14.535L14.9635 10H9.037Z" fill="#C7C7CC" stroke="#C7C7CC" stroke-width="0.8"/>
</svg>
