<svg width="31" height="26" viewBox="0 0 31 26" fill="none" xmlns="http://www.w3.org/2000/svg">
<path d="M22.2485 1.2038C21.6434 0.598734 20.6624 0.598734 20.0573 1.2038C19.4523 1.80886 19.4523 2.78986 20.0573 3.39493L24.5462 7.88376H3.31851C2.46282 7.88376 1.76915 8.57743 1.76915 9.43312C1.76915 10.2888 2.46282 10.9825 3.31851 10.9825H28.2867C28.9133 10.9825 29.4783 10.605 29.7181 10.026C29.9579 9.44708 29.8253 8.78067 29.3822 8.33756L22.2485 1.2038ZM2.2994 15.0175C1.67274 15.0175 1.10779 15.395 0.867976 15.974C0.628164 16.5529 0.760721 17.2193 1.20384 17.6624L8.33759 24.7962C8.94266 25.4013 9.92366 25.4013 10.5287 24.7962C11.1338 24.1911 11.1338 23.2101 10.5287 22.6051L6.0399 18.1162H27.2676C28.1232 18.1162 28.8169 17.4226 28.8169 16.5669C28.8169 15.7112 28.1232 15.0175 27.2676 15.0175H2.2994Z" fill="#F5F5F5" stroke="#F5F5F5" stroke-width="0.5" stroke-linecap="round" stroke-linejoin="round"/>
</svg>
