<svg width="36" height="36" viewBox="0 0 36 36" fill="none" xmlns="http://www.w3.org/2000/svg">
<path fill-rule="evenodd" clip-rule="evenodd" d="M19.7525 3.83912C19.6148 3.83912 19.4784 3.86479 19.3512 3.91467C19.2239 3.96455 19.1083 4.03766 19.0109 4.12982C18.9136 4.22198 18.8363 4.3314 18.7836 4.45181C18.7309 4.57223 18.7038 4.70129 18.7038 4.83163V18.5C18.7038 19.284 18.0322 19.9196 17.2038 19.9196C16.3753 19.9196 15.7038 19.284 15.7038 18.5V8.04772C15.7038 7.78449 15.5933 7.53204 15.3966 7.34591C15.1999 7.15978 14.9332 7.05521 14.655 7.05521C14.3769 7.05521 14.1101 7.15978 13.9135 7.34591C13.7168 7.53204 13.6063 7.78449 13.6063 8.04772V20.0072C13.6359 20.4033 13.4907 20.809 13.1707 21.1118C12.8786 21.3883 12.4959 21.5269 12.113 21.5276C12.1108 21.5276 12.1085 21.5276 12.1063 21.5276C11.6597 21.5276 11.2588 21.343 10.984 21.0499L8.55222 18.7486C8.28846 18.4992 7.94424 18.3405 7.57422 18.2975C7.20421 18.2545 6.82961 18.3297 6.50995 18.5112C6.27569 18.6441 6.10501 18.8585 6.03502 19.1084C5.96504 19.3583 6.00081 19.6241 6.13473 19.8494C9.34392 25.2479 11.1719 28.261 11.6678 28.9815L11.6687 28.9829C11.7777 29.1416 11.8871 29.3001 11.9969 29.4583C12.7889 30.5963 13.867 31.5303 15.1347 32.1766C16.4015 32.8224 17.818 33.1606 19.2569 33.1609C19.2579 33.1609 19.2589 33.1609 19.2599 33.1609H22.305C24.6111 33.1609 26.8227 32.2939 28.4533 30.7507C30.0839 29.2076 31 27.1146 31 24.9322V11.2638C31 11.0006 30.8895 10.7481 30.6928 10.562C30.4962 10.3758 30.2294 10.2713 29.9513 10.2713C29.6731 10.2713 29.4064 10.3758 29.2097 10.562C29.013 10.7481 28.9025 11.0006 28.9025 11.2638C28.9025 11.2979 28.9012 11.3316 28.8988 11.3651V18.5C28.8988 19.284 28.2272 19.9196 27.3988 19.9196C26.5703 19.9196 25.8988 19.284 25.8988 18.5V8.04772C25.8988 7.78449 25.7883 7.53204 25.5916 7.34591C25.3949 7.15978 25.1282 7.05521 24.85 7.05521C24.5719 7.05521 24.3051 7.15978 24.1084 7.34591C23.9118 7.53204 23.8013 7.78449 23.8013 8.04772V18.5C23.8013 19.284 23.1297 19.9196 22.3013 19.9196C21.4728 19.9196 20.8013 19.284 20.8013 18.5V4.83163C20.8013 4.70129 20.7741 4.57223 20.7214 4.45181C20.6687 4.3314 20.5915 4.22198 20.4941 4.12982C20.3967 4.03766 20.2811 3.96455 20.1539 3.91467C20.0266 3.86479 19.8902 3.83912 19.7525 3.83912ZM23.7698 4.35497C23.7248 4.01557 23.632 3.68267 23.4931 3.36533C23.2896 2.90045 22.9914 2.47806 22.6154 2.12226C22.2395 1.76646 21.7931 1.48422 21.3019 1.29167C20.8107 1.09911 20.2842 1 19.7525 1C19.2208 1 18.6943 1.09911 18.2031 1.29167C17.7119 1.48422 17.2656 1.76646 16.8896 2.12226C16.5137 2.47806 16.2154 2.90045 16.012 3.36533C15.8731 3.68267 15.7802 4.01557 15.7352 4.35497C15.3864 4.26358 15.0233 4.21609 14.655 4.21609C13.5812 4.21609 12.5514 4.61978 11.7921 5.33835C11.0328 6.05692 10.6063 7.03151 10.6063 8.04772V16.6786C9.8784 16.0173 8.94308 15.5961 7.9399 15.4795C6.90628 15.3594 5.8599 15.5695 4.96688 16.0764M23.7698 4.35497C24.1186 4.26358 24.4817 4.21609 24.85 4.21609C25.9238 4.21609 26.9536 4.61978 27.7129 5.33835C28.3527 5.94386 28.7563 6.73117 28.8674 7.57199C29.2173 7.47997 29.5817 7.43216 29.9513 7.43216C31.0251 7.43216 32.0549 7.83585 32.8142 8.55442C33.5734 9.27298 34 10.2476 34 11.2638V24.9322C34 27.8675 32.7679 30.6827 30.5746 32.7583C28.3814 34.8339 25.4067 36 22.305 36H19.2604C19.2603 36 19.2605 36 19.2604 36H18.9067C18.8397 36 18.7737 35.9958 18.709 35.9878C16.9629 35.9101 15.2549 35.4628 13.7119 34.6761C12.0067 33.8068 10.5564 32.5503 9.49117 31.0195L9.49028 31.0182C9.37742 30.8556 9.26501 30.6928 9.15303 30.5297C8.58745 29.7075 6.69457 26.5816 3.52013 21.2415C3.0031 20.3718 2.86499 19.3455 3.13518 18.3809C3.40532 17.4165 4.06275 16.5896 4.96688 16.0764" fill="#C7C7CC"/>
</svg>
