<svg width="102" height="38" viewBox="0 0 102 38" fill="none" xmlns="http://www.w3.org/2000/svg">
<path d="M6.8 0.68L0 20.604H3.995L5.916 14.79H11.441L13.413 20.604H17.493L10.693 0.68H6.8ZM10.489 11.492H6.919L8.398 7.106C8.5 6.8 8.602 6.511 8.687 6.205C8.789 6.511 8.874 6.817 8.993 7.123L10.489 11.492Z" fill="white"/>
<path d="M24.225 11.5429C22.389 10.8119 22.185 10.4719 22.185 9.94494C22.185 9.28194 22.746 8.85694 23.647 8.85694C24.735 8.85694 25.568 9.28194 25.976 9.53694L26.758 10.0299L27.795 6.86794L27.336 6.56194C26.435 5.96694 25.075 5.62694 23.698 5.62694C20.621 5.62694 18.394 7.56494 18.394 10.2509C18.394 12.7159 20.57 14.0249 22.406 14.6879C24.225 15.3679 24.378 15.8439 24.378 16.4219C24.378 17.5099 23.222 17.6799 22.559 17.6799C21.505 17.6799 20.366 17.2209 19.72 16.8469L18.938 16.3879L17.918 19.6179L18.411 19.9069C19.533 20.5699 21.012 20.9439 22.508 20.9439C25.891 20.9439 28.169 19.0399 28.169 16.2179C28.169 13.3449 25.908 12.1719 24.225 11.5429Z" fill="white"/>
<path d="M34.17 2.465L30.362 3.621V5.899H28.322V9.18H30.379V15.691C30.379 17.51 30.753 18.802 31.501 19.669C32.232 20.485 33.354 20.927 34.629 20.927C35.785 20.927 36.618 20.689 37.009 20.553L37.519 20.366L37.315 17.068L36.448 17.34C36.176 17.408 35.887 17.476 35.258 17.476C34.799 17.476 34.17 17.476 34.17 15.623V9.18H37.621V5.899H34.187L34.17 2.465Z" fill="white"/>
<path d="M46.886 5.76294L46.189 5.67794C45.985 5.64394 45.781 5.62694 45.509 5.62694C44.302 5.62694 43.197 6.11994 42.347 6.98694L42.313 5.89894H38.743L38.794 6.66394C38.862 7.78594 38.913 9.09494 38.913 10.7609V20.6209H42.772V12.8179C42.772 12.4439 42.806 12.0869 42.84 11.8149C43.129 10.2849 44.081 9.33294 45.356 9.33294C45.662 9.33294 45.849 9.33294 46.019 9.36694L46.886 9.55394V5.76294Z" fill="white"/>
<path d="M53.924 5.62694C49.623 5.62694 46.614 8.80594 46.614 13.3789C46.614 17.8159 49.521 20.9269 53.686 20.9269C57.222 20.9269 61.013 18.4959 61.013 13.1579C61.047 8.72094 58.123 5.62694 53.924 5.62694ZM57.137 13.2259C57.137 15.7929 55.743 17.6629 53.839 17.6629C51.935 17.6629 50.558 15.8099 50.558 13.2939C50.558 11.6619 51.272 8.89094 53.907 8.89094C56.457 8.87394 57.137 11.7129 57.137 13.2259Z" fill="white"/>
<path d="M73.695 2.26087C72.42 1.12187 70.516 0.543867 68.034 0.543867C66.368 0.543867 64.787 0.662867 63.342 0.917867L62.747 1.01987V20.6209H66.572V13.3279C66.963 13.3619 67.371 13.3789 67.762 13.3789C70.346 13.3789 72.539 12.5799 73.933 11.1349C75.021 10.0299 75.565 8.53387 75.565 6.68087C75.548 4.89587 74.902 3.33187 73.695 2.26087ZM71.723 6.79987C71.723 9.58787 69.275 9.99587 67.813 9.99587C67.32 9.99587 66.912 9.97887 66.555 9.92787V3.94387C66.929 3.89287 67.439 3.87587 68.085 3.87587C69.751 3.89287 71.723 4.40287 71.723 6.79987Z" fill="white"/>
<path d="M87.295 16.7109V11.7469C87.295 7.78594 85.238 5.62694 81.532 5.62694C79.815 5.62694 78.013 6.10294 76.755 6.88494L76.279 7.19094L77.316 10.2509L78.115 9.70694C78.914 9.16294 80.07 8.83994 81.209 8.83994C81.974 8.82294 82.552 9.00994 82.926 9.38394C83.232 9.68994 83.419 10.1489 83.487 10.7269C80.478 10.8119 78.268 11.5429 76.942 12.8689C76.007 13.7869 75.531 14.9769 75.531 16.3879C75.531 18.6319 77.163 20.9269 80.308 20.9269C81.651 20.9269 82.909 20.5019 83.895 19.7369L83.997 20.6039H87.652L87.533 19.7709C87.346 18.9719 87.295 17.9349 87.295 16.7109ZM80.869 17.6969C80.291 17.6969 79.339 17.4929 79.339 16.1159C79.339 15.5889 79.492 15.1809 79.832 14.8409C80.291 14.3989 81.277 13.8889 83.521 13.8379V15.4189C83.521 15.5379 83.504 15.7419 83.453 15.9629C83.164 16.7619 82.331 17.6969 80.869 17.6969Z" fill="white"/>
<path d="M97.903 5.89894L95.115 14.1779C95.047 14.3819 94.979 14.6029 94.911 14.8069C94.843 14.6029 94.775 14.3989 94.69 14.2119L91.647 5.89894H87.431L92.701 19.1079L92.718 19.1419C92.803 19.3119 92.837 19.4139 92.837 19.4479C92.803 19.5159 92.752 19.6519 92.718 19.7369C92.259 20.7229 91.579 21.6239 90.899 22.1679L90.882 22.1849C90.117 22.8309 89.318 23.1369 89.012 23.2219L88.332 23.4429L89.318 26.7409L89.947 26.6219C90.338 26.5539 91.698 26.2309 93.262 24.9219C95.132 23.2729 96.373 20.6209 98.005 16.3199L102 5.88194L97.903 5.89894Z" fill="white"/>
<path d="M14.093 6.171C16.575 3.638 20.791 2.125 25.364 2.125C27.149 2.125 28.883 2.346 30.515 2.805L30.651 2.839L33.592 1.955L32.266 1.462C29.767 0.509999 26.877 0 23.919 0C19.618 0 15.623 1.037 12.614 2.924L12.291 3.128L13.532 6.749L14.093 6.171Z" fill="#FF0000"/>
<path d="M86.292 35.4791C86.292 36.5841 85.391 37.5021 84.269 37.5021H62.322C61.217 37.5021 60.299 36.6011 60.299 35.4791V25.9761C60.299 24.8711 61.217 23.9531 62.322 23.9531H84.269C85.374 23.9531 86.292 24.8711 86.292 25.9761V35.4791Z" fill="#FF0000"/>
<path d="M66.334 28.3044C65.688 28.3044 65.161 28.5425 64.804 29.0015C64.43 29.4605 64.243 30.0894 64.243 30.9054C64.243 31.7554 64.43 32.3844 64.787 32.8434C65.144 33.2854 65.654 33.4895 66.334 33.4895C66.623 33.4895 66.912 33.4725 67.184 33.3875C67.473 33.3365 67.745 33.2685 68.034 33.1665V34.1525C67.49 34.3564 66.878 34.4585 66.181 34.4585C65.161 34.4585 64.379 34.1525 63.852 33.5404C63.308 32.9284 63.036 32.0444 63.036 30.9054C63.036 30.1744 63.172 29.5454 63.427 29.0184C63.699 28.4744 64.073 28.0664 64.583 27.7774C65.076 27.4884 65.671 27.3524 66.317 27.3524C67.031 27.3524 67.677 27.5055 68.289 27.7945L67.881 28.7465C67.66 28.6275 67.405 28.5424 67.15 28.4574C66.895 28.3554 66.623 28.3044 66.334 28.3044Z" fill="white"/>
<path d="M72.709 34.3735L72.488 33.6425H72.454C72.216 33.9485 71.961 34.1695 71.689 34.2885C71.451 34.4075 71.111 34.4755 70.72 34.4755C70.21 34.4755 69.802 34.3395 69.513 34.0505C69.224 33.7615 69.088 33.3875 69.088 32.8775C69.088 32.3335 69.292 31.9255 69.683 31.6535C70.074 31.3815 70.686 31.2285 71.502 31.2115L72.42 31.1775V30.8885C72.42 30.5485 72.352 30.3105 72.182 30.1405C72.029 29.9705 71.791 29.8855 71.451 29.8855C71.179 29.8855 70.924 29.9195 70.686 30.0045C70.431 30.0895 70.21 30.1745 69.972 30.2935L69.615 29.4945C69.904 29.3415 70.21 29.2225 70.55 29.1545C70.89 29.0695 71.213 29.0355 71.519 29.0355C72.182 29.0355 72.692 29.1885 73.032 29.4775C73.372 29.7665 73.542 30.2085 73.542 30.8375V34.3565H72.709V34.3735ZM71.043 33.6085C71.434 33.6085 71.774 33.4895 72.012 33.2685C72.25 33.0475 72.386 32.7245 72.386 32.3165V31.8745L71.723 31.9085C71.196 31.9255 70.805 32.0275 70.567 32.1805C70.329 32.3335 70.227 32.5715 70.227 32.8945C70.227 33.1325 70.295 33.3025 70.431 33.4385C70.567 33.5745 70.771 33.6085 71.043 33.6085Z" fill="white"/>
<path d="M77.554 29.0355C77.775 29.0355 77.962 29.0525 78.115 29.0865L78.013 30.1235C77.86 30.0895 77.69 30.0725 77.52 30.0725C77.078 30.0725 76.721 30.2085 76.432 30.5145C76.16 30.8035 76.024 31.1775 76.024 31.6365V34.3735H74.919V29.1375H75.786L75.939 30.0555H75.99C76.177 29.7495 76.381 29.4945 76.67 29.3075C76.925 29.1205 77.248 29.0355 77.554 29.0355Z" fill="white"/>
<path d="M80.852 34.4755C80.206 34.4755 79.696 34.2375 79.322 33.7615C78.948 33.2855 78.761 32.6225 78.761 31.7725C78.761 30.9055 78.948 30.2425 79.322 29.7665C79.679 29.2905 80.189 29.0355 80.852 29.0355C81.532 29.0355 82.059 29.2905 82.416 29.8005H82.467C82.416 29.4095 82.399 29.1375 82.399 28.8995V26.9955H83.504V34.3735H82.637L82.45 33.6935H82.399C82.076 34.2035 81.532 34.4755 80.852 34.4755ZM81.158 33.5575C81.617 33.5575 81.957 33.4385 82.161 33.1835C82.382 32.9285 82.484 32.5035 82.484 31.9255V31.7725C82.484 31.1095 82.365 30.6335 82.161 30.3615C81.957 30.0895 81.617 29.9535 81.158 29.9535C80.767 29.9535 80.461 30.1065 80.24 30.4295C80.036 30.7525 79.934 31.1945 79.934 31.7895C79.934 32.3845 80.036 32.8095 80.24 33.1155C80.427 33.4045 80.733 33.5575 81.158 33.5575Z" fill="white"/>
</svg>
