<svg width="83" height="33" viewBox="0 0 83 33" fill="none" xmlns="http://www.w3.org/2000/svg">
<path d="M39.2533 25.7635H36.1884V1.90461H44.3171C45.2874 1.88434 46.2521 2.05642 47.1556 2.41093C48.059 2.76545 48.8833 3.29536 49.5808 3.9701C50.2854 4.60388 50.8462 5.38113 51.2254 6.24963C51.6047 7.11813 51.7936 8.05775 51.7796 9.00534C51.7998 9.958 51.6137 10.9038 51.2342 11.7778C50.8547 12.6518 50.2907 13.4335 49.5808 14.0691C48.1594 15.4246 46.4048 16.1016 44.3171 16.1004H39.2533V25.7635ZM39.2533 13.1706H44.3933C44.9568 13.1873 45.5176 13.0862 46.0397 12.8738C46.5619 12.6614 47.034 12.3423 47.4259 11.937C47.8156 11.5581 48.1255 11.1048 48.337 10.604C48.5486 10.1033 48.6576 9.56515 48.6576 9.02153C48.6576 8.4779 48.5486 7.93979 48.337 7.43902C48.1255 6.93825 47.8156 6.48499 47.4259 6.10603C47.0389 5.69219 46.5685 5.3653 46.0457 5.14705C45.5228 4.9288 44.9596 4.82417 44.3933 4.84009H39.2533V13.1706ZM58.8422 8.90635C61.1076 8.90635 62.8958 9.51172 64.2068 10.7225C65.5178 11.9332 66.1727 13.5932 66.1714 15.7025V25.7635H63.2398V23.4981H63.1065C61.8374 25.3637 60.1494 26.2965 58.0427 26.2965C56.2444 26.2965 54.7398 25.7635 53.5291 24.6974C52.948 24.2081 52.4835 23.5953 52.1693 22.9037C51.8551 22.2121 51.6992 21.4592 51.713 20.6997C51.713 19.0105 52.3513 17.6671 53.6281 16.6696C54.9048 15.672 56.6092 15.172 58.7414 15.1695C60.5613 15.1695 62.0601 15.5026 63.2379 16.1689V15.4683C63.2413 14.9506 63.1295 14.4385 62.9106 13.9693C62.6916 13.5001 62.371 13.0855 61.9719 12.7556C61.1614 12.0244 60.1051 11.6254 59.0136 11.6381C57.3015 11.6381 55.9467 12.3603 54.9492 13.8045L52.2498 12.1045C53.7347 9.97241 55.9321 8.90635 58.8422 8.90635ZM54.8769 20.7663C54.8748 21.1564 54.966 21.5413 55.1428 21.889C55.3197 22.2367 55.577 22.5371 55.8934 22.7652C56.5713 23.2984 57.4127 23.5808 58.275 23.5647C59.5683 23.5626 60.8081 23.0478 61.7225 22.1331C62.7378 21.1775 63.2455 20.0562 63.2455 18.7693C62.2898 18.0079 60.9572 17.6271 59.2477 17.6271C58.0027 17.6271 56.9646 17.9273 56.1333 18.5276C55.2938 19.1367 54.8769 19.8773 54.8769 20.7663ZM83 9.43938L72.7658 32.9594H69.6019L73.3997 24.7298L66.6702 9.43938H70.0016L74.8656 21.1661H74.9322L79.6628 9.43938H83Z" fill="white"/>
<path d="M26.868 14.0197C26.8691 13.0857 26.7901 12.1533 26.6319 11.2327H13.7059V16.5117H21.1093C20.9578 17.3548 20.6372 18.1585 20.1667 18.8743C19.6962 19.5902 19.0857 20.2034 18.3718 20.6769V24.1035H22.7903C25.3774 21.7182 26.868 18.1907 26.868 14.0197Z" fill="#4285F4"/>
<path d="M13.7059 27.414C17.4048 27.414 20.5192 26.1995 22.7903 24.1054L18.3718 20.6788C17.142 21.5126 15.5582 21.9885 13.7059 21.9885C10.1308 21.9885 7.09631 19.5784 6.01121 16.3308H1.4595V19.8621C2.60032 22.1322 4.34963 24.0405 6.51215 25.3741C8.67466 26.7076 11.1653 27.4139 13.7059 27.414Z" fill="#34A853"/>
<path d="M6.01121 16.3308C5.43756 14.629 5.43756 12.786 6.01121 11.0842V7.55283H1.4595C0.499808 9.46251 0 11.5702 0 13.7074C0 15.8447 0.499807 17.9524 1.4595 19.8621L6.01121 16.3308Z" fill="#FBBC04"/>
<path d="M13.7059 5.4264C15.6606 5.39446 17.5493 6.133 18.9639 7.48237L22.8759 3.57031C20.3953 1.24034 17.109 -0.0388478 13.7059 0.000899276C11.1653 0.00101507 8.67466 0.70727 6.51215 2.04082C4.34963 3.37436 2.60032 5.28273 1.4595 7.55283L6.01121 11.0842C7.09631 7.83647 10.1308 5.4264 13.7059 5.4264Z" fill="#EA4335"/>
</svg>
