<svg width="120" height="33" viewBox="0 0 120 33" fill="none" xmlns="http://www.w3.org/2000/svg">
<path d="M32.1541 20.0413C34.222 11.2836 28.7989 2.50769 20.0413 0.439757C11.2836 -1.62818 2.50769 3.79493 0.439757 12.5526C-1.62818 21.3103 3.79493 30.0862 12.5526 32.1541C21.3103 34.2221 30.0862 28.7989 32.1541 20.0413Z" fill="#AE7BE6"/>
<path d="M82.4058 25.6086V19.6919C82.4058 18.2355 81.8596 17.5072 80.4942 17.5072C79.9481 17.5072 79.3109 17.5983 78.9468 17.6893V26.3369C78.9468 26.6099 78.6737 26.883 78.4006 26.883H76.307C76.0339 26.883 75.7608 26.6099 75.7608 26.3369V16.2329C75.7608 15.8687 76.0339 15.5957 76.307 15.5046C77.6724 15.0495 79.0378 14.7764 80.4942 14.7764C83.7712 14.7764 85.5917 16.5059 85.5917 19.6919V26.4279C85.5917 26.701 85.3187 26.9741 85.0456 26.9741H83.7712C82.952 26.9741 82.4058 26.3369 82.4058 25.6086ZM90.5982 22.0586L90.5072 22.8778C90.5072 23.9702 91.2354 24.6073 92.4188 24.6073C93.3291 24.6073 94.1483 24.3343 95.0586 23.8791C95.1496 23.8791 95.2406 23.7881 95.3316 23.7881C95.5137 23.7881 95.6047 23.8791 95.6958 23.9702C95.7868 24.0612 95.9688 24.3343 95.9688 24.3343C96.1509 24.6073 96.3329 24.9715 96.3329 25.2445C96.3329 25.6997 96.0599 26.1548 95.6958 26.3369C94.6945 26.883 93.5111 27.1561 92.2367 27.1561C90.7803 27.1561 89.5969 26.792 88.6867 26.0638C87.7764 25.2445 87.2302 24.1522 87.2302 22.7868V19.2367C87.2302 16.4149 89.0508 14.6854 92.1457 14.6854C95.1496 14.6854 96.8791 16.3239 96.8791 19.2367V21.4214C96.8791 21.6945 96.606 21.9676 96.3329 21.9676H90.5982V22.0586ZM90.5072 20.056H93.9662V19.1457C93.9662 18.0534 93.3291 17.3252 92.2367 17.3252C91.1444 17.3252 90.5072 17.9624 90.5072 19.1457V20.056ZM113.719 22.0586L113.628 22.8778C113.628 23.9702 114.356 24.6073 115.54 24.6073C116.45 24.6073 117.269 24.3343 118.179 23.8791C118.27 23.8791 118.362 23.7881 118.453 23.7881C118.635 23.7881 118.726 23.8791 118.817 23.9702C118.908 24.0612 119.09 24.3343 119.09 24.3343C119.272 24.6073 119.454 24.9715 119.454 25.2445C119.454 25.6997 119.181 26.1548 118.817 26.3369C117.815 26.883 116.632 27.1561 115.358 27.1561C113.901 27.1561 112.718 26.792 111.808 26.0638C110.897 25.2445 110.351 24.1522 110.351 22.7868V19.2367C110.351 16.4149 112.172 14.6854 115.267 14.6854C118.27 14.6854 120 16.3239 120 19.2367V21.4214C120 21.6945 119.727 21.9676 119.454 21.9676H113.719V22.0586ZM113.628 20.056H117.087V19.1457C117.087 18.0534 116.45 17.3252 115.358 17.3252C114.265 17.3252 113.628 17.9624 113.628 19.1457V20.056ZM60.1042 26.9741H61.3785C61.6516 26.9741 61.9247 26.701 61.9247 26.4279V19.6919C61.9247 16.597 60.2862 14.7764 57.5554 14.7764C56.7362 14.7764 55.8259 14.9585 55.2797 15.1405V11.7725C55.2797 11.0443 54.6425 10.4071 53.9143 10.4071H52.6399C52.3669 10.4071 52.0938 10.6802 52.0938 10.9533V26.4279C52.0938 26.701 52.3669 26.9741 52.6399 26.9741H54.7336C55.0066 26.9741 55.2797 26.701 55.2797 26.4279V17.8713C55.7349 17.6893 56.3721 17.5983 56.8272 17.5983C58.1926 17.5983 58.7388 18.2355 58.7388 19.7829V25.6997C58.8298 26.3369 59.3759 26.9741 60.1042 26.9741ZM73.8493 19.3278V22.6958C73.8493 25.5176 71.9377 27.2471 68.7517 27.2471C65.6568 27.2471 63.6542 25.5176 63.6542 22.6958V19.3278C63.6542 16.5059 65.5658 14.7764 68.7517 14.7764C71.9377 14.7764 73.8493 16.5059 73.8493 19.3278ZM70.6633 19.3278C70.6633 18.2355 70.0261 17.5072 68.8428 17.5072C67.6594 17.5072 67.0222 18.1444 67.0222 19.3278V22.6958C67.0222 23.7881 67.6594 24.4253 68.8428 24.4253C70.0261 24.4253 70.6633 23.7881 70.6633 22.6958V19.3278ZM50.3643 17.7803C50.3643 20.6932 48.1796 22.6958 45.2667 22.6958C44.5385 22.6958 43.9013 22.6048 43.2641 22.3317V26.4279C43.2641 26.701 42.9911 26.9741 42.718 26.9741H40.6244C40.3513 26.9741 40.0782 26.701 40.0782 26.4279V11.9546C40.0782 11.5905 40.3513 11.3174 40.6244 11.2264C41.9898 10.7712 43.3552 10.4981 44.8116 10.4981C48.0886 10.4981 50.3643 12.5007 50.3643 15.5957V17.7803ZM47.0873 15.4136C47.0873 13.9572 46.086 13.229 44.7206 13.229C43.9013 13.229 43.3552 13.502 43.3552 13.502V19.5098C43.9013 19.7829 44.1744 19.8739 44.8116 19.8739C46.177 19.8739 47.1783 19.0547 47.1783 17.6893V15.4136H47.0873ZM109.168 17.7803C109.168 20.6932 106.983 22.6958 104.07 22.6958C103.342 22.6958 102.705 22.6048 102.068 22.3317V26.4279C102.068 26.701 101.795 26.9741 101.521 26.9741H99.4279C99.1548 26.9741 98.8817 26.701 98.8817 26.4279V11.9546C98.8817 11.5905 99.1548 11.3174 99.4279 11.2264C100.793 10.7712 102.159 10.4981 103.615 10.4981C106.892 10.4981 109.168 12.5007 109.168 15.5957V17.7803ZM105.891 15.4136C105.891 13.9572 104.889 13.229 103.524 13.229C102.705 13.229 102.159 13.502 102.159 13.502V19.5098C102.705 19.7829 102.978 19.8739 103.615 19.8739C104.981 19.8739 105.982 19.0547 105.982 17.6893V15.4136H105.891Z" fill="#AE7BE6"/>
<path d="M23.6933 12.0456C23.6933 11.4084 23.1472 10.8623 22.51 10.8623H20.3253L15.3188 5.12755C14.8637 4.58139 14.1355 4.39933 13.4073 4.58139L11.6777 5.12755C11.4047 5.21858 11.3136 5.58269 11.4957 5.76474L16.9573 10.9533H8.67384C8.40076 10.9533 8.21871 11.1353 8.21871 11.4084V12.3187C8.21871 12.9559 8.76487 13.502 9.40206 13.502H10.6764V17.8713C10.6764 21.1483 12.406 23.0599 15.3188 23.0599C16.2291 23.0599 16.9573 22.9689 17.8676 22.6048V25.5176C17.8676 26.3369 18.5048 26.9741 19.324 26.9741H20.5984C20.8715 26.9741 21.1446 26.701 21.1446 26.4279V13.411H23.2382C23.5113 13.411 23.6933 13.229 23.6933 12.9559V12.0456ZM17.8676 19.8739C17.3214 20.147 16.5932 20.2381 16.047 20.2381C14.5906 20.2381 13.8624 19.5098 13.8624 17.8713V13.502H17.8676V19.8739Z" fill="white"/>
</svg>
