<svg width="30" height="25" viewBox="0 0 30 25" fill="none" xmlns="http://www.w3.org/2000/svg">
<path d="M28.0007 6.66667C28.0007 4.08911 23.4735 2 17.889 2C12.3045 2 7.77734 4.08911 7.77734 6.66667M28.0007 6.66667V12.8889C28.0007 14.4756 26.2875 15.8756 23.6671 16.7187C22.029 17.2476 20.037 17.5556 17.889 17.5556C15.741 17.5556 13.749 17.246 12.1109 16.7187C9.49199 15.8756 7.77734 14.4756 7.77734 12.8889V6.66667M28.0007 6.66667C28.0007 8.25333 26.2875 9.65333 23.6671 10.4964C22.029 11.0253 20.037 11.3333 17.889 11.3333C15.741 11.3333 13.749 11.0238 12.1109 10.4964C9.49199 9.65333 7.77734 8.25333 7.77734 6.66667" stroke="#C7C7CC" stroke-width="2.3" stroke-linecap="round" stroke-linejoin="round"/>
<path d="M2 12.889V19.1112C2 20.6979 3.71465 22.0979 6.33357 22.941C7.97166 23.4699 9.96365 23.7779 12.1117 23.7779C14.2597 23.7779 16.2517 23.4683 17.8898 22.941C20.5087 22.0979 22.2233 20.6979 22.2233 19.1112V17.5557M2 12.889C2 11.027 4.36179 9.4201 7.77809 8.67188M2 12.889C2 14.4757 3.71465 15.8757 6.33357 16.7188C7.97166 17.2477 9.96365 17.5557 12.1117 17.5557C13.1156 17.5557 14.0849 17.4888 15.0007 17.3628" stroke="#C7C7CC" stroke-width="2.3" stroke-linecap="round" stroke-linejoin="round"/>
</svg>
