<svg width="27" height="28" viewBox="0 0 27 28" fill="none" xmlns="http://www.w3.org/2000/svg">
<path d="M4.84866 10.7688L7.47501 11.88C7.78927 11.2514 8.11476 10.6454 8.45147 10.0617C8.78819 9.47808 9.15857 8.89445 9.56262 8.31082L7.67704 7.94043L4.84866 10.7688ZM9.62997 13.5635L13.4685 17.3684C14.4113 17.0092 15.4214 16.4593 16.4989 15.7185C17.5764 14.9777 18.5865 14.1359 19.5293 13.1931C21.1006 11.6218 22.3299 9.87675 23.217 7.95794C24.1032 6.03823 24.4902 4.27027 24.378 2.65405C22.7617 2.54181 20.9884 2.92881 19.0579 3.81504C17.1274 4.70216 15.3765 5.93138 13.8052 7.50271C12.8624 8.4455 12.0206 9.45564 11.2799 10.5331C10.5391 11.6106 9.98913 12.6207 9.62997 13.5635ZM15.6234 11.3749C15.1072 10.8586 14.849 10.2242 14.849 9.4718C14.849 8.72026 15.1072 8.08634 15.6234 7.57005C16.1397 7.05376 16.7795 6.79561 17.5427 6.79561C18.3059 6.79561 18.9457 7.05376 19.462 7.57005C19.9783 8.08634 20.2364 8.72026 20.2364 9.4718C20.2364 10.2242 19.9783 10.8586 19.462 11.3749C18.9457 11.8912 18.3059 12.1493 17.5427 12.1493C16.7795 12.1493 16.1397 11.8912 15.6234 11.3749ZM16.2632 22.1834L19.0916 19.355L18.7212 17.4694C18.1376 17.8734 17.5539 18.238 16.9703 18.563C16.3867 18.889 15.7806 19.2091 15.152 19.5233L16.2632 22.1834ZM26.8023 0.196053C27.2288 2.9122 26.9653 5.55516 26.0117 8.12495C25.0572 10.6956 23.4127 13.1482 21.0782 15.4828L21.7516 18.8162C21.8414 19.2652 21.8189 19.7029 21.6843 20.1294C21.5496 20.5559 21.3251 20.9263 21.0108 21.2406L15.3541 26.8973L12.5257 20.2641L6.76791 14.5063L0.134685 11.6779L5.75778 6.02117C6.07204 5.70691 6.44826 5.48243 6.88644 5.34775C7.32371 5.21306 7.76683 5.19062 8.21578 5.28041L11.5492 5.95383C13.8838 3.61929 16.3305 1.9694 18.8896 1.00416C21.4486 0.0389212 24.0861 -0.230449 26.8023 0.196053ZM2.52534 18.7826C3.311 17.9969 4.27041 17.5982 5.40356 17.5866C6.5376 17.5758 7.49746 17.9632 8.28312 18.7489C9.06878 19.5346 9.45578 20.494 9.4441 21.6271C9.43333 22.7612 9.03511 23.721 8.24945 24.5067C7.68826 25.0679 6.7513 25.5505 5.43857 25.9545C4.12495 26.3586 2.31209 26.7177 0 27.032C0.314265 24.7199 0.673424 22.9071 1.07748 21.5934C1.48153 20.2807 1.96415 19.3438 2.52534 18.7826ZM4.4446 20.6682C4.22013 20.8926 3.99565 21.3025 3.77118 21.8978C3.5467 22.4922 3.38957 23.0925 3.29978 23.6986C3.90586 23.6088 4.50656 23.4575 5.10186 23.2447C5.69627 23.031 6.10571 22.8119 6.33019 22.5874C6.59956 22.318 6.74547 21.9926 6.76791 21.6109C6.79036 21.2293 6.6669 20.9039 6.39753 20.6345C6.12816 20.3651 5.80267 20.2358 5.42107 20.2466C5.03946 20.2583 4.71397 20.3988 4.4446 20.6682Z" fill="#F5F5F5"/>
</svg>
