<svg width="36" height="36" viewBox="0 0 36 36" fill="none" xmlns="http://www.w3.org/2000/svg">
<path fill-rule="evenodd" clip-rule="evenodd" d="M6.54768 7.11881C5.75865 7.11881 5.11901 7.75845 5.11901 8.54748V26.476C5.11901 27.265 5.75865 27.9046 6.54768 27.9046H30.4523C31.2414 27.9046 31.881 27.265 31.881 26.476V8.54748C31.881 7.75845 31.2414 7.11881 30.4523 7.11881H6.54768ZM2.0002 8.54748C2.0002 6.03598 4.03618 4 6.54768 4H30.4523C32.9638 4 34.9998 6.03598 34.9998 8.54748V26.476C34.9998 28.9875 32.9638 31.0234 30.4523 31.0234H6.54768C4.03618 31.0234 2.0002 28.9875 2.0002 26.476V8.54748Z" fill="#C7C7CC"/>
<path fill-rule="evenodd" clip-rule="evenodd" d="M2.24345 9.20515C2.70535 8.47826 3.66906 8.26345 4.39595 8.72535L17.7925 17.2382C18.0048 17.3703 18.2499 17.4404 18.5 17.4404C18.7501 17.4404 18.9952 17.3703 19.2075 17.2382L32.604 8.72535C33.3309 8.26345 34.2946 8.47826 34.7566 9.20515C35.2185 9.93204 35.0036 10.8958 34.2768 11.3577L20.8668 19.879C20.1574 20.3235 19.3371 20.5592 18.5 20.5592C17.6629 20.5592 16.8426 20.3235 16.1332 19.879L16.1248 19.8737L2.72325 11.3577C1.99636 10.8958 1.78155 9.93204 2.24345 9.20515Z" fill="#C7C7CC"/>
</svg>
