<svg width="24" height="22" viewBox="0 0 24 22" fill="none" xmlns="http://www.w3.org/2000/svg">
<path d="M10.2222 6.22222C10.1193 6.32391 10.0376 6.44503 9.98179 6.57854C9.92601 6.71205 9.89729 6.85531 9.89729 7C9.89729 7.14469 9.92601 7.28795 9.98179 7.42146C10.0376 7.55497 10.1193 7.67609 10.2222 7.77778L12.3333 9.88889H2.11111C1.5 9.88889 1 10.3889 1 11C1 11.6111 1.5 12.1111 2.11111 12.1111H12.3333L10.2222 14.2222C10.1193 14.3239 10.0376 14.445 9.98179 14.5785C9.92601 14.7121 9.89729 14.8553 9.89729 15C9.89729 15.1447 9.92601 15.288 9.98179 15.4215C10.0376 15.555 10.1193 15.6761 10.2222 15.7778C10.6556 16.2111 11.3444 16.2111 11.7778 15.7778L15.7667 11.7889C15.8697 11.6861 15.9514 11.564 16.0071 11.4296C16.0629 11.2952 16.0916 11.1511 16.0916 11.0056C16.0916 10.86 16.0629 10.7159 16.0071 10.5815C15.9514 10.4471 15.8697 10.325 15.7667 10.2222L11.7778 6.22222C11.6761 6.11929 11.555 6.03757 11.4215 5.98179C11.2879 5.92601 11.1447 5.89729 11 5.89729C10.8553 5.89729 10.712 5.92601 10.5785 5.98179C10.445 6.03757 10.3239 6.11929 10.2222 6.22222ZM21 18.7778H13.2222C12.6111 18.7778 12.1111 19.2778 12.1111 19.8889C12.1111 20.5 12.6111 21 13.2222 21H21C22.2222 21 23.2222 20 23.2222 18.7778V3.22222C23.2222 2 22.2222 1 21 1H13.2222C12.6111 1 12.1111 1.5 12.1111 2.11111C12.1111 2.72222 12.6111 3.22222 13.2222 3.22222H21V18.7778Z" fill="white" stroke="white" stroke-width="0.3"/>
</svg>
