<svg width="25" height="22" viewBox="0 0 25 22" fill="none" xmlns="http://www.w3.org/2000/svg">
<path d="M10.1444 5.74444C10.0312 5.85631 9.94132 5.98953 9.87997 6.13639C9.81861 6.28325 9.78702 6.44084 9.78702 6.6C9.78702 6.75916 9.81861 6.91674 9.87997 7.06361C9.94132 7.21047 10.0312 7.34369 10.1444 7.45556L12.4667 9.77778H1.22222C0.55 9.77778 0 10.3278 0 11C0 11.6722 0.55 12.2222 1.22222 12.2222H12.4667L10.1444 14.5444C10.0312 14.6563 9.94132 14.7895 9.87997 14.9364C9.81861 15.0833 9.78702 15.2408 9.78702 15.4C9.78702 15.5592 9.81861 15.7167 9.87997 15.8636C9.94132 16.0105 10.0312 16.1437 10.1444 16.2556C10.6211 16.7322 11.3789 16.7322 11.8556 16.2556L16.2433 11.8678C16.3566 11.7547 16.4465 11.6204 16.5079 11.4725C16.5692 11.3247 16.6008 11.1662 16.6008 11.0061C16.6008 10.846 16.5692 10.6875 16.5079 10.5397C16.4465 10.3918 16.3566 10.2575 16.2433 10.1444L11.8556 5.74444C11.7437 5.63122 11.6105 5.54132 11.4636 5.47997C11.3167 5.41861 11.1592 5.38702 11 5.38702C10.8408 5.38702 10.6833 5.41861 10.5364 5.47997C10.3895 5.54132 10.2563 5.63122 10.1444 5.74444ZM22 19.5556H13.4444C12.7722 19.5556 12.2222 20.1056 12.2222 20.7778C12.2222 21.45 12.7722 22 13.4444 22H22C23.3444 22 24.4444 20.9 24.4444 19.5556V2.44444C24.4444 1.1 23.3444 0 22 0H13.4444C12.7722 0 12.2222 0.55 12.2222 1.22222C12.2222 1.89444 12.7722 2.44444 13.4444 2.44444H22V19.5556Z" fill="#F5F5F5"/>
</svg>
