<svg width="134" height="136" viewBox="0 0 134 136" fill="none" xmlns="http://www.w3.org/2000/svg">
<path d="M0 0H134V117.486C134 120.577 131.652 123.162 128.575 123.459L6.57533 135.211C3.05061 135.55 0 132.779 0 129.238V0Z" fill="#C71B4A"/>
<path fill-rule="evenodd" clip-rule="evenodd" d="M57.2679 21.1764C57.2193 21.2549 56.0376 28.8135 54.6417 37.9732C53.2458 47.133 52.0659 54.7929 52.0198 54.9952L51.9359 55.363H56.5674H61.1989L62.1407 48.9468C62.6587 45.4177 63.1357 42.3923 63.2006 42.2236C63.2925 41.9848 64.3026 43.4065 67.7595 48.6399L72.2004 55.363H77.8651H83.5299L83.2798 54.9815C83.1423 54.7716 80.881 51.5532 78.2548 47.8296C75.6284 44.1059 73.4569 40.9857 73.4288 40.8957C73.4008 40.8058 76.4278 38.0472 80.1556 34.7655C83.8835 31.4838 87.1292 28.5966 87.3685 28.3492L87.8037 27.8997H82.3298H76.8558L70.1614 34.256C66.4794 37.752 63.453 40.6008 63.4362 40.5869C63.4192 40.573 64.0629 36.3429 64.8666 31.1865C65.6702 26.0302 66.3277 21.6364 66.3277 21.4226V21.0339H61.8418C59.3745 21.0339 57.3163 21.0981 57.2679 21.1764ZM102.624 32.4361C99.0841 38.6174 96.1133 43.772 96.0223 43.8909C95.9033 44.0462 95.2638 41.8344 93.7561 36.0527C92.6008 31.6228 91.6258 27.9685 91.5896 27.9322C91.5531 27.8959 89.676 29.503 87.4181 31.5038C85.16 33.5043 83.3424 35.2221 83.3788 35.3212C83.4151 35.4202 84.8159 39.7733 86.4913 44.995L89.5378 54.489L86.1347 60.4431C84.2629 63.7179 81.6575 68.2832 80.3448 70.5879L77.9579 74.7785L78.7063 75.5738C79.1179 76.0114 79.8735 76.9301 80.3852 77.6157C80.897 78.3012 81.6859 79.5885 82.1381 80.4765C82.5904 81.3643 83.0836 82.4695 83.234 82.9325L83.5076 83.7742L84.42 83.2246C84.922 82.9225 85.7093 82.546 86.1698 82.3883C86.7431 82.1916 87.4447 82.1088 88.3965 82.1249C89.2609 82.1396 90.1262 82.2634 90.6864 82.4524C91.1815 82.6196 92.0025 83.0324 92.5107 83.3698C93.019 83.707 93.6843 84.2929 93.9893 84.6717C94.2942 85.0504 94.7037 85.6375 94.8994 85.9763C95.0949 86.3152 95.3741 87.0021 95.5196 87.5027C95.7056 88.1425 95.7642 88.8335 95.7166 89.8291C95.6713 90.7762 95.527 91.556 95.2809 92.1835C95.0786 92.6998 94.6308 93.4975 94.2859 93.9566C93.9411 94.4156 93.2833 95.0734 92.8243 95.4182C92.3652 95.7631 91.5675 96.2109 91.0512 96.4132C90.4207 96.6604 89.6439 96.8036 88.6835 96.8494C87.561 96.9028 87.0151 96.8448 86.1399 96.579C85.527 96.3928 84.7106 96.0124 84.3255 95.7333C83.9404 95.4545 83.6116 95.25 83.5946 95.2791C83.5778 95.3082 83.3161 95.9573 83.013 96.7215C82.7097 97.4858 82.1721 98.626 81.8178 99.2554C81.4637 99.8847 80.8121 100.888 80.3698 101.484C79.9274 102.081 79.4532 102.663 79.3157 102.777C79.0972 102.958 79.1228 103.023 79.5217 103.294C79.7725 103.465 80.4558 103.85 81.0402 104.149C81.6246 104.448 82.6931 104.879 83.4145 105.107C84.1359 105.334 85.3438 105.611 86.0988 105.721C86.9342 105.843 88.1808 105.884 89.2828 105.826C90.3068 105.773 91.662 105.58 92.4015 105.383C93.1208 105.192 94.2615 104.796 94.9363 104.504C95.6111 104.213 96.7146 103.615 97.3884 103.175C98.0623 102.736 99.2942 101.689 100.126 100.849L101.639 99.3204C101.768 98.9661 101.796 98.9266 101.796 98.9266L102.384 97.9867C102.707 97.4696 103.22 96.4309 103.524 95.6783C103.827 94.9258 104.233 93.5469 104.426 92.6141C104.717 91.2107 104.762 90.566 104.691 88.8749C104.638 87.6055 104.479 86.352 104.273 85.5659C104.09 84.8698 103.759 83.8505 103.537 83.301C103.315 82.7514 102.778 81.7109 102.345 80.9888C101.911 80.2666 101.043 79.1237 100.415 78.4491C99.7874 77.7743 98.7943 76.858 98.2081 76.4129C97.6219 75.9677 96.4066 75.2457 95.5075 74.8084C94.6084 74.3711 93.3464 73.8696 92.7028 73.6938C92.0594 73.5181 91.0447 73.3219 90.448 73.2582C89.8514 73.1943 89.3848 73.0905 89.4111 73.0277C89.4374 72.9648 89.9372 72.0549 90.5216 71.0057L91.5842 69.0982L97.9782 69.0965L104.372 69.0947L104.476 68.3362C104.533 67.9192 104.58 66.0445 104.58 64.1704V60.7632L100.433 60.7195L96.2861 60.6759L100.004 54.408C102.049 50.9607 103.824 48.0416 103.947 47.921C103.343 48.8604 104.071 47.8003 103.947 47.921C103.824 48.0416 103.265 48.9876 104.137 47.5972C104.137 47.5972 103.98 48.0187 103.947 47.921C103.915 47.8232 104.702 46.8846 104.702 46.8846C104.881 46.7889 103.947 47.921 104.702 46.8846C104.523 46.9803 104.413 46.996 104.457 46.9197C104.501 46.8432 107.014 42.5959 110.042 37.4811C113.07 32.3664 115.563 28.1194 115.581 28.0434C115.6 27.9675 114.187 26.3961 112.442 24.5513C110.697 22.7067 109.222 21.1973 109.164 21.1973C109.107 21.1973 106.163 26.2548 102.624 32.4361ZM39.9269 24.2044C39.2076 24.3236 38.1409 24.5524 37.5565 24.7131C36.9721 24.8738 35.97 25.2428 35.3297 25.5331C34.6894 25.8234 33.7285 26.3577 33.1944 26.7202C32.6604 27.083 31.8682 27.7357 31.4338 28.1711C30.9997 28.6062 30.3595 29.3984 30.0111 29.9313C29.6629 30.4642 29.2274 31.3838 29.0434 31.9747C28.8591 32.5657 28.6669 33.531 28.6161 34.1201C28.5523 34.8589 28.6041 35.4688 28.7835 36.0851C28.9263 36.5766 29.2804 37.3371 29.5706 37.7749C29.8606 38.2127 30.5439 38.9029 31.0891 39.3084C31.6341 39.714 32.963 40.4668 34.0419 40.9812C35.1208 41.4959 37.0883 42.3029 38.4144 42.7747C39.7404 43.2466 41.2092 43.8629 41.6783 44.1443C42.1475 44.4254 42.7059 44.9131 42.9192 45.2278C43.2202 45.6719 43.2903 45.9521 43.2325 46.4798C43.1916 46.8537 42.9998 47.3818 42.8064 47.6534C42.6131 47.9251 42.2111 48.2979 41.9131 48.482C41.6152 48.6662 40.8994 48.9378 40.3223 49.0855C39.5648 49.2796 38.8416 49.333 37.7202 49.2775C36.5969 49.2217 35.9298 49.0978 35.3101 48.8292C34.8388 48.6252 34.1965 48.174 33.8828 47.8268C33.5551 47.4639 33.2327 46.8783 33.1248 46.4502C33.0216 46.0404 32.8833 45.7264 32.8176 45.7525C32.7519 45.7785 31.0695 46.5298 29.0789 47.4219C26.8748 48.4097 25.4596 49.1328 25.4596 49.2712C25.4596 49.3963 25.6546 49.897 25.8929 50.3838C26.1314 50.8707 26.7351 51.681 27.2347 52.1847C27.8788 52.8338 28.5732 53.309 29.6213 53.8177C30.4342 54.2124 31.7614 54.7025 32.5706 54.907C33.8753 55.2368 34.4306 55.2782 37.4748 55.2725C40.4126 55.2669 41.1286 55.2145 42.4386 54.9091C43.2805 54.7126 44.5546 54.299 45.2696 53.9899C45.9848 53.6808 46.9809 53.1826 47.4831 52.8833C47.9854 52.5839 48.8875 51.8582 49.4876 51.2707C50.2763 50.4984 50.7638 49.8326 51.2473 48.8667C51.615 48.132 52.0037 47.1082 52.111 46.5916C52.2182 46.075 52.2741 45.0234 52.2354 44.2549C52.179 43.1366 52.0708 42.6671 51.6938 41.9047C51.4095 41.3298 50.8545 40.6111 50.294 40.0923C49.7831 39.6194 48.7129 38.8955 47.9154 38.4839C47.1182 38.0723 45.1511 37.285 43.5445 36.7342C41.9378 36.1835 40.321 35.5788 39.9517 35.3905C39.5824 35.202 39.0028 34.8641 38.6634 34.6397C38.3242 34.4152 37.8907 33.9792 37.7001 33.6708C37.4495 33.2652 37.3788 32.9544 37.445 32.5467C37.4954 32.2369 37.6997 31.754 37.8993 31.4739C38.1156 31.17 38.6972 30.7582 39.3397 30.4536C40.3338 29.9827 40.5505 29.9431 42.1338 29.9431C43.4041 29.9431 44.0513 30.0206 44.6238 30.2416C45.1062 30.4278 45.6429 30.819 46.0502 31.2818C46.4094 31.6898 46.7499 32.2727 46.8069 32.5773C46.8642 32.8817 46.9644 33.1308 47.0298 33.1308C47.0951 33.1308 48.6869 32.4634 50.567 31.6476C52.4472 30.8319 54.0408 30.111 54.1083 30.0454C54.1758 29.9799 54.0332 29.5256 53.7915 29.0357C53.5497 28.5457 52.8692 27.6605 52.2792 27.0686C51.5357 26.3225 50.8303 25.8084 49.9804 25.3928C49.3061 25.0633 48.1659 24.6391 47.4466 24.4504C46.4807 24.197 45.498 24.0918 43.6867 24.0476C42.1352 24.0099 40.7544 24.0674 39.9269 24.2044ZM22.2174 60.9126C22.2473 60.9978 23.4856 62.8703 24.9692 65.0738L27.6664 69.08L32.4163 69.1282L37.1662 69.1765L33.6079 75.4701C31.6509 78.9317 30.0468 81.8104 30.0432 81.8673C30.0397 81.9242 31.9679 82.0067 34.3279 82.0506C37.6724 82.1128 38.8042 82.1893 39.4576 82.3971C39.9187 82.5439 40.6422 82.8573 41.0655 83.0938C41.4887 83.3304 42.1975 83.8865 42.6407 84.3297C43.0839 84.7729 43.6361 85.5096 43.8679 85.9672C44.0997 86.4246 44.3921 87.1373 44.5175 87.5509C44.6431 87.9643 44.7465 88.8613 44.7475 89.544C44.7487 90.3646 44.6383 91.1082 44.4216 91.7379C44.2414 92.2617 43.9174 92.9914 43.7016 93.3596C43.486 93.7277 42.9163 94.4001 42.4355 94.8537C41.9549 95.3075 41.1438 95.8828 40.6329 96.1321C40.1222 96.3814 39.1785 96.6668 38.5357 96.7662C37.6538 96.9027 37.0794 96.8984 36.1948 96.7485C35.5502 96.6393 34.6242 96.3495 34.1369 96.1046C33.6497 95.8597 32.8984 95.3422 32.4671 94.9544C32.0359 94.5668 31.425 93.8246 31.1095 93.3053C30.794 92.7859 30.4246 91.8891 30.2887 91.3126C30.1499 90.7234 30.0406 89.4948 30.0393 88.5071L30.0368 86.7497H25.5362C21.4437 86.7497 21.0259 86.7751 20.9284 87.0288C20.8696 87.1823 20.9064 88.4881 21.0103 89.9304C21.1274 91.5568 21.3298 93.0187 21.5428 93.779C21.7317 94.4534 22.1687 95.6076 22.5136 96.3442C22.8586 97.0807 23.4234 98.1097 23.7689 98.6311C24.1144 99.1525 24.8752 100.087 25.4596 100.708C26.044 101.329 27.0003 102.201 27.5847 102.646C28.1691 103.09 29.3829 103.812 30.282 104.25C31.1811 104.687 32.5052 105.213 33.2245 105.419C34.3742 105.747 34.888 105.791 37.4748 105.785C40.2121 105.779 40.5193 105.747 41.8802 105.328C42.6848 105.08 43.931 104.581 44.6494 104.219C45.3679 103.857 46.2573 103.353 46.626 103.099C46.9946 102.846 47.59 102.392 47.9491 102.091C48.3084 101.79 48.8772 101.239 49.2129 100.867L49.8237 100.189L49.2567 99.2318C48.9448 98.7053 48.4613 97.7006 48.1819 96.9991C47.9027 96.2977 47.536 95.1836 47.3672 94.5235C47.1983 93.8632 46.9815 92.7583 46.8856 92.068C46.7896 91.3776 46.7115 90.2113 46.712 89.4761C46.7125 88.7408 46.822 87.4152 46.9554 86.5305C47.0888 85.6456 47.4599 84.1376 47.7801 83.1793C48.1003 82.2209 48.6993 80.8127 49.1111 80.05L49.86 78.6632L48.7351 77.6129C48.1164 77.0352 47.0674 76.2064 46.404 75.7711C45.7406 75.3359 45.1336 74.9797 45.0553 74.9797C44.9769 74.9797 44.9128 74.9201 44.9128 74.8471C44.9128 74.7741 46.4633 71.9604 48.3586 68.5943C50.2538 65.2281 52.0247 62.0878 52.2939 61.6159L52.7835 60.7576H37.4732C27.8965 60.7576 22.1833 60.8157 22.2174 60.9126ZM57.3367 70.8198C54.1449 76.3519 51.2236 81.4895 50.8449 82.2369C50.4661 82.9843 49.9569 84.2504 49.7132 85.0503C49.3064 86.3844 49.2688 86.7409 49.2572 89.3653C49.2463 91.8741 49.2916 92.397 49.6241 93.6156C49.8328 94.3798 50.2858 95.6076 50.6307 96.3442C50.9758 97.0807 51.5406 98.1097 51.8862 98.6311C52.2316 99.1525 52.9918 100.086 53.5754 100.705C54.159 101.324 55.0546 102.152 55.5658 102.546C56.077 102.939 57.0423 103.556 57.7109 103.917C58.3796 104.277 59.4334 104.75 60.0525 104.966C60.6717 105.182 61.797 105.484 62.5531 105.638C63.6129 105.852 64.4373 105.897 66.1495 105.832C67.6459 105.775 68.7865 105.637 69.6436 105.409C70.3434 105.222 71.5344 104.779 72.2903 104.425C73.0464 104.071 74.0921 103.499 74.6144 103.154C75.1366 102.809 76.1766 101.941 76.9253 101.224C77.6741 100.508 78.6772 99.3302 79.1545 98.6075C79.6317 97.885 80.2475 96.7752 80.5226 96.1414C80.7979 95.5076 81.1755 94.4339 81.3616 93.7552C81.5478 93.0766 81.7649 91.8296 81.844 90.9842C81.9295 90.0699 81.9261 88.8178 81.8357 87.894C81.7518 87.0399 81.5713 85.9365 81.4345 85.4419C81.2975 84.9474 81.0054 84.0624 80.7853 83.4752C80.5651 82.888 80.0728 81.8786 79.6909 81.2319C79.3092 80.5852 78.558 79.5318 78.0217 78.891C77.4855 78.25 76.4556 77.2523 75.7331 76.674C75.0107 76.0954 73.6839 75.2596 72.7848 74.8162C71.8857 74.3731 70.6017 73.8612 69.9314 73.6788C69.261 73.4964 68.2496 73.2997 67.6837 73.2418C67.1177 73.1838 66.6546 73.0828 66.6546 73.0174C66.6546 72.952 68.0582 70.4058 69.7737 67.3593C71.489 64.3128 73.0314 61.5812 73.201 61.2889L73.5095 60.7576L68.3247 60.7596L63.14 60.7616L57.3367 70.8198ZM68.0897 82.5603C68.4746 82.7005 69.1852 83.078 69.6691 83.3992C70.1529 83.7203 70.7982 84.2929 71.1032 84.6717C71.4081 85.0504 71.8161 85.6348 72.0097 85.9705C72.2034 86.3061 72.4754 86.9631 72.6142 87.4304C72.753 87.898 72.8658 88.8371 72.8648 89.5176C72.8638 90.198 72.7603 91.0932 72.6348 91.5066C72.5094 91.9202 72.2238 92.619 72.0005 93.0596C71.7772 93.5003 71.2212 94.2338 70.765 94.6899C70.3089 95.1458 69.578 95.7136 69.141 95.9514C68.7041 96.1893 67.9137 96.4966 67.3845 96.6344C66.8554 96.7722 66.012 96.885 65.5103 96.885C65.0086 96.885 64.1597 96.7709 63.6238 96.6313C63.088 96.4917 62.3197 96.1842 61.9164 95.948C61.5131 95.7116 60.8317 95.1898 60.4025 94.7882C59.9732 94.3867 59.4048 93.6785 59.1393 93.2147C58.874 92.751 58.5438 91.937 58.4055 91.4062C58.2672 90.8753 58.1541 89.9915 58.1541 89.4423C58.1541 88.8932 58.2726 88.0443 58.4176 87.556C58.5624 87.0675 58.8488 86.3366 59.0538 85.9314C59.259 85.5263 59.8169 84.7987 60.2936 84.3145C60.8517 83.7474 61.5775 83.2357 62.3319 82.8776C63.0612 82.5312 63.8978 82.2766 64.5478 82.2034C65.1221 82.1385 65.9966 82.1351 66.4911 82.1954C66.9857 82.2559 67.7051 82.4202 68.0897 82.5603Z" fill="white"/>
</svg>
