<svg width="45" height="45" viewBox="0 0 45 45" fill="none" xmlns="http://www.w3.org/2000/svg">
<g clip-path="url(#clip0_3842_15576)">
<path d="M0.418945 15.5408V33.9023C0.418945 35.9025 1.21349 37.8207 2.62778 39.235C4.04208 40.6493 5.96027 41.4438 7.96039 41.4438H37.5637C39.5638 41.4438 41.482 40.6493 42.8963 39.235C44.3106 37.8207 45.1051 35.9025 45.1051 33.9023V11.6997C45.1051 9.69958 44.3106 7.78136 42.8963 6.36706C41.482 4.95275 39.5638 4.1582 37.5637 4.1582H7.96039C5.96027 4.1582 4.04208 4.95275 2.62778 6.36706C1.21349 7.78136 0.418945 9.69958 0.418945 11.6997V15.5408ZM7.96039 8.13989H37.5637C38.5078 8.13989 39.4132 8.51494 40.0808 9.18254C40.7484 9.85013 41.1234 10.7556 41.1234 11.6997V14.354L22.762 24.2399L4.4006 14.354V11.6997C4.4006 10.7556 4.77565 9.85013 5.44324 9.18254C6.11083 8.51494 7.01628 8.13989 7.96039 8.13989ZM4.4006 33.9023V18.8771L21.8184 28.2535C22.1084 28.4096 22.4326 28.4913 22.762 28.4913C23.0914 28.4913 23.4156 28.4096 23.7057 28.2535L41.1234 18.8771V33.9023C41.1234 34.8465 40.7484 35.7519 40.0808 36.4195C39.4132 37.0871 38.5078 37.4622 37.5637 37.4622H7.96039C7.01628 37.4622 6.11083 37.0871 5.44324 36.4195C4.77565 35.7519 4.4006 34.8465 4.4006 33.9023Z" fill="#F5F5F5" stroke="#F5F5F5" stroke-width="0.281251"/>
</g>
<defs>
<clipPath id="clip0_3842_15576">
<rect width="45" height="45" fill="white"/>
</clipPath>
</defs>
</svg>
