<svg width="45" height="45" viewBox="0 0 45 45" fill="none" xmlns="http://www.w3.org/2000/svg">
<path d="M29.4521 2.80169C27.869 1.21851 25.113 1.21851 23.5299 2.80169L2.79977 23.5318C2.01509 24.3175 1.57435 25.3825 1.57435 26.4929C1.57435 27.6034 2.01509 28.6684 2.79977 29.4541L14.6464 41.3007C15.438 42.0923 16.4893 42.5279 17.6076 42.5279C18.7259 42.5279 19.7771 42.0923 20.5687 41.3007L41.2988 20.5706C42.0904 19.7791 42.526 18.7278 42.526 17.6095C42.526 16.4912 42.0904 15.44 41.2988 14.6484L29.4521 2.80169ZM17.6076 38.3396L5.76091 26.4929L26.491 5.76284L38.3377 17.6095L17.6076 38.3396Z" fill="#F5F5F5"/>
<path d="M15.7691 30.4279C16.9256 30.4279 17.8632 29.4903 17.8632 28.3338C17.8632 27.1772 16.9256 26.2396 15.7691 26.2396C14.6125 26.2396 13.6749 27.1772 13.6749 28.3338C13.6749 29.4903 14.6125 30.4279 15.7691 30.4279Z" fill="#F5F5F5"/>
<path d="M29.8138 42.3791L26.8527 39.418L39.4176 26.853L42.3788 29.8163L29.8138 42.3791ZM14.2877 1.72311L17.2489 4.68425L4.68389 17.2492L1.72275 14.286L14.2877 1.72311Z" fill="#F5F5F5"/>
<path fill-rule="evenodd" clip-rule="evenodd" d="M2.43855 23.1703L23.1686 2.44018C24.9515 0.657275 28.0313 0.657275 29.8142 2.44018L41.6608 14.2868C42.5483 15.1743 43.0378 16.3556 43.0378 17.6096C43.0378 18.8637 42.5483 20.045 41.6608 20.9324L20.9308 41.6625C20.0433 42.5499 18.862 43.0395 17.608 43.0395C16.3539 43.0395 15.1726 42.5499 14.2852 41.6625L2.43855 29.8158C1.5581 28.9342 1.06334 27.739 1.06334 26.4931C1.06334 25.2471 1.5581 24.0519 2.43855 23.1703ZM29.8142 43.1025L26.1298 39.4181L39.4182 26.1298L43.1024 29.8166L29.8142 43.1025ZM14.2882 1L17.9725 4.68437L4.68417 17.9727L1 14.2859L14.2882 1ZM2.79977 23.5318L23.5299 2.80169C25.113 1.21851 27.869 1.21851 29.4521 2.80169L41.2988 14.6484C42.0904 15.44 42.526 16.4912 42.526 17.6095C42.526 18.7278 42.0904 19.7791 41.2988 20.5706L20.5687 41.3007C19.7771 42.0923 18.7259 42.5279 17.6076 42.5279C16.4893 42.5279 15.438 42.0923 14.6464 41.3007L2.79977 29.4541C2.01509 28.6684 1.57435 27.6034 1.57435 26.4929C1.57435 25.3825 2.01509 24.3175 2.79977 23.5318ZM17.6076 38.3396L5.76091 26.4929L26.491 5.76284L38.3377 17.6095L17.6076 38.3396ZM37.6148 17.6096L17.608 37.6165L6.48457 26.4931L26.4914 6.48621L37.6148 17.6096ZM18.3751 28.3339C18.3751 29.7729 17.2085 30.9395 15.7695 30.9395C14.3305 30.9395 13.1639 29.7729 13.1639 28.3339C13.1639 26.8949 14.3305 25.7283 15.7695 25.7283C17.2085 25.7283 18.3751 26.8949 18.3751 28.3339ZM42.3788 29.8163L39.4176 26.853L26.8527 39.418L29.8138 42.3791L42.3788 29.8163ZM1.72275 14.286L14.2877 1.72311L17.2489 4.68425L4.68389 17.2492L1.72275 14.286ZM15.7691 30.4279C16.9256 30.4279 17.8632 29.4903 17.8632 28.3338C17.8632 27.1772 16.9256 26.2396 15.7691 26.2396C14.6125 26.2396 13.6749 27.1772 13.6749 28.3338C13.6749 29.4903 14.6125 30.4279 15.7691 30.4279Z" fill="#F5F5F5"/>
</svg>
