<svg width="29" height="28" viewBox="0 0 29 28" fill="none" xmlns="http://www.w3.org/2000/svg">
<path d="M27.5727 7.60621C27.4487 7.48125 27.3012 7.38207 27.1387 7.31437C26.9762 7.24665 26.8018 7.21178 26.6257 7.21178C26.4496 7.21178 26.2753 7.24665 26.1127 7.31437C25.9502 7.38209 25.8027 7.48133 25.6787 7.60636L24.1079 9.1893V2.13353C24.1079 1.77975 23.9674 1.44047 23.7172 1.19031C23.467 0.940147 23.1278 0.799609 22.774 0.799609C22.4202 0.799609 22.0809 0.940147 21.8307 1.19031C21.5806 1.44047 21.4401 1.77975 21.4401 2.13353V9.1893L19.8693 7.60635L19.8691 7.60621C19.618 7.35507 19.2774 7.21398 18.9222 7.21398C18.567 7.21398 18.2264 7.35507 17.9753 7.60621C17.7241 7.85736 17.583 8.19798 17.583 8.55315C17.583 8.90833 17.7241 9.24895 17.9753 9.5001L21.827 13.3519L21.8278 13.3526C21.9544 13.4738 22.1036 13.5689 22.2669 13.6323M27.5727 7.60621C27.6976 7.73019 27.7968 7.87767 27.8645 8.04016C27.9322 8.20271 27.9671 8.37706 27.9671 8.55315C27.9671 8.72925 27.9322 8.9036 27.8645 9.06615C27.7968 9.2287 27.6976 9.37624 27.5725 9.50024L23.7209 13.3519L23.7201 13.3526C23.5935 13.4738 23.4443 13.5689 23.281 13.6323M27.5727 7.60621C27.5726 7.60616 27.5726 7.60612 27.5725 7.60607L27.5373 7.64157L27.5728 7.60636C27.5728 7.60631 27.5727 7.60626 27.5727 7.60621ZM23.281 13.6323C23.1213 13.7028 22.9486 13.7391 22.774 13.7391C22.5994 13.7391 22.4267 13.7028 22.2669 13.6323M23.281 13.6323C23.2807 13.6325 23.2803 13.6326 23.2799 13.6328L23.2619 13.5861L23.2821 13.6319C23.2817 13.632 23.2814 13.6322 23.281 13.6323ZM22.2669 13.6323C22.2666 13.6322 22.2662 13.632 22.2659 13.6319L22.2861 13.5861L22.268 13.6328C22.2677 13.6326 22.2673 13.6325 22.2669 13.6323ZM3.56511 15.6224V8.55315C3.56511 8.2259 3.69512 7.91204 3.92652 7.68064C4.15793 7.44923 4.47178 7.31923 4.79904 7.31923H15.0704C15.4242 7.31923 15.7635 7.17869 16.0137 6.92853C16.2638 6.67837 16.4044 6.33908 16.4044 5.98531C16.4044 5.63153 16.2638 5.29224 16.0137 5.04208C15.7635 4.79192 15.4242 4.65138 15.0704 4.65138H4.79904C3.76422 4.65138 2.77179 5.06246 2.04007 5.79418C1.30834 6.52591 0.897266 7.51834 0.897266 8.55315V23.9602C0.897266 24.9951 1.30834 25.9875 2.04007 26.7192C2.77179 27.4509 3.76422 27.862 4.79904 27.862H20.2061C21.2409 27.862 22.2334 27.4509 22.9651 26.7192C23.6968 25.9875 24.1079 24.9951 24.1079 23.9602V17.5406C24.1079 17.1868 23.9674 16.8476 23.7172 16.5974C23.467 16.3472 23.1278 16.2067 22.774 16.2067C22.4202 16.2067 22.0809 16.3472 21.8307 16.5974C21.5806 16.8476 21.4401 17.1868 21.4401 17.5406V17.9078L19.6252 16.0929L19.6251 16.0928C18.9447 15.4179 18.0253 15.0391 17.0669 15.0391C16.1086 15.0391 15.1891 15.4179 14.5088 16.0928L14.5087 16.0929L13.6453 16.9563L10.4965 13.8076L10.4965 13.8076L10.4956 13.8067C9.80599 13.1503 8.89034 12.7841 7.93823 12.7841C6.98612 12.7841 6.07047 13.1503 5.38085 13.8067L5.38084 13.8067L5.37997 13.8076L3.56511 15.6224ZM16.4026 17.9612L16.4029 17.9608C16.4903 17.8716 16.5946 17.8007 16.7097 17.7524C16.8249 17.704 16.9485 17.6791 17.0734 17.6791C17.1982 17.6791 17.3218 17.704 17.437 17.7524C17.5521 17.8007 17.6564 17.8716 17.7438 17.9608L17.744 17.961L21.4401 21.6826V23.9599C21.4384 24.1756 21.373 24.3855 21.2527 24.5636L15.5391 18.8246L16.4026 17.9612ZM4.79904 25.1942C4.47178 25.1942 4.15793 25.0642 3.92652 24.8328C3.69512 24.6014 3.56511 24.2875 3.56511 23.9602V19.3973L7.27299 15.6895C7.27313 15.6893 7.27328 15.6892 7.27343 15.689C7.4527 15.5184 7.69072 15.4232 7.93823 15.4232C8.18574 15.4232 8.42376 15.5184 8.60304 15.689C8.60318 15.6892 8.60333 15.6893 8.60348 15.6895L12.6727 19.7586L18.1082 25.1942H4.79904Z" fill="#0C0C24" stroke="#0C0C24" stroke-width="0.1"/>
</svg>
