<svg width="36" height="36" viewBox="0 0 36 36" fill="none" xmlns="http://www.w3.org/2000/svg">
<path d="M8.85714 5.42857C7.94783 5.42857 7.07576 5.78979 6.43278 6.43278C5.78979 7.07576 5.42857 7.94783 5.42857 8.85714V12.8571C5.42857 13.3118 5.24796 13.7478 4.92647 14.0693C4.60498 14.3908 4.16894 14.5714 3.71429 14.5714C3.25963 14.5714 2.82359 14.3908 2.5021 14.0693C2.18061 13.7478 2 13.3118 2 12.8571V8.85714C2 7.03852 2.72245 5.29437 4.00841 4.00841C5.29437 2.72245 7.03852 2 8.85714 2H12.8571C13.3118 2 13.7478 2.18061 14.0693 2.5021C14.3908 2.82359 14.5714 3.25963 14.5714 3.71429C14.5714 4.16894 14.3908 4.60498 14.0693 4.92647C13.7478 5.24796 13.3118 5.42857 12.8571 5.42857H8.85714ZM8.85714 10.5714C8.85714 10.1168 9.03775 9.68074 9.35925 9.35925C9.68074 9.03775 10.1168 8.85714 10.5714 8.85714H25.4286C25.8832 8.85714 26.3193 9.03775 26.6408 9.35925C26.9622 9.68074 27.1429 10.1168 27.1429 10.5714C27.1429 11.0261 26.9622 11.4621 26.6408 11.7836C26.3193 12.1051 25.8832 12.2857 25.4286 12.2857H10.5714C10.1168 12.2857 9.68074 12.1051 9.35925 11.7836C9.03775 11.4621 8.85714 11.0261 8.85714 10.5714ZM8.85714 17.4286C8.85714 16.9739 9.03775 16.5379 9.35925 16.2164C9.68074 15.8949 10.1168 15.7143 10.5714 15.7143H25.4286C25.8832 15.7143 26.3193 15.8949 26.6408 16.2164C26.9622 16.5379 27.1429 16.9739 27.1429 17.4286C27.1429 17.8832 26.9622 18.3193 26.6408 18.6408C26.3193 18.9622 25.8832 19.1429 25.4286 19.1429H10.5714C10.1168 19.1429 9.68074 18.9622 9.35925 18.6408C9.03775 18.3193 8.85714 17.8832 8.85714 17.4286ZM10.5714 22.5714C10.1168 22.5714 9.68074 22.752 9.35925 23.0735C9.03775 23.395 8.85714 23.8311 8.85714 24.2857C8.85714 24.7404 9.03775 25.1764 9.35925 25.4979C9.68074 25.8194 10.1168 26 10.5714 26H18.5714C19.0261 26 19.4621 25.8194 19.7836 25.4979C20.1051 25.1764 20.2857 24.7404 20.2857 24.2857C20.2857 23.8311 20.1051 23.395 19.7836 23.0735C19.4621 22.752 19.0261 22.5714 18.5714 22.5714H10.5714ZM23.1429 2C22.6882 2 22.2522 2.18061 21.9307 2.5021C21.6092 2.82359 21.4286 3.25963 21.4286 3.71429C21.4286 4.16894 21.6092 4.60498 21.9307 4.92647C22.2522 5.24796 22.6882 5.42857 23.1429 5.42857H27.1429C28.0522 5.42857 28.9242 5.78979 29.5672 6.43278C30.2102 7.07576 30.5714 7.94783 30.5714 8.85714V12.8571C30.5714 13.3118 30.752 13.7478 31.0735 14.0693C31.395 14.3908 31.8311 14.5714 32.2857 14.5714C32.7404 14.5714 33.1764 14.3908 33.4979 14.0693C33.8194 13.7478 34 13.3118 34 12.8571V8.85714C34 7.03852 33.2776 5.29437 31.9916 4.00841C30.7056 2.72245 28.9615 2 27.1429 2H23.1429ZM3.71429 21.4286C4.16894 21.4286 4.60498 21.6092 4.92647 21.9307C5.24796 22.2522 5.42857 22.6882 5.42857 23.1429V27.1429C5.42857 28.0522 5.78979 28.9242 6.43278 29.5672C7.07576 30.2102 7.94783 30.5714 8.85714 30.5714H12.8571C13.3118 30.5714 13.7478 30.752 14.0693 31.0735C14.3908 31.395 14.5714 31.8311 14.5714 32.2857C14.5714 32.7404 14.3908 33.1764 14.0693 33.4979C13.7478 33.8194 13.3118 34 12.8571 34H8.85714C7.03852 34 5.29437 33.2776 4.00841 31.9916C2.72245 30.7056 2 28.9615 2 27.1429V23.1429C2 22.6882 2.18061 22.2522 2.5021 21.9307C2.82359 21.6092 3.25963 21.4286 3.71429 21.4286V21.4286ZM34 23.1429C34 22.6882 33.8194 22.2522 33.4979 21.9307C33.1764 21.6092 32.7404 21.4286 32.2857 21.4286C31.8311 21.4286 31.395 21.6092 31.0735 21.9307C30.752 22.2522 30.5714 22.6882 30.5714 23.1429V27.1429C30.5714 28.0522 30.2102 28.9242 29.5672 29.5672C28.9242 30.2102 28.0522 30.5714 27.1429 30.5714H23.1429C22.6882 30.5714 22.2522 30.752 21.9307 31.0735C21.6092 31.395 21.4286 31.8311 21.4286 32.2857C21.4286 32.7404 21.6092 33.1764 21.9307 33.4979C22.2522 33.8194 22.6882 34 23.1429 34H27.1429C28.9615 34 30.7056 33.2776 31.9916 31.9916C33.2776 30.7056 34 28.9615 34 27.1429V23.1429Z" fill="#F5F5F5"/>
</svg>
