<svg width="46" height="43" viewBox="0 0 46 43" fill="none" xmlns="http://www.w3.org/2000/svg">
<path d="M18.7313 35.4627C27.9718 35.4627 35.4627 27.9718 35.4627 18.7313C35.4627 9.49087 27.9718 2 18.7313 2C9.49087 2 2 9.49087 2 18.7313C2 27.9718 9.49087 35.4627 18.7313 35.4627Z" stroke="#C7C7CC" stroke-width="3" stroke-linecap="round" stroke-linejoin="round"/>
<path d="M24.3027 11.2947H13.1484H15.0075C16.4866 11.2947 17.9052 11.8823 18.9511 12.9282C19.997 13.9741 20.5846 15.3927 20.5846 16.8718C20.5846 18.351 19.997 19.7696 18.9511 20.8155C17.9052 21.8614 16.4866 22.449 15.0075 22.449H13.1484L18.7255 28.0261M13.1484 16.8718H24.3027" stroke="#C7C7CC" stroke-width="3" stroke-linecap="round" stroke-linejoin="round"/>
<mask id="path-3-outside-1_5311_669" maskUnits="userSpaceOnUse" x="21.457" y="15.7793" width="25" height="27" fill="black">
<rect fill="white" x="21.457" y="15.7793" width="25" height="27"/>
<path fill-rule="evenodd" clip-rule="evenodd" d="M32.2486 32.726V22.7854C32.2486 21.968 32.9113 21.3054 33.7287 21.3054C34.5462 21.3054 35.2088 21.968 35.2088 22.7854V32.726L38.4738 29.461C39.0518 28.883 39.9889 28.883 40.5669 29.461C41.1449 30.039 41.1449 30.9762 40.5669 31.5542L34.7756 37.3455C34.7755 37.3456 34.7754 37.3457 34.7753 37.3458C34.7743 37.3468 34.7732 37.3479 34.7722 37.3489C34.5046 37.6149 34.1358 37.7793 33.7287 37.7793C33.528 37.7793 33.3367 37.7394 33.1622 37.667C32.9889 37.5953 32.8265 37.4893 32.6853 37.3489C32.6842 37.3479 32.6832 37.3468 32.6822 37.3458C32.6821 37.3457 32.682 37.3456 32.6819 37.3455L26.8905 31.5542C26.3125 30.9762 26.3125 30.039 26.8905 29.461C27.4685 28.883 28.4057 28.883 28.9837 29.461L32.2486 32.726Z"/>
</mask>
<path fill-rule="evenodd" clip-rule="evenodd" d="M32.2486 32.726V22.7854C32.2486 21.968 32.9113 21.3054 33.7287 21.3054C34.5462 21.3054 35.2088 21.968 35.2088 22.7854V32.726L38.4738 29.461C39.0518 28.883 39.9889 28.883 40.5669 29.461C41.1449 30.039 41.1449 30.9762 40.5669 31.5542L34.7756 37.3455C34.7755 37.3456 34.7754 37.3457 34.7753 37.3458C34.7743 37.3468 34.7732 37.3479 34.7722 37.3489C34.5046 37.6149 34.1358 37.7793 33.7287 37.7793C33.528 37.7793 33.3367 37.7394 33.1622 37.667C32.9889 37.5953 32.8265 37.4893 32.6853 37.3489C32.6842 37.3479 32.6832 37.3468 32.6822 37.3458C32.6821 37.3457 32.682 37.3456 32.6819 37.3455L26.8905 31.5542C26.3125 30.9762 26.3125 30.039 26.8905 29.461C27.4685 28.883 28.4057 28.883 28.9837 29.461L32.2486 32.726Z" fill="#C7C7CC"/>
<path d="M32.2486 32.726H37.2486C37.2486 34.7483 36.0304 36.5715 34.1621 37.3454C32.2937 38.1193 30.1431 37.6915 28.7131 36.2615L32.2486 32.726ZM35.2088 32.726L38.7443 36.2615C37.3143 37.6915 35.1638 38.1193 33.2954 37.3454C31.427 36.5715 30.2088 34.7483 30.2088 32.726H35.2088ZM38.4738 29.461L42.0093 32.9966L42.0093 32.9966L38.4738 29.461ZM40.5669 29.461L37.0314 32.9966L37.0314 32.9966L40.5669 29.461ZM40.5669 31.5542L37.0314 28.0186L37.0314 28.0186L40.5669 31.5542ZM34.7756 37.3455L38.3111 40.881L38.3097 40.8824L34.7756 37.3455ZM34.7753 37.3458L31.2399 33.8101L31.2411 33.8089L34.7753 37.3458ZM34.7722 37.3489L31.2472 33.8029L31.2473 33.8028L34.7722 37.3489ZM33.1622 37.667L35.0738 33.0468L35.0774 33.0484L33.1622 37.667ZM32.6853 37.3489L36.2102 33.8028L36.2104 33.803L32.6853 37.3489ZM32.6822 37.3458L36.2163 33.8089L36.2176 33.8101L32.6822 37.3458ZM32.6819 37.3455L29.1477 40.8824L29.1463 40.881L32.6819 37.3455ZM26.8905 31.5542L30.4261 28.0186H30.4261L26.8905 31.5542ZM26.8905 29.461L30.4261 32.9966H30.4261L26.8905 29.461ZM28.9837 29.461L25.4482 32.9966L28.9837 29.461ZM27.2486 32.726V22.7854H37.2486V32.726H27.2486ZM27.2486 22.7854C27.2486 19.2066 30.1499 16.3054 33.7287 16.3054V26.3054C35.6727 26.3054 37.2486 24.7294 37.2486 22.7854H27.2486ZM33.7287 16.3054C37.3076 16.3054 40.2088 19.2066 40.2088 22.7854H30.2088C30.2088 24.7294 31.7847 26.3054 33.7287 26.3054V16.3054ZM40.2088 22.7854V32.726H30.2088V22.7854H40.2088ZM31.6733 29.1905L34.9382 25.9255L42.0093 32.9966L38.7443 36.2615L31.6733 29.1905ZM34.9382 25.9255C37.4689 23.3949 41.5718 23.3949 44.1024 25.9255L37.0314 32.9966C38.406 34.3712 40.6347 34.3712 42.0093 32.9966L34.9382 25.9255ZM44.1024 25.9255C46.6331 28.4561 46.6331 32.5591 44.1024 35.0897L37.0314 28.0186C35.6568 29.3933 35.6568 31.6219 37.0314 32.9966L44.1024 25.9255ZM44.1024 35.0897L38.3111 40.881L31.2401 33.81L37.0314 28.0186L44.1024 35.0897ZM38.3097 40.8824C38.3097 40.8824 38.3097 40.8824 38.3097 40.8824C38.3097 40.8824 38.3097 40.8824 38.3097 40.8824C38.3097 40.8824 38.3097 40.8824 38.3097 40.8824C38.3097 40.8824 38.3097 40.8824 38.3097 40.8824C38.3097 40.8824 38.3098 40.8824 38.3097 40.8824C38.3097 40.8824 38.3098 40.8824 38.3097 40.8824C38.3097 40.8824 38.3097 40.8824 38.3097 40.8824C38.3097 40.8824 38.3097 40.8824 38.3097 40.8824C38.3097 40.8824 38.3097 40.8824 38.3097 40.8824C38.3097 40.8824 38.3097 40.8824 38.3097 40.8824C38.3097 40.8824 38.3097 40.8824 38.3097 40.8824C38.3097 40.8824 38.3098 40.8824 38.3097 40.8824C38.3097 40.8824 38.3097 40.8824 38.3097 40.8824C38.3097 40.8824 38.3097 40.8824 38.3097 40.8824C38.3097 40.8824 38.3097 40.8824 38.3097 40.8824C38.3097 40.8824 38.3097 40.8824 38.3097 40.8824C38.3097 40.8824 38.3097 40.8824 38.3097 40.8824C38.3097 40.8824 38.3097 40.8824 38.3097 40.8824C38.3097 40.8824 38.3097 40.8824 38.3097 40.8824C38.3097 40.8824 38.3097 40.8824 38.3097 40.8824C38.3097 40.8824 38.3097 40.8824 38.3097 40.8824C38.3097 40.8824 38.3097 40.8824 38.3097 40.8824C38.3097 40.8824 38.3097 40.8824 38.3097 40.8824C38.3097 40.8824 38.3097 40.8824 38.3097 40.8824C38.3097 40.8824 38.3097 40.8824 38.3097 40.8824C38.3097 40.8824 38.3097 40.8824 38.3097 40.8824C38.3097 40.8824 38.3097 40.8824 38.3097 40.8824C38.3097 40.8824 38.3097 40.8824 38.3097 40.8824C38.3097 40.8824 38.3097 40.8824 38.3097 40.8824C38.3097 40.8825 38.3097 40.8824 38.3097 40.8824C38.3097 40.8824 38.3097 40.8824 38.3097 40.8824C38.3097 40.8824 38.3097 40.8824 38.3097 40.8824C38.3097 40.8824 38.3097 40.8824 38.3097 40.8824C38.3097 40.8824 38.3097 40.8824 38.3097 40.8824C38.3097 40.8824 38.3097 40.8824 38.3097 40.8824C38.3097 40.8825 38.3097 40.8824 38.3097 40.8824C38.3097 40.8824 38.3097 40.8824 38.3097 40.8824C38.3097 40.8824 38.3097 40.8824 38.3097 40.8824C38.3097 40.8824 38.3097 40.8824 38.3097 40.8824C38.3097 40.8824 38.3097 40.8824 38.3097 40.8824C38.3097 40.8825 38.3097 40.8824 38.3097 40.8824C38.3097 40.8825 38.3097 40.8824 38.3097 40.8824C38.3097 40.8824 38.3097 40.8824 38.3097 40.8824C38.3097 40.8824 38.3097 40.8824 38.3097 40.8824C38.3097 40.8824 38.3097 40.8824 38.3097 40.8824C38.3097 40.8824 38.3097 40.8824 38.3097 40.8824C38.3097 40.8825 38.3097 40.8824 38.3097 40.8824C38.3097 40.8825 38.3097 40.8824 38.3097 40.8824C38.3097 40.8824 38.3097 40.8824 38.3097 40.8824C38.3097 40.8824 38.3097 40.8825 38.3097 40.8825C38.3097 40.8825 38.3097 40.8825 38.3097 40.8825C38.3097 40.8825 38.3097 40.8825 38.3097 40.8825C38.3097 40.8825 38.3097 40.8824 38.3097 40.8825C38.3097 40.8825 38.3097 40.8824 38.3097 40.8825C38.3097 40.8825 38.3097 40.8825 38.3097 40.8825C38.3097 40.8825 38.3097 40.8825 38.3097 40.8825C38.3097 40.8825 38.3097 40.8825 38.3097 40.8825C38.3097 40.8825 38.3097 40.8825 38.3097 40.8825C38.3097 40.8825 38.3097 40.8824 38.3097 40.8825C38.3097 40.8825 38.3097 40.8824 38.3097 40.8825C38.3097 40.8825 38.3097 40.8825 38.3097 40.8825C38.3097 40.8825 38.3097 40.8825 38.3097 40.8825C38.3097 40.8825 38.3097 40.8825 38.3097 40.8825C38.3097 40.8825 38.3097 40.8825 38.3097 40.8825C38.3097 40.8825 38.3097 40.8825 38.3097 40.8825C38.3097 40.8825 38.3097 40.8824 38.3097 40.8825C38.3097 40.8825 38.3097 40.8825 38.3097 40.8825C38.3097 40.8825 38.3097 40.8825 38.3097 40.8825C38.3097 40.8825 38.3097 40.8825 38.3097 40.8825C38.3097 40.8825 38.3097 40.8825 38.3097 40.8825C38.3097 40.8825 38.3097 40.8825 38.3097 40.8825C38.3097 40.8825 38.3097 40.8825 38.3097 40.8825C38.3097 40.8825 38.3097 40.8825 38.3097 40.8825C38.3097 40.8825 38.3097 40.8825 38.3097 40.8825C38.3097 40.8825 38.3097 40.8825 38.3097 40.8825C38.3097 40.8825 38.3097 40.8825 38.3097 40.8825C38.3097 40.8825 38.3097 40.8825 38.3097 40.8825C38.3097 40.8825 38.3097 40.8825 38.3097 40.8825C38.3097 40.8825 38.3097 40.8825 38.3097 40.8825C38.3097 40.8825 38.3097 40.8825 38.3097 40.8825C38.3097 40.8825 38.3097 40.8825 38.3097 40.8825C38.3097 40.8825 38.3097 40.8825 38.3097 40.8825C38.3097 40.8825 38.3097 40.8825 38.3097 40.8825C38.3097 40.8825 38.3097 40.8825 38.3097 40.8825C38.3097 40.8825 38.3097 40.8825 38.3097 40.8825C38.3097 40.8825 38.3097 40.8825 38.3097 40.8825C38.3097 40.8825 38.3097 40.8825 38.3097 40.8825C38.3097 40.8825 38.3097 40.8825 38.3097 40.8825C38.3097 40.8825 38.3097 40.8825 38.3097 40.8825C38.3097 40.8825 38.3097 40.8825 38.3097 40.8825C38.3097 40.8825 38.3097 40.8825 38.3097 40.8825C38.3097 40.8825 38.3097 40.8825 38.3097 40.8825C38.3097 40.8825 38.3097 40.8825 38.3097 40.8825C38.3097 40.8825 38.3097 40.8825 38.3097 40.8825C38.3097 40.8825 38.3097 40.8825 38.3097 40.8825C38.3097 40.8825 38.3097 40.8825 38.3097 40.8825C38.3097 40.8825 38.3097 40.8825 38.3097 40.8825C38.3097 40.8825 38.3097 40.8825 38.3097 40.8825C38.3097 40.8825 38.3097 40.8825 38.3097 40.8825C38.3097 40.8825 38.3097 40.8825 38.3097 40.8825C38.3097 40.8825 38.3097 40.8825 38.3097 40.8825C38.3097 40.8825 38.3097 40.8825 38.3097 40.8825C38.3097 40.8825 38.3097 40.8825 38.3097 40.8825C38.3097 40.8825 38.3097 40.8825 38.3097 40.8825C38.3097 40.8825 38.3097 40.8825 38.3097 40.8825C38.3097 40.8825 38.3097 40.8825 38.3097 40.8825C38.3097 40.8825 38.3097 40.8825 38.3097 40.8825C38.3096 40.8825 38.3097 40.8825 38.3097 40.8825C38.3097 40.8825 38.3097 40.8825 38.3097 40.8825C38.3097 40.8825 38.3097 40.8825 38.3097 40.8825C38.3097 40.8825 38.3097 40.8825 38.3097 40.8825C38.3097 40.8825 38.3097 40.8825 38.3097 40.8825C38.3097 40.8825 38.3097 40.8825 38.3097 40.8825C38.3096 40.8825 38.3097 40.8825 38.3097 40.8825C38.3097 40.8825 38.3097 40.8825 38.3097 40.8825C38.3097 40.8825 38.3097 40.8825 38.3097 40.8825C38.3097 40.8825 38.3097 40.8825 38.3097 40.8825C38.3097 40.8825 38.3097 40.8825 38.3097 40.8825C38.3096 40.8825 38.3097 40.8825 38.3097 40.8825C38.3096 40.8825 38.3097 40.8825 38.3097 40.8825C38.3097 40.8825 38.3097 40.8825 38.3097 40.8825C38.3097 40.8825 38.3097 40.8825 38.3097 40.8825C38.3097 40.8825 38.3097 40.8825 38.3097 40.8825C38.3097 40.8825 38.3097 40.8825 38.3097 40.8825C38.3096 40.8825 38.3097 40.8825 38.3097 40.8825C38.3096 40.8825 38.3097 40.8825 38.3096 40.8825C38.3096 40.8825 38.3096 40.8825 38.3096 40.8825C38.3096 40.8825 38.3096 40.8825 38.3096 40.8825C38.3096 40.8825 38.3096 40.8825 38.3096 40.8825C38.3096 40.8825 38.3096 40.8825 38.3096 40.8825C38.3096 40.8825 38.3097 40.8825 38.3096 40.8825C38.3096 40.8825 38.3097 40.8825 38.3096 40.8825C38.3096 40.8825 38.3096 40.8825 38.3096 40.8825C38.3096 40.8825 38.3096 40.8825 38.3096 40.8825C38.3096 40.8825 38.3096 40.8825 38.3096 40.8825C38.3096 40.8825 38.3096 40.8825 38.3096 40.8825C38.3096 40.8825 38.3097 40.8825 38.3096 40.8825C38.3096 40.8825 38.3097 40.8825 38.3096 40.8825C38.3096 40.8825 38.3096 40.8825 38.3096 40.8825C38.3096 40.8825 38.3096 40.8825 38.3096 40.8825C38.3096 40.8825 38.3096 40.8825 38.3096 40.8825C38.3096 40.8825 38.3096 40.8825 38.3096 40.8825C38.3096 40.8825 38.3096 40.8825 38.3096 40.8825C38.3096 40.8825 38.3097 40.8825 38.3096 40.8825C38.3096 40.8825 38.3096 40.8825 38.3096 40.8825C38.3096 40.8825 38.3096 40.8825 38.3096 40.8825C38.3096 40.8825 38.3096 40.8825 38.3096 40.8825C38.3096 40.8825 38.3096 40.8825 38.3096 40.8825C38.3096 40.8825 38.3096 40.8825 38.3096 40.8825C38.3096 40.8825 38.3096 40.8825 38.3096 40.8825C38.3096 40.8825 38.3096 40.8825 38.3096 40.8825C38.3096 40.8825 38.3096 40.8825 38.3096 40.8825C38.3096 40.8825 38.3096 40.8825 38.3096 40.8825C38.3096 40.8825 38.3096 40.8825 38.3096 40.8825C38.3096 40.8825 38.3096 40.8825 38.3096 40.8825C38.3096 40.8826 38.3096 40.8825 38.3096 40.8825C38.3096 40.8825 38.3096 40.8825 38.3096 40.8825C38.3096 40.8825 38.3096 40.8825 38.3096 40.8825C38.3096 40.8825 38.3096 40.8825 38.3096 40.8825C38.3096 40.8825 38.3096 40.8825 38.3096 40.8825C38.3096 40.8825 38.3096 40.8825 38.3096 40.8825C38.3096 40.8826 38.3096 40.8825 38.3096 40.8825C38.3096 40.8825 38.3096 40.8825 38.3096 40.8825C38.3096 40.8825 38.3096 40.8825 38.3096 40.8825C38.3096 40.8825 38.3096 40.8825 38.3096 40.8825C38.3096 40.8825 38.3096 40.8825 38.3096 40.8825C38.3096 40.8825 38.3096 40.8825 38.3096 40.8825C38.3096 40.8826 38.3096 40.8825 38.3096 40.8825C38.3096 40.8825 38.3096 40.8825 38.3096 40.8825C38.3096 40.8825 38.3096 40.8825 38.3096 40.8825C38.3096 40.8825 38.3096 40.8825 38.3096 40.8825C38.3096 40.8825 38.3096 40.8825 38.3096 40.8825C38.3096 40.8826 38.3096 40.8825 38.3096 40.8825C38.3096 40.8826 38.3096 40.8825 38.3096 40.8825C38.3096 40.8825 38.3096 40.8825 38.3096 40.8825C38.3096 40.8825 38.3096 40.8825 38.3096 40.8825C38.3096 40.8825 38.3096 40.8825 38.3096 40.8825C38.3096 40.8825 38.3096 40.8825 38.3096 40.8825C38.3096 40.8826 38.3096 40.8825 38.3096 40.8825C38.3096 40.8826 38.3096 40.8825 38.3096 40.8826C38.3096 40.8826 38.3096 40.8826 38.3096 40.8826C38.3096 40.8826 38.3096 40.8826 38.3096 40.8826C38.3096 40.8826 38.3096 40.8826 38.3096 40.8826C38.3096 40.8826 38.3096 40.8826 38.3096 40.8826C38.3096 40.8826 38.3096 40.8825 38.3096 40.8826C38.3096 40.8826 38.3096 40.8825 38.3096 40.8826C38.3096 40.8826 38.3096 40.8826 38.3096 40.8826C38.3096 40.8826 38.3096 40.8826 38.3096 40.8826C38.3096 40.8826 38.3096 40.8826 38.3096 40.8826C38.3096 40.8826 38.3096 40.8826 38.3096 40.8826C38.3096 40.8826 38.3096 40.8825 38.3096 40.8826C38.3096 40.8826 38.3096 40.8825 38.3096 40.8826C38.3096 40.8826 38.3096 40.8826 38.3096 40.8826C38.3096 40.8826 38.3096 40.8826 38.3096 40.8826C38.3096 40.8826 38.3096 40.8826 38.3096 40.8826C38.3096 40.8826 38.3096 40.8826 38.3096 40.8826C38.3096 40.8826 38.3096 40.8826 38.3096 40.8826C38.3096 40.8826 38.3096 40.8825 38.3096 40.8826C38.3096 40.8826 38.3096 40.8826 38.3096 40.8826C38.3096 40.8826 38.3096 40.8826 38.3096 40.8826C38.3096 40.8826 38.3096 40.8826 38.3096 40.8826C38.3096 40.8826 38.3096 40.8826 38.3096 40.8826C38.3096 40.8826 38.3096 40.8826 38.3096 40.8826C38.3096 40.8826 38.3096 40.8825 38.3096 40.8826C38.3096 40.8826 38.3096 40.8826 38.3096 40.8826C38.3096 40.8826 38.3096 40.8826 38.3096 40.8826C38.3096 40.8826 38.3096 40.8826 38.3096 40.8826C38.3096 40.8826 38.3096 40.8826 38.3096 40.8826C38.3096 40.8826 38.3096 40.8826 38.3096 40.8826C38.3096 40.8826 38.3096 40.8826 38.3096 40.8826C38.3096 40.8826 38.3096 40.8826 38.3096 40.8826C38.3096 40.8826 38.3096 40.8826 38.3096 40.8826C38.3096 40.8826 38.3096 40.8826 38.3096 40.8826C38.3096 40.8826 38.3096 40.8826 38.3096 40.8826C38.3096 40.8826 38.3096 40.8826 38.3096 40.8826C38.3096 40.8826 38.3096 40.8826 38.3096 40.8826C38.3096 40.8826 38.3096 40.8826 38.3096 40.8826C38.3096 40.8826 38.3096 40.8826 38.3096 40.8826C38.3096 40.8826 38.3096 40.8826 38.3096 40.8826C38.3096 40.8826 38.3096 40.8826 38.3096 40.8826C38.3096 40.8826 38.3096 40.8826 38.3096 40.8826C38.3096 40.8826 38.3096 40.8826 38.3096 40.8826C38.3096 40.8826 38.3096 40.8826 38.3096 40.8826C38.3096 40.8826 38.3096 40.8826 38.3096 40.8826C38.3096 40.8826 38.3096 40.8826 38.3096 40.8826C38.3096 40.8826 38.3096 40.8826 38.3096 40.8826C38.3096 40.8826 38.3096 40.8826 38.3096 40.8826C38.3096 40.8826 38.3096 40.8826 38.3096 40.8826C38.3096 40.8826 38.3096 40.8826 38.3096 40.8826C38.3096 40.8826 38.3096 40.8826 38.3096 40.8826C38.3096 40.8826 38.3096 40.8826 38.3096 40.8826C38.3096 40.8826 38.3096 40.8826 38.3096 40.8826C38.3096 40.8826 38.3096 40.8826 38.3096 40.8826C38.3096 40.8826 38.3096 40.8826 38.3096 40.8826C38.3096 40.8826 38.3096 40.8826 38.3096 40.8826C38.3096 40.8826 38.3096 40.8826 38.3096 40.8826C38.3096 40.8826 38.3096 40.8826 38.3096 40.8826C38.3096 40.8826 38.3096 40.8826 38.3096 40.8826C38.3096 40.8826 38.3096 40.8826 38.3096 40.8826C38.3095 40.8826 38.3096 40.8826 38.3096 40.8826C38.3096 40.8826 38.3096 40.8826 38.3096 40.8826C38.3096 40.8826 38.3096 40.8826 38.3096 40.8826C38.3096 40.8826 38.3096 40.8826 38.3096 40.8826C38.3096 40.8826 38.3096 40.8826 38.3096 40.8826C38.3096 40.8826 38.3096 40.8826 38.3096 40.8826C38.3095 40.8826 38.3096 40.8826 38.3096 40.8826C38.3096 40.8826 38.3096 40.8826 38.3096 40.8826C38.3096 40.8826 38.3096 40.8826 38.3096 40.8826C38.3096 40.8826 38.3096 40.8826 38.3096 40.8826C38.3096 40.8826 38.3096 40.8826 38.3096 40.8826C38.3095 40.8826 38.3096 40.8826 38.3096 40.8826C38.3095 40.8826 38.3096 40.8826 38.3096 40.8826C38.3096 40.8826 38.3096 40.8826 38.3096 40.8826C38.3096 40.8826 38.3096 40.8826 38.3096 40.8826C38.3096 40.8826 38.3096 40.8826 38.3096 40.8826C38.3096 40.8826 38.3096 40.8826 38.3096 40.8826C38.3095 40.8826 38.3096 40.8826 38.3095 40.8826C38.3095 40.8826 38.3096 40.8826 38.3095 40.8826C38.3095 40.8826 38.3095 40.8826 38.3095 40.8826C38.3095 40.8826 38.3095 40.8826 38.3095 40.8826C38.3095 40.8826 38.3095 40.8826 38.3095 40.8826C38.3095 40.8826 38.3095 40.8826 38.3095 40.8826C38.3095 40.8826 38.3096 40.8826 38.3095 40.8826C38.3095 40.8826 38.3096 40.8826 38.3095 40.8826C38.3095 40.8826 38.3095 40.8826 38.3095 40.8826C38.3095 40.8826 38.3095 40.8826 38.3095 40.8826C38.3095 40.8826 38.3095 40.8826 38.3095 40.8826C38.3095 40.8826 38.3095 40.8826 38.3095 40.8826C38.3095 40.8826 38.3096 40.8826 38.3095 40.8826C38.3095 40.8826 38.3096 40.8826 38.3095 40.8826C38.3095 40.8826 38.3095 40.8826 38.3095 40.8826C38.3095 40.8826 38.3095 40.8826 38.3095 40.8826C38.3095 40.8826 38.3095 40.8826 38.3095 40.8826C38.3095 40.8826 38.3095 40.8826 38.3095 40.8826C38.3095 40.8826 38.3095 40.8826 38.3095 40.8826C38.3095 40.8826 38.3095 40.8826 38.3095 40.8826C38.3095 40.8826 38.3095 40.8826 38.3095 40.8826C38.3095 40.8826 38.3095 40.8826 38.3095 40.8826C38.3095 40.8826 38.3095 40.8826 38.3095 40.8826C38.3095 40.8826 38.3095 40.8826 38.3095 40.8826C38.3095 40.8826 38.3095 40.8826 38.3095 40.8826C38.3095 40.8826 38.3095 40.8826 38.3095 40.8826C38.3095 40.8826 38.3095 40.8826 38.3095 40.8826C38.3095 40.8826 38.3095 40.8826 38.3095 40.8826C38.3095 40.8826 38.3095 40.8826 38.3095 40.8826C38.3095 40.8826 38.3095 40.8826 38.3095 40.8826C38.3095 40.8826 38.3095 40.8826 38.3095 40.8826C38.3095 40.8826 38.3095 40.8826 38.3095 40.8826C38.3095 40.8826 38.3095 40.8826 38.3095 40.8826C38.3095 40.8826 38.3095 40.8826 38.3095 40.8826C38.3095 40.8826 38.3095 40.8826 38.3095 40.8826C38.3095 40.8826 38.3095 40.8826 38.3095 40.8826C38.3095 40.8826 38.3095 40.8826 38.3095 40.8826C38.3095 40.8827 38.3095 40.8826 38.3095 40.8826C38.3095 40.8826 38.3095 40.8826 38.3095 40.8826C38.3095 40.8826 38.3095 40.8826 38.3095 40.8826C38.3095 40.8826 38.3095 40.8826 38.3095 40.8826C38.3095 40.8826 38.3095 40.8826 38.3095 40.8826C38.3095 40.8826 38.3095 40.8826 38.3095 40.8826C38.3095 40.8827 38.3095 40.8826 38.3095 40.8826C38.3095 40.8826 38.3095 40.8826 38.3095 40.8826C38.3095 40.8826 38.3095 40.8826 38.3095 40.8826C38.3095 40.8826 38.3095 40.8826 38.3095 40.8826C38.3095 40.8826 38.3095 40.8826 38.3095 40.8826C38.3095 40.8827 38.3095 40.8826 38.3095 40.8826C38.3095 40.8827 38.3095 40.8826 38.3095 40.8826C38.3095 40.8826 38.3095 40.8826 38.3095 40.8826C38.3095 40.8826 38.3095 40.8826 38.3095 40.8826C38.3095 40.8826 38.3095 40.8826 38.3095 40.8826C38.3095 40.8826 38.3095 40.8826 38.3095 40.8826C38.3095 40.8827 38.3095 40.8826 38.3095 40.8827C38.3095 40.8827 38.3095 40.8826 38.3095 40.8827C38.3095 40.8827 38.3095 40.8827 38.3095 40.8827C38.3095 40.8827 38.3095 40.8827 38.3095 40.8827C38.3095 40.8827 38.3095 40.8827 38.3095 40.8827C38.3095 40.8827 38.3095 40.8827 38.3095 40.8827C38.3095 40.8827 38.3095 40.8826 38.3095 40.8827C38.3095 40.8827 38.3095 40.8826 38.3095 40.8827C38.3095 40.8827 38.3095 40.8827 38.3095 40.8827C38.3095 40.8827 38.3095 40.8827 38.3095 40.8827C38.3095 40.8827 38.3095 40.8827 38.3095 40.8827C38.3095 40.8827 38.3095 40.8827 38.3095 40.8827C38.3095 40.8827 38.3095 40.8827 38.3095 40.8827C38.3095 40.8827 38.3095 40.8826 38.3095 40.8827C38.3095 40.8827 38.3095 40.8827 38.3095 40.8827C38.3095 40.8827 38.3095 40.8827 38.3095 40.8827C38.3095 40.8827 38.3095 40.8827 38.3095 40.8827C38.3095 40.8827 38.3095 40.8827 38.3095 40.8827C38.3095 40.8827 38.3095 40.8827 38.3095 40.8827C38.3095 40.8827 38.3095 40.8827 38.3095 40.8827C38.3095 40.8827 38.3095 40.8827 38.3095 40.8827C38.3095 40.8827 38.3095 40.8827 38.3095 40.8827C38.3095 40.8827 38.3095 40.8827 38.3095 40.8827C38.3095 40.8827 38.3095 40.8827 38.3095 40.8827C38.3095 40.8827 38.3095 40.8827 38.3095 40.8827C38.3095 40.8827 38.3095 40.8827 38.3095 40.8827C38.3095 40.8827 38.3095 40.8827 38.3095 40.8827C38.3095 40.8827 38.3095 40.8827 38.3095 40.8827C38.3095 40.8827 38.3095 40.8827 38.3095 40.8827C38.3095 40.8827 38.3095 40.8827 38.3095 40.8827C38.3095 40.8827 38.3095 40.8827 38.3095 40.8827C38.3095 40.8827 38.3095 40.8827 38.3095 40.8827C38.3095 40.8827 38.3095 40.8827 38.3095 40.8827C38.3095 40.8827 38.3095 40.8827 38.3095 40.8827C38.3095 40.8827 38.3095 40.8827 38.3095 40.8827C38.3095 40.8827 38.3095 40.8827 38.3095 40.8827C38.3095 40.8827 38.3095 40.8827 38.3095 40.8827C38.3095 40.8827 38.3095 40.8827 38.3095 40.8827C38.3095 40.8827 38.3095 40.8827 38.3095 40.8827C38.3095 40.8827 38.3095 40.8827 38.3095 40.8827C38.3095 40.8827 38.3095 40.8827 38.3095 40.8827C38.3095 40.8827 38.3095 40.8827 38.3095 40.8827C38.3095 40.8827 38.3095 40.8827 38.3095 40.8827C38.3095 40.8827 38.3095 40.8827 38.3095 40.8827C38.3095 40.8827 38.3095 40.8827 38.3095 40.8827C38.3095 40.8827 38.3095 40.8827 38.3095 40.8827C38.3095 40.8827 38.3095 40.8827 38.3095 40.8827C38.3095 40.8827 38.3095 40.8827 38.3095 40.8827C38.3095 40.8827 38.3095 40.8827 38.3095 40.8827C38.3095 40.8827 38.3095 40.8827 38.3095 40.8827C38.3095 40.8827 38.3095 40.8827 38.3095 40.8827C38.3095 40.8827 38.3095 40.8827 38.3095 40.8827C38.3095 40.8827 38.3095 40.8827 38.3095 40.8827C38.3095 40.8827 38.3095 40.8827 38.3095 40.8827C38.3095 40.8827 38.3095 40.8827 38.3095 40.8827C38.3094 40.8827 38.3095 40.8827 38.3095 40.8827C38.3095 40.8827 38.3095 40.8827 38.3095 40.8827C38.3095 40.8827 38.3095 40.8827 38.3095 40.8827C38.3095 40.8827 38.3095 40.8827 38.3095 40.8827C38.3095 40.8827 38.3095 40.8827 38.3095 40.8827C38.3095 40.8827 38.3095 40.8827 38.3095 40.8827C38.3094 40.8827 38.3095 40.8827 38.3095 40.8827C38.3095 40.8827 38.3095 40.8827 38.3095 40.8827C38.3095 40.8827 38.3095 40.8827 38.3095 40.8827C38.3095 40.8827 38.3095 40.8827 38.3095 40.8827C38.3095 40.8827 38.3095 40.8827 38.3095 40.8827C38.3094 40.8827 38.3095 40.8827 38.3095 40.8827C38.3094 40.8827 38.3095 40.8827 38.3095 40.8827C38.3095 40.8827 38.3095 40.8827 38.3095 40.8827C38.3095 40.8827 38.3095 40.8827 38.3095 40.8827C38.3095 40.8827 38.3095 40.8827 38.3095 40.8827C38.3095 40.8827 38.3095 40.8827 38.3095 40.8827C38.3094 40.8827 38.3095 40.8827 38.3095 40.8827C38.3094 40.8827 38.3095 40.8827 38.3095 40.8827L31.2411 33.8089C31.2411 33.8089 31.2411 33.8089 31.2411 33.8089C31.2411 33.8089 31.2411 33.8089 31.2411 33.8089C31.2411 33.8089 31.2411 33.8089 31.2411 33.8089C31.2411 33.8089 31.2411 33.8089 31.2411 33.8089C31.2412 33.8089 31.2411 33.8089 31.2412 33.8089C31.2412 33.8089 31.2411 33.8089 31.2412 33.8089C31.2412 33.8089 31.2412 33.8089 31.2412 33.8089C31.2412 33.8089 31.2412 33.8089 31.2412 33.8089C31.2412 33.8089 31.2412 33.8089 31.2412 33.8089C31.2412 33.8089 31.2412 33.8089 31.2412 33.8089C31.2412 33.8089 31.2411 33.8089 31.2412 33.8089C31.2412 33.8088 31.2411 33.8089 31.2412 33.8089C31.2412 33.8089 31.2412 33.8089 31.2412 33.8089C31.2412 33.8089 31.2412 33.8089 31.2412 33.8089C31.2412 33.8089 31.2412 33.8089 31.2412 33.8089C31.2412 33.8089 31.2412 33.8089 31.2412 33.8089C31.2412 33.8089 31.2412 33.8089 31.2412 33.8089C31.2412 33.8088 31.2411 33.8089 31.2412 33.8089C31.2412 33.8089 31.2412 33.8089 31.2412 33.8089C31.2412 33.8089 31.2412 33.8089 31.2412 33.8089C31.2412 33.8089 31.2412 33.8089 31.2412 33.8089C31.2412 33.8089 31.2412 33.8089 31.2412 33.8089C31.2412 33.8089 31.2412 33.8089 31.2412 33.8089C31.2412 33.8088 31.2412 33.8089 31.2412 33.8089C31.2412 33.8089 31.2412 33.8089 31.2412 33.8089C31.2412 33.8089 31.2412 33.8089 31.2412 33.8089C31.2412 33.8089 31.2412 33.8089 31.2412 33.8089C31.2412 33.8089 31.2412 33.8089 31.2412 33.8089C31.2412 33.8088 31.2412 33.8089 31.2412 33.8089C31.2412 33.8088 31.2412 33.8089 31.2412 33.8089C31.2412 33.8089 31.2412 33.8089 31.2412 33.8089C31.2412 33.8089 31.2412 33.8089 31.2412 33.8089C31.2412 33.8089 31.2412 33.8089 31.2412 33.8089C31.2412 33.8089 31.2412 33.8089 31.2412 33.8089C31.2412 33.8088 31.2412 33.8089 31.2412 33.8089C31.2412 33.8088 31.2412 33.8089 31.2412 33.8088C31.2412 33.8088 31.2412 33.8088 31.2412 33.8088C31.2412 33.8088 31.2412 33.8088 31.2412 33.8088C31.2412 33.8088 31.2412 33.8088 31.2412 33.8088C31.2412 33.8088 31.2412 33.8088 31.2412 33.8088C31.2412 33.8088 31.2412 33.8089 31.2412 33.8088C31.2412 33.8088 31.2412 33.8089 31.2412 33.8088C31.2412 33.8088 31.2412 33.8088 31.2412 33.8088C31.2412 33.8088 31.2412 33.8088 31.2412 33.8088C31.2412 33.8088 31.2412 33.8088 31.2412 33.8088C31.2412 33.8088 31.2412 33.8088 31.2412 33.8088C31.2412 33.8088 31.2412 33.8089 31.2412 33.8088C31.2412 33.8088 31.2412 33.8089 31.2412 33.8088C31.2412 33.8088 31.2412 33.8088 31.2412 33.8088C31.2412 33.8088 31.2412 33.8088 31.2412 33.8088C31.2412 33.8088 31.2412 33.8088 31.2412 33.8088C31.2412 33.8088 31.2412 33.8088 31.2412 33.8088C31.2412 33.8088 31.2412 33.8088 31.2412 33.8088C31.2412 33.8088 31.2412 33.8089 31.2412 33.8088C31.2412 33.8088 31.2412 33.8088 31.2412 33.8088C31.2412 33.8088 31.2412 33.8088 31.2412 33.8088C31.2412 33.8088 31.2412 33.8088 31.2412 33.8088C31.2412 33.8088 31.2412 33.8088 31.2412 33.8088C31.2412 33.8088 31.2412 33.8088 31.2412 33.8088C31.2412 33.8088 31.2412 33.8088 31.2412 33.8088C31.2412 33.8088 31.2412 33.8088 31.2412 33.8088C31.2412 33.8088 31.2412 33.8088 31.2412 33.8088C31.2412 33.8088 31.2412 33.8088 31.2412 33.8088C31.2412 33.8088 31.2412 33.8088 31.2412 33.8088C31.2412 33.8088 31.2412 33.8088 31.2412 33.8088C31.2412 33.8088 31.2412 33.8088 31.2412 33.8088C31.2412 33.8088 31.2412 33.8088 31.2412 33.8088C31.2412 33.8088 31.2412 33.8088 31.2412 33.8088C31.2412 33.8088 31.2412 33.8088 31.2412 33.8088C31.2412 33.8088 31.2412 33.8088 31.2412 33.8088C31.2412 33.8088 31.2412 33.8088 31.2412 33.8088C31.2412 33.8088 31.2412 33.8088 31.2412 33.8088C31.2412 33.8088 31.2412 33.8088 31.2412 33.8088C31.2412 33.8088 31.2412 33.8088 31.2412 33.8088C31.2412 33.8088 31.2412 33.8088 31.2412 33.8088C31.2412 33.8088 31.2412 33.8088 31.2412 33.8088C31.2412 33.8088 31.2412 33.8088 31.2412 33.8088C31.2412 33.8088 31.2412 33.8088 31.2412 33.8088C31.2412 33.8088 31.2412 33.8088 31.2412 33.8088C31.2412 33.8088 31.2412 33.8088 31.2412 33.8088C31.2412 33.8088 31.2412 33.8088 31.2412 33.8088C31.2412 33.8088 31.2412 33.8088 31.2412 33.8088C31.2412 33.8088 31.2412 33.8088 31.2412 33.8088C31.2412 33.8088 31.2412 33.8088 31.2412 33.8088C31.2412 33.8088 31.2412 33.8088 31.2412 33.8088C31.2412 33.8088 31.2412 33.8088 31.2412 33.8088C31.2412 33.8088 31.2412 33.8088 31.2412 33.8088C31.2412 33.8088 31.2412 33.8088 31.2412 33.8088C31.2412 33.8088 31.2412 33.8088 31.2412 33.8088C31.2412 33.8088 31.2412 33.8088 31.2412 33.8088C31.2412 33.8088 31.2412 33.8088 31.2412 33.8088C31.2412 33.8088 31.2412 33.8088 31.2412 33.8088C31.2412 33.8088 31.2412 33.8088 31.2412 33.8088C31.2412 33.8088 31.2412 33.8088 31.2412 33.8088C31.2412 33.8088 31.2412 33.8088 31.2412 33.8088C31.2412 33.8088 31.2412 33.8088 31.2412 33.8088C31.2412 33.8088 31.2412 33.8088 31.2412 33.8088C31.2412 33.8088 31.2412 33.8088 31.2412 33.8088C31.2412 33.8088 31.2412 33.8088 31.2412 33.8088C31.2412 33.8088 31.2412 33.8088 31.2412 33.8088C31.2412 33.8088 31.2412 33.8088 31.2412 33.8088C31.2412 33.8088 31.2412 33.8088 31.2412 33.8088C31.2412 33.8088 31.2412 33.8088 31.2412 33.8088C31.2412 33.8088 31.2412 33.8088 31.2412 33.8088C31.2412 33.8088 31.2412 33.8088 31.2412 33.8088C31.2412 33.8088 31.2412 33.8088 31.2412 33.8088C31.2412 33.8088 31.2412 33.8088 31.2412 33.8088C31.2412 33.8088 31.2412 33.8088 31.2412 33.8088C31.2412 33.8088 31.2412 33.8088 31.2412 33.8088C31.2412 33.8088 31.2412 33.8088 31.2412 33.8088C31.2412 33.8088 31.2412 33.8088 31.2412 33.8088C31.2412 33.8088 31.2412 33.8088 31.2412 33.8088C31.2412 33.8088 31.2412 33.8088 31.2412 33.8088C31.2412 33.8088 31.2412 33.8088 31.2412 33.8088C31.2412 33.8088 31.2412 33.8088 31.2412 33.8088C31.2412 33.8088 31.2412 33.8088 31.2412 33.8088C31.2412 33.8088 31.2412 33.8088 31.2412 33.8088C31.2412 33.8088 31.2412 33.8088 31.2412 33.8088C31.2412 33.8088 31.2412 33.8088 31.2412 33.8088C31.2413 33.8088 31.2412 33.8088 31.2412 33.8088C31.2412 33.8088 31.2412 33.8088 31.2412 33.8088C31.2412 33.8088 31.2412 33.8088 31.2412 33.8088C31.2412 33.8088 31.2412 33.8088 31.2412 33.8088C31.2412 33.8088 31.2412 33.8088 31.2412 33.8088C31.2413 33.8088 31.2412 33.8088 31.2412 33.8088C31.2413 33.8088 31.2412 33.8088 31.2412 33.8088C31.2412 33.8088 31.2412 33.8088 31.2412 33.8088C31.2412 33.8088 31.2412 33.8088 31.2412 33.8088C31.2412 33.8088 31.2412 33.8088 31.2412 33.8088C31.2412 33.8088 31.2412 33.8088 31.2412 33.8088C31.2413 33.8088 31.2412 33.8088 31.2412 33.8088C31.2413 33.8088 31.2412 33.8088 31.2412 33.8088C31.2412 33.8088 31.2412 33.8088 31.2412 33.8088C31.2412 33.8088 31.2412 33.8088 31.2412 33.8088C31.2412 33.8088 31.2413 33.8088 31.2413 33.8088C31.2413 33.8088 31.2413 33.8088 31.2413 33.8088C31.2413 33.8088 31.2412 33.8088 31.2413 33.8088C31.2413 33.8088 31.2412 33.8088 31.2413 33.8088C31.2413 33.8088 31.2413 33.8088 31.2413 33.8088C31.2413 33.8088 31.2413 33.8088 31.2413 33.8088C31.2413 33.8088 31.2413 33.8088 31.2413 33.8088C31.2413 33.8088 31.2413 33.8088 31.2413 33.8088C31.2413 33.8088 31.2412 33.8088 31.2413 33.8088C31.2413 33.8088 31.2412 33.8088 31.2413 33.8088C31.2413 33.8088 31.2413 33.8088 31.2413 33.8088C31.2413 33.8088 31.2413 33.8088 31.2413 33.8088C31.2413 33.8088 31.2413 33.8088 31.2413 33.8088C31.2413 33.8088 31.2413 33.8088 31.2413 33.8088C31.2413 33.8088 31.2413 33.8088 31.2413 33.8088C31.2413 33.8087 31.2412 33.8088 31.2413 33.8088C31.2413 33.8088 31.2413 33.8088 31.2413 33.8088C31.2413 33.8088 31.2413 33.8088 31.2413 33.8088C31.2413 33.8088 31.2413 33.8088 31.2413 33.8088C31.2413 33.8088 31.2413 33.8088 31.2413 33.8088C31.2413 33.8087 31.2413 33.8088 31.2413 33.8088C31.2413 33.8087 31.2412 33.8088 31.2413 33.8088C31.2413 33.8088 31.2413 33.8088 31.2413 33.8088C31.2413 33.8088 31.2413 33.8088 31.2413 33.8088C31.2413 33.8088 31.2413 33.8088 31.2413 33.8088C31.2413 33.8088 31.2413 33.8088 31.2413 33.8088C31.2413 33.8087 31.2413 33.8088 31.2413 33.8088C31.2413 33.8087 31.2413 33.8088 31.2413 33.8088C31.2413 33.8088 31.2413 33.8088 31.2413 33.8088C31.2413 33.8088 31.2413 33.8088 31.2413 33.8088C31.2413 33.8088 31.2413 33.8088 31.2413 33.8088C31.2413 33.8088 31.2413 33.8088 31.2413 33.8088C31.2413 33.8087 31.2413 33.8088 31.2413 33.8087C31.2413 33.8087 31.2413 33.8088 31.2413 33.8087C31.2413 33.8087 31.2413 33.8087 31.2413 33.8087C31.2413 33.8087 31.2413 33.8087 31.2413 33.8087C31.2413 33.8087 31.2413 33.8087 31.2413 33.8087C31.2413 33.8087 31.2413 33.8087 31.2413 33.8087C31.2413 33.8087 31.2413 33.8088 31.2413 33.8087C31.2413 33.8087 31.2413 33.8088 31.2413 33.8087C31.2413 33.8087 31.2413 33.8087 31.2413 33.8087C31.2413 33.8087 31.2413 33.8087 31.2413 33.8087C31.2413 33.8087 31.2413 33.8087 31.2413 33.8087C31.2413 33.8087 31.2413 33.8087 31.2413 33.8087C31.2413 33.8087 31.2413 33.8087 31.2413 33.8087C31.2413 33.8087 31.2413 33.8088 31.2413 33.8087C31.2413 33.8087 31.2413 33.8087 31.2413 33.8087C31.2413 33.8087 31.2413 33.8087 31.2413 33.8087C31.2413 33.8087 31.2413 33.8087 31.2413 33.8087C31.2413 33.8087 31.2413 33.8087 31.2413 33.8087C31.2413 33.8087 31.2413 33.8087 31.2413 33.8087C31.2413 33.8087 31.2413 33.8087 31.2413 33.8087C31.2413 33.8087 31.2413 33.8087 31.2413 33.8087C31.2413 33.8087 31.2413 33.8087 31.2413 33.8087C31.2413 33.8087 31.2413 33.8087 31.2413 33.8087C31.2413 33.8087 31.2413 33.8087 31.2413 33.8087C31.2413 33.8087 31.2413 33.8087 31.2413 33.8087C31.2413 33.8087 31.2413 33.8087 31.2413 33.8087C31.2413 33.8087 31.2413 33.8087 31.2413 33.8087C31.2413 33.8087 31.2413 33.8087 31.2413 33.8087C31.2413 33.8087 31.2413 33.8087 31.2413 33.8087C31.2413 33.8087 31.2413 33.8087 31.2413 33.8087C31.2413 33.8087 31.2413 33.8087 31.2413 33.8087C31.2413 33.8087 31.2413 33.8087 31.2413 33.8087C31.2413 33.8087 31.2413 33.8087 31.2413 33.8087C31.2413 33.8087 31.2413 33.8087 31.2413 33.8087C31.2413 33.8087 31.2413 33.8087 31.2413 33.8087C31.2413 33.8087 31.2413 33.8087 31.2413 33.8087C31.2413 33.8087 31.2413 33.8087 31.2413 33.8087C31.2413 33.8087 31.2413 33.8087 31.2413 33.8087C31.2413 33.8087 31.2413 33.8087 31.2413 33.8087C31.2413 33.8087 31.2413 33.8087 31.2413 33.8087C31.2413 33.8087 31.2413 33.8087 31.2413 33.8087C31.2413 33.8087 31.2413 33.8087 31.2413 33.8087C31.2413 33.8087 31.2413 33.8087 31.2413 33.8087C31.2413 33.8087 31.2413 33.8087 31.2413 33.8087C31.2413 33.8087 31.2413 33.8087 31.2413 33.8087C31.2413 33.8087 31.2413 33.8087 31.2413 33.8087C31.2413 33.8087 31.2413 33.8087 31.2413 33.8087C31.2413 33.8087 31.2413 33.8087 31.2413 33.8087C31.2413 33.8087 31.2413 33.8087 31.2413 33.8087C31.2413 33.8087 31.2413 33.8087 31.2413 33.8087C31.2413 33.8087 31.2413 33.8087 31.2413 33.8087C31.2413 33.8087 31.2413 33.8087 31.2413 33.8087C31.2413 33.8087 31.2413 33.8087 31.2413 33.8087C31.2413 33.8087 31.2413 33.8087 31.2413 33.8087C31.2413 33.8087 31.2413 33.8087 31.2413 33.8087C31.2413 33.8087 31.2413 33.8087 31.2413 33.8087C31.2413 33.8087 31.2413 33.8087 31.2413 33.8087C31.2413 33.8087 31.2413 33.8087 31.2413 33.8087C31.2413 33.8087 31.2413 33.8087 31.2413 33.8087C31.2413 33.8087 31.2413 33.8087 31.2413 33.8087C31.2413 33.8087 31.2413 33.8087 31.2413 33.8087C31.2413 33.8087 31.2413 33.8087 31.2413 33.8087C31.2413 33.8087 31.2413 33.8087 31.2413 33.8087C31.2413 33.8087 31.2413 33.8087 31.2413 33.8087C31.2413 33.8087 31.2413 33.8087 31.2413 33.8087C31.2413 33.8087 31.2413 33.8087 31.2413 33.8087C31.2413 33.8087 31.2413 33.8087 31.2413 33.8087C31.2413 33.8087 31.2413 33.8087 31.2413 33.8087C31.2413 33.8087 31.2413 33.8087 31.2413 33.8087C31.2413 33.8087 31.2413 33.8087 31.2413 33.8087C31.2413 33.8087 31.2413 33.8087 31.2413 33.8087C31.2413 33.8087 31.2413 33.8087 31.2413 33.8087C31.2413 33.8087 31.2413 33.8087 31.2413 33.8087C31.2413 33.8087 31.2413 33.8087 31.2413 33.8087C31.2413 33.8087 31.2413 33.8087 31.2413 33.8087C31.2413 33.8087 31.2413 33.8087 31.2413 33.8087C31.2413 33.8087 31.2413 33.8087 31.2413 33.8087C31.2413 33.8087 31.2413 33.8087 31.2413 33.8087C31.2413 33.8087 31.2413 33.8087 31.2413 33.8087C31.2413 33.8087 31.2413 33.8087 31.2413 33.8087C31.2413 33.8087 31.2413 33.8087 31.2413 33.8087C31.2413 33.8087 31.2413 33.8087 31.2413 33.8087C31.2413 33.8087 31.2413 33.8087 31.2413 33.8087C31.2413 33.8087 31.2413 33.8087 31.2413 33.8087C31.2413 33.8087 31.2413 33.8087 31.2413 33.8087C31.2414 33.8087 31.2413 33.8087 31.2413 33.8087C31.2413 33.8087 31.2413 33.8087 31.2413 33.8087C31.2413 33.8087 31.2413 33.8087 31.2413 33.8087C31.2413 33.8087 31.2413 33.8087 31.2413 33.8087C31.2413 33.8087 31.2413 33.8087 31.2413 33.8087C31.2414 33.8087 31.2413 33.8087 31.2413 33.8087C31.2414 33.8087 31.2413 33.8087 31.2413 33.8087C31.2413 33.8087 31.2413 33.8087 31.2413 33.8087C31.2413 33.8087 31.2413 33.8087 31.2413 33.8087C31.2413 33.8087 31.2413 33.8087 31.2413 33.8087C31.2413 33.8087 31.2413 33.8087 31.2413 33.8087C31.2414 33.8087 31.2413 33.8087 31.2413 33.8087C31.2414 33.8087 31.2413 33.8087 31.2413 33.8087C31.2413 33.8087 31.2414 33.8087 31.2414 33.8087C31.2414 33.8087 31.2414 33.8087 31.2414 33.8087C31.2414 33.8087 31.2414 33.8087 31.2414 33.8087C31.2414 33.8087 31.2414 33.8087 31.2414 33.8087C31.2414 33.8087 31.2413 33.8087 31.2414 33.8087C31.2414 33.8087 31.2413 33.8087 31.2414 33.8087C31.2414 33.8087 31.2414 33.8087 31.2414 33.8087C31.2414 33.8087 31.2414 33.8087 31.2414 33.8087C31.2414 33.8087 31.2414 33.8087 31.2414 33.8087C31.2414 33.8087 31.2414 33.8087 31.2414 33.8087C31.2414 33.8087 31.2413 33.8087 31.2414 33.8087C31.2414 33.8087 31.2413 33.8087 31.2414 33.8087C31.2414 33.8087 31.2414 33.8087 31.2414 33.8087C31.2414 33.8087 31.2414 33.8087 31.2414 33.8087C31.2414 33.8087 31.2414 33.8087 31.2414 33.8087C31.2414 33.8087 31.2414 33.8087 31.2414 33.8087C31.2414 33.8087 31.2414 33.8087 31.2414 33.8087C31.2414 33.8086 31.2413 33.8087 31.2414 33.8087C31.2414 33.8087 31.2414 33.8087 31.2414 33.8087C31.2414 33.8087 31.2414 33.8087 31.2414 33.8087C31.2414 33.8087 31.2414 33.8087 31.2414 33.8087C31.2414 33.8087 31.2414 33.8087 31.2414 33.8087C31.2414 33.8086 31.2414 33.8087 31.2414 33.8087C31.2414 33.8086 31.2414 33.8087 31.2414 33.8087C31.2414 33.8087 31.2414 33.8087 31.2414 33.8087C31.2414 33.8087 31.2414 33.8087 31.2414 33.8087C31.2414 33.8087 31.2414 33.8087 31.2414 33.8087C31.2414 33.8087 31.2414 33.8087 31.2414 33.8087C31.2414 33.8086 31.2414 33.8087 31.2414 33.8087C31.2414 33.8086 31.2414 33.8087 31.2414 33.8087C31.2414 33.8087 31.2414 33.8087 31.2414 33.8087C31.2414 33.8087 31.2414 33.8087 31.2414 33.8087C31.2414 33.8086 31.2414 33.8086 31.2414 33.8086C31.2414 33.8086 31.2414 33.8086 31.2414 33.8086C31.2414 33.8086 31.2414 33.8087 31.2414 33.8086C31.2414 33.8086 31.2414 33.8087 31.2414 33.8086C31.2414 33.8086 31.2414 33.8086 31.2414 33.8086C31.2414 33.8086 31.2414 33.8086 31.2414 33.8086C31.2414 33.8086 31.2414 33.8086 31.2414 33.8086C31.2414 33.8086 31.2414 33.8086 31.2414 33.8086C31.2414 33.8086 31.2414 33.8087 31.2414 33.8086C31.2414 33.8086 31.2414 33.8087 31.2414 33.8086C31.2414 33.8086 31.2414 33.8086 31.2414 33.8086C31.2414 33.8086 31.2414 33.8086 31.2414 33.8086C31.2414 33.8086 31.2414 33.8086 31.2414 33.8086C31.2414 33.8086 31.2414 33.8086 31.2414 33.8086C31.2414 33.8086 31.2414 33.8086 31.2414 33.8086C31.2414 33.8086 31.2414 33.8087 31.2414 33.8086C31.2414 33.8086 31.2414 33.8086 31.2414 33.8086C31.2414 33.8086 31.2414 33.8086 31.2414 33.8086C31.2414 33.8086 31.2414 33.8086 31.2414 33.8086C31.2414 33.8086 31.2414 33.8086 31.2414 33.8086C31.2414 33.8086 31.2414 33.8086 31.2414 33.8086C31.2414 33.8086 31.2414 33.8087 31.2414 33.8086C31.2414 33.8086 31.2414 33.8086 31.2414 33.8086C31.2414 33.8086 31.2414 33.8086 31.2414 33.8086C31.2414 33.8086 31.2414 33.8086 31.2414 33.8086C31.2414 33.8086 31.2414 33.8086 31.2414 33.8086C31.2414 33.8086 31.2414 33.8086 31.2414 33.8086C31.2414 33.8086 31.2414 33.8086 31.2414 33.8086C31.2414 33.8086 31.2414 33.8086 31.2414 33.8086C31.2414 33.8086 31.2414 33.8086 31.2414 33.8086C31.2414 33.8086 31.2414 33.8086 31.2414 33.8086C31.2414 33.8086 31.2414 33.8086 31.2414 33.8086C31.2414 33.8086 31.2414 33.8086 31.2414 33.8086C31.2414 33.8086 31.2414 33.8086 31.2414 33.8086C31.2414 33.8086 31.2414 33.8086 31.2414 33.8086C31.2414 33.8086 31.2414 33.8086 31.2414 33.8086C31.2414 33.8086 31.2414 33.8086 31.2414 33.8086C31.2414 33.8086 31.2414 33.8086 31.2414 33.8086C31.2414 33.8086 31.2414 33.8086 31.2414 33.8086C31.2414 33.8086 31.2414 33.8086 31.2414 33.8086C31.2414 33.8086 31.2414 33.8086 31.2414 33.8086C31.2414 33.8086 31.2414 33.8086 31.2414 33.8086C31.2414 33.8086 31.2414 33.8086 31.2414 33.8086C31.2414 33.8086 31.2414 33.8086 31.2414 33.8086C31.2414 33.8086 31.2414 33.8086 31.2414 33.8086C31.2414 33.8086 31.2414 33.8086 31.2414 33.8086C31.2414 33.8086 31.2414 33.8086 31.2414 33.8086C31.2414 33.8086 31.2414 33.8086 31.2414 33.8086C31.2414 33.8086 31.2414 33.8086 31.2414 33.8086C31.2414 33.8086 31.2414 33.8086 31.2414 33.8086C31.2414 33.8086 31.2414 33.8086 31.2414 33.8086C31.2414 33.8086 31.2414 33.8086 31.2414 33.8086C31.2414 33.8086 31.2414 33.8086 31.2414 33.8086C31.2414 33.8086 31.2414 33.8086 31.2414 33.8086C31.2414 33.8086 31.2414 33.8086 31.2414 33.8086C31.2414 33.8086 31.2414 33.8086 31.2414 33.8086C31.2414 33.8086 31.2414 33.8086 31.2414 33.8086C31.2414 33.8086 31.2414 33.8086 31.2414 33.8086C31.2414 33.8086 31.2414 33.8086 31.2414 33.8086C31.2414 33.8086 31.2414 33.8086 31.2414 33.8086C31.2414 33.8086 31.2414 33.8086 31.2414 33.8086C31.2414 33.8086 31.2414 33.8086 31.2414 33.8086C31.2414 33.8086 31.2414 33.8086 31.2414 33.8086C31.2414 33.8086 31.2414 33.8086 31.2414 33.8086C31.2414 33.8086 31.2414 33.8086 31.2414 33.8086C31.2414 33.8086 31.2414 33.8086 31.2414 33.8086C31.2414 33.8086 31.2414 33.8086 31.2414 33.8086C31.2414 33.8086 31.2414 33.8086 31.2414 33.8086C31.2414 33.8086 31.2414 33.8086 31.2414 33.8086C31.2414 33.8086 31.2414 33.8086 31.2414 33.8086C31.2414 33.8086 31.2414 33.8086 31.2414 33.8086C31.2414 33.8086 31.2414 33.8086 31.2414 33.8086C31.2414 33.8086 31.2414 33.8086 31.2414 33.8086C31.2414 33.8086 31.2414 33.8086 31.2414 33.8086C31.2414 33.8086 31.2414 33.8086 31.2414 33.8086C31.2414 33.8086 31.2414 33.8086 31.2414 33.8086C31.2414 33.8086 31.2414 33.8086 31.2414 33.8086C31.2414 33.8086 31.2414 33.8086 31.2414 33.8086C31.2414 33.8086 31.2414 33.8086 31.2414 33.8086C31.2414 33.8086 31.2414 33.8086 31.2414 33.8086C31.2414 33.8086 31.2414 33.8086 31.2414 33.8086C31.2415 33.8086 31.2414 33.8086 31.2414 33.8086C31.2414 33.8086 31.2414 33.8086 31.2414 33.8086C31.2414 33.8086 31.2414 33.8086 31.2414 33.8086C31.2414 33.8086 31.2414 33.8086 31.2414 33.8086C31.2414 33.8086 31.2414 33.8086 31.2414 33.8086C31.2414 33.8086 31.2414 33.8086 31.2414 33.8086C31.2415 33.8086 31.2414 33.8086 31.2414 33.8086L38.3097 40.8824ZM38.3107 40.8815C38.3065 40.8857 38.3019 40.8902 38.297 40.8951L31.2473 33.8028C31.2445 33.8055 31.242 33.808 31.2399 33.8101L38.3107 40.8815ZM38.2971 40.895C37.1309 42.0542 35.5097 42.7793 33.7287 42.7793V32.7793C32.762 32.7793 31.8782 33.1756 31.2472 33.8029L38.2971 40.895ZM33.7287 42.7793C32.8593 42.7793 32.0179 42.6053 31.2469 42.2856L35.0774 33.0484C34.6555 32.8734 34.1968 32.7793 33.7287 32.7793V42.7793ZM31.2506 42.2871C30.4851 41.9704 29.772 41.5031 29.1602 40.8948L36.2104 33.803C35.8809 33.4755 35.4927 33.2202 35.0738 33.0468L31.2506 42.2871ZM29.1604 40.8951C29.1555 40.8902 29.151 40.8857 29.1467 40.8815L36.2176 33.8101C36.2154 33.808 36.2129 33.8055 36.2102 33.8028L29.1604 40.8951ZM29.148 40.8827C29.148 40.8827 29.148 40.8827 29.148 40.8827C29.148 40.8827 29.148 40.8827 29.148 40.8827C29.148 40.8827 29.148 40.8827 29.148 40.8827C29.148 40.8827 29.148 40.8827 29.148 40.8827C29.148 40.8827 29.148 40.8827 29.148 40.8827C29.148 40.8827 29.148 40.8827 29.148 40.8827C29.148 40.8827 29.148 40.8827 29.148 40.8827C29.148 40.8827 29.148 40.8827 29.148 40.8827C29.148 40.8827 29.148 40.8827 29.148 40.8827C29.148 40.8827 29.148 40.8827 29.148 40.8827C29.148 40.8827 29.148 40.8827 29.148 40.8827C29.148 40.8827 29.148 40.8827 29.148 40.8827C29.148 40.8827 29.148 40.8827 29.148 40.8827C29.148 40.8827 29.148 40.8827 29.148 40.8827C29.148 40.8827 29.148 40.8827 29.148 40.8827C29.148 40.8827 29.148 40.8827 29.148 40.8827C29.148 40.8827 29.148 40.8827 29.148 40.8827C29.148 40.8827 29.148 40.8827 29.148 40.8827C29.148 40.8827 29.148 40.8827 29.148 40.8827C29.148 40.8827 29.148 40.8827 29.148 40.8827C29.148 40.8827 29.148 40.8827 29.148 40.8827C29.148 40.8827 29.148 40.8827 29.148 40.8827C29.148 40.8827 29.148 40.8827 29.148 40.8827C29.148 40.8827 29.148 40.8827 29.148 40.8827C29.148 40.8827 29.148 40.8827 29.148 40.8827C29.148 40.8827 29.148 40.8827 29.148 40.8827C29.148 40.8827 29.148 40.8827 29.148 40.8827C29.148 40.8827 29.148 40.8827 29.148 40.8827C29.148 40.8827 29.148 40.8827 29.148 40.8827C29.148 40.8827 29.148 40.8827 29.148 40.8827C29.148 40.8827 29.148 40.8827 29.148 40.8827C29.148 40.8827 29.148 40.8827 29.148 40.8827C29.148 40.8827 29.148 40.8827 29.148 40.8827C29.148 40.8827 29.148 40.8827 29.148 40.8827C29.148 40.8827 29.148 40.8827 29.148 40.8827C29.148 40.8827 29.148 40.8827 29.148 40.8827C29.148 40.8827 29.148 40.8827 29.148 40.8827C29.148 40.8827 29.148 40.8827 29.148 40.8827C29.148 40.8827 29.148 40.8827 29.148 40.8827C29.148 40.8827 29.148 40.8827 29.148 40.8827C29.148 40.8827 29.148 40.8827 29.148 40.8827C29.148 40.8827 29.148 40.8827 29.148 40.8827C29.1479 40.8827 29.148 40.8827 29.148 40.8827C29.1479 40.8827 29.148 40.8827 29.148 40.8827C29.148 40.8827 29.148 40.8827 29.148 40.8827C29.148 40.8827 29.148 40.8827 29.148 40.8827C29.148 40.8827 29.148 40.8827 29.148 40.8827C29.148 40.8827 29.148 40.8827 29.148 40.8827C29.1479 40.8826 29.148 40.8827 29.148 40.8827C29.1479 40.8827 29.148 40.8827 29.148 40.8827C29.148 40.8827 29.148 40.8827 29.148 40.8827C29.148 40.8827 29.148 40.8827 29.148 40.8827C29.148 40.8827 29.148 40.8827 29.148 40.8827C29.148 40.8827 29.148 40.8827 29.148 40.8827C29.1479 40.8826 29.148 40.8827 29.148 40.8827C29.1479 40.8826 29.148 40.8827 29.148 40.8827C29.148 40.8827 29.148 40.8827 29.148 40.8827C29.148 40.8827 29.148 40.8827 29.148 40.8827C29.148 40.8827 29.148 40.8827 29.148 40.8827C29.148 40.8827 29.148 40.8827 29.148 40.8827C29.1479 40.8826 29.148 40.8827 29.148 40.8827C29.1479 40.8826 29.148 40.8827 29.148 40.8827C29.148 40.8827 29.148 40.8827 29.1479 40.8827C29.1479 40.8827 29.1479 40.8827 29.1479 40.8827C29.1479 40.8827 29.1479 40.8827 29.1479 40.8827C29.1479 40.8827 29.1479 40.8827 29.1479 40.8827C29.1479 40.8826 29.148 40.8827 29.1479 40.8827C29.1479 40.8826 29.148 40.8827 29.1479 40.8827C29.1479 40.8827 29.1479 40.8827 29.1479 40.8827C29.1479 40.8827 29.1479 40.8827 29.1479 40.8827C29.1479 40.8827 29.1479 40.8827 29.1479 40.8827C29.1479 40.8827 29.1479 40.8827 29.1479 40.8827C29.1479 40.8826 29.148 40.8827 29.1479 40.8827C29.1479 40.8826 29.148 40.8827 29.1479 40.8826C29.1479 40.8826 29.1479 40.8826 29.1479 40.8826C29.1479 40.8826 29.1479 40.8826 29.1479 40.8826C29.1479 40.8826 29.1479 40.8826 29.1479 40.8826C29.1479 40.8826 29.1479 40.8826 29.1479 40.8826C29.1479 40.8826 29.148 40.8827 29.1479 40.8826C29.1479 40.8826 29.148 40.8827 29.1479 40.8826C29.1479 40.8826 29.1479 40.8826 29.1479 40.8826C29.1479 40.8826 29.1479 40.8826 29.1479 40.8826C29.1479 40.8826 29.1479 40.8826 29.1479 40.8826C29.1479 40.8826 29.1479 40.8826 29.1479 40.8826C29.1479 40.8826 29.148 40.8827 29.1479 40.8826C29.1479 40.8826 29.1479 40.8827 29.1479 40.8826C29.1479 40.8826 29.1479 40.8826 29.1479 40.8826C29.1479 40.8826 29.1479 40.8826 29.1479 40.8826C29.1479 40.8826 29.1479 40.8826 29.1479 40.8826C29.1479 40.8826 29.1479 40.8826 29.1479 40.8826C29.1479 40.8826 29.148 40.8827 29.1479 40.8826C29.1479 40.8826 29.1479 40.8827 29.1479 40.8826C29.1479 40.8826 29.1479 40.8826 29.1479 40.8826C29.1479 40.8826 29.1479 40.8826 29.1479 40.8826C29.1479 40.8826 29.1479 40.8826 29.1479 40.8826C29.1479 40.8826 29.1479 40.8826 29.1479 40.8826C29.1479 40.8826 29.1479 40.8827 29.1479 40.8826C29.1479 40.8826 29.1479 40.8826 29.1479 40.8826C29.1479 40.8826 29.1479 40.8826 29.1479 40.8826C29.1479 40.8826 29.1479 40.8826 29.1479 40.8826C29.1479 40.8826 29.1479 40.8826 29.1479 40.8826C29.1479 40.8826 29.1479 40.8826 29.1479 40.8826C29.1479 40.8826 29.1479 40.8827 29.1479 40.8826C29.1479 40.8826 29.1479 40.8826 29.1479 40.8826C29.1479 40.8826 29.1479 40.8826 29.1479 40.8826C29.1479 40.8826 29.1479 40.8826 29.1479 40.8826C29.1479 40.8826 29.1479 40.8826 29.1479 40.8826C29.1479 40.8826 29.1479 40.8826 29.1479 40.8826C29.1479 40.8826 29.1479 40.8826 29.1479 40.8826C29.1479 40.8826 29.1479 40.8826 29.1479 40.8826C29.1479 40.8826 29.1479 40.8826 29.1479 40.8826C29.1479 40.8826 29.1479 40.8826 29.1479 40.8826C29.1479 40.8826 29.1479 40.8826 29.1479 40.8826C29.1479 40.8826 29.1479 40.8826 29.1479 40.8826C29.1479 40.8826 29.1479 40.8826 29.1479 40.8826C29.1479 40.8826 29.1479 40.8826 29.1479 40.8826C29.1479 40.8826 29.1479 40.8826 29.1479 40.8826C29.1479 40.8826 29.1479 40.8826 29.1479 40.8826C29.1479 40.8826 29.1479 40.8826 29.1479 40.8826C29.1479 40.8826 29.1479 40.8826 29.1479 40.8826C29.1479 40.8826 29.1479 40.8826 29.1479 40.8826C29.1479 40.8826 29.1479 40.8826 29.1479 40.8826C29.1479 40.8826 29.1479 40.8826 29.1479 40.8826C29.1479 40.8826 29.1479 40.8826 29.1479 40.8826C29.1479 40.8826 29.1479 40.8826 29.1479 40.8826C29.1479 40.8826 29.1479 40.8826 29.1479 40.8826C29.1479 40.8826 29.1479 40.8826 29.1479 40.8826C29.1479 40.8826 29.1479 40.8826 29.1479 40.8826C29.1479 40.8826 29.1479 40.8826 29.1479 40.8826C29.1479 40.8826 29.1479 40.8826 29.1479 40.8826C29.1479 40.8826 29.1479 40.8826 29.1479 40.8826C29.1479 40.8826 29.1479 40.8826 29.1479 40.8826C29.1479 40.8826 29.1479 40.8826 29.1479 40.8826C29.1479 40.8826 29.1479 40.8826 29.1479 40.8826C29.1479 40.8826 29.1479 40.8826 29.1479 40.8826C29.1479 40.8826 29.1479 40.8826 29.1479 40.8826C29.1479 40.8826 29.1479 40.8826 29.1479 40.8826C29.1479 40.8826 29.1479 40.8826 29.1479 40.8826C29.1479 40.8826 29.1479 40.8826 29.1479 40.8826C29.1479 40.8826 29.1479 40.8826 29.1479 40.8826C29.1479 40.8826 29.1479 40.8826 29.1479 40.8826C29.1479 40.8826 29.1479 40.8826 29.1479 40.8826C29.1479 40.8826 29.1479 40.8826 29.1479 40.8826C29.1479 40.8826 29.1479 40.8826 29.1479 40.8826C29.1479 40.8826 29.1479 40.8826 29.1479 40.8826C29.1479 40.8826 29.1479 40.8826 29.1479 40.8826C29.1479 40.8826 29.1479 40.8826 29.1479 40.8826C29.1479 40.8826 29.1479 40.8826 29.1479 40.8826C29.1479 40.8826 29.1479 40.8826 29.1479 40.8826C29.1479 40.8826 29.1479 40.8826 29.1479 40.8826C29.1479 40.8826 29.1479 40.8826 29.1479 40.8826C29.1479 40.8826 29.1479 40.8826 29.1479 40.8826C29.1479 40.8826 29.1479 40.8826 29.1479 40.8826C29.1479 40.8826 29.1479 40.8826 29.1479 40.8826C29.1479 40.8826 29.1479 40.8826 29.1479 40.8826C29.1479 40.8826 29.1479 40.8826 29.1479 40.8826C29.1479 40.8826 29.1479 40.8826 29.1479 40.8826C29.1479 40.8826 29.1479 40.8826 29.1479 40.8826C29.1479 40.8826 29.1479 40.8826 29.1479 40.8826C29.1479 40.8826 29.1479 40.8826 29.1479 40.8826C29.1479 40.8826 29.1479 40.8826 29.1479 40.8826C29.1479 40.8826 29.1479 40.8826 29.1479 40.8826C29.1478 40.8826 29.1479 40.8826 29.1479 40.8826C29.1479 40.8826 29.1479 40.8826 29.1479 40.8826C29.1479 40.8826 29.1479 40.8826 29.1479 40.8826C29.1479 40.8826 29.1479 40.8826 29.1479 40.8826C29.1479 40.8826 29.1479 40.8826 29.1479 40.8826C29.1479 40.8826 29.1479 40.8826 29.1479 40.8826C29.1478 40.8826 29.1479 40.8826 29.1479 40.8826C29.1479 40.8826 29.1479 40.8826 29.1479 40.8826C29.1479 40.8826 29.1479 40.8826 29.1479 40.8826C29.1479 40.8826 29.1479 40.8826 29.1479 40.8826C29.1479 40.8826 29.1479 40.8826 29.1479 40.8826C29.1479 40.8826 29.1479 40.8826 29.1479 40.8826C29.1478 40.8826 29.1479 40.8826 29.1479 40.8826C29.1478 40.8826 29.1479 40.8826 29.1479 40.8826C29.1479 40.8826 29.1479 40.8826 29.1479 40.8826C29.1479 40.8826 29.1479 40.8826 29.1479 40.8826C29.1479 40.8826 29.1479 40.8826 29.1479 40.8826C29.1479 40.8826 29.1479 40.8826 29.1479 40.8826C29.1478 40.8825 29.1479 40.8826 29.1479 40.8826C29.1478 40.8826 29.1479 40.8826 29.1479 40.8826C29.1479 40.8826 29.1479 40.8826 29.1479 40.8826C29.1479 40.8826 29.1479 40.8826 29.1479 40.8826C29.1479 40.8826 29.1479 40.8826 29.1479 40.8826C29.1479 40.8826 29.1479 40.8826 29.1479 40.8826C29.1478 40.8825 29.1479 40.8826 29.1479 40.8826C29.1478 40.8825 29.1479 40.8826 29.1479 40.8826C29.1479 40.8826 29.1479 40.8826 29.1479 40.8826C29.1479 40.8826 29.1479 40.8826 29.1479 40.8826C29.1479 40.8826 29.1479 40.8826 29.1479 40.8826C29.1479 40.8826 29.1479 40.8826 29.1479 40.8826C29.1478 40.8825 29.1479 40.8826 29.1479 40.8826C29.1478 40.8825 29.1479 40.8826 29.1478 40.8826C29.1478 40.8826 29.1478 40.8826 29.1478 40.8826C29.1478 40.8826 29.1478 40.8826 29.1478 40.8826C29.1478 40.8826 29.1478 40.8826 29.1478 40.8826C29.1478 40.8826 29.1478 40.8826 29.1478 40.8826C29.1478 40.8825 29.1479 40.8826 29.1478 40.8826C29.1478 40.8825 29.1479 40.8826 29.1478 40.8826C29.1478 40.8826 29.1478 40.8826 29.1478 40.8826C29.1478 40.8826 29.1478 40.8826 29.1478 40.8826C29.1478 40.8826 29.1478 40.8826 29.1478 40.8826C29.1478 40.8826 29.1478 40.8826 29.1478 40.8826C29.1478 40.8825 29.1479 40.8826 29.1478 40.8825C29.1478 40.8825 29.1479 40.8826 29.1478 40.8825C29.1478 40.8825 29.1478 40.8825 29.1478 40.8825C29.1478 40.8825 29.1478 40.8825 29.1478 40.8825C29.1478 40.8825 29.1478 40.8825 29.1478 40.8825C29.1478 40.8825 29.1478 40.8825 29.1478 40.8825C29.1478 40.8825 29.1479 40.8826 29.1478 40.8825C29.1478 40.8825 29.1478 40.8826 29.1478 40.8825C29.1478 40.8825 29.1478 40.8825 29.1478 40.8825C29.1478 40.8825 29.1478 40.8825 29.1478 40.8825C29.1478 40.8825 29.1478 40.8825 29.1478 40.8825C29.1478 40.8825 29.1478 40.8825 29.1478 40.8825C29.1478 40.8825 29.1479 40.8826 29.1478 40.8825C29.1478 40.8825 29.1478 40.8826 29.1478 40.8825C29.1478 40.8825 29.1478 40.8825 29.1478 40.8825C29.1478 40.8825 29.1478 40.8825 29.1478 40.8825C29.1478 40.8825 29.1478 40.8825 29.1478 40.8825C29.1478 40.8825 29.1478 40.8825 29.1478 40.8825C29.1478 40.8825 29.1479 40.8826 29.1478 40.8825C29.1478 40.8825 29.1478 40.8826 29.1478 40.8825C29.1478 40.8825 29.1478 40.8825 29.1478 40.8825C29.1478 40.8825 29.1478 40.8825 29.1478 40.8825C29.1478 40.8825 29.1478 40.8825 29.1478 40.8825C29.1478 40.8825 29.1478 40.8825 29.1478 40.8825C29.1478 40.8825 29.1478 40.8826 29.1478 40.8825C29.1478 40.8825 29.1478 40.8825 29.1478 40.8825C29.1478 40.8825 29.1478 40.8825 29.1478 40.8825C29.1478 40.8825 29.1478 40.8825 29.1478 40.8825C29.1478 40.8825 29.1478 40.8825 29.1478 40.8825C29.1478 40.8825 29.1478 40.8825 29.1478 40.8825C29.1478 40.8825 29.1478 40.8825 29.1478 40.8825C29.1478 40.8825 29.1478 40.8825 29.1478 40.8825C29.1478 40.8825 29.1478 40.8825 29.1478 40.8825C29.1478 40.8825 29.1478 40.8825 29.1478 40.8825C29.1478 40.8825 29.1478 40.8825 29.1478 40.8825C29.1478 40.8825 29.1478 40.8825 29.1478 40.8825C29.1478 40.8825 29.1478 40.8825 29.1478 40.8825C29.1478 40.8825 29.1478 40.8825 29.1478 40.8825C29.1478 40.8825 29.1478 40.8825 29.1478 40.8825C29.1478 40.8825 29.1478 40.8825 29.1478 40.8825C29.1478 40.8825 29.1478 40.8825 29.1478 40.8825C29.1478 40.8825 29.1478 40.8825 29.1478 40.8825C29.1478 40.8825 29.1478 40.8825 29.1478 40.8825C29.1478 40.8825 29.1478 40.8825 29.1478 40.8825C29.1478 40.8825 29.1478 40.8825 29.1478 40.8825C29.1478 40.8825 29.1478 40.8825 29.1478 40.8825C29.1478 40.8825 29.1478 40.8825 29.1478 40.8825C29.1478 40.8825 29.1478 40.8825 29.1478 40.8825C29.1478 40.8825 29.1478 40.8825 29.1478 40.8825C29.1478 40.8825 29.1478 40.8825 29.1478 40.8825C29.1478 40.8825 29.1478 40.8825 29.1478 40.8825C29.1478 40.8825 29.1478 40.8825 29.1478 40.8825C29.1478 40.8825 29.1478 40.8825 29.1478 40.8825C29.1478 40.8825 29.1478 40.8825 29.1478 40.8825C29.1478 40.8825 29.1478 40.8825 29.1478 40.8825C29.1478 40.8825 29.1478 40.8825 29.1478 40.8825C29.1478 40.8825 29.1478 40.8825 29.1478 40.8825C29.1478 40.8825 29.1478 40.8825 29.1478 40.8825C29.1478 40.8825 29.1478 40.8825 29.1478 40.8825C29.1478 40.8825 29.1478 40.8825 29.1478 40.8825C29.1478 40.8825 29.1478 40.8825 29.1478 40.8825C29.1478 40.8825 29.1478 40.8825 29.1478 40.8825C29.1478 40.8825 29.1478 40.8825 29.1478 40.8825C29.1478 40.8825 29.1478 40.8825 29.1478 40.8825C29.1478 40.8825 29.1478 40.8825 29.1478 40.8825C29.1478 40.8825 29.1478 40.8825 29.1478 40.8825C29.1478 40.8825 29.1478 40.8825 29.1478 40.8825C29.1478 40.8825 29.1478 40.8825 29.1478 40.8825C29.1478 40.8825 29.1478 40.8825 29.1478 40.8825C29.1478 40.8825 29.1478 40.8825 29.1478 40.8825C29.1478 40.8825 29.1478 40.8825 29.1478 40.8825C29.1478 40.8825 29.1478 40.8825 29.1478 40.8825C29.1478 40.8825 29.1478 40.8825 29.1478 40.8825C29.1478 40.8825 29.1478 40.8825 29.1478 40.8825C29.1478 40.8825 29.1478 40.8825 29.1478 40.8825C29.1478 40.8825 29.1478 40.8825 29.1478 40.8825C29.1478 40.8825 29.1478 40.8825 29.1478 40.8825C29.1478 40.8825 29.1478 40.8825 29.1478 40.8825C29.1478 40.8825 29.1478 40.8825 29.1478 40.8825C29.1478 40.8825 29.1478 40.8825 29.1478 40.8825C29.1478 40.8825 29.1478 40.8825 29.1478 40.8825C29.1478 40.8825 29.1478 40.8825 29.1478 40.8825C29.1478 40.8825 29.1478 40.8825 29.1478 40.8825C29.1478 40.8825 29.1478 40.8825 29.1478 40.8825C29.1478 40.8825 29.1478 40.8825 29.1478 40.8825C29.1478 40.8825 29.1478 40.8825 29.1478 40.8825C29.1478 40.8825 29.1478 40.8825 29.1478 40.8825C29.1478 40.8825 29.1478 40.8825 29.1478 40.8825C29.1478 40.8825 29.1478 40.8825 29.1478 40.8825C29.1478 40.8825 29.1478 40.8825 29.1478 40.8825C29.1477 40.8825 29.1478 40.8825 29.1478 40.8825C29.1478 40.8825 29.1478 40.8825 29.1478 40.8825C29.1478 40.8825 29.1478 40.8825 29.1478 40.8825C29.1478 40.8825 29.1478 40.8825 29.1478 40.8825C29.1478 40.8825 29.1478 40.8825 29.1478 40.8825C29.1478 40.8825 29.1478 40.8825 29.1478 40.8825C29.1477 40.8825 29.1478 40.8825 29.1478 40.8825C29.1478 40.8825 29.1478 40.8825 29.1478 40.8825C29.1478 40.8825 29.1478 40.8825 29.1478 40.8825C29.1478 40.8825 29.1478 40.8825 29.1478 40.8825C29.1478 40.8825 29.1478 40.8825 29.1478 40.8825C29.1478 40.8825 29.1478 40.8825 29.1478 40.8825C29.1477 40.8824 29.1478 40.8825 29.1478 40.8825C29.1477 40.8825 29.1478 40.8825 29.1478 40.8825C29.1478 40.8825 29.1478 40.8825 29.1478 40.8825C29.1478 40.8825 29.1478 40.8825 29.1478 40.8825C29.1478 40.8825 29.1478 40.8825 29.1478 40.8825C29.1478 40.8825 29.1478 40.8825 29.1478 40.8825C29.1477 40.8824 29.1478 40.8825 29.1478 40.8825C29.1477 40.8824 29.1478 40.8825 29.1478 40.8825C29.1478 40.8825 29.1478 40.8825 29.1478 40.8825C29.1478 40.8825 29.1478 40.8825 29.1478 40.8825C29.1478 40.8825 29.1478 40.8825 29.1478 40.8825C29.1478 40.8825 29.1478 40.8825 29.1478 40.8825C29.1477 40.8824 29.1478 40.8825 29.1478 40.8825C29.1477 40.8824 29.1478 40.8825 29.1478 40.8825C29.1478 40.8825 29.1478 40.8825 29.1478 40.8825C29.1478 40.8825 29.1478 40.8825 29.1478 40.8825C29.1478 40.8825 29.1478 40.8825 29.1478 40.8825C29.1478 40.8825 29.1478 40.8825 29.1478 40.8825C29.1477 40.8824 29.1478 40.8825 29.1477 40.8825C29.1477 40.8824 29.1478 40.8825 29.1477 40.8825C29.1477 40.8825 29.1477 40.8825 29.1477 40.8825C29.1477 40.8825 29.1477 40.8825 29.1477 40.8825C29.1477 40.8825 29.1477 40.8825 29.1477 40.8825C29.1477 40.8825 29.1477 40.8825 29.1477 40.8825C29.1477 40.8824 29.1478 40.8825 29.1477 40.8825C29.1477 40.8824 29.1478 40.8825 29.1477 40.8825C29.1477 40.8825 29.1477 40.8825 29.1477 40.8825C29.1477 40.8825 29.1477 40.8825 29.1477 40.8825C29.1477 40.8825 29.1477 40.8824 29.1477 40.8824C29.1477 40.8824 29.1477 40.8824 29.1477 40.8824C29.1477 40.8824 29.1478 40.8825 29.1477 40.8824C29.1477 40.8824 29.1478 40.8825 29.1477 40.8824C29.1477 40.8824 29.1477 40.8824 29.1477 40.8824C29.1477 40.8824 29.1477 40.8824 29.1477 40.8824C29.1477 40.8824 29.1477 40.8824 29.1477 40.8824C29.1477 40.8824 29.1477 40.8824 29.1477 40.8824C29.1477 40.8824 29.1478 40.8825 29.1477 40.8824C29.1477 40.8824 29.1478 40.8825 29.1477 40.8824C29.1477 40.8824 29.1477 40.8824 29.1477 40.8824C29.1477 40.8824 29.1477 40.8824 29.1477 40.8824C29.1477 40.8824 29.1477 40.8824 29.1477 40.8824C29.1477 40.8824 29.1477 40.8824 29.1477 40.8824C29.1477 40.8824 29.1478 40.8825 29.1477 40.8824C29.1477 40.8824 29.1477 40.8825 29.1477 40.8824C29.1477 40.8824 29.1477 40.8824 29.1477 40.8824C29.1477 40.8824 29.1477 40.8824 29.1477 40.8824C29.1477 40.8824 29.1477 40.8824 29.1477 40.8824C29.1477 40.8824 29.1477 40.8824 29.1477 40.8824C29.1477 40.8824 29.1478 40.8825 29.1477 40.8824C29.1477 40.8824 29.1477 40.8824 29.1477 40.8824C29.1477 40.8824 29.1477 40.8824 29.1477 40.8824C29.1477 40.8824 29.1477 40.8824 29.1477 40.8824C29.1477 40.8824 29.1477 40.8824 29.1477 40.8824C29.1477 40.8824 29.1477 40.8824 29.1477 40.8824C29.1477 40.8824 29.1477 40.8825 29.1477 40.8824C29.1477 40.8824 29.1477 40.8824 29.1477 40.8824C29.1477 40.8824 29.1477 40.8824 29.1477 40.8824C29.1477 40.8824 29.1477 40.8824 29.1477 40.8824C29.1477 40.8824 29.1477 40.8824 29.1477 40.8824C29.1477 40.8824 29.1477 40.8824 29.1477 40.8824C29.1477 40.8824 29.1477 40.8824 29.1477 40.8824C29.1477 40.8824 29.1477 40.8824 29.1477 40.8824C29.1477 40.8824 29.1477 40.8824 29.1477 40.8824C29.1477 40.8824 29.1477 40.8824 29.1477 40.8824C29.1477 40.8824 29.1477 40.8824 29.1477 40.8824C29.1477 40.8824 29.1477 40.8824 29.1477 40.8824C29.1477 40.8824 29.1477 40.8824 29.1477 40.8824C29.1477 40.8824 29.1477 40.8824 29.1477 40.8824C29.1477 40.8824 29.1477 40.8824 29.1477 40.8824C29.1477 40.8824 29.1477 40.8824 29.1477 40.8824C29.1477 40.8824 29.1477 40.8824 29.1477 40.8824C29.1477 40.8824 29.1477 40.8824 29.1477 40.8824C29.1477 40.8824 29.1477 40.8824 29.1477 40.8824C29.1477 40.8824 29.1477 40.8824 29.1477 40.8824C29.1477 40.8824 29.1477 40.8824 29.1477 40.8824C29.1477 40.8824 29.1477 40.8824 29.1477 40.8824C29.1477 40.8824 29.1477 40.8824 29.1477 40.8824C29.1477 40.8824 29.1477 40.8824 29.1477 40.8824L36.216 33.8086C36.216 33.8086 36.216 33.8086 36.216 33.8086C36.216 33.8086 36.216 33.8086 36.216 33.8086C36.216 33.8086 36.216 33.8086 36.216 33.8086C36.216 33.8086 36.216 33.8086 36.216 33.8086C36.216 33.8086 36.216 33.8086 36.216 33.8086C36.216 33.8086 36.216 33.8086 36.216 33.8086C36.216 33.8086 36.216 33.8086 36.216 33.8086C36.216 33.8086 36.216 33.8086 36.216 33.8086C36.216 33.8086 36.216 33.8086 36.216 33.8086C36.216 33.8086 36.216 33.8086 36.216 33.8086C36.216 33.8086 36.216 33.8086 36.216 33.8086C36.216 33.8086 36.216 33.8086 36.216 33.8086C36.216 33.8086 36.216 33.8086 36.216 33.8086C36.216 33.8086 36.216 33.8086 36.216 33.8086C36.216 33.8086 36.216 33.8086 36.216 33.8086C36.216 33.8086 36.216 33.8086 36.216 33.8086C36.216 33.8086 36.216 33.8086 36.216 33.8086C36.216 33.8086 36.216 33.8086 36.216 33.8086C36.216 33.8086 36.216 33.8086 36.216 33.8086C36.216 33.8086 36.216 33.8086 36.216 33.8086C36.216 33.8086 36.216 33.8086 36.216 33.8086C36.216 33.8086 36.216 33.8086 36.216 33.8086C36.216 33.8086 36.216 33.8086 36.216 33.8086C36.216 33.8086 36.216 33.8086 36.216 33.8086C36.216 33.8086 36.216 33.8086 36.216 33.8086C36.216 33.8086 36.216 33.8086 36.216 33.8086C36.216 33.8086 36.216 33.8086 36.216 33.8086C36.216 33.8086 36.216 33.8086 36.216 33.8086C36.216 33.8086 36.216 33.8086 36.216 33.8086C36.216 33.8086 36.216 33.8086 36.216 33.8086C36.216 33.8086 36.216 33.8086 36.216 33.8086C36.216 33.8086 36.216 33.8086 36.216 33.8086C36.216 33.8086 36.216 33.8086 36.216 33.8086C36.216 33.8086 36.216 33.8086 36.216 33.8086C36.216 33.8086 36.216 33.8086 36.216 33.8086C36.216 33.8086 36.216 33.8086 36.216 33.8086C36.216 33.8086 36.216 33.8086 36.216 33.8086C36.216 33.8086 36.216 33.8086 36.216 33.8086C36.216 33.8086 36.216 33.8086 36.216 33.8086C36.216 33.8086 36.216 33.8086 36.216 33.8086C36.216 33.8086 36.216 33.8086 36.216 33.8086C36.216 33.8086 36.216 33.8086 36.216 33.8086C36.2161 33.8086 36.216 33.8086 36.216 33.8086C36.2161 33.8086 36.216 33.8086 36.216 33.8086C36.216 33.8086 36.216 33.8086 36.216 33.8086C36.216 33.8086 36.216 33.8086 36.216 33.8086C36.216 33.8086 36.216 33.8086 36.216 33.8086C36.216 33.8086 36.216 33.8086 36.216 33.8086C36.2161 33.8086 36.216 33.8086 36.216 33.8086C36.2161 33.8086 36.216 33.8086 36.216 33.8086C36.216 33.8086 36.216 33.8086 36.216 33.8086C36.216 33.8086 36.216 33.8086 36.216 33.8086C36.216 33.8086 36.216 33.8086 36.216 33.8086C36.2161 33.8086 36.2161 33.8086 36.2161 33.8086C36.2161 33.8086 36.216 33.8086 36.2161 33.8086C36.2161 33.8086 36.216 33.8086 36.2161 33.8086C36.2161 33.8086 36.2161 33.8086 36.2161 33.8086C36.2161 33.8086 36.2161 33.8086 36.2161 33.8086C36.2161 33.8086 36.2161 33.8086 36.2161 33.8086C36.2161 33.8086 36.2161 33.8086 36.2161 33.8086C36.2161 33.8086 36.216 33.8086 36.2161 33.8086C36.2161 33.8086 36.216 33.8086 36.2161 33.8086C36.2161 33.8086 36.2161 33.8086 36.2161 33.8086C36.2161 33.8086 36.2161 33.8086 36.2161 33.8086C36.2161 33.8086 36.2161 33.8086 36.2161 33.8086C36.2161 33.8086 36.2161 33.8086 36.2161 33.8086C36.2161 33.8087 36.216 33.8086 36.2161 33.8086C36.2161 33.8086 36.2161 33.8086 36.2161 33.8086C36.2161 33.8086 36.2161 33.8086 36.2161 33.8086C36.2161 33.8086 36.2161 33.8086 36.2161 33.8086C36.2161 33.8086 36.2161 33.8086 36.2161 33.8086C36.2161 33.8086 36.2161 33.8086 36.2161 33.8086C36.2161 33.8087 36.2161 33.8086 36.2161 33.8086C36.2161 33.8086 36.2161 33.8086 36.2161 33.8086C36.2161 33.8086 36.2161 33.8086 36.2161 33.8086C36.2161 33.8086 36.2161 33.8086 36.2161 33.8086C36.2161 33.8086 36.2161 33.8086 36.2161 33.8086C36.2161 33.8086 36.2161 33.8086 36.2161 33.8086C36.2161 33.8087 36.2161 33.8086 36.2161 33.8086C36.2161 33.8087 36.2161 33.8086 36.2161 33.8086C36.2161 33.8086 36.2161 33.8086 36.2161 33.8086C36.2161 33.8086 36.2161 33.8086 36.2161 33.8086C36.2161 33.8086 36.2161 33.8086 36.2161 33.8086C36.2161 33.8086 36.2161 33.8086 36.2161 33.8086C36.2161 33.8087 36.2161 33.8086 36.2161 33.8086C36.2161 33.8087 36.2161 33.8086 36.2161 33.8086C36.2161 33.8086 36.2161 33.8086 36.2161 33.8086C36.2161 33.8086 36.2161 33.8086 36.2161 33.8087C36.2161 33.8087 36.2161 33.8087 36.2161 33.8087C36.2161 33.8087 36.2161 33.8087 36.2161 33.8087C36.2161 33.8087 36.2161 33.8086 36.2161 33.8087C36.2161 33.8087 36.2161 33.8086 36.2161 33.8087C36.2161 33.8087 36.2161 33.8087 36.2161 33.8087C36.2161 33.8087 36.2161 33.8087 36.2161 33.8087C36.2161 33.8087 36.2161 33.8087 36.2161 33.8087C36.2161 33.8087 36.2161 33.8087 36.2161 33.8087C36.2161 33.8087 36.2161 33.8086 36.2161 33.8087C36.2161 33.8087 36.2161 33.8086 36.2161 33.8087C36.2161 33.8087 36.2161 33.8087 36.2161 33.8087C36.2161 33.8087 36.2161 33.8087 36.2161 33.8087C36.2161 33.8087 36.2161 33.8087 36.2161 33.8087C36.2161 33.8087 36.2161 33.8087 36.2161 33.8087C36.2161 33.8087 36.2161 33.8086 36.2161 33.8087C36.2161 33.8087 36.2161 33.8087 36.2161 33.8087C36.2161 33.8087 36.2161 33.8087 36.2161 33.8087C36.2161 33.8087 36.2161 33.8087 36.2161 33.8087C36.2161 33.8087 36.2161 33.8087 36.2161 33.8087C36.2161 33.8087 36.2161 33.8087 36.2161 33.8087C36.2161 33.8087 36.2161 33.8087 36.2161 33.8087C36.2161 33.8087 36.2161 33.8087 36.2161 33.8087C36.2161 33.8087 36.2161 33.8087 36.2161 33.8087C36.2161 33.8087 36.2161 33.8087 36.2161 33.8087C36.2161 33.8087 36.2161 33.8087 36.2161 33.8087C36.2161 33.8087 36.2161 33.8087 36.2161 33.8087C36.2161 33.8087 36.2161 33.8087 36.2161 33.8087C36.2161 33.8087 36.2161 33.8087 36.2161 33.8087C36.2161 33.8087 36.2161 33.8087 36.2161 33.8087C36.2161 33.8087 36.2161 33.8087 36.2161 33.8087C36.2161 33.8087 36.2161 33.8087 36.2161 33.8087C36.2161 33.8087 36.2161 33.8087 36.2161 33.8087C36.2161 33.8087 36.2161 33.8087 36.2161 33.8087C36.2161 33.8087 36.2161 33.8087 36.2161 33.8087C36.2161 33.8087 36.2161 33.8087 36.2161 33.8087C36.2161 33.8087 36.2161 33.8087 36.2161 33.8087C36.2161 33.8087 36.2161 33.8087 36.2161 33.8087C36.2161 33.8087 36.2161 33.8087 36.2161 33.8087C36.2161 33.8087 36.2161 33.8087 36.2161 33.8087C36.2161 33.8087 36.2161 33.8087 36.2161 33.8087C36.2161 33.8087 36.2161 33.8087 36.2161 33.8087C36.2161 33.8087 36.2161 33.8087 36.2161 33.8087C36.2161 33.8087 36.2161 33.8087 36.2161 33.8087C36.2161 33.8087 36.2161 33.8087 36.2161 33.8087C36.2161 33.8087 36.2161 33.8087 36.2161 33.8087C36.2161 33.8087 36.2161 33.8087 36.2161 33.8087C36.2161 33.8087 36.2161 33.8087 36.2161 33.8087C36.2161 33.8087 36.2161 33.8087 36.2161 33.8087C36.2161 33.8087 36.2161 33.8087 36.2161 33.8087C36.2161 33.8087 36.2161 33.8087 36.2161 33.8087C36.2161 33.8087 36.2161 33.8087 36.2161 33.8087C36.2161 33.8087 36.2161 33.8087 36.2161 33.8087C36.2161 33.8087 36.2161 33.8087 36.2161 33.8087C36.2161 33.8087 36.2161 33.8087 36.2161 33.8087C36.2161 33.8087 36.2161 33.8087 36.2161 33.8087C36.2161 33.8087 36.2161 33.8087 36.2161 33.8087C36.2161 33.8087 36.2161 33.8087 36.2161 33.8087C36.2161 33.8087 36.2161 33.8087 36.2161 33.8087C36.2161 33.8087 36.2161 33.8087 36.2161 33.8087C36.2161 33.8087 36.2161 33.8087 36.2161 33.8087C36.2161 33.8087 36.2161 33.8087 36.2161 33.8087C36.2161 33.8087 36.2161 33.8087 36.2161 33.8087C36.2161 33.8087 36.2161 33.8087 36.2161 33.8087C36.2161 33.8087 36.2161 33.8087 36.2161 33.8087C36.2161 33.8087 36.2161 33.8087 36.2161 33.8087C36.2161 33.8087 36.2161 33.8087 36.2161 33.8087C36.2161 33.8087 36.2161 33.8087 36.2161 33.8087C36.2161 33.8087 36.2161 33.8087 36.2161 33.8087C36.2161 33.8087 36.2161 33.8087 36.2161 33.8087C36.2161 33.8087 36.2161 33.8087 36.2161 33.8087C36.2161 33.8087 36.2161 33.8087 36.2161 33.8087C36.2161 33.8087 36.2161 33.8087 36.2161 33.8087C36.2161 33.8087 36.2161 33.8087 36.2161 33.8087C36.2161 33.8087 36.2161 33.8087 36.2161 33.8087C36.2162 33.8087 36.2161 33.8087 36.2161 33.8087C36.2161 33.8087 36.2161 33.8087 36.2161 33.8087C36.2161 33.8087 36.2161 33.8087 36.2161 33.8087C36.2161 33.8087 36.2161 33.8087 36.2161 33.8087C36.2161 33.8087 36.2161 33.8087 36.2161 33.8087C36.2161 33.8087 36.2161 33.8087 36.2161 33.8087C36.2162 33.8087 36.2161 33.8087 36.2161 33.8087C36.2161 33.8087 36.2161 33.8087 36.2161 33.8087C36.2161 33.8087 36.2161 33.8087 36.2161 33.8087C36.2161 33.8087 36.2161 33.8087 36.2161 33.8087C36.2161 33.8087 36.2161 33.8087 36.2161 33.8087C36.2161 33.8087 36.2161 33.8087 36.2161 33.8087C36.2162 33.8087 36.2161 33.8087 36.2161 33.8087C36.2162 33.8087 36.2161 33.8087 36.2161 33.8087C36.2161 33.8087 36.2161 33.8087 36.2161 33.8087C36.2161 33.8087 36.2161 33.8087 36.2161 33.8087C36.2161 33.8087 36.2161 33.8087 36.2161 33.8087C36.2161 33.8087 36.2161 33.8087 36.2161 33.8087C36.2162 33.8087 36.2161 33.8087 36.2161 33.8087C36.2162 33.8087 36.2161 33.8087 36.2161 33.8087C36.2161 33.8087 36.2161 33.8087 36.2161 33.8087C36.2162 33.8087 36.2162 33.8087 36.2162 33.8087C36.2162 33.8087 36.2162 33.8087 36.2162 33.8087C36.2162 33.8087 36.2162 33.8087 36.2162 33.8087C36.2162 33.8087 36.2161 33.8087 36.2162 33.8087C36.2162 33.8087 36.2161 33.8087 36.2162 33.8087C36.2162 33.8087 36.2162 33.8087 36.2162 33.8087C36.2162 33.8087 36.2162 33.8087 36.2162 33.8087C36.2162 33.8087 36.2162 33.8087 36.2162 33.8087C36.2162 33.8087 36.2162 33.8087 36.2162 33.8087C36.2162 33.8087 36.2161 33.8087 36.2162 33.8087C36.2162 33.8087 36.2161 33.8087 36.2162 33.8087C36.2162 33.8087 36.2162 33.8087 36.2162 33.8087C36.2162 33.8087 36.2162 33.8087 36.2162 33.8087C36.2162 33.8087 36.2162 33.8087 36.2162 33.8087C36.2162 33.8087 36.2162 33.8087 36.2162 33.8087C36.2162 33.8087 36.2161 33.8087 36.2162 33.8087C36.2162 33.8087 36.2162 33.8087 36.2162 33.8087C36.2162 33.8087 36.2162 33.8087 36.2162 33.8087C36.2162 33.8087 36.2162 33.8087 36.2162 33.8087C36.2162 33.8087 36.2162 33.8087 36.2162 33.8087C36.2162 33.8087 36.2162 33.8087 36.2162 33.8087C36.2162 33.8088 36.2162 33.8087 36.2162 33.8087C36.2162 33.8087 36.2162 33.8087 36.2162 33.8087C36.2162 33.8087 36.2162 33.8087 36.2162 33.8087C36.2162 33.8087 36.2162 33.8087 36.2162 33.8087C36.2162 33.8087 36.2162 33.8087 36.2162 33.8087C36.2162 33.8087 36.2162 33.8087 36.2162 33.8087C36.2162 33.8088 36.2162 33.8087 36.2162 33.8087C36.2162 33.8087 36.2162 33.8087 36.2162 33.8087C36.2162 33.8087 36.2162 33.8087 36.2162 33.8087C36.2162 33.8087 36.2162 33.8087 36.2162 33.8087C36.2162 33.8087 36.2162 33.8087 36.2162 33.8087C36.2162 33.8087 36.2162 33.8087 36.2162 33.8087C36.2162 33.8088 36.2162 33.8087 36.2162 33.8087C36.2162 33.8088 36.2162 33.8087 36.2162 33.8088C36.2162 33.8088 36.2162 33.8088 36.2162 33.8088C36.2162 33.8088 36.2162 33.8088 36.2162 33.8088C36.2162 33.8088 36.2162 33.8088 36.2162 33.8088C36.2162 33.8088 36.2162 33.8088 36.2162 33.8088C36.2162 33.8088 36.2162 33.8087 36.2162 33.8088C36.2162 33.8088 36.2162 33.8087 36.2162 33.8088C36.2162 33.8088 36.2162 33.8088 36.2162 33.8088C36.2162 33.8088 36.2162 33.8088 36.2162 33.8088C36.2162 33.8088 36.2162 33.8088 36.2162 33.8088C36.2162 33.8088 36.2162 33.8088 36.2162 33.8088C36.2162 33.8088 36.2162 33.8087 36.2162 33.8088C36.2162 33.8088 36.2162 33.8087 36.2162 33.8088C36.2162 33.8088 36.2162 33.8088 36.2162 33.8088C36.2162 33.8088 36.2162 33.8088 36.2162 33.8088C36.2162 33.8088 36.2162 33.8088 36.2162 33.8088C36.2162 33.8088 36.2162 33.8088 36.2162 33.8088C36.2162 33.8088 36.2162 33.8087 36.2162 33.8088C36.2162 33.8088 36.2162 33.8088 36.2162 33.8088C36.2162 33.8088 36.2162 33.8088 36.2162 33.8088C36.2162 33.8088 36.2162 33.8088 36.2162 33.8088C36.2162 33.8088 36.2162 33.8088 36.2162 33.8088C36.2162 33.8088 36.2162 33.8088 36.2162 33.8088C36.2162 33.8088 36.2162 33.8088 36.2162 33.8088C36.2162 33.8088 36.2162 33.8088 36.2162 33.8088C36.2162 33.8088 36.2162 33.8088 36.2162 33.8088C36.2162 33.8088 36.2162 33.8088 36.2162 33.8088C36.2162 33.8088 36.2162 33.8088 36.2162 33.8088C36.2162 33.8088 36.2162 33.8088 36.2162 33.8088C36.2162 33.8088 36.2162 33.8088 36.2162 33.8088C36.2162 33.8088 36.2162 33.8088 36.2162 33.8088C36.2162 33.8088 36.2162 33.8088 36.2162 33.8088C36.2162 33.8088 36.2162 33.8088 36.2162 33.8088C36.2162 33.8088 36.2162 33.8088 36.2162 33.8088C36.2162 33.8088 36.2162 33.8088 36.2162 33.8088C36.2162 33.8088 36.2162 33.8088 36.2162 33.8088C36.2162 33.8088 36.2162 33.8088 36.2162 33.8088C36.2162 33.8088 36.2162 33.8088 36.2162 33.8088C36.2162 33.8088 36.2162 33.8088 36.2162 33.8088C36.2162 33.8088 36.2162 33.8088 36.2162 33.8088C36.2162 33.8088 36.2162 33.8088 36.2162 33.8088C36.2162 33.8088 36.2162 33.8088 36.2162 33.8088C36.2162 33.8088 36.2162 33.8088 36.2162 33.8088C36.2162 33.8088 36.2162 33.8088 36.2162 33.8088C36.2162 33.8088 36.2162 33.8088 36.2162 33.8088C36.2162 33.8088 36.2162 33.8088 36.2162 33.8088C36.2162 33.8088 36.2162 33.8088 36.2162 33.8088C36.2162 33.8088 36.2162 33.8088 36.2162 33.8088C36.2162 33.8088 36.2162 33.8088 36.2162 33.8088C36.2162 33.8088 36.2162 33.8088 36.2162 33.8088C36.2162 33.8088 36.2162 33.8088 36.2162 33.8088C36.2162 33.8088 36.2162 33.8088 36.2162 33.8088C36.2162 33.8088 36.2162 33.8088 36.2162 33.8088C36.2162 33.8088 36.2162 33.8088 36.2162 33.8088C36.2162 33.8088 36.2162 33.8088 36.2162 33.8088C36.2162 33.8088 36.2162 33.8088 36.2162 33.8088C36.2162 33.8088 36.2162 33.8088 36.2162 33.8088C36.2162 33.8088 36.2162 33.8088 36.2162 33.8088C36.2162 33.8088 36.2162 33.8088 36.2162 33.8088C36.2162 33.8088 36.2162 33.8088 36.2162 33.8088C36.2162 33.8088 36.2162 33.8088 36.2162 33.8088C36.2162 33.8088 36.2162 33.8088 36.2162 33.8088C36.2162 33.8088 36.2162 33.8088 36.2162 33.8088C36.2162 33.8088 36.2162 33.8088 36.2162 33.8088C36.2162 33.8088 36.2162 33.8088 36.2162 33.8088C36.2162 33.8088 36.2162 33.8088 36.2162 33.8088C36.2162 33.8088 36.2162 33.8088 36.2162 33.8088C36.2162 33.8088 36.2162 33.8088 36.2162 33.8088C36.2162 33.8088 36.2162 33.8088 36.2162 33.8088C36.2162 33.8088 36.2162 33.8088 36.2162 33.8088C36.2162 33.8088 36.2162 33.8088 36.2162 33.8088C36.2162 33.8088 36.2162 33.8088 36.2162 33.8088C36.2162 33.8088 36.2162 33.8088 36.2162 33.8088C36.2162 33.8088 36.2162 33.8088 36.2162 33.8088C36.2162 33.8088 36.2162 33.8088 36.2162 33.8088C36.2162 33.8088 36.2162 33.8088 36.2162 33.8088C36.2162 33.8088 36.2162 33.8088 36.2162 33.8088C36.2162 33.8088 36.2162 33.8088 36.2162 33.8088C36.2162 33.8088 36.2162 33.8088 36.2162 33.8088C36.2162 33.8088 36.2162 33.8088 36.2162 33.8088C36.2162 33.8088 36.2162 33.8088 36.2162 33.8088C36.2162 33.8088 36.2162 33.8088 36.2162 33.8088C36.2162 33.8088 36.2162 33.8088 36.2162 33.8088C36.2163 33.8088 36.2162 33.8088 36.2162 33.8088C36.2162 33.8088 36.2162 33.8088 36.2162 33.8088C36.2162 33.8088 36.2162 33.8088 36.2162 33.8088C36.2162 33.8088 36.2162 33.8088 36.2162 33.8088C36.2162 33.8088 36.2162 33.8088 36.2162 33.8088C36.2162 33.8088 36.2162 33.8088 36.2162 33.8088C36.2163 33.8088 36.2162 33.8088 36.2162 33.8088C36.2162 33.8088 36.2162 33.8088 36.2162 33.8088C36.2162 33.8088 36.2162 33.8088 36.2162 33.8088C36.2162 33.8088 36.2162 33.8088 36.2162 33.8088C36.2162 33.8088 36.2162 33.8088 36.2162 33.8088C36.2162 33.8088 36.2162 33.8088 36.2162 33.8088C36.2163 33.8088 36.2162 33.8088 36.2162 33.8088C36.2163 33.8088 36.2162 33.8088 36.2163 33.8088C36.2163 33.8088 36.2163 33.8088 36.2163 33.8088C36.2163 33.8088 36.2163 33.8088 36.2163 33.8088C36.2163 33.8088 36.2163 33.8088 36.2163 33.8088C36.2163 33.8088 36.2163 33.8088 36.2163 33.8088C36.2163 33.8088 36.2162 33.8088 36.2163 33.8088C36.2163 33.8088 36.2162 33.8088 36.2163 33.8088C36.2163 33.8088 36.2163 33.8088 36.2163 33.8088C36.2163 33.8088 36.2163 33.8088 36.2163 33.8088C36.2163 33.8088 36.2163 33.8088 36.2163 33.8088C36.2163 33.8088 36.2163 33.8088 36.2163 33.8088C36.2163 33.8088 36.2162 33.8088 36.2163 33.8088C36.2163 33.8088 36.2163 33.8088 36.2163 33.8088C36.2163 33.8088 36.2163 33.8088 36.2163 33.8088C36.2163 33.8088 36.2163 33.8088 36.2163 33.8088C36.2163 33.8088 36.2163 33.8088 36.2163 33.8088C36.2163 33.8088 36.2163 33.8088 36.2163 33.8088C36.2163 33.8089 36.2162 33.8088 36.2163 33.8088C36.2163 33.8088 36.2163 33.8088 36.2163 33.8088C36.2163 33.8088 36.2163 33.8088 36.2163 33.8088C36.2163 33.8088 36.2163 33.8088 36.2163 33.8088C36.2163 33.8088 36.2163 33.8088 36.2163 33.8088C36.2163 33.8088 36.2163 33.8088 36.2163 33.8088C36.2163 33.8089 36.2163 33.8088 36.2163 33.8088C36.2163 33.8089 36.2163 33.8088 36.2163 33.8088C36.2163 33.8088 36.2163 33.8088 36.2163 33.8088C36.2163 33.8088 36.2163 33.8088 36.2163 33.8088C36.2163 33.8088 36.2163 33.8088 36.2163 33.8088C36.2163 33.8088 36.2163 33.8088 36.2163 33.8088C36.2163 33.8089 36.2163 33.8088 36.2163 33.8088C36.2163 33.8089 36.2163 33.8088 36.2163 33.8088C36.2163 33.8088 36.2163 33.8088 36.2163 33.8088C36.2163 33.8088 36.2163 33.8088 36.2163 33.8088C36.2163 33.8088 36.2163 33.8088 36.2163 33.8088C36.2163 33.8088 36.2163 33.8088 36.2163 33.8088C36.2163 33.8089 36.2163 33.8088 36.2163 33.8089C36.2163 33.8089 36.2163 33.8088 36.2163 33.8089C36.2163 33.8089 36.2163 33.8089 36.2163 33.8089C36.2163 33.8089 36.2163 33.8089 36.2163 33.8089C36.2163 33.8089 36.2163 33.8089 36.2163 33.8089C36.2163 33.8089 36.2163 33.8089 36.2163 33.8089C36.2163 33.8089 36.2163 33.8088 36.2163 33.8089C36.2163 33.8089 36.2163 33.8089 36.2163 33.8089C36.2163 33.8089 36.2163 33.8089 36.2163 33.8089C36.2163 33.8089 36.2163 33.8089 36.2163 33.8089C36.2163 33.8089 36.2163 33.8089 36.2163 33.8089C36.2163 33.8089 36.2163 33.8089 36.2163 33.8089C36.2163 33.8089 36.2163 33.8088 36.2163 33.8089C36.2163 33.8089 36.2163 33.8089 36.2163 33.8089C36.2163 33.8089 36.2163 33.8089 36.2163 33.8089C36.2163 33.8089 36.2163 33.8089 36.2163 33.8089C36.2163 33.8089 36.2163 33.8089 36.2163 33.8089C36.2163 33.8089 36.2163 33.8089 36.2163 33.8089C36.2163 33.8089 36.2163 33.8088 36.2163 33.8089C36.2163 33.8089 36.2163 33.8089 36.2163 33.8089C36.2163 33.8089 36.2163 33.8089 36.2163 33.8089C36.2163 33.8089 36.2163 33.8089 36.2163 33.8089C36.2163 33.8089 36.2163 33.8089 36.2163 33.8089C36.2163 33.8089 36.2163 33.8089 36.2163 33.8089C36.2163 33.8089 36.2163 33.8089 36.2163 33.8089C36.2163 33.8089 36.2163 33.8089 36.2163 33.8089C36.2163 33.8089 36.2163 33.8089 36.2163 33.8089C36.2163 33.8089 36.2163 33.8089 36.2163 33.8089C36.2163 33.8089 36.2163 33.8089 36.2163 33.8089C36.2163 33.8089 36.2163 33.8089 36.2163 33.8089C36.2163 33.8089 36.2163 33.8089 36.2163 33.8089C36.2163 33.8089 36.2163 33.8089 36.2163 33.8089C36.2163 33.8089 36.2163 33.8089 36.2163 33.8089C36.2163 33.8089 36.2163 33.8089 36.2163 33.8089C36.2163 33.8089 36.2163 33.8089 36.2163 33.8089C36.2163 33.8089 36.2163 33.8089 36.2163 33.8089L29.148 40.8827ZM29.1463 40.881L23.355 35.0897L30.4261 28.0186L36.2174 33.81L29.1463 40.881ZM23.355 35.0897C20.8244 32.5591 20.8244 28.4561 23.355 25.9255L30.4261 32.9966C31.8007 31.6219 31.8007 29.3933 30.4261 28.0186L23.355 35.0897ZM23.355 25.9255C25.8856 23.3949 29.9886 23.3949 32.5192 25.9255L25.4482 32.9966C26.8228 34.3712 29.0515 34.3712 30.4261 32.9966L23.355 25.9255ZM32.5192 25.9255L35.7842 29.1905L28.7131 36.2615L25.4482 32.9966L32.5192 25.9255Z" fill="#24243A" mask="url(#path-3-outside-1_5311_669)"/>
</svg>
