<svg width="45" height="45" viewBox="0 0 45 45" fill="none" xmlns="http://www.w3.org/2000/svg">
<g clip-path="url(#clip0_3843_15582)">
<path d="M37.7468 6.45547C35.711 4.40085 33.2867 2.77194 30.6151 1.66366C27.9435 0.555378 25.078 -0.0101139 22.1857 0.000136907C10.066 0.000136907 0.18872 9.87463 0.177619 21.9971C0.177619 25.8797 1.19338 29.6569 3.1111 33.0012L0 44.4048L11.6673 41.3465C14.895 43.103 18.511 44.0237 22.1857 44.0246H22.1968C34.3193 44.0246 44.1938 34.1501 44.2049 22.0165C44.2076 19.1248 43.6382 16.2611 42.5293 13.5904C41.4205 10.9197 39.7941 8.49484 37.744 6.45547H37.7468ZM22.1857 40.3002C18.9081 40.3013 15.6907 39.4193 12.8718 37.7469L12.2057 37.3473L5.28416 39.1623L7.1325 32.41L6.69956 31.7134C4.86733 28.8003 3.89831 25.4274 3.90484 21.986C3.90484 11.9228 12.1114 3.71348 22.1968 3.71348C24.5995 3.70917 26.9793 4.18049 29.1989 5.10027C31.4186 6.02005 33.4342 7.37009 35.1297 9.07257C36.831 10.7684 38.1798 12.7843 39.0981 15.004C40.0165 17.2237 40.4863 19.6033 40.4804 22.0054C40.4693 32.1047 32.2628 40.3002 22.1857 40.3002ZM32.2184 26.6069C31.6716 26.3321 28.9713 25.0028 28.4634 24.814C27.9583 24.6336 27.5892 24.5393 27.2284 25.0888C26.8593 25.6355 25.8047 26.8816 25.4883 27.2396C25.1719 27.6088 24.8444 27.6504 24.2949 27.3784C23.7482 27.1009 21.9748 26.5236 19.8767 24.6447C18.2392 23.1877 17.143 21.3838 16.8155 20.837C16.4991 20.2875 16.785 19.9933 17.0597 19.7186C17.3012 19.4744 17.6065 19.0747 17.8812 18.7583C18.1587 18.442 18.2503 18.2088 18.4307 17.8425C18.6111 17.4706 18.5251 17.1542 18.3891 16.8795C18.2503 16.6047 17.1541 13.8933 16.6906 12.7998C16.2466 11.7202 15.7942 11.8701 15.4556 11.8562C15.1392 11.8368 14.7701 11.8368 14.401 11.8368C14.1223 11.8437 13.848 11.9082 13.5953 12.0261C13.3427 12.1441 13.1171 12.313 12.9329 12.5223C12.4278 13.0718 11.0151 14.4011 11.0151 17.1126C11.0151 19.8241 12.9856 22.4301 13.2631 22.7992C13.5351 23.1683 17.1319 28.7161 22.6519 31.1028C23.9563 31.6718 24.9832 32.0076 25.7853 32.2629C27.1035 32.6848 28.2941 32.6209 29.2433 32.4849C30.2979 32.324 32.4931 31.1528 32.9566 29.8678C33.4118 28.5801 33.4118 27.4811 33.273 27.2507C33.137 27.0176 32.7679 26.8816 32.2184 26.6069Z" fill="#F5F5F5" stroke="#F5F5F5" stroke-width="0.4"/>
</g>
<defs>
<clipPath id="clip0_3843_15582">
<rect width="45" height="45" fill="white"/>
</clipPath>
</defs>
</svg>
