<svg width="36" height="36" viewBox="0 0 36 36" fill="none" xmlns="http://www.w3.org/2000/svg">
<path fill-rule="evenodd" clip-rule="evenodd" d="M14.2554 1.18179C12.6592 1.75456 11.6438 3.08758 11.457 4.8556L11.3599 5.77382L9.75035 5.18273C8.865 4.85762 7.88739 4.55689 7.57777 4.51447C6.73052 4.39824 5.7649 4.77102 5.13058 5.45922C4.61127 6.0227 4.40939 6.48221 3.33077 9.55739C2.6978 11.3623 2.00193 10.9441 11.2416 14.3124L19.1526 17.1963L11.4397 17.2637L3.72672 17.331L3.46935 17.649C3.22276 17.9536 3.21212 18.2822 3.21495 25.5275C3.21765 32.5508 3.23529 33.1263 3.46329 33.6267C3.7787 34.3195 4.66622 35.1179 5.32357 35.3005C5.66618 35.3956 9.37461 35.4437 16.4175 35.4441L26.9966 35.4449L27.7088 35.09C28.566 34.6628 29.1296 33.9385 29.3294 33.0072C29.419 32.5888 29.4737 30.1909 29.4737 26.6686V21.0032L29.7767 21.0894C31.1013 21.4666 31.2493 21.3159 32.2347 18.585C33.2674 15.7237 33.2588 14.8725 32.1856 13.7164C31.7303 13.2261 31.3978 13.0572 29.6386 12.4225C28.8443 12.1359 28.0878 11.8589 27.9577 11.8069C27.7475 11.723 27.7683 11.6585 28.1454 11.229C28.8253 10.4546 29.1213 9.65207 29.1234 8.57709C29.1279 6.35777 27.5392 4.65763 25.318 4.5045C23.9625 4.41104 23.2416 4.74059 21.5339 6.23414C19.9037 7.66008 20.0416 7.71719 19.713 5.47955C19.3763 3.18576 18.7631 2.15455 17.2919 1.40777C16.4245 0.967382 15.1227 0.870551 14.2554 1.18179ZM16.6529 3.35195C17.3502 3.8726 17.4918 4.22061 17.7827 6.13044C17.9374 7.1467 18.0263 8.0159 17.9802 8.06209C17.8212 8.22114 14.4849 6.90577 14.0915 6.52908C13.0646 5.54514 13.3967 3.77025 14.72 3.17014C15.2504 2.92974 16.208 3.01984 16.6529 3.35195ZM11.759 8.05967C14.132 8.92321 16.0897 9.6413 16.1093 9.65557C16.1291 9.66971 15.8365 10.5289 15.4592 11.5651L14.7733 13.4488L10.1711 11.7775C7.63985 10.8582 5.51737 10.0561 5.45447 9.99482C5.39158 9.93368 5.56531 9.25639 5.84059 8.48969C6.33687 7.10738 6.76338 6.48962 7.22128 6.48962C7.3441 6.48962 9.38606 7.19613 11.759 8.05967ZM25.8818 6.67332C26.4864 6.92597 27.0062 7.5852 27.1168 8.23946C27.3234 9.46245 26.0729 10.7932 24.8948 10.6042C24.4083 10.5262 21.1912 9.38676 21.1912 9.29249C21.1912 9.17747 23.6439 7.04718 24.0867 6.77756C24.6298 6.44693 25.2533 6.4107 25.8818 6.67332ZM19.0684 10.7226C19.4564 10.8501 19.8039 11.003 19.8404 11.0621C19.877 11.1214 19.6335 11.9197 19.2994 12.8363C18.9653 13.7529 18.6652 14.5788 18.6325 14.6716C18.5884 14.7969 18.3406 14.7528 17.6674 14.4993C17.1692 14.3118 16.745 14.1417 16.7247 14.1214C16.6925 14.0894 17.0288 13.1351 17.839 10.9587C17.958 10.6391 18.1246 10.403 18.2092 10.4341C18.2938 10.4652 18.6804 10.5951 19.0684 10.7226ZM26.3088 13.3559C28.6051 14.1896 30.5658 14.9375 30.6661 15.0184C31.1165 15.3809 31.0955 15.7488 30.5339 17.3313C30.2317 18.183 29.9149 18.8792 29.8301 18.8787C29.7452 18.878 27.6152 18.1236 25.0968 17.2018C22.0202 16.076 20.5307 15.4688 20.5571 15.3513C20.7252 14.6045 21.8752 11.7429 21.9898 11.7861C22.0691 11.816 24.0126 12.5224 26.3088 13.3559ZM13.3127 26.3543V33.4247H9.60302H5.89324L5.56275 33.0941L5.23212 32.7636V26.0236V19.2838H9.27239H13.3127V26.3543ZM17.3529 26.3543V33.4247H16.3429H15.3328V26.3543V19.2838H16.3429H17.3529V26.3543ZM26.1742 19.7433L27.3863 20.1881L27.4237 26.2341C27.4442 29.5593 27.4275 32.4179 27.3865 32.5864C27.3456 32.755 27.1925 33.0125 27.0462 33.1587C26.7942 33.4107 26.5848 33.4247 23.0766 33.4247H19.3731V26.3543V19.2838L22.1676 19.2911L24.9621 19.2983L26.1742 19.7433Z" fill="#C7C7CC" stroke="#C7C7CC" stroke-width="0.8"/>
</svg>
