<svg width="38" height="38" viewBox="0 0 38 38" fill="none" xmlns="http://www.w3.org/2000/svg">
<path fill-rule="evenodd" clip-rule="evenodd" d="M19.4116 1.20646C18.61 1.45312 17.6648 2.25029 17.2711 3.01155C17.1053 3.33242 16.8669 4.1017 16.7414 4.72119L16.5132 5.84752L11.1595 7.2805C3.01933 9.45912 3.18943 9.40731 2.49114 9.91444C2.11498 10.1874 1.68411 10.6861 1.43334 11.1383C0.648028 12.5548 0.656913 12.6034 3.81593 24.2896C5.55269 30.7139 6.71867 34.7775 6.92685 35.1306C7.55842 36.2023 8.59422 36.8584 9.86076 36.9889C10.527 37.0574 11.4451 36.847 17.2953 35.2833C20.9662 34.3023 24.1427 33.4102 24.3542 33.301C24.7903 33.0758 26.0437 31.7362 26.0469 31.4916C26.0536 31 26.2512 30.9749 27.8161 31.2667C29.9951 31.6728 30.9805 31.4876 32.1229 30.4573C33.2267 29.4619 33.0015 30.399 35.3638 16.9701C36.6301 9.77111 37.0526 7.081 36.9949 6.58161C36.8348 5.19636 35.7784 3.88221 34.4793 3.45237C33.6899 3.1912 21.1514 0.987244 20.5278 1.00006C20.2654 1.00541 19.763 1.09833 19.4116 1.20646ZM27.1995 4.22841C30.7117 4.8479 33.6319 5.35475 33.6888 5.35475C33.9721 5.35475 34.7893 6.2675 34.8646 6.66792C34.9358 7.04735 31.7805 25.5887 31.2509 27.902C31.0894 28.6072 30.7233 29.0407 30.0849 29.2821C29.7722 29.4003 29.2976 29.3674 27.961 29.1342L26.2396 28.8339L25.358 25.5269C24.8731 23.708 24.4961 22.2016 24.5202 22.1794C24.5441 22.1571 25.1517 21.7476 25.8702 21.2692C28.9979 19.1864 31.008 16.412 31.0271 14.1514C31.043 12.2475 29.454 10.6803 27.5432 10.7155C27.2233 10.7215 26.7394 10.8065 26.4679 10.9045C26.0089 11.0703 25.9397 11.0558 25.4807 10.6979C24.5216 9.95048 23.0338 9.79434 21.9607 10.3288C21.696 10.4606 21.4337 10.5198 21.3777 10.4606C21.3217 10.4013 21.1359 9.8301 20.965 9.19105C20.6124 7.87281 20.1101 7.08649 19.2632 6.52698L18.6851 6.14516L18.7821 5.36278C18.8356 4.93252 18.9645 4.37582 19.0686 4.12592C19.2757 3.62878 20.0118 3.10349 20.5025 3.10264C20.6736 3.10236 23.6872 3.60893 27.1995 4.22841ZM18.1632 8.32518C18.3663 8.46851 18.6019 8.76149 18.6868 8.97648C19.0774 9.96569 24.2113 29.4793 24.2113 29.9749C24.2113 30.7543 23.6964 31.3338 22.7551 31.6134C22.3537 31.7327 19.3781 32.5365 16.1428 33.3997C10.6117 34.8754 10.2268 34.9592 9.69729 34.8008C9.37558 34.7047 9.01861 34.4678 8.86474 34.2488C8.70776 34.0253 7.43149 29.5272 5.80967 23.4814C3.69633 15.6037 3.04528 12.9848 3.112 12.6299C3.3072 11.5908 3.43794 11.5378 10.4813 9.64341C17.2137 7.83255 17.4156 7.79791 18.1632 8.32518ZM24.2437 12.3896C24.4377 12.5418 24.6726 12.8504 24.7659 13.0752C24.9629 13.55 25.5224 13.852 25.9553 13.7172C26.1208 13.6657 26.4648 13.442 26.7197 13.2201C27.4578 12.5775 28.3855 12.7494 28.7918 13.6043C29.0859 14.2227 28.8787 15.0691 28.163 16.1748C27.3764 17.3895 25.0405 19.5747 24.5285 19.5747C24.4456 19.5747 24.1308 19.1788 23.8292 18.6948C23.414 18.0287 23.1366 17.2781 22.6882 15.6074C22.3623 14.3932 22.0957 13.2954 22.0957 13.1679C22.0957 13.0403 22.2812 12.7507 22.508 12.5243C23.0047 12.0284 23.7137 11.9734 24.2437 12.3896ZM11.3339 14.6165C11.2087 14.7544 10.52 16.5867 9.80322 18.688C8.68463 21.9678 8.52257 22.5576 8.65769 22.8536C8.82115 23.2118 14.2986 28.1231 14.8805 28.4332C15.3112 28.6629 15.831 28.5246 16.1047 28.1074C16.4056 27.6492 18.7107 20.7222 18.7107 20.2764C18.7107 19.8479 18.3289 19.4656 14.9347 16.4965C12.8405 14.6648 12.4326 14.3654 12.03 14.3654C11.7596 14.3654 11.4652 14.4716 11.3339 14.6165ZM14.4581 18.8941C15.4396 19.7589 16.2994 20.5156 16.3688 20.5759C16.5126 20.7009 14.9083 25.488 14.7227 25.488C14.6568 25.488 13.7597 24.7445 12.7291 23.8358L10.8551 22.1835L11.6095 19.9288C12.5271 17.1866 12.4765 17.3221 12.5849 17.3221C12.6337 17.3221 13.4767 18.0295 14.4581 18.8941Z" fill="#F5F5F5" stroke="#F5F5F5" stroke-width="0.9"/>
</svg>
