<svg width="46" height="43" viewBox="0 0 46 43" fill="none" xmlns="http://www.w3.org/2000/svg">
<path d="M18.7313 35.4627C27.9718 35.4627 35.4627 27.9718 35.4627 18.7313C35.4627 9.49087 27.9718 2 18.7313 2C9.49087 2 2 9.49087 2 18.7313C2 27.9718 9.49087 35.4627 18.7313 35.4627Z" stroke="#C7C7CC" stroke-width="3" stroke-linecap="round" stroke-linejoin="round"/>
<path d="M24.3027 11.2947H13.1484H15.0075C16.4866 11.2947 17.9052 11.8823 18.9511 12.9282C19.997 13.9741 20.5846 15.3927 20.5846 16.8718C20.5846 18.351 19.997 19.7696 18.9511 20.8155C17.9052 21.8614 16.4866 22.449 15.0075 22.449H13.1484L18.7255 28.0261M13.1484 16.8718H24.3027" stroke="#C7C7CC" stroke-width="3" stroke-linecap="round" stroke-linejoin="round"/>
<mask id="path-3-outside-1_5344_271" maskUnits="userSpaceOnUse" x="21.457" y="16.3054" width="25" height="27" fill="black">
<rect fill="white" x="21.457" y="16.3054" width="25" height="27"/>
<path fill-rule="evenodd" clip-rule="evenodd" d="M32.2486 26.3587V36.2992C32.2486 37.1166 32.9113 37.7793 33.7287 37.7793C34.5462 37.7793 35.2088 37.1166 35.2088 36.2992V26.3587L38.4738 29.6236C39.0518 30.2016 39.9889 30.2016 40.5669 29.6236C41.1449 29.0456 41.1449 28.1085 40.5669 27.5305L34.7756 21.7392C34.7755 21.7391 34.7754 21.739 34.7753 21.7389C34.7743 21.7378 34.7732 21.7368 34.7722 21.7357C34.5046 21.4697 34.1358 21.3054 33.7287 21.3054C33.528 21.3054 33.3367 21.3453 33.1622 21.4177C32.9889 21.4894 32.8265 21.5954 32.6853 21.7357C32.6842 21.7368 32.6832 21.7378 32.6822 21.7389C32.6821 21.739 32.682 21.7391 32.6819 21.7392L26.8905 27.5305C26.3125 28.1085 26.3125 29.0456 26.8905 29.6236C27.4685 30.2016 28.4057 30.2016 28.9837 29.6236L32.2486 26.3587Z"/>
</mask>
<path fill-rule="evenodd" clip-rule="evenodd" d="M32.2486 26.3587V36.2992C32.2486 37.1166 32.9113 37.7793 33.7287 37.7793C34.5462 37.7793 35.2088 37.1166 35.2088 36.2992V26.3587L38.4738 29.6236C39.0518 30.2016 39.9889 30.2016 40.5669 29.6236C41.1449 29.0456 41.1449 28.1085 40.5669 27.5305L34.7756 21.7392C34.7755 21.7391 34.7754 21.739 34.7753 21.7389C34.7743 21.7378 34.7732 21.7368 34.7722 21.7357C34.5046 21.4697 34.1358 21.3054 33.7287 21.3054C33.528 21.3054 33.3367 21.3453 33.1622 21.4177C32.9889 21.4894 32.8265 21.5954 32.6853 21.7357C32.6842 21.7368 32.6832 21.7378 32.6822 21.7389C32.6821 21.739 32.682 21.7391 32.6819 21.7392L26.8905 27.5305C26.3125 28.1085 26.3125 29.0456 26.8905 29.6236C27.4685 30.2016 28.4057 30.2016 28.9837 29.6236L32.2486 26.3587Z" fill="#C7C7CC"/>
<path d="M32.2486 26.3587H37.2486C37.2486 24.3364 36.0304 22.5132 34.1621 21.7393C32.2937 20.9654 30.1431 21.3931 28.7131 22.8231L32.2486 26.3587ZM35.2088 26.3587L38.7443 22.8231C37.3143 21.3931 35.1638 20.9654 33.2954 21.7393C31.427 22.5132 30.2088 24.3364 30.2088 26.3587H35.2088ZM38.4738 29.6236L42.0093 26.0881L42.0093 26.0881L38.4738 29.6236ZM40.5669 29.6236L37.0314 26.0881L37.0314 26.0881L40.5669 29.6236ZM40.5669 27.5305L37.0314 31.066L37.0314 31.066L40.5669 27.5305ZM34.7756 21.7392L38.3111 18.2036L38.3097 18.2022L34.7756 21.7392ZM34.7753 21.7389L31.2399 25.2745L31.2411 25.2758L34.7753 21.7389ZM34.7722 21.7357L31.2472 25.2818L31.2473 25.2819L34.7722 21.7357ZM33.1622 21.4177L35.0738 26.0378L35.0774 26.0363L33.1622 21.4177ZM32.6853 21.7357L36.2102 25.2819L36.2104 25.2816L32.6853 21.7357ZM32.6822 21.7389L36.2163 25.2758L36.2176 25.2745L32.6822 21.7389ZM32.6819 21.7392L29.1477 18.2022L29.1463 18.2036L32.6819 21.7392ZM26.8905 27.5305L30.4261 31.066H30.4261L26.8905 27.5305ZM26.8905 29.6236L30.4261 26.0881H30.4261L26.8905 29.6236ZM28.9837 29.6236L25.4482 26.0881L28.9837 29.6236ZM27.2486 26.3587V36.2992H37.2486V26.3587H27.2486ZM27.2486 36.2992C27.2486 39.8781 30.1499 42.7793 33.7287 42.7793V32.7793C35.6727 32.7793 37.2486 34.3552 37.2486 36.2992H27.2486ZM33.7287 42.7793C37.3076 42.7793 40.2088 39.8781 40.2088 36.2992H30.2088C30.2088 34.3552 31.7847 32.7793 33.7287 32.7793V42.7793ZM40.2088 36.2992V26.3587H30.2088V36.2992H40.2088ZM31.6733 29.8942L34.9382 33.1592L42.0093 26.0881L38.7443 22.8231L31.6733 29.8942ZM34.9382 33.1592C37.4689 35.6898 41.5718 35.6898 44.1024 33.1592L37.0314 26.0881C38.406 24.7135 40.6347 24.7135 42.0093 26.0881L34.9382 33.1592ZM44.1024 33.1592C46.6331 30.6285 46.6331 26.5256 44.1024 23.9949L37.0314 31.066C35.6568 29.6914 35.6568 27.4627 37.0314 26.0881L44.1024 33.1592ZM44.1024 23.9949L38.3111 18.2036L31.2401 25.2747L37.0314 31.066L44.1024 23.9949ZM38.3097 18.2022C38.3097 18.2022 38.3097 18.2022 38.3097 18.2022C38.3097 18.2022 38.3097 18.2022 38.3097 18.2022C38.3097 18.2022 38.3097 18.2022 38.3097 18.2022C38.3097 18.2022 38.3097 18.2022 38.3097 18.2022C38.3097 18.2022 38.3098 18.2022 38.3097 18.2022C38.3097 18.2022 38.3098 18.2023 38.3097 18.2022C38.3097 18.2022 38.3097 18.2022 38.3097 18.2022C38.3097 18.2022 38.3097 18.2022 38.3097 18.2022C38.3097 18.2022 38.3097 18.2022 38.3097 18.2022C38.3097 18.2022 38.3097 18.2022 38.3097 18.2022C38.3097 18.2022 38.3097 18.2022 38.3097 18.2022C38.3097 18.2022 38.3098 18.2023 38.3097 18.2022C38.3097 18.2022 38.3097 18.2022 38.3097 18.2022C38.3097 18.2022 38.3097 18.2022 38.3097 18.2022C38.3097 18.2022 38.3097 18.2022 38.3097 18.2022C38.3097 18.2022 38.3097 18.2022 38.3097 18.2022C38.3097 18.2022 38.3097 18.2022 38.3097 18.2022C38.3097 18.2022 38.3097 18.2022 38.3097 18.2022C38.3097 18.2022 38.3097 18.2022 38.3097 18.2022C38.3097 18.2022 38.3097 18.2022 38.3097 18.2022C38.3097 18.2022 38.3097 18.2022 38.3097 18.2022C38.3097 18.2022 38.3097 18.2022 38.3097 18.2022C38.3097 18.2022 38.3097 18.2022 38.3097 18.2022C38.3097 18.2022 38.3097 18.2022 38.3097 18.2022C38.3097 18.2022 38.3097 18.2022 38.3097 18.2022C38.3097 18.2022 38.3097 18.2022 38.3097 18.2022C38.3097 18.2022 38.3097 18.2022 38.3097 18.2022C38.3097 18.2022 38.3097 18.2022 38.3097 18.2022C38.3097 18.2022 38.3097 18.2022 38.3097 18.2022C38.3097 18.2022 38.3097 18.2022 38.3097 18.2022C38.3097 18.2022 38.3097 18.2022 38.3097 18.2022C38.3097 18.2022 38.3097 18.2022 38.3097 18.2022C38.3097 18.2022 38.3097 18.2022 38.3097 18.2022C38.3097 18.2022 38.3097 18.2022 38.3097 18.2022C38.3097 18.2022 38.3097 18.2022 38.3097 18.2022C38.3097 18.2022 38.3097 18.2022 38.3097 18.2022C38.3097 18.2022 38.3097 18.2022 38.3097 18.2022C38.3097 18.2022 38.3097 18.2022 38.3097 18.2022C38.3097 18.2022 38.3097 18.2022 38.3097 18.2022C38.3097 18.2022 38.3097 18.2022 38.3097 18.2022C38.3097 18.2022 38.3097 18.2022 38.3097 18.2022C38.3097 18.2022 38.3097 18.2022 38.3097 18.2022C38.3097 18.2022 38.3097 18.2022 38.3097 18.2022C38.3097 18.2022 38.3097 18.2022 38.3097 18.2022C38.3097 18.2022 38.3097 18.2022 38.3097 18.2022C38.3097 18.2022 38.3097 18.2022 38.3097 18.2022C38.3097 18.2022 38.3097 18.2022 38.3097 18.2022C38.3097 18.2022 38.3097 18.2022 38.3097 18.2022C38.3097 18.2022 38.3097 18.2022 38.3097 18.2022C38.3097 18.2022 38.3097 18.2022 38.3097 18.2022C38.3097 18.2022 38.3097 18.2022 38.3097 18.2022C38.3097 18.2022 38.3097 18.2022 38.3097 18.2022C38.3097 18.2022 38.3097 18.2022 38.3097 18.2022C38.3097 18.2022 38.3097 18.2022 38.3097 18.2022C38.3097 18.2022 38.3097 18.2022 38.3097 18.2022C38.3097 18.2022 38.3097 18.2022 38.3097 18.2022C38.3097 18.2022 38.3097 18.2022 38.3097 18.2022C38.3097 18.2022 38.3097 18.2022 38.3097 18.2022C38.3097 18.2022 38.3097 18.2022 38.3097 18.2022C38.3097 18.2022 38.3097 18.2022 38.3097 18.2022C38.3097 18.2022 38.3097 18.2022 38.3097 18.2022C38.3097 18.2022 38.3097 18.2022 38.3097 18.2022C38.3097 18.2022 38.3097 18.2022 38.3097 18.2022C38.3097 18.2022 38.3097 18.2022 38.3097 18.2022C38.3097 18.2022 38.3097 18.2022 38.3097 18.2022C38.3097 18.2022 38.3097 18.2022 38.3097 18.2022C38.3097 18.2022 38.3097 18.2022 38.3097 18.2022C38.3097 18.2022 38.3097 18.2022 38.3097 18.2022C38.3097 18.2022 38.3097 18.2022 38.3097 18.2022C38.3097 18.2022 38.3097 18.2022 38.3097 18.2022C38.3097 18.2022 38.3097 18.2022 38.3097 18.2022C38.3097 18.2022 38.3097 18.2022 38.3097 18.2022C38.3097 18.2022 38.3097 18.2022 38.3097 18.2022C38.3097 18.2022 38.3097 18.2022 38.3097 18.2022C38.3097 18.2022 38.3097 18.2022 38.3097 18.2022C38.3097 18.2022 38.3097 18.2022 38.3097 18.2022C38.3097 18.2022 38.3097 18.2022 38.3097 18.2022C38.3097 18.2022 38.3097 18.2022 38.3097 18.2022C38.3097 18.2022 38.3097 18.2022 38.3097 18.2022C38.3097 18.2022 38.3097 18.2022 38.3097 18.2022C38.3097 18.2022 38.3097 18.2022 38.3097 18.2022C38.3097 18.2022 38.3097 18.2022 38.3097 18.2022C38.3097 18.2022 38.3097 18.2022 38.3097 18.2022C38.3097 18.2022 38.3097 18.2022 38.3097 18.2022C38.3097 18.2022 38.3097 18.2022 38.3097 18.2022C38.3097 18.2022 38.3097 18.2022 38.3097 18.2022C38.3097 18.2022 38.3097 18.2022 38.3097 18.2022C38.3097 18.2022 38.3097 18.2022 38.3097 18.2022C38.3097 18.2022 38.3097 18.2022 38.3097 18.2022C38.3097 18.2022 38.3097 18.2022 38.3097 18.2022C38.3097 18.2022 38.3097 18.2022 38.3097 18.2022C38.3097 18.2022 38.3097 18.2022 38.3097 18.2022C38.3097 18.2022 38.3097 18.2022 38.3097 18.2022C38.3097 18.2022 38.3097 18.2022 38.3097 18.2022C38.3097 18.2022 38.3097 18.2022 38.3097 18.2022C38.3097 18.2022 38.3097 18.2022 38.3097 18.2022C38.3097 18.2022 38.3097 18.2022 38.3097 18.2022C38.3097 18.2022 38.3097 18.2022 38.3097 18.2022C38.3097 18.2022 38.3097 18.2022 38.3097 18.2022C38.3097 18.2022 38.3097 18.2022 38.3097 18.2022C38.3097 18.2022 38.3097 18.2022 38.3097 18.2022C38.3097 18.2022 38.3097 18.2022 38.3097 18.2022C38.3097 18.2022 38.3097 18.2022 38.3097 18.2022C38.3097 18.2022 38.3097 18.2022 38.3097 18.2022C38.3097 18.2022 38.3097 18.2022 38.3097 18.2022C38.3097 18.2022 38.3097 18.2022 38.3097 18.2022C38.3097 18.2022 38.3097 18.2022 38.3097 18.2022C38.3096 18.2021 38.3097 18.2022 38.3097 18.2022C38.3097 18.2022 38.3097 18.2022 38.3097 18.2022C38.3097 18.2022 38.3097 18.2022 38.3097 18.2022C38.3097 18.2022 38.3097 18.2022 38.3097 18.2022C38.3097 18.2022 38.3097 18.2022 38.3097 18.2022C38.3097 18.2021 38.3097 18.2022 38.3097 18.2022C38.3096 18.2021 38.3097 18.2022 38.3097 18.2022C38.3097 18.2022 38.3097 18.2022 38.3097 18.2022C38.3097 18.2022 38.3097 18.2022 38.3097 18.2022C38.3097 18.2022 38.3097 18.2022 38.3097 18.2022C38.3097 18.2022 38.3097 18.2022 38.3097 18.2022C38.3096 18.2021 38.3097 18.2022 38.3097 18.2022C38.3096 18.2021 38.3097 18.2022 38.3097 18.2022C38.3097 18.2022 38.3097 18.2022 38.3097 18.2022C38.3097 18.2022 38.3097 18.2022 38.3097 18.2022C38.3097 18.2022 38.3097 18.2021 38.3097 18.2021C38.3097 18.2021 38.3097 18.2021 38.3097 18.2021C38.3096 18.2021 38.3097 18.2022 38.3097 18.2021C38.3096 18.2021 38.3097 18.2022 38.3096 18.2021C38.3096 18.2021 38.3096 18.2021 38.3096 18.2021C38.3096 18.2021 38.3096 18.2021 38.3096 18.2021C38.3096 18.2021 38.3096 18.2021 38.3096 18.2021C38.3096 18.2021 38.3096 18.2021 38.3096 18.2021C38.3096 18.2021 38.3097 18.2022 38.3096 18.2021C38.3096 18.2021 38.3097 18.2022 38.3096 18.2021C38.3096 18.2021 38.3096 18.2021 38.3096 18.2021C38.3096 18.2021 38.3096 18.2021 38.3096 18.2021C38.3096 18.2021 38.3096 18.2021 38.3096 18.2021C38.3096 18.2021 38.3096 18.2021 38.3096 18.2021C38.3096 18.2021 38.3097 18.2021 38.3096 18.2021C38.3096 18.2021 38.3097 18.2022 38.3096 18.2021C38.3096 18.2021 38.3096 18.2021 38.3096 18.2021C38.3096 18.2021 38.3096 18.2021 38.3096 18.2021C38.3096 18.2021 38.3096 18.2021 38.3096 18.2021C38.3096 18.2021 38.3096 18.2021 38.3096 18.2021C38.3096 18.2021 38.3096 18.2021 38.3096 18.2021C38.3096 18.2021 38.3097 18.2021 38.3096 18.2021C38.3096 18.2021 38.3096 18.2021 38.3096 18.2021C38.3096 18.2021 38.3096 18.2021 38.3096 18.2021C38.3096 18.2021 38.3096 18.2021 38.3096 18.2021C38.3096 18.2021 38.3096 18.2021 38.3096 18.2021C38.3096 18.2021 38.3096 18.2021 38.3096 18.2021C38.3096 18.2021 38.3096 18.2021 38.3096 18.2021C38.3096 18.2021 38.3096 18.2021 38.3096 18.2021C38.3096 18.2021 38.3096 18.2021 38.3096 18.2021C38.3096 18.2021 38.3096 18.2021 38.3096 18.2021C38.3096 18.2021 38.3096 18.2021 38.3096 18.2021C38.3096 18.2021 38.3096 18.2021 38.3096 18.2021C38.3096 18.2021 38.3096 18.2021 38.3096 18.2021C38.3096 18.2021 38.3096 18.2021 38.3096 18.2021C38.3096 18.2021 38.3096 18.2021 38.3096 18.2021C38.3096 18.2021 38.3096 18.2021 38.3096 18.2021C38.3096 18.2021 38.3096 18.2021 38.3096 18.2021C38.3096 18.2021 38.3096 18.2021 38.3096 18.2021C38.3096 18.2021 38.3096 18.2021 38.3096 18.2021C38.3096 18.2021 38.3096 18.2021 38.3096 18.2021C38.3096 18.2021 38.3096 18.2021 38.3096 18.2021C38.3096 18.2021 38.3096 18.2021 38.3096 18.2021C38.3096 18.2021 38.3096 18.2021 38.3096 18.2021C38.3096 18.2021 38.3096 18.2021 38.3096 18.2021C38.3096 18.2021 38.3096 18.2021 38.3096 18.2021C38.3096 18.2021 38.3096 18.2021 38.3096 18.2021C38.3096 18.2021 38.3096 18.2021 38.3096 18.2021C38.3096 18.2021 38.3096 18.2021 38.3096 18.2021C38.3096 18.2021 38.3096 18.2021 38.3096 18.2021C38.3096 18.2021 38.3096 18.2021 38.3096 18.2021C38.3096 18.2021 38.3096 18.2021 38.3096 18.2021C38.3096 18.2021 38.3096 18.2021 38.3096 18.2021C38.3096 18.2021 38.3096 18.2021 38.3096 18.2021C38.3096 18.2021 38.3096 18.2021 38.3096 18.2021C38.3096 18.2021 38.3096 18.2021 38.3096 18.2021C38.3096 18.2021 38.3096 18.2021 38.3096 18.2021C38.3096 18.2021 38.3096 18.2021 38.3096 18.2021C38.3096 18.2021 38.3096 18.2021 38.3096 18.2021C38.3096 18.2021 38.3096 18.2021 38.3096 18.2021C38.3096 18.2021 38.3096 18.2021 38.3096 18.2021C38.3096 18.2021 38.3096 18.2021 38.3096 18.2021C38.3096 18.2021 38.3096 18.2021 38.3096 18.2021C38.3096 18.2021 38.3096 18.2021 38.3096 18.2021C38.3096 18.2021 38.3096 18.2021 38.3096 18.2021C38.3096 18.2021 38.3096 18.2021 38.3096 18.2021C38.3096 18.2021 38.3096 18.2021 38.3096 18.2021C38.3096 18.2021 38.3096 18.2021 38.3096 18.2021C38.3096 18.2021 38.3096 18.2021 38.3096 18.2021C38.3096 18.2021 38.3096 18.2021 38.3096 18.2021C38.3096 18.2021 38.3096 18.2021 38.3096 18.2021C38.3096 18.2021 38.3096 18.2021 38.3096 18.2021C38.3096 18.2021 38.3096 18.2021 38.3096 18.2021C38.3096 18.2021 38.3096 18.2021 38.3096 18.2021C38.3096 18.2021 38.3096 18.2021 38.3096 18.2021C38.3096 18.2021 38.3096 18.2021 38.3096 18.2021C38.3096 18.2021 38.3096 18.2021 38.3096 18.2021C38.3096 18.2021 38.3096 18.2021 38.3096 18.2021C38.3096 18.2021 38.3096 18.2021 38.3096 18.2021C38.3096 18.2021 38.3096 18.2021 38.3096 18.2021C38.3096 18.2021 38.3096 18.2021 38.3096 18.2021C38.3096 18.2021 38.3096 18.2021 38.3096 18.2021C38.3096 18.2021 38.3096 18.2021 38.3096 18.2021C38.3096 18.2021 38.3096 18.2021 38.3096 18.2021C38.3096 18.2021 38.3096 18.2021 38.3096 18.2021C38.3096 18.2021 38.3096 18.2021 38.3096 18.2021C38.3096 18.2021 38.3096 18.2021 38.3096 18.2021C38.3096 18.2021 38.3096 18.2021 38.3096 18.2021C38.3096 18.2021 38.3096 18.2021 38.3096 18.2021C38.3096 18.2021 38.3096 18.2021 38.3096 18.2021C38.3096 18.2021 38.3096 18.2021 38.3096 18.2021C38.3096 18.2021 38.3096 18.2021 38.3096 18.2021C38.3096 18.2021 38.3096 18.2021 38.3096 18.2021C38.3096 18.2021 38.3096 18.2021 38.3096 18.2021C38.3096 18.2021 38.3096 18.2021 38.3096 18.2021C38.3096 18.2021 38.3096 18.2021 38.3096 18.2021C38.3096 18.2021 38.3096 18.2021 38.3096 18.2021C38.3096 18.2021 38.3096 18.2021 38.3096 18.2021C38.3096 18.2021 38.3096 18.2021 38.3096 18.2021C38.3096 18.2021 38.3096 18.2021 38.3096 18.2021C38.3096 18.2021 38.3096 18.2021 38.3096 18.2021C38.3096 18.2021 38.3096 18.2021 38.3096 18.2021C38.3096 18.2021 38.3096 18.2021 38.3096 18.2021C38.3096 18.2021 38.3096 18.2021 38.3096 18.2021C38.3096 18.2021 38.3096 18.2021 38.3096 18.2021C38.3096 18.2021 38.3096 18.2021 38.3096 18.2021C38.3096 18.2021 38.3096 18.2021 38.3096 18.2021C38.3096 18.2021 38.3096 18.2021 38.3096 18.2021C38.3096 18.2021 38.3096 18.2021 38.3096 18.2021C38.3096 18.2021 38.3096 18.2021 38.3096 18.2021C38.3096 18.2021 38.3096 18.2021 38.3096 18.2021C38.3096 18.202 38.3096 18.2021 38.3096 18.2021C38.3096 18.2021 38.3096 18.2021 38.3096 18.2021C38.3096 18.2021 38.3096 18.2021 38.3096 18.2021C38.3096 18.2021 38.3096 18.2021 38.3096 18.2021C38.3096 18.2021 38.3096 18.2021 38.3096 18.2021C38.3096 18.2021 38.3096 18.2021 38.3096 18.2021C38.3095 18.202 38.3096 18.2021 38.3096 18.2021C38.3096 18.2021 38.3096 18.2021 38.3096 18.2021C38.3096 18.2021 38.3096 18.2021 38.3096 18.2021C38.3096 18.2021 38.3096 18.2021 38.3096 18.2021C38.3096 18.2021 38.3096 18.2021 38.3096 18.2021C38.3096 18.202 38.3096 18.2021 38.3096 18.2021C38.3095 18.202 38.3096 18.2021 38.3096 18.2021C38.3096 18.2021 38.3096 18.2021 38.3096 18.2021C38.3096 18.2021 38.3096 18.2021 38.3096 18.2021C38.3096 18.2021 38.3096 18.2021 38.3096 18.2021C38.3096 18.2021 38.3096 18.2021 38.3096 18.2021C38.3095 18.202 38.3096 18.2021 38.3096 18.2021C38.3095 18.202 38.3096 18.2021 38.3096 18.2021C38.3096 18.202 38.3096 18.202 38.3096 18.202C38.3096 18.202 38.3096 18.202 38.3096 18.202C38.3096 18.202 38.3096 18.202 38.3096 18.202C38.3096 18.202 38.3096 18.202 38.3096 18.202C38.3095 18.202 38.3096 18.2021 38.3095 18.202C38.3095 18.202 38.3096 18.2021 38.3095 18.202C38.3095 18.202 38.3095 18.202 38.3095 18.202C38.3095 18.202 38.3095 18.202 38.3095 18.202C38.3095 18.202 38.3095 18.202 38.3095 18.202C38.3095 18.202 38.3095 18.202 38.3095 18.202C38.3095 18.202 38.3096 18.2021 38.3095 18.202C38.3095 18.202 38.3096 18.2021 38.3095 18.202C38.3095 18.202 38.3095 18.202 38.3095 18.202C38.3095 18.202 38.3095 18.202 38.3095 18.202C38.3095 18.202 38.3095 18.202 38.3095 18.202C38.3095 18.202 38.3095 18.202 38.3095 18.202C38.3095 18.202 38.3096 18.2021 38.3095 18.202C38.3095 18.202 38.3096 18.2021 38.3095 18.202C38.3095 18.202 38.3095 18.202 38.3095 18.202C38.3095 18.202 38.3095 18.202 38.3095 18.202C38.3095 18.202 38.3095 18.202 38.3095 18.202C38.3095 18.202 38.3095 18.202 38.3095 18.202C38.3095 18.202 38.3095 18.202 38.3095 18.202C38.3095 18.202 38.3095 18.202 38.3095 18.202C38.3095 18.202 38.3095 18.202 38.3095 18.202C38.3095 18.202 38.3095 18.202 38.3095 18.202C38.3095 18.202 38.3095 18.202 38.3095 18.202C38.3095 18.202 38.3095 18.202 38.3095 18.202C38.3095 18.202 38.3095 18.202 38.3095 18.202C38.3095 18.202 38.3095 18.202 38.3095 18.202C38.3095 18.202 38.3095 18.202 38.3095 18.202C38.3095 18.202 38.3095 18.202 38.3095 18.202C38.3095 18.202 38.3095 18.202 38.3095 18.202C38.3095 18.202 38.3095 18.202 38.3095 18.202C38.3095 18.202 38.3095 18.202 38.3095 18.202C38.3095 18.202 38.3095 18.202 38.3095 18.202C38.3095 18.202 38.3095 18.202 38.3095 18.202C38.3095 18.202 38.3095 18.202 38.3095 18.202C38.3095 18.202 38.3095 18.202 38.3095 18.202C38.3095 18.202 38.3095 18.202 38.3095 18.202C38.3095 18.202 38.3095 18.202 38.3095 18.202C38.3095 18.202 38.3095 18.202 38.3095 18.202C38.3095 18.202 38.3095 18.202 38.3095 18.202C38.3095 18.202 38.3095 18.202 38.3095 18.202C38.3095 18.202 38.3095 18.202 38.3095 18.202C38.3095 18.202 38.3095 18.202 38.3095 18.202C38.3095 18.202 38.3095 18.202 38.3095 18.202C38.3095 18.202 38.3095 18.202 38.3095 18.202C38.3095 18.202 38.3095 18.202 38.3095 18.202C38.3095 18.202 38.3095 18.202 38.3095 18.202C38.3095 18.202 38.3095 18.202 38.3095 18.202C38.3095 18.202 38.3095 18.202 38.3095 18.202C38.3095 18.202 38.3095 18.202 38.3095 18.202C38.3095 18.202 38.3095 18.202 38.3095 18.202C38.3095 18.202 38.3095 18.202 38.3095 18.202C38.3095 18.202 38.3095 18.202 38.3095 18.202C38.3095 18.202 38.3095 18.202 38.3095 18.202C38.3095 18.202 38.3095 18.202 38.3095 18.202C38.3095 18.202 38.3095 18.202 38.3095 18.202C38.3095 18.202 38.3095 18.202 38.3095 18.202C38.3095 18.202 38.3095 18.202 38.3095 18.202C38.3095 18.202 38.3095 18.202 38.3095 18.202C38.3095 18.202 38.3095 18.202 38.3095 18.202C38.3095 18.202 38.3095 18.202 38.3095 18.202C38.3095 18.202 38.3095 18.202 38.3095 18.202C38.3095 18.202 38.3095 18.202 38.3095 18.202C38.3095 18.202 38.3095 18.202 38.3095 18.202C38.3095 18.202 38.3095 18.202 38.3095 18.202C38.3095 18.202 38.3095 18.202 38.3095 18.202C38.3095 18.202 38.3095 18.202 38.3095 18.202C38.3095 18.202 38.3095 18.202 38.3095 18.202C38.3095 18.202 38.3095 18.202 38.3095 18.202C38.3095 18.202 38.3095 18.202 38.3095 18.202C38.3095 18.202 38.3095 18.202 38.3095 18.202C38.3095 18.202 38.3095 18.202 38.3095 18.202C38.3095 18.202 38.3095 18.202 38.3095 18.202C38.3095 18.202 38.3095 18.202 38.3095 18.202C38.3095 18.202 38.3095 18.202 38.3095 18.202C38.3095 18.202 38.3095 18.202 38.3095 18.202C38.3095 18.202 38.3095 18.202 38.3095 18.202C38.3095 18.202 38.3095 18.202 38.3095 18.202C38.3095 18.202 38.3095 18.202 38.3095 18.202C38.3095 18.202 38.3095 18.202 38.3095 18.202C38.3095 18.202 38.3095 18.202 38.3095 18.202C38.3095 18.202 38.3095 18.202 38.3095 18.202C38.3095 18.202 38.3095 18.202 38.3095 18.202C38.3095 18.202 38.3095 18.202 38.3095 18.202C38.3095 18.202 38.3095 18.202 38.3095 18.202C38.3095 18.202 38.3095 18.202 38.3095 18.202C38.3095 18.202 38.3095 18.202 38.3095 18.202C38.3095 18.202 38.3095 18.202 38.3095 18.202C38.3095 18.202 38.3095 18.202 38.3095 18.202C38.3095 18.202 38.3095 18.202 38.3095 18.202C38.3095 18.202 38.3095 18.202 38.3095 18.202C38.3095 18.202 38.3095 18.202 38.3095 18.202C38.3095 18.202 38.3095 18.202 38.3095 18.202C38.3095 18.202 38.3095 18.202 38.3095 18.202C38.3095 18.202 38.3095 18.202 38.3095 18.202C38.3095 18.202 38.3095 18.202 38.3095 18.202C38.3095 18.202 38.3095 18.202 38.3095 18.202C38.3095 18.202 38.3095 18.202 38.3095 18.202C38.3095 18.202 38.3095 18.202 38.3095 18.202C38.3095 18.202 38.3095 18.202 38.3095 18.202C38.3095 18.202 38.3095 18.202 38.3095 18.202C38.3095 18.202 38.3095 18.202 38.3095 18.202C38.3095 18.202 38.3095 18.202 38.3095 18.202C38.3095 18.202 38.3095 18.202 38.3095 18.202C38.3095 18.202 38.3095 18.202 38.3095 18.202C38.3095 18.202 38.3095 18.202 38.3095 18.202C38.3095 18.202 38.3095 18.202 38.3095 18.202C38.3095 18.202 38.3095 18.202 38.3095 18.202C38.3095 18.202 38.3095 18.202 38.3095 18.202C38.3095 18.202 38.3095 18.202 38.3095 18.202C38.3094 18.2019 38.3095 18.202 38.3095 18.202C38.3095 18.202 38.3095 18.202 38.3095 18.202C38.3095 18.202 38.3095 18.202 38.3095 18.202C38.3095 18.202 38.3095 18.202 38.3095 18.202C38.3095 18.202 38.3095 18.202 38.3095 18.202C38.3095 18.202 38.3095 18.202 38.3095 18.202C38.3094 18.2019 38.3095 18.202 38.3095 18.202C38.3095 18.202 38.3095 18.202 38.3095 18.202C38.3095 18.202 38.3095 18.202 38.3095 18.202C38.3095 18.202 38.3095 18.202 38.3095 18.202C38.3095 18.202 38.3095 18.202 38.3095 18.202C38.3094 18.2019 38.3095 18.202 38.3095 18.202C38.3094 18.2019 38.3095 18.202 38.3095 18.202C38.3095 18.202 38.3095 18.202 38.3095 18.202C38.3095 18.202 38.3095 18.202 38.3095 18.202C38.3095 18.202 38.3095 18.202 38.3095 18.202C38.3095 18.202 38.3095 18.202 38.3095 18.202C38.3094 18.2019 38.3095 18.202 38.3095 18.202C38.3094 18.2019 38.3095 18.202 38.3095 18.2019L31.2411 25.2758C31.2411 25.2758 31.2411 25.2758 31.2411 25.2758C31.2411 25.2758 31.2411 25.2758 31.2411 25.2758C31.2411 25.2758 31.2411 25.2758 31.2411 25.2758C31.2411 25.2758 31.2411 25.2758 31.2411 25.2758C31.2412 25.2758 31.2411 25.2758 31.2412 25.2758C31.2412 25.2758 31.2411 25.2758 31.2412 25.2758C31.2412 25.2758 31.2412 25.2758 31.2412 25.2758C31.2412 25.2758 31.2412 25.2758 31.2412 25.2758C31.2412 25.2758 31.2412 25.2758 31.2412 25.2758C31.2412 25.2758 31.2412 25.2758 31.2412 25.2758C31.2412 25.2758 31.2411 25.2758 31.2412 25.2758C31.2412 25.2758 31.2411 25.2758 31.2412 25.2758C31.2412 25.2758 31.2412 25.2758 31.2412 25.2758C31.2412 25.2758 31.2412 25.2758 31.2412 25.2758C31.2412 25.2758 31.2412 25.2758 31.2412 25.2758C31.2412 25.2758 31.2412 25.2758 31.2412 25.2758C31.2412 25.2758 31.2412 25.2758 31.2412 25.2758C31.2412 25.2758 31.2411 25.2758 31.2412 25.2758C31.2412 25.2758 31.2412 25.2758 31.2412 25.2758C31.2412 25.2758 31.2412 25.2758 31.2412 25.2758C31.2412 25.2758 31.2412 25.2758 31.2412 25.2758C31.2412 25.2758 31.2412 25.2758 31.2412 25.2758C31.2412 25.2758 31.2412 25.2758 31.2412 25.2758C31.2412 25.2758 31.2412 25.2758 31.2412 25.2758C31.2412 25.2758 31.2412 25.2758 31.2412 25.2758C31.2412 25.2758 31.2412 25.2758 31.2412 25.2758C31.2412 25.2758 31.2412 25.2758 31.2412 25.2758C31.2412 25.2758 31.2412 25.2758 31.2412 25.2758C31.2412 25.2758 31.2412 25.2758 31.2412 25.2758C31.2412 25.2758 31.2412 25.2758 31.2412 25.2758C31.2412 25.2758 31.2412 25.2758 31.2412 25.2758C31.2412 25.2758 31.2412 25.2758 31.2412 25.2758C31.2412 25.2758 31.2412 25.2758 31.2412 25.2758C31.2412 25.2758 31.2412 25.2758 31.2412 25.2758C31.2412 25.2758 31.2412 25.2758 31.2412 25.2758C31.2412 25.2758 31.2412 25.2758 31.2412 25.2758C31.2412 25.2758 31.2412 25.2758 31.2412 25.2758C31.2412 25.2758 31.2412 25.2758 31.2412 25.2758C31.2412 25.2758 31.2412 25.2758 31.2412 25.2758C31.2412 25.2758 31.2412 25.2758 31.2412 25.2758C31.2412 25.2758 31.2412 25.2758 31.2412 25.2758C31.2412 25.2758 31.2412 25.2758 31.2412 25.2758C31.2412 25.2758 31.2412 25.2758 31.2412 25.2758C31.2412 25.2758 31.2412 25.2758 31.2412 25.2758C31.2412 25.2758 31.2412 25.2758 31.2412 25.2758C31.2412 25.2758 31.2412 25.2758 31.2412 25.2758C31.2412 25.2758 31.2412 25.2758 31.2412 25.2758C31.2412 25.2758 31.2412 25.2758 31.2412 25.2758C31.2412 25.2758 31.2412 25.2758 31.2412 25.2758C31.2412 25.2758 31.2412 25.2758 31.2412 25.2758C31.2412 25.2758 31.2412 25.2758 31.2412 25.2758C31.2412 25.2758 31.2412 25.2758 31.2412 25.2758C31.2412 25.2758 31.2412 25.2758 31.2412 25.2758C31.2412 25.2758 31.2412 25.2758 31.2412 25.2758C31.2412 25.2758 31.2412 25.2758 31.2412 25.2758C31.2412 25.2758 31.2412 25.2758 31.2412 25.2758C31.2412 25.2758 31.2412 25.2758 31.2412 25.2758C31.2412 25.2758 31.2412 25.2758 31.2412 25.2758C31.2412 25.2758 31.2412 25.2758 31.2412 25.2758C31.2412 25.2758 31.2412 25.2758 31.2412 25.2758C31.2412 25.2758 31.2412 25.2758 31.2412 25.2758C31.2412 25.2758 31.2412 25.2758 31.2412 25.2758C31.2412 25.2758 31.2412 25.2758 31.2412 25.2758C31.2412 25.2758 31.2412 25.2758 31.2412 25.2758C31.2412 25.2758 31.2412 25.2758 31.2412 25.2758C31.2412 25.2758 31.2412 25.2758 31.2412 25.2758C31.2412 25.2758 31.2412 25.2758 31.2412 25.2758C31.2412 25.2758 31.2412 25.2758 31.2412 25.2758C31.2412 25.2758 31.2412 25.2758 31.2412 25.2758C31.2412 25.2758 31.2412 25.2758 31.2412 25.2758C31.2412 25.2758 31.2412 25.2758 31.2412 25.2758C31.2412 25.2758 31.2412 25.2758 31.2412 25.2758C31.2412 25.2758 31.2412 25.2758 31.2412 25.2758C31.2412 25.2758 31.2412 25.2758 31.2412 25.2758C31.2412 25.2758 31.2412 25.2758 31.2412 25.2758C31.2412 25.2758 31.2412 25.2758 31.2412 25.2758C31.2412 25.2759 31.2412 25.2758 31.2412 25.2758C31.2412 25.2759 31.2412 25.2758 31.2412 25.2758C31.2412 25.2758 31.2412 25.2758 31.2412 25.2758C31.2412 25.2758 31.2412 25.2758 31.2412 25.2758C31.2412 25.2758 31.2412 25.2758 31.2412 25.2758C31.2412 25.2758 31.2412 25.2758 31.2412 25.2758C31.2412 25.2759 31.2412 25.2758 31.2412 25.2758C31.2412 25.2759 31.2412 25.2758 31.2412 25.2758C31.2412 25.2758 31.2412 25.2758 31.2412 25.2758C31.2412 25.2758 31.2412 25.2758 31.2412 25.2758C31.2412 25.2758 31.2412 25.2758 31.2412 25.2758C31.2412 25.2758 31.2412 25.2758 31.2412 25.2758C31.2412 25.2759 31.2412 25.2758 31.2412 25.2758C31.2412 25.2759 31.2412 25.2758 31.2412 25.2758C31.2412 25.2758 31.2412 25.2758 31.2412 25.2758C31.2412 25.2758 31.2412 25.2758 31.2412 25.2758C31.2412 25.2758 31.2412 25.2758 31.2412 25.2758C31.2412 25.2759 31.2412 25.2759 31.2412 25.2759C31.2412 25.2759 31.2412 25.2758 31.2412 25.2759C31.2412 25.2759 31.2412 25.2758 31.2412 25.2759C31.2412 25.2759 31.2412 25.2759 31.2412 25.2759C31.2412 25.2759 31.2412 25.2759 31.2412 25.2759C31.2412 25.2759 31.2412 25.2759 31.2412 25.2759C31.2412 25.2759 31.2412 25.2759 31.2412 25.2759C31.2412 25.2759 31.2412 25.2758 31.2412 25.2759C31.2412 25.2759 31.2412 25.2758 31.2412 25.2759C31.2412 25.2759 31.2412 25.2759 31.2412 25.2759C31.2412 25.2759 31.2412 25.2759 31.2412 25.2759C31.2412 25.2759 31.2412 25.2759 31.2412 25.2759C31.2412 25.2759 31.2412 25.2759 31.2412 25.2759C31.2412 25.2759 31.2412 25.2759 31.2412 25.2759C31.2412 25.2759 31.2412 25.2758 31.2412 25.2759C31.2412 25.2759 31.2412 25.2759 31.2412 25.2759C31.2412 25.2759 31.2412 25.2759 31.2412 25.2759C31.2412 25.2759 31.2412 25.2759 31.2412 25.2759C31.2412 25.2759 31.2412 25.2759 31.2412 25.2759C31.2412 25.2759 31.2412 25.2759 31.2412 25.2759C31.2412 25.2759 31.2412 25.2759 31.2412 25.2759C31.2412 25.2759 31.2412 25.2759 31.2412 25.2759C31.2412 25.2759 31.2412 25.2759 31.2412 25.2759C31.2412 25.2759 31.2412 25.2759 31.2412 25.2759C31.2412 25.2759 31.2412 25.2759 31.2412 25.2759C31.2412 25.2759 31.2412 25.2759 31.2412 25.2759C31.2413 25.2759 31.2412 25.2759 31.2412 25.2759C31.2412 25.2759 31.2412 25.2759 31.2412 25.2759C31.2412 25.2759 31.2412 25.2759 31.2412 25.2759C31.2412 25.2759 31.2412 25.2759 31.2412 25.2759C31.2412 25.2759 31.2412 25.2759 31.2412 25.2759C31.2413 25.2759 31.2412 25.2759 31.2412 25.2759C31.2413 25.2759 31.2412 25.2759 31.2412 25.2759C31.2412 25.2759 31.2412 25.2759 31.2412 25.2759C31.2412 25.2759 31.2412 25.2759 31.2412 25.2759C31.2412 25.2759 31.2412 25.2759 31.2412 25.2759C31.2412 25.2759 31.2412 25.2759 31.2412 25.2759C31.2413 25.2759 31.2412 25.2759 31.2412 25.2759C31.2413 25.2759 31.2412 25.2759 31.2412 25.2759C31.2412 25.2759 31.2412 25.2759 31.2412 25.2759C31.2412 25.2759 31.2412 25.2759 31.2412 25.2759C31.2412 25.2759 31.2413 25.2759 31.2413 25.2759C31.2413 25.2759 31.2413 25.2759 31.2413 25.2759C31.2413 25.2759 31.2412 25.2759 31.2413 25.2759C31.2413 25.2759 31.2412 25.2759 31.2413 25.2759C31.2413 25.2759 31.2413 25.2759 31.2413 25.2759C31.2413 25.2759 31.2413 25.2759 31.2413 25.2759C31.2413 25.2759 31.2413 25.2759 31.2413 25.2759C31.2413 25.2759 31.2413 25.2759 31.2413 25.2759C31.2413 25.2759 31.2412 25.2759 31.2413 25.2759C31.2413 25.2759 31.2412 25.2759 31.2413 25.2759C31.2413 25.2759 31.2413 25.2759 31.2413 25.2759C31.2413 25.2759 31.2413 25.2759 31.2413 25.2759C31.2413 25.2759 31.2413 25.2759 31.2413 25.2759C31.2413 25.2759 31.2413 25.2759 31.2413 25.2759C31.2413 25.2759 31.2413 25.2759 31.2413 25.2759C31.2413 25.2759 31.2412 25.2759 31.2413 25.2759C31.2413 25.2759 31.2413 25.2759 31.2413 25.2759C31.2413 25.2759 31.2413 25.2759 31.2413 25.2759C31.2413 25.2759 31.2413 25.2759 31.2413 25.2759C31.2413 25.2759 31.2413 25.2759 31.2413 25.2759C31.2413 25.2759 31.2413 25.2759 31.2413 25.2759C31.2413 25.2759 31.2412 25.2759 31.2413 25.2759C31.2413 25.2759 31.2413 25.2759 31.2413 25.2759C31.2413 25.2759 31.2413 25.2759 31.2413 25.2759C31.2413 25.2759 31.2413 25.2759 31.2413 25.2759C31.2413 25.2759 31.2413 25.2759 31.2413 25.2759C31.2413 25.2759 31.2413 25.2759 31.2413 25.2759C31.2413 25.2759 31.2413 25.2759 31.2413 25.2759C31.2413 25.2759 31.2413 25.2759 31.2413 25.2759C31.2413 25.2759 31.2413 25.2759 31.2413 25.2759C31.2413 25.2759 31.2413 25.2759 31.2413 25.2759C31.2413 25.2759 31.2413 25.2759 31.2413 25.2759C31.2413 25.2759 31.2413 25.2759 31.2413 25.2759C31.2413 25.2759 31.2413 25.2759 31.2413 25.2759C31.2413 25.2759 31.2413 25.2759 31.2413 25.2759C31.2413 25.2759 31.2413 25.2759 31.2413 25.2759C31.2413 25.2759 31.2413 25.2759 31.2413 25.2759C31.2413 25.2759 31.2413 25.2759 31.2413 25.2759C31.2413 25.2759 31.2413 25.2759 31.2413 25.2759C31.2413 25.2759 31.2413 25.2759 31.2413 25.2759C31.2413 25.2759 31.2413 25.2759 31.2413 25.2759C31.2413 25.2759 31.2413 25.2759 31.2413 25.2759C31.2413 25.2759 31.2413 25.2759 31.2413 25.2759C31.2413 25.2759 31.2413 25.2759 31.2413 25.2759C31.2413 25.2759 31.2413 25.2759 31.2413 25.2759C31.2413 25.2759 31.2413 25.2759 31.2413 25.2759C31.2413 25.2759 31.2413 25.2759 31.2413 25.2759C31.2413 25.2759 31.2413 25.2759 31.2413 25.2759C31.2413 25.2759 31.2413 25.2759 31.2413 25.2759C31.2413 25.2759 31.2413 25.2759 31.2413 25.2759C31.2413 25.2759 31.2413 25.2759 31.2413 25.2759C31.2413 25.2759 31.2413 25.2759 31.2413 25.2759C31.2413 25.2759 31.2413 25.2759 31.2413 25.2759C31.2413 25.2759 31.2413 25.2759 31.2413 25.2759C31.2413 25.2759 31.2413 25.2759 31.2413 25.2759C31.2413 25.2759 31.2413 25.2759 31.2413 25.2759C31.2413 25.2759 31.2413 25.2759 31.2413 25.2759C31.2413 25.2759 31.2413 25.2759 31.2413 25.2759C31.2413 25.2759 31.2413 25.2759 31.2413 25.2759C31.2413 25.2759 31.2413 25.2759 31.2413 25.2759C31.2413 25.2759 31.2413 25.2759 31.2413 25.2759C31.2413 25.2759 31.2413 25.2759 31.2413 25.2759C31.2413 25.2759 31.2413 25.2759 31.2413 25.2759C31.2413 25.2759 31.2413 25.2759 31.2413 25.2759C31.2413 25.2759 31.2413 25.2759 31.2413 25.2759C31.2413 25.2759 31.2413 25.2759 31.2413 25.2759C31.2413 25.2759 31.2413 25.2759 31.2413 25.2759C31.2413 25.2759 31.2413 25.2759 31.2413 25.2759C31.2413 25.2759 31.2413 25.2759 31.2413 25.2759C31.2413 25.276 31.2413 25.2759 31.2413 25.2759C31.2413 25.2759 31.2413 25.2759 31.2413 25.2759C31.2413 25.2759 31.2413 25.2759 31.2413 25.2759C31.2413 25.2759 31.2413 25.2759 31.2413 25.2759C31.2413 25.2759 31.2413 25.2759 31.2413 25.2759C31.2413 25.2759 31.2413 25.2759 31.2413 25.2759C31.2413 25.276 31.2413 25.2759 31.2413 25.2759C31.2413 25.2759 31.2413 25.2759 31.2413 25.2759C31.2413 25.2759 31.2413 25.2759 31.2413 25.2759C31.2413 25.2759 31.2413 25.2759 31.2413 25.2759C31.2413 25.2759 31.2413 25.2759 31.2413 25.2759C31.2413 25.276 31.2413 25.2759 31.2413 25.2759C31.2413 25.276 31.2413 25.2759 31.2413 25.2759C31.2413 25.2759 31.2413 25.2759 31.2413 25.2759C31.2413 25.2759 31.2413 25.2759 31.2413 25.2759C31.2413 25.2759 31.2413 25.2759 31.2413 25.2759C31.2413 25.2759 31.2413 25.2759 31.2413 25.2759C31.2413 25.276 31.2413 25.2759 31.2413 25.2759C31.2413 25.276 31.2413 25.2759 31.2413 25.2759C31.2413 25.2759 31.2413 25.2759 31.2413 25.2759C31.2413 25.276 31.2413 25.276 31.2413 25.276C31.2413 25.276 31.2413 25.276 31.2413 25.276C31.2413 25.276 31.2413 25.276 31.2413 25.276C31.2413 25.276 31.2413 25.2759 31.2413 25.276C31.2413 25.276 31.2413 25.2759 31.2413 25.276C31.2413 25.276 31.2413 25.276 31.2413 25.276C31.2413 25.276 31.2413 25.276 31.2413 25.276C31.2413 25.276 31.2413 25.276 31.2413 25.276C31.2413 25.276 31.2413 25.276 31.2413 25.276C31.2413 25.276 31.2413 25.2759 31.2413 25.276C31.2413 25.276 31.2413 25.2759 31.2413 25.276C31.2413 25.276 31.2413 25.276 31.2413 25.276C31.2413 25.276 31.2413 25.276 31.2413 25.276C31.2413 25.276 31.2413 25.276 31.2413 25.276C31.2413 25.276 31.2413 25.276 31.2413 25.276C31.2413 25.276 31.2413 25.276 31.2413 25.276C31.2413 25.276 31.2413 25.2759 31.2413 25.276C31.2413 25.276 31.2413 25.276 31.2413 25.276C31.2413 25.276 31.2413 25.276 31.2413 25.276C31.2413 25.276 31.2413 25.276 31.2413 25.276C31.2413 25.276 31.2413 25.276 31.2413 25.276C31.2413 25.276 31.2413 25.276 31.2413 25.276C31.2413 25.276 31.2413 25.276 31.2413 25.276C31.2413 25.276 31.2413 25.276 31.2413 25.276C31.2413 25.276 31.2413 25.276 31.2413 25.276C31.2413 25.276 31.2413 25.276 31.2413 25.276C31.2413 25.276 31.2413 25.276 31.2413 25.276C31.2413 25.276 31.2413 25.276 31.2413 25.276C31.2414 25.276 31.2413 25.276 31.2413 25.276C31.2413 25.276 31.2413 25.276 31.2413 25.276C31.2413 25.276 31.2413 25.276 31.2413 25.276C31.2413 25.276 31.2413 25.276 31.2413 25.276C31.2413 25.276 31.2413 25.276 31.2413 25.276C31.2414 25.276 31.2413 25.276 31.2413 25.276C31.2414 25.276 31.2413 25.276 31.2413 25.276C31.2413 25.276 31.2413 25.276 31.2413 25.276C31.2413 25.276 31.2413 25.276 31.2413 25.276C31.2413 25.276 31.2413 25.276 31.2413 25.276C31.2413 25.276 31.2413 25.276 31.2413 25.276C31.2414 25.276 31.2413 25.276 31.2413 25.276C31.2414 25.276 31.2413 25.276 31.2413 25.276C31.2413 25.276 31.2414 25.276 31.2414 25.276C31.2414 25.276 31.2414 25.276 31.2414 25.276C31.2414 25.276 31.2414 25.276 31.2414 25.276C31.2414 25.276 31.2414 25.276 31.2414 25.276C31.2414 25.276 31.2413 25.276 31.2414 25.276C31.2414 25.276 31.2413 25.276 31.2414 25.276C31.2414 25.276 31.2414 25.276 31.2414 25.276C31.2414 25.276 31.2414 25.276 31.2414 25.276C31.2414 25.276 31.2414 25.276 31.2414 25.276C31.2414 25.276 31.2414 25.276 31.2414 25.276C31.2414 25.276 31.2413 25.276 31.2414 25.276C31.2414 25.276 31.2413 25.276 31.2414 25.276C31.2414 25.276 31.2414 25.276 31.2414 25.276C31.2414 25.276 31.2414 25.276 31.2414 25.276C31.2414 25.276 31.2414 25.276 31.2414 25.276C31.2414 25.276 31.2414 25.276 31.2414 25.276C31.2414 25.276 31.2414 25.276 31.2414 25.276C31.2414 25.276 31.2413 25.276 31.2414 25.276C31.2414 25.276 31.2414 25.276 31.2414 25.276C31.2414 25.276 31.2414 25.276 31.2414 25.276C31.2414 25.276 31.2414 25.276 31.2414 25.276C31.2414 25.276 31.2414 25.276 31.2414 25.276C31.2414 25.276 31.2414 25.276 31.2414 25.276C31.2414 25.276 31.2414 25.276 31.2414 25.276C31.2414 25.276 31.2414 25.276 31.2414 25.276C31.2414 25.276 31.2414 25.276 31.2414 25.276C31.2414 25.276 31.2414 25.276 31.2414 25.276C31.2414 25.276 31.2414 25.276 31.2414 25.276C31.2414 25.276 31.2414 25.276 31.2414 25.276C31.2414 25.276 31.2414 25.276 31.2414 25.276C31.2414 25.276 31.2414 25.276 31.2414 25.276C31.2414 25.276 31.2414 25.276 31.2414 25.276C31.2414 25.276 31.2414 25.276 31.2414 25.276C31.2414 25.276 31.2414 25.276 31.2414 25.276C31.2414 25.276 31.2414 25.276 31.2414 25.276C31.2414 25.276 31.2414 25.276 31.2414 25.276C31.2414 25.276 31.2414 25.276 31.2414 25.276C31.2414 25.276 31.2414 25.276 31.2414 25.276C31.2414 25.276 31.2414 25.276 31.2414 25.276C31.2414 25.276 31.2414 25.276 31.2414 25.276C31.2414 25.276 31.2414 25.276 31.2414 25.276C31.2414 25.276 31.2414 25.276 31.2414 25.276C31.2414 25.276 31.2414 25.276 31.2414 25.276C31.2414 25.276 31.2414 25.276 31.2414 25.276C31.2414 25.276 31.2414 25.276 31.2414 25.276C31.2414 25.276 31.2414 25.276 31.2414 25.276C31.2414 25.276 31.2414 25.276 31.2414 25.276C31.2414 25.276 31.2414 25.276 31.2414 25.276C31.2414 25.276 31.2414 25.276 31.2414 25.276C31.2414 25.276 31.2414 25.276 31.2414 25.276C31.2414 25.276 31.2414 25.276 31.2414 25.276C31.2414 25.276 31.2414 25.276 31.2414 25.276C31.2414 25.276 31.2414 25.276 31.2414 25.276C31.2414 25.276 31.2414 25.276 31.2414 25.276C31.2414 25.276 31.2414 25.276 31.2414 25.276C31.2414 25.276 31.2414 25.276 31.2414 25.276C31.2414 25.276 31.2414 25.276 31.2414 25.276C31.2414 25.276 31.2414 25.276 31.2414 25.276C31.2414 25.276 31.2414 25.276 31.2414 25.276C31.2414 25.276 31.2414 25.276 31.2414 25.276C31.2414 25.276 31.2414 25.276 31.2414 25.276C31.2414 25.276 31.2414 25.276 31.2414 25.276C31.2414 25.276 31.2414 25.276 31.2414 25.276C31.2414 25.276 31.2414 25.276 31.2414 25.276C31.2414 25.276 31.2414 25.276 31.2414 25.276C31.2414 25.276 31.2414 25.276 31.2414 25.276C31.2414 25.276 31.2414 25.276 31.2414 25.276C31.2414 25.276 31.2414 25.276 31.2414 25.276C31.2414 25.276 31.2414 25.276 31.2414 25.276C31.2414 25.276 31.2414 25.276 31.2414 25.276C31.2414 25.276 31.2414 25.276 31.2414 25.276C31.2414 25.2761 31.2414 25.276 31.2414 25.276C31.2414 25.276 31.2414 25.276 31.2414 25.276C31.2414 25.276 31.2414 25.276 31.2414 25.276C31.2414 25.276 31.2414 25.276 31.2414 25.276C31.2414 25.276 31.2414 25.276 31.2414 25.276C31.2414 25.276 31.2414 25.276 31.2414 25.276C31.2414 25.2761 31.2414 25.276 31.2414 25.276C31.2414 25.276 31.2414 25.276 31.2414 25.276C31.2414 25.276 31.2414 25.276 31.2414 25.276C31.2414 25.276 31.2414 25.276 31.2414 25.276C31.2414 25.276 31.2414 25.276 31.2414 25.276C31.2414 25.2761 31.2414 25.276 31.2414 25.276C31.2414 25.2761 31.2414 25.276 31.2414 25.276C31.2414 25.276 31.2414 25.276 31.2414 25.276C31.2414 25.276 31.2414 25.276 31.2414 25.276C31.2414 25.276 31.2414 25.276 31.2414 25.276C31.2414 25.276 31.2414 25.276 31.2414 25.276C31.2414 25.2761 31.2414 25.276 31.2414 25.276C31.2414 25.2761 31.2414 25.276 31.2414 25.2761C31.2414 25.2761 31.2414 25.2761 31.2414 25.2761C31.2414 25.2761 31.2414 25.2761 31.2414 25.2761C31.2414 25.2761 31.2414 25.2761 31.2414 25.2761C31.2414 25.2761 31.2414 25.2761 31.2414 25.2761C31.2414 25.2761 31.2414 25.276 31.2414 25.2761C31.2414 25.2761 31.2414 25.276 31.2414 25.2761C31.2414 25.2761 31.2414 25.2761 31.2414 25.2761C31.2414 25.2761 31.2414 25.2761 31.2414 25.2761C31.2414 25.2761 31.2414 25.2761 31.2414 25.2761C31.2414 25.2761 31.2414 25.2761 31.2414 25.2761C31.2414 25.2761 31.2414 25.276 31.2414 25.2761C31.2414 25.2761 31.2414 25.276 31.2414 25.2761C31.2414 25.2761 31.2414 25.2761 31.2414 25.2761C31.2414 25.2761 31.2414 25.2761 31.2414 25.2761C31.2414 25.2761 31.2414 25.2761 31.2414 25.2761C31.2414 25.2761 31.2414 25.2761 31.2414 25.2761C31.2414 25.2761 31.2414 25.2761 31.2414 25.2761C31.2414 25.2761 31.2414 25.276 31.2414 25.2761C31.2414 25.2761 31.2414 25.2761 31.2414 25.2761C31.2414 25.2761 31.2414 25.2761 31.2414 25.2761C31.2414 25.2761 31.2414 25.2761 31.2414 25.2761C31.2414 25.2761 31.2414 25.2761 31.2414 25.2761C31.2414 25.2761 31.2414 25.2761 31.2414 25.2761C31.2415 25.2761 31.2414 25.2761 31.2414 25.2761C31.2414 25.2761 31.2414 25.2761 31.2414 25.2761C31.2414 25.2761 31.2414 25.2761 31.2414 25.2761C31.2414 25.2761 31.2414 25.2761 31.2414 25.2761C31.2414 25.2761 31.2414 25.2761 31.2414 25.2761C31.2414 25.2761 31.2414 25.2761 31.2414 25.2761C31.2415 25.2761 31.2414 25.2761 31.2414 25.2761L38.3097 18.2022ZM38.3107 18.2032C38.3065 18.199 38.3019 18.1944 38.297 18.1896L31.2473 25.2819C31.2445 25.2791 31.242 25.2767 31.2399 25.2745L38.3107 18.2032ZM38.2971 18.1897C37.1309 17.0304 35.5097 16.3054 33.7287 16.3054V26.3054C32.762 26.3054 31.8782 25.909 31.2472 25.2818L38.2971 18.1897ZM33.7287 16.3054C32.8593 16.3054 32.0179 16.4793 31.2469 16.799L35.0774 26.0363C34.6555 26.2113 34.1968 26.3054 33.7287 26.3054V16.3054ZM31.2506 16.7975C30.4851 17.1142 29.772 17.5816 29.1602 18.1898L36.2104 25.2816C35.8809 25.6092 35.4927 25.8645 35.0738 26.0378L31.2506 16.7975ZM29.1604 18.1896C29.1555 18.1944 29.151 18.199 29.1467 18.2032L36.2176 25.2745C36.2154 25.2767 36.2129 25.2791 36.2102 25.2819L29.1604 18.1896ZM29.148 18.2019C29.148 18.202 29.148 18.2019 29.148 18.202C29.148 18.202 29.148 18.2019 29.148 18.202C29.148 18.202 29.148 18.202 29.148 18.202C29.148 18.202 29.148 18.202 29.148 18.202C29.148 18.202 29.148 18.202 29.148 18.202C29.148 18.202 29.148 18.202 29.148 18.202C29.148 18.202 29.148 18.2019 29.148 18.202C29.148 18.202 29.148 18.2019 29.148 18.202C29.148 18.202 29.148 18.202 29.148 18.202C29.148 18.202 29.148 18.202 29.148 18.202C29.148 18.202 29.148 18.202 29.148 18.202C29.148 18.202 29.148 18.202 29.148 18.202C29.148 18.202 29.148 18.2019 29.148 18.202C29.148 18.202 29.148 18.2019 29.148 18.202C29.148 18.202 29.148 18.202 29.148 18.202C29.148 18.202 29.148 18.202 29.148 18.202C29.148 18.202 29.148 18.202 29.148 18.202C29.148 18.202 29.148 18.202 29.148 18.202C29.148 18.202 29.148 18.2019 29.148 18.202C29.148 18.202 29.148 18.202 29.148 18.202C29.148 18.202 29.148 18.202 29.148 18.202C29.148 18.202 29.148 18.202 29.148 18.202C29.148 18.202 29.148 18.202 29.148 18.202C29.148 18.202 29.148 18.202 29.148 18.202C29.148 18.202 29.148 18.2019 29.148 18.202C29.148 18.202 29.148 18.202 29.148 18.202C29.148 18.202 29.148 18.202 29.148 18.202C29.148 18.202 29.148 18.202 29.148 18.202C29.148 18.202 29.148 18.202 29.148 18.202C29.148 18.202 29.148 18.202 29.148 18.202C29.148 18.202 29.148 18.2019 29.148 18.202C29.148 18.202 29.148 18.202 29.148 18.202C29.148 18.202 29.148 18.202 29.148 18.202C29.148 18.202 29.148 18.202 29.148 18.202C29.148 18.202 29.148 18.202 29.148 18.202C29.148 18.202 29.148 18.202 29.148 18.202C29.148 18.202 29.148 18.202 29.148 18.202C29.148 18.202 29.148 18.202 29.148 18.202C29.148 18.202 29.148 18.202 29.148 18.202C29.148 18.202 29.148 18.202 29.148 18.202C29.148 18.202 29.148 18.202 29.148 18.202C29.148 18.202 29.148 18.202 29.148 18.202C29.1479 18.202 29.148 18.202 29.148 18.202C29.1479 18.202 29.148 18.202 29.148 18.202C29.148 18.202 29.148 18.202 29.148 18.202C29.148 18.202 29.148 18.202 29.148 18.202C29.148 18.202 29.148 18.202 29.148 18.202C29.148 18.202 29.148 18.202 29.148 18.202C29.1479 18.202 29.148 18.202 29.148 18.202C29.1479 18.202 29.148 18.202 29.148 18.202C29.148 18.202 29.148 18.202 29.148 18.202C29.148 18.202 29.148 18.202 29.148 18.202C29.148 18.202 29.148 18.202 29.148 18.202C29.148 18.202 29.148 18.202 29.148 18.202C29.1479 18.202 29.148 18.202 29.148 18.202C29.1479 18.202 29.148 18.202 29.148 18.202C29.148 18.202 29.148 18.202 29.148 18.202C29.148 18.202 29.148 18.202 29.148 18.202C29.148 18.202 29.148 18.202 29.148 18.202C29.148 18.202 29.148 18.202 29.148 18.202C29.1479 18.202 29.148 18.202 29.148 18.202C29.1479 18.202 29.148 18.202 29.148 18.202C29.148 18.202 29.148 18.202 29.1479 18.202C29.1479 18.202 29.1479 18.202 29.1479 18.202C29.1479 18.202 29.1479 18.202 29.1479 18.202C29.1479 18.202 29.1479 18.202 29.1479 18.202C29.1479 18.202 29.148 18.202 29.1479 18.202C29.1479 18.202 29.148 18.202 29.1479 18.202C29.1479 18.202 29.1479 18.202 29.1479 18.202C29.1479 18.202 29.1479 18.202 29.1479 18.202C29.1479 18.202 29.1479 18.202 29.1479 18.202C29.1479 18.202 29.1479 18.202 29.1479 18.202C29.1479 18.202 29.148 18.202 29.1479 18.202C29.1479 18.202 29.148 18.202 29.1479 18.202C29.1479 18.202 29.1479 18.202 29.1479 18.202C29.1479 18.202 29.1479 18.202 29.1479 18.202C29.1479 18.202 29.1479 18.202 29.1479 18.202C29.1479 18.202 29.1479 18.202 29.1479 18.202C29.1479 18.202 29.148 18.202 29.1479 18.202C29.1479 18.202 29.148 18.202 29.1479 18.202C29.1479 18.202 29.1479 18.202 29.1479 18.202C29.1479 18.202 29.1479 18.202 29.1479 18.202C29.1479 18.202 29.1479 18.202 29.1479 18.202C29.1479 18.202 29.1479 18.202 29.1479 18.202C29.1479 18.202 29.148 18.202 29.1479 18.202C29.1479 18.202 29.1479 18.202 29.1479 18.202C29.1479 18.202 29.1479 18.202 29.1479 18.202C29.1479 18.202 29.1479 18.202 29.1479 18.202C29.1479 18.202 29.1479 18.202 29.1479 18.202C29.1479 18.202 29.1479 18.202 29.1479 18.202C29.1479 18.202 29.148 18.202 29.1479 18.202C29.1479 18.202 29.1479 18.202 29.1479 18.202C29.1479 18.202 29.1479 18.202 29.1479 18.202C29.1479 18.202 29.1479 18.202 29.1479 18.202C29.1479 18.202 29.1479 18.202 29.1479 18.202C29.1479 18.202 29.1479 18.202 29.1479 18.202C29.1479 18.202 29.1479 18.202 29.1479 18.202C29.1479 18.202 29.1479 18.202 29.1479 18.202C29.1479 18.202 29.1479 18.202 29.1479 18.202C29.1479 18.202 29.1479 18.202 29.1479 18.202C29.1479 18.202 29.1479 18.202 29.1479 18.202C29.1479 18.202 29.1479 18.202 29.1479 18.202C29.1479 18.2021 29.1479 18.202 29.1479 18.202C29.1479 18.202 29.1479 18.202 29.1479 18.202C29.1479 18.202 29.1479 18.202 29.1479 18.202C29.1479 18.202 29.1479 18.202 29.1479 18.202C29.1479 18.202 29.1479 18.202 29.1479 18.202C29.1479 18.202 29.1479 18.202 29.1479 18.202C29.1479 18.2021 29.1479 18.202 29.1479 18.202C29.1479 18.2021 29.1479 18.202 29.1479 18.202C29.1479 18.202 29.1479 18.202 29.1479 18.202C29.1479 18.202 29.1479 18.202 29.1479 18.202C29.1479 18.202 29.1479 18.202 29.1479 18.202C29.1479 18.202 29.1479 18.202 29.1479 18.202C29.1479 18.2021 29.1479 18.202 29.1479 18.202C29.1479 18.2021 29.1479 18.202 29.1479 18.202C29.1479 18.202 29.1479 18.202 29.1479 18.202C29.1479 18.202 29.1479 18.202 29.1479 18.202C29.1479 18.202 29.1479 18.202 29.1479 18.202C29.1479 18.202 29.1479 18.202 29.1479 18.202C29.1479 18.2021 29.1479 18.202 29.1479 18.202C29.1479 18.2021 29.1479 18.202 29.1479 18.202C29.1479 18.202 29.1479 18.202 29.1479 18.202C29.1479 18.202 29.1479 18.202 29.1479 18.202C29.1479 18.202 29.1479 18.202 29.1479 18.202C29.1479 18.202 29.1479 18.202 29.1479 18.202C29.1479 18.2021 29.1479 18.202 29.1479 18.202C29.1479 18.2021 29.1479 18.202 29.1479 18.202C29.1479 18.202 29.1479 18.202 29.1479 18.202C29.1479 18.202 29.1479 18.202 29.1479 18.202C29.1479 18.202 29.1479 18.202 29.1479 18.202C29.1479 18.202 29.1479 18.202 29.1479 18.2021C29.1479 18.2021 29.1479 18.202 29.1479 18.2021C29.1479 18.2021 29.1479 18.202 29.1479 18.2021C29.1479 18.2021 29.1479 18.2021 29.1479 18.2021C29.1479 18.2021 29.1479 18.2021 29.1479 18.2021C29.1479 18.2021 29.1479 18.2021 29.1479 18.2021C29.1479 18.2021 29.1479 18.2021 29.1479 18.2021C29.1479 18.2021 29.1479 18.202 29.1479 18.2021C29.1479 18.2021 29.1479 18.202 29.1479 18.2021C29.1479 18.2021 29.1479 18.2021 29.1479 18.2021C29.1479 18.2021 29.1479 18.2021 29.1479 18.2021C29.1479 18.2021 29.1479 18.2021 29.1479 18.2021C29.1479 18.2021 29.1479 18.2021 29.1479 18.2021C29.1479 18.2021 29.1479 18.202 29.1479 18.2021C29.1479 18.2021 29.1479 18.202 29.1479 18.2021C29.1479 18.2021 29.1479 18.2021 29.1479 18.2021C29.1479 18.2021 29.1479 18.2021 29.1479 18.2021C29.1479 18.2021 29.1479 18.2021 29.1479 18.2021C29.1479 18.2021 29.1479 18.2021 29.1479 18.2021C29.1479 18.2021 29.1479 18.202 29.1479 18.2021C29.1479 18.2021 29.1479 18.202 29.1479 18.2021C29.1479 18.2021 29.1479 18.2021 29.1479 18.2021C29.1479 18.2021 29.1479 18.2021 29.1479 18.2021C29.1479 18.2021 29.1479 18.2021 29.1479 18.2021C29.1479 18.2021 29.1479 18.2021 29.1479 18.2021C29.1479 18.2021 29.1479 18.202 29.1479 18.2021C29.1479 18.2021 29.1479 18.2021 29.1479 18.2021C29.1479 18.2021 29.1479 18.2021 29.1479 18.2021C29.1479 18.2021 29.1479 18.2021 29.1479 18.2021C29.1479 18.2021 29.1479 18.2021 29.1479 18.2021C29.1479 18.2021 29.1479 18.2021 29.1479 18.2021C29.1478 18.2021 29.1479 18.202 29.1479 18.2021C29.1479 18.2021 29.1479 18.2021 29.1479 18.2021C29.1479 18.2021 29.1479 18.2021 29.1479 18.2021C29.1479 18.2021 29.1479 18.2021 29.1479 18.2021C29.1479 18.2021 29.1479 18.2021 29.1479 18.2021C29.1479 18.2021 29.1479 18.2021 29.1479 18.2021C29.1478 18.2021 29.1479 18.2021 29.1479 18.2021C29.1479 18.2021 29.1479 18.2021 29.1479 18.2021C29.1479 18.2021 29.1479 18.2021 29.1479 18.2021C29.1479 18.2021 29.1479 18.2021 29.1479 18.2021C29.1479 18.2021 29.1479 18.2021 29.1479 18.2021C29.1479 18.2021 29.1479 18.2021 29.1479 18.2021C29.1478 18.2021 29.1479 18.2021 29.1479 18.2021C29.1478 18.2021 29.1479 18.2021 29.1479 18.2021C29.1479 18.2021 29.1479 18.2021 29.1479 18.2021C29.1479 18.2021 29.1479 18.2021 29.1479 18.2021C29.1479 18.2021 29.1479 18.2021 29.1479 18.2021C29.1479 18.2021 29.1479 18.2021 29.1479 18.2021C29.1478 18.2021 29.1479 18.2021 29.1479 18.2021C29.1478 18.2021 29.1479 18.2021 29.1479 18.2021C29.1479 18.2021 29.1479 18.2021 29.1479 18.2021C29.1479 18.2021 29.1479 18.2021 29.1479 18.2021C29.1479 18.2021 29.1479 18.2021 29.1479 18.2021C29.1479 18.2021 29.1479 18.2021 29.1479 18.2021C29.1478 18.2021 29.1479 18.2021 29.1479 18.2021C29.1478 18.2021 29.1479 18.2021 29.1479 18.2021C29.1479 18.2021 29.1479 18.2021 29.1479 18.2021C29.1479 18.2021 29.1479 18.2021 29.1479 18.2021C29.1479 18.2021 29.1479 18.2021 29.1479 18.2021C29.1479 18.2021 29.1479 18.2021 29.1479 18.2021C29.1478 18.2021 29.1479 18.2021 29.1479 18.2021C29.1478 18.2021 29.1479 18.2021 29.1478 18.2021C29.1478 18.2021 29.1478 18.2021 29.1478 18.2021C29.1478 18.2021 29.1478 18.2021 29.1478 18.2021C29.1478 18.2021 29.1478 18.2021 29.1478 18.2021C29.1478 18.2021 29.1478 18.2021 29.1478 18.2021C29.1478 18.2021 29.1479 18.2021 29.1478 18.2021C29.1478 18.2021 29.1479 18.2021 29.1478 18.2021C29.1478 18.2021 29.1478 18.2021 29.1478 18.2021C29.1478 18.2021 29.1478 18.2021 29.1478 18.2021C29.1478 18.2021 29.1478 18.2021 29.1478 18.2021C29.1478 18.2021 29.1478 18.2021 29.1478 18.2021C29.1478 18.2021 29.1479 18.2021 29.1478 18.2021C29.1478 18.2021 29.1479 18.2021 29.1478 18.2021C29.1478 18.2021 29.1478 18.2021 29.1478 18.2021C29.1478 18.2021 29.1478 18.2021 29.1478 18.2021C29.1478 18.2021 29.1478 18.2021 29.1478 18.2021C29.1478 18.2021 29.1478 18.2021 29.1478 18.2021C29.1478 18.2021 29.1479 18.2021 29.1478 18.2021C29.1478 18.2021 29.1478 18.2021 29.1478 18.2021C29.1478 18.2021 29.1478 18.2021 29.1478 18.2021C29.1478 18.2021 29.1478 18.2021 29.1478 18.2021C29.1478 18.2021 29.1478 18.2021 29.1478 18.2021C29.1478 18.2021 29.1478 18.2021 29.1478 18.2021C29.1478 18.2021 29.1479 18.2021 29.1478 18.2021C29.1478 18.2021 29.1478 18.2021 29.1478 18.2021C29.1478 18.2021 29.1478 18.2021 29.1478 18.2021C29.1478 18.2021 29.1478 18.2021 29.1478 18.2021C29.1478 18.2021 29.1478 18.2021 29.1478 18.2021C29.1478 18.2021 29.1478 18.2021 29.1478 18.2021C29.1478 18.2021 29.1479 18.2021 29.1478 18.2021C29.1478 18.2021 29.1478 18.2021 29.1478 18.2021C29.1478 18.2021 29.1478 18.2021 29.1478 18.2021C29.1478 18.2021 29.1478 18.2021 29.1478 18.2021C29.1478 18.2021 29.1478 18.2021 29.1478 18.2021C29.1478 18.2021 29.1478 18.2021 29.1478 18.2021C29.1478 18.2021 29.1478 18.2021 29.1478 18.2021C29.1478 18.2021 29.1478 18.2021 29.1478 18.2021C29.1478 18.2021 29.1478 18.2021 29.1478 18.2021C29.1478 18.2021 29.1478 18.2021 29.1478 18.2021C29.1478 18.2021 29.1478 18.2021 29.1478 18.2021C29.1478 18.2021 29.1478 18.2021 29.1478 18.2021C29.1478 18.2022 29.1478 18.2021 29.1478 18.2021C29.1478 18.2021 29.1478 18.2021 29.1478 18.2021C29.1478 18.2021 29.1478 18.2021 29.1478 18.2021C29.1478 18.2021 29.1478 18.2021 29.1478 18.2021C29.1478 18.2021 29.1478 18.2021 29.1478 18.2021C29.1478 18.2021 29.1478 18.2021 29.1478 18.2021C29.1478 18.2022 29.1478 18.2021 29.1478 18.2021C29.1478 18.2022 29.1478 18.2021 29.1478 18.2021C29.1478 18.2021 29.1478 18.2021 29.1478 18.2021C29.1478 18.2021 29.1478 18.2021 29.1478 18.2021C29.1478 18.2021 29.1478 18.2021 29.1478 18.2021C29.1478 18.2021 29.1478 18.2021 29.1478 18.2021C29.1478 18.2022 29.1478 18.2021 29.1478 18.2021C29.1478 18.2022 29.1478 18.2021 29.1478 18.2021C29.1478 18.2021 29.1478 18.2021 29.1478 18.2021C29.1478 18.2021 29.1478 18.2021 29.1478 18.2021C29.1478 18.2021 29.1478 18.2021 29.1478 18.2021C29.1478 18.2021 29.1478 18.2021 29.1478 18.2021C29.1478 18.2022 29.1478 18.2021 29.1478 18.2021C29.1478 18.2022 29.1478 18.2021 29.1478 18.2021C29.1478 18.2021 29.1478 18.2021 29.1478 18.2021C29.1478 18.2021 29.1478 18.2021 29.1478 18.2021C29.1478 18.2021 29.1478 18.2021 29.1478 18.2021C29.1478 18.2021 29.1478 18.2021 29.1478 18.2021C29.1478 18.2022 29.1478 18.2021 29.1478 18.2021C29.1478 18.2022 29.1478 18.2021 29.1478 18.2021C29.1478 18.2021 29.1478 18.2021 29.1478 18.2021C29.1478 18.2021 29.1478 18.2022 29.1478 18.2022C29.1478 18.2022 29.1478 18.2022 29.1478 18.2022C29.1478 18.2022 29.1478 18.2022 29.1478 18.2022C29.1478 18.2022 29.1478 18.2021 29.1478 18.2022C29.1478 18.2022 29.1478 18.2021 29.1478 18.2022C29.1478 18.2022 29.1478 18.2022 29.1478 18.2022C29.1478 18.2022 29.1478 18.2022 29.1478 18.2022C29.1478 18.2022 29.1478 18.2022 29.1478 18.2022C29.1478 18.2022 29.1478 18.2022 29.1478 18.2022C29.1478 18.2022 29.1478 18.2021 29.1478 18.2022C29.1478 18.2022 29.1478 18.2021 29.1478 18.2022C29.1478 18.2022 29.1478 18.2022 29.1478 18.2022C29.1478 18.2022 29.1478 18.2022 29.1478 18.2022C29.1478 18.2022 29.1478 18.2022 29.1478 18.2022C29.1478 18.2022 29.1478 18.2022 29.1478 18.2022C29.1478 18.2022 29.1478 18.2021 29.1478 18.2022C29.1478 18.2022 29.1478 18.2021 29.1478 18.2022C29.1478 18.2022 29.1478 18.2022 29.1478 18.2022C29.1478 18.2022 29.1478 18.2022 29.1478 18.2022C29.1478 18.2022 29.1478 18.2022 29.1478 18.2022C29.1478 18.2022 29.1478 18.2022 29.1478 18.2022C29.1478 18.2022 29.1478 18.2021 29.1478 18.2022C29.1478 18.2022 29.1478 18.2022 29.1478 18.2022C29.1478 18.2022 29.1478 18.2022 29.1478 18.2022C29.1478 18.2022 29.1478 18.2022 29.1478 18.2022C29.1478 18.2022 29.1478 18.2022 29.1478 18.2022C29.1478 18.2022 29.1478 18.2022 29.1478 18.2022C29.1478 18.2022 29.1478 18.2021 29.1478 18.2022C29.1478 18.2022 29.1478 18.2022 29.1478 18.2022C29.1478 18.2022 29.1478 18.2022 29.1478 18.2022C29.1478 18.2022 29.1478 18.2022 29.1478 18.2022C29.1478 18.2022 29.1478 18.2022 29.1478 18.2022C29.1478 18.2022 29.1478 18.2022 29.1478 18.2022C29.1477 18.2022 29.1478 18.2022 29.1478 18.2022C29.1478 18.2022 29.1478 18.2022 29.1478 18.2022C29.1478 18.2022 29.1478 18.2022 29.1478 18.2022C29.1478 18.2022 29.1478 18.2022 29.1478 18.2022C29.1478 18.2022 29.1478 18.2022 29.1478 18.2022C29.1478 18.2022 29.1478 18.2022 29.1478 18.2022C29.1477 18.2022 29.1478 18.2022 29.1478 18.2022C29.1478 18.2022 29.1478 18.2022 29.1478 18.2022C29.1478 18.2022 29.1478 18.2022 29.1478 18.2022C29.1478 18.2022 29.1478 18.2022 29.1478 18.2022C29.1478 18.2022 29.1478 18.2022 29.1478 18.2022C29.1478 18.2022 29.1478 18.2022 29.1478 18.2022C29.1477 18.2022 29.1478 18.2022 29.1478 18.2022C29.1477 18.2022 29.1478 18.2022 29.1478 18.2022C29.1478 18.2022 29.1478 18.2022 29.1478 18.2022C29.1478 18.2022 29.1478 18.2022 29.1478 18.2022C29.1478 18.2022 29.1478 18.2022 29.1478 18.2022C29.1478 18.2022 29.1478 18.2022 29.1478 18.2022C29.1477 18.2022 29.1478 18.2022 29.1478 18.2022C29.1477 18.2022 29.1478 18.2022 29.1478 18.2022C29.1478 18.2022 29.1478 18.2022 29.1478 18.2022C29.1478 18.2022 29.1478 18.2022 29.1478 18.2022C29.1478 18.2022 29.1478 18.2022 29.1478 18.2022C29.1478 18.2022 29.1478 18.2022 29.1478 18.2022C29.1477 18.2022 29.1478 18.2022 29.1478 18.2022C29.1477 18.2022 29.1478 18.2022 29.1478 18.2022C29.1478 18.2022 29.1478 18.2022 29.1478 18.2022C29.1478 18.2022 29.1478 18.2022 29.1478 18.2022C29.1478 18.2022 29.1478 18.2022 29.1478 18.2022C29.1478 18.2022 29.1478 18.2022 29.1478 18.2022C29.1477 18.2022 29.1478 18.2022 29.1477 18.2022C29.1477 18.2022 29.1478 18.2022 29.1477 18.2022C29.1477 18.2022 29.1477 18.2022 29.1477 18.2022C29.1477 18.2022 29.1477 18.2022 29.1477 18.2022C29.1477 18.2022 29.1477 18.2022 29.1477 18.2022C29.1477 18.2022 29.1477 18.2022 29.1477 18.2022C29.1477 18.2022 29.1478 18.2022 29.1477 18.2022C29.1477 18.2022 29.1478 18.2022 29.1477 18.2022C29.1477 18.2022 29.1477 18.2022 29.1477 18.2022C29.1477 18.2022 29.1477 18.2022 29.1477 18.2022C29.1477 18.2022 29.1477 18.2022 29.1477 18.2022C29.1477 18.2022 29.1477 18.2022 29.1477 18.2022C29.1477 18.2022 29.1478 18.2022 29.1477 18.2022C29.1477 18.2022 29.1478 18.2022 29.1477 18.2022C29.1477 18.2022 29.1477 18.2022 29.1477 18.2022C29.1477 18.2022 29.1477 18.2022 29.1477 18.2022C29.1477 18.2022 29.1477 18.2022 29.1477 18.2022C29.1477 18.2022 29.1477 18.2022 29.1477 18.2022C29.1477 18.2022 29.1478 18.2022 29.1477 18.2022C29.1477 18.2022 29.1478 18.2022 29.1477 18.2022C29.1477 18.2022 29.1477 18.2022 29.1477 18.2022C29.1477 18.2022 29.1477 18.2022 29.1477 18.2022C29.1477 18.2022 29.1477 18.2022 29.1477 18.2022C29.1477 18.2022 29.1477 18.2022 29.1477 18.2022C29.1477 18.2022 29.1478 18.2022 29.1477 18.2022C29.1477 18.2022 29.1477 18.2022 29.1477 18.2022C29.1477 18.2022 29.1477 18.2022 29.1477 18.2022C29.1477 18.2022 29.1477 18.2022 29.1477 18.2022C29.1477 18.2022 29.1477 18.2022 29.1477 18.2022C29.1477 18.2022 29.1477 18.2022 29.1477 18.2022C29.1477 18.2022 29.1478 18.2022 29.1477 18.2022C29.1477 18.2022 29.1477 18.2022 29.1477 18.2022C29.1477 18.2022 29.1477 18.2022 29.1477 18.2022C29.1477 18.2022 29.1477 18.2022 29.1477 18.2022C29.1477 18.2022 29.1477 18.2022 29.1477 18.2022C29.1477 18.2022 29.1477 18.2022 29.1477 18.2022C29.1477 18.2022 29.1477 18.2022 29.1477 18.2022C29.1477 18.2022 29.1477 18.2022 29.1477 18.2022C29.1477 18.2022 29.1477 18.2022 29.1477 18.2022C29.1477 18.2022 29.1477 18.2022 29.1477 18.2022C29.1477 18.2022 29.1477 18.2022 29.1477 18.2022C29.1477 18.2022 29.1477 18.2022 29.1477 18.2022C29.1477 18.2023 29.1477 18.2022 29.1477 18.2022C29.1477 18.2022 29.1477 18.2022 29.1477 18.2022C29.1477 18.2022 29.1477 18.2022 29.1477 18.2022C29.1477 18.2022 29.1477 18.2022 29.1477 18.2022C29.1477 18.2022 29.1477 18.2022 29.1477 18.2022C29.1477 18.2022 29.1477 18.2022 29.1477 18.2022C29.1477 18.2023 29.1477 18.2022 29.1477 18.2022C29.1477 18.2023 29.1477 18.2022 29.1477 18.2022C29.1477 18.2022 29.1477 18.2022 29.1477 18.2022C29.1477 18.2022 29.1477 18.2022 29.1477 18.2022C29.1477 18.2022 29.1477 18.2022 29.1477 18.2022C29.1477 18.2022 29.1477 18.2022 29.1477 18.2022C29.1477 18.2023 29.1477 18.2022 29.1477 18.2022C29.1477 18.2023 29.1477 18.2022 29.1477 18.2022C29.1477 18.2022 29.1477 18.2022 29.1477 18.2022C29.1477 18.2022 29.1477 18.2022 29.1477 18.2022C29.1477 18.2022 29.1477 18.2022 29.1477 18.2022C29.1477 18.2022 29.1477 18.2022 29.1477 18.2022L36.216 25.2761C36.216 25.2761 36.216 25.2761 36.216 25.2761C36.216 25.2761 36.216 25.2761 36.216 25.2761C36.216 25.2761 36.216 25.2761 36.216 25.2761C36.216 25.2761 36.216 25.2761 36.216 25.2761C36.216 25.2761 36.216 25.2761 36.216 25.2761C36.216 25.2761 36.216 25.2761 36.216 25.2761C36.216 25.2761 36.216 25.2761 36.216 25.2761C36.216 25.2761 36.216 25.2761 36.216 25.2761C36.216 25.2761 36.216 25.2761 36.216 25.2761C36.216 25.2761 36.216 25.2761 36.216 25.2761C36.216 25.2761 36.216 25.2761 36.216 25.2761C36.216 25.2761 36.216 25.2761 36.216 25.2761C36.216 25.276 36.216 25.2761 36.216 25.2761C36.216 25.2761 36.216 25.2761 36.216 25.2761C36.216 25.2761 36.216 25.2761 36.216 25.2761C36.216 25.2761 36.216 25.2761 36.216 25.2761C36.216 25.2761 36.216 25.2761 36.216 25.2761C36.216 25.2761 36.216 25.2761 36.216 25.2761C36.216 25.276 36.216 25.2761 36.216 25.2761C36.216 25.2761 36.216 25.2761 36.216 25.2761C36.216 25.2761 36.216 25.2761 36.216 25.2761C36.216 25.2761 36.216 25.2761 36.216 25.2761C36.216 25.2761 36.216 25.2761 36.216 25.2761C36.216 25.2761 36.216 25.2761 36.216 25.2761C36.216 25.276 36.216 25.2761 36.216 25.2761C36.216 25.276 36.216 25.2761 36.216 25.2761C36.216 25.2761 36.216 25.2761 36.216 25.2761C36.216 25.2761 36.216 25.2761 36.216 25.2761C36.216 25.2761 36.216 25.2761 36.216 25.2761C36.216 25.2761 36.216 25.2761 36.216 25.2761C36.216 25.276 36.216 25.2761 36.216 25.276C36.216 25.276 36.216 25.2761 36.216 25.276C36.216 25.276 36.216 25.276 36.216 25.276C36.216 25.276 36.216 25.276 36.216 25.276C36.216 25.276 36.216 25.276 36.216 25.276C36.216 25.276 36.216 25.276 36.216 25.276C36.216 25.276 36.216 25.2761 36.216 25.276C36.216 25.276 36.216 25.2761 36.216 25.276C36.216 25.276 36.216 25.276 36.216 25.276C36.216 25.276 36.216 25.276 36.216 25.276C36.216 25.276 36.216 25.276 36.216 25.276C36.216 25.276 36.216 25.276 36.216 25.276C36.2161 25.276 36.216 25.2761 36.216 25.276C36.2161 25.276 36.216 25.276 36.216 25.276C36.216 25.276 36.216 25.276 36.216 25.276C36.216 25.276 36.216 25.276 36.216 25.276C36.216 25.276 36.216 25.276 36.216 25.276C36.216 25.276 36.216 25.276 36.216 25.276C36.2161 25.276 36.216 25.2761 36.216 25.276C36.2161 25.276 36.216 25.276 36.216 25.276C36.216 25.276 36.216 25.276 36.216 25.276C36.216 25.276 36.216 25.276 36.216 25.276C36.216 25.276 36.216 25.276 36.216 25.276C36.2161 25.276 36.2161 25.276 36.2161 25.276C36.2161 25.276 36.216 25.276 36.2161 25.276C36.2161 25.276 36.216 25.276 36.2161 25.276C36.2161 25.276 36.2161 25.276 36.2161 25.276C36.2161 25.276 36.2161 25.276 36.2161 25.276C36.2161 25.276 36.2161 25.276 36.2161 25.276C36.2161 25.276 36.2161 25.276 36.2161 25.276C36.2161 25.276 36.216 25.276 36.2161 25.276C36.2161 25.276 36.216 25.276 36.2161 25.276C36.2161 25.276 36.2161 25.276 36.2161 25.276C36.2161 25.276 36.2161 25.276 36.2161 25.276C36.2161 25.276 36.2161 25.276 36.2161 25.276C36.2161 25.276 36.2161 25.276 36.2161 25.276C36.2161 25.276 36.216 25.276 36.2161 25.276C36.2161 25.276 36.2161 25.276 36.2161 25.276C36.2161 25.276 36.2161 25.276 36.2161 25.276C36.2161 25.276 36.2161 25.276 36.2161 25.276C36.2161 25.276 36.2161 25.276 36.2161 25.276C36.2161 25.276 36.2161 25.276 36.2161 25.276C36.2161 25.276 36.2161 25.276 36.2161 25.276C36.2161 25.276 36.2161 25.276 36.2161 25.276C36.2161 25.276 36.2161 25.276 36.2161 25.276C36.2161 25.276 36.2161 25.276 36.2161 25.276C36.2161 25.276 36.2161 25.276 36.2161 25.276C36.2161 25.276 36.2161 25.276 36.2161 25.276C36.2161 25.276 36.2161 25.276 36.2161 25.276C36.2161 25.276 36.2161 25.276 36.2161 25.276C36.2161 25.276 36.2161 25.276 36.2161 25.276C36.2161 25.276 36.2161 25.276 36.2161 25.276C36.2161 25.276 36.2161 25.276 36.2161 25.276C36.2161 25.276 36.2161 25.276 36.2161 25.276C36.2161 25.276 36.2161 25.276 36.2161 25.276C36.2161 25.276 36.2161 25.276 36.2161 25.276C36.2161 25.276 36.2161 25.276 36.2161 25.276C36.2161 25.276 36.2161 25.276 36.2161 25.276C36.2161 25.276 36.2161 25.276 36.2161 25.276C36.2161 25.276 36.2161 25.276 36.2161 25.276C36.2161 25.276 36.2161 25.276 36.2161 25.276C36.2161 25.276 36.2161 25.276 36.2161 25.276C36.2161 25.276 36.2161 25.276 36.2161 25.276C36.2161 25.276 36.2161 25.276 36.2161 25.276C36.2161 25.276 36.2161 25.276 36.2161 25.276C36.2161 25.276 36.2161 25.276 36.2161 25.276C36.2161 25.276 36.2161 25.276 36.2161 25.276C36.2161 25.276 36.2161 25.276 36.2161 25.276C36.2161 25.276 36.2161 25.276 36.2161 25.276C36.2161 25.276 36.2161 25.276 36.2161 25.276C36.2161 25.276 36.2161 25.276 36.2161 25.276C36.2161 25.276 36.2161 25.276 36.2161 25.276C36.2161 25.276 36.2161 25.276 36.2161 25.276C36.2161 25.276 36.2161 25.276 36.2161 25.276C36.2161 25.276 36.2161 25.276 36.2161 25.276C36.2161 25.276 36.2161 25.276 36.2161 25.276C36.2161 25.276 36.2161 25.276 36.2161 25.276C36.2161 25.276 36.2161 25.276 36.2161 25.276C36.2161 25.276 36.2161 25.276 36.2161 25.276C36.2161 25.276 36.2161 25.276 36.2161 25.276C36.2161 25.276 36.2161 25.276 36.2161 25.276C36.2161 25.276 36.2161 25.276 36.2161 25.276C36.2161 25.276 36.2161 25.276 36.2161 25.276C36.2161 25.276 36.2161 25.276 36.2161 25.276C36.2161 25.276 36.2161 25.276 36.2161 25.276C36.2161 25.276 36.2161 25.276 36.2161 25.276C36.2161 25.276 36.2161 25.276 36.2161 25.276C36.2161 25.276 36.2161 25.276 36.2161 25.276C36.2161 25.276 36.2161 25.276 36.2161 25.276C36.2161 25.276 36.2161 25.276 36.2161 25.276C36.2161 25.276 36.2161 25.276 36.2161 25.276C36.2161 25.276 36.2161 25.276 36.2161 25.276C36.2161 25.276 36.2161 25.276 36.2161 25.276C36.2161 25.276 36.2161 25.276 36.2161 25.276C36.2161 25.276 36.2161 25.276 36.2161 25.276C36.2161 25.276 36.2161 25.276 36.2161 25.276C36.2161 25.276 36.2161 25.276 36.2161 25.276C36.2161 25.276 36.2161 25.276 36.2161 25.276C36.2161 25.276 36.2161 25.276 36.2161 25.276C36.2161 25.276 36.2161 25.276 36.2161 25.276C36.2161 25.276 36.2161 25.276 36.2161 25.276C36.2161 25.276 36.2161 25.276 36.2161 25.276C36.2161 25.276 36.2161 25.276 36.2161 25.276C36.2161 25.276 36.2161 25.276 36.2161 25.276C36.2161 25.276 36.2161 25.276 36.2161 25.276C36.2161 25.276 36.2161 25.276 36.2161 25.276C36.2161 25.276 36.2161 25.276 36.2161 25.276C36.2161 25.276 36.2161 25.276 36.2161 25.276C36.2161 25.276 36.2161 25.276 36.2161 25.276C36.2161 25.276 36.2161 25.276 36.2161 25.276C36.2161 25.276 36.2161 25.276 36.2161 25.276C36.2161 25.276 36.2161 25.276 36.2161 25.276C36.2161 25.276 36.2161 25.276 36.2161 25.276C36.2161 25.276 36.2161 25.276 36.2161 25.276C36.2161 25.2759 36.2161 25.276 36.2161 25.276C36.2161 25.276 36.2161 25.276 36.2161 25.276C36.2161 25.276 36.2161 25.276 36.2161 25.276C36.2161 25.276 36.2161 25.276 36.2161 25.276C36.2161 25.276 36.2161 25.276 36.2161 25.276C36.2161 25.276 36.2161 25.276 36.2161 25.276C36.2161 25.2759 36.2161 25.276 36.2161 25.276C36.2161 25.2759 36.2161 25.276 36.2161 25.276C36.2161 25.276 36.2161 25.276 36.2161 25.276C36.2161 25.276 36.2161 25.276 36.2161 25.276C36.2161 25.276 36.2161 25.276 36.2161 25.276C36.2161 25.276 36.2161 25.276 36.2161 25.276C36.2161 25.2759 36.2161 25.276 36.2161 25.276C36.2161 25.2759 36.2161 25.276 36.2161 25.276C36.2161 25.276 36.2161 25.276 36.2161 25.276C36.2161 25.276 36.2161 25.276 36.2161 25.276C36.2161 25.276 36.2161 25.276 36.2161 25.2759C36.2161 25.2759 36.2161 25.2759 36.2161 25.2759C36.2162 25.2759 36.2161 25.276 36.2161 25.2759C36.2161 25.2759 36.2161 25.276 36.2161 25.2759C36.2161 25.2759 36.2161 25.2759 36.2161 25.2759C36.2161 25.2759 36.2161 25.2759 36.2161 25.2759C36.2161 25.2759 36.2161 25.2759 36.2161 25.2759C36.2161 25.2759 36.2161 25.2759 36.2161 25.2759C36.2162 25.2759 36.2161 25.276 36.2161 25.2759C36.2161 25.2759 36.2161 25.276 36.2161 25.2759C36.2161 25.2759 36.2161 25.2759 36.2161 25.2759C36.2161 25.2759 36.2161 25.2759 36.2161 25.2759C36.2161 25.2759 36.2161 25.2759 36.2161 25.2759C36.2161 25.2759 36.2161 25.2759 36.2161 25.2759C36.2162 25.2759 36.2161 25.276 36.2161 25.2759C36.2162 25.2759 36.2161 25.2759 36.2161 25.2759C36.2161 25.2759 36.2161 25.2759 36.2161 25.2759C36.2161 25.2759 36.2161 25.2759 36.2161 25.2759C36.2161 25.2759 36.2161 25.2759 36.2161 25.2759C36.2161 25.2759 36.2161 25.2759 36.2161 25.2759C36.2162 25.2759 36.2161 25.2759 36.2161 25.2759C36.2162 25.2759 36.2161 25.2759 36.2161 25.2759C36.2161 25.2759 36.2161 25.2759 36.2161 25.2759C36.2162 25.2759 36.2162 25.2759 36.2162 25.2759C36.2162 25.2759 36.2162 25.2759 36.2162 25.2759C36.2162 25.2759 36.2162 25.2759 36.2162 25.2759C36.2162 25.2759 36.2161 25.2759 36.2162 25.2759C36.2162 25.2759 36.2161 25.2759 36.2162 25.2759C36.2162 25.2759 36.2162 25.2759 36.2162 25.2759C36.2162 25.2759 36.2162 25.2759 36.2162 25.2759C36.2162 25.2759 36.2162 25.2759 36.2162 25.2759C36.2162 25.2759 36.2162 25.2759 36.2162 25.2759C36.2162 25.2759 36.2161 25.2759 36.2162 25.2759C36.2162 25.2759 36.2161 25.2759 36.2162 25.2759C36.2162 25.2759 36.2162 25.2759 36.2162 25.2759C36.2162 25.2759 36.2162 25.2759 36.2162 25.2759C36.2162 25.2759 36.2162 25.2759 36.2162 25.2759C36.2162 25.2759 36.2162 25.2759 36.2162 25.2759C36.2162 25.2759 36.2161 25.2759 36.2162 25.2759C36.2162 25.2759 36.2162 25.2759 36.2162 25.2759C36.2162 25.2759 36.2162 25.2759 36.2162 25.2759C36.2162 25.2759 36.2162 25.2759 36.2162 25.2759C36.2162 25.2759 36.2162 25.2759 36.2162 25.2759C36.2162 25.2759 36.2162 25.2759 36.2162 25.2759C36.2162 25.2759 36.2162 25.2759 36.2162 25.2759C36.2162 25.2759 36.2162 25.2759 36.2162 25.2759C36.2162 25.2759 36.2162 25.2759 36.2162 25.2759C36.2162 25.2759 36.2162 25.2759 36.2162 25.2759C36.2162 25.2759 36.2162 25.2759 36.2162 25.2759C36.2162 25.2759 36.2162 25.2759 36.2162 25.2759C36.2162 25.2759 36.2162 25.2759 36.2162 25.2759C36.2162 25.2759 36.2162 25.2759 36.2162 25.2759C36.2162 25.2759 36.2162 25.2759 36.2162 25.2759C36.2162 25.2759 36.2162 25.2759 36.2162 25.2759C36.2162 25.2759 36.2162 25.2759 36.2162 25.2759C36.2162 25.2759 36.2162 25.2759 36.2162 25.2759C36.2162 25.2759 36.2162 25.2759 36.2162 25.2759C36.2162 25.2759 36.2162 25.2759 36.2162 25.2759C36.2162 25.2759 36.2162 25.2759 36.2162 25.2759C36.2162 25.2759 36.2162 25.2759 36.2162 25.2759C36.2162 25.2759 36.2162 25.2759 36.2162 25.2759C36.2162 25.2759 36.2162 25.2759 36.2162 25.2759C36.2162 25.2759 36.2162 25.2759 36.2162 25.2759C36.2162 25.2759 36.2162 25.2759 36.2162 25.2759C36.2162 25.2759 36.2162 25.2759 36.2162 25.2759C36.2162 25.2759 36.2162 25.2759 36.2162 25.2759C36.2162 25.2759 36.2162 25.2759 36.2162 25.2759C36.2162 25.2759 36.2162 25.2759 36.2162 25.2759C36.2162 25.2759 36.2162 25.2759 36.2162 25.2759C36.2162 25.2759 36.2162 25.2759 36.2162 25.2759C36.2162 25.2759 36.2162 25.2759 36.2162 25.2759C36.2162 25.2759 36.2162 25.2759 36.2162 25.2759C36.2162 25.2759 36.2162 25.2759 36.2162 25.2759C36.2162 25.2759 36.2162 25.2759 36.2162 25.2759C36.2162 25.2759 36.2162 25.2759 36.2162 25.2759C36.2162 25.2759 36.2162 25.2759 36.2162 25.2759C36.2162 25.2759 36.2162 25.2759 36.2162 25.2759C36.2162 25.2759 36.2162 25.2759 36.2162 25.2759C36.2162 25.2759 36.2162 25.2759 36.2162 25.2759C36.2162 25.2759 36.2162 25.2759 36.2162 25.2759C36.2162 25.2759 36.2162 25.2759 36.2162 25.2759C36.2162 25.2759 36.2162 25.2759 36.2162 25.2759C36.2162 25.2759 36.2162 25.2759 36.2162 25.2759C36.2162 25.2759 36.2162 25.2759 36.2162 25.2759C36.2162 25.2759 36.2162 25.2759 36.2162 25.2759C36.2162 25.2759 36.2162 25.2759 36.2162 25.2759C36.2162 25.2759 36.2162 25.2759 36.2162 25.2759C36.2162 25.2759 36.2162 25.2759 36.2162 25.2759C36.2162 25.2759 36.2162 25.2759 36.2162 25.2759C36.2162 25.2759 36.2162 25.2759 36.2162 25.2759C36.2162 25.2759 36.2162 25.2759 36.2162 25.2759C36.2162 25.2759 36.2162 25.2759 36.2162 25.2759C36.2162 25.2759 36.2162 25.2759 36.2162 25.2759C36.2162 25.2759 36.2162 25.2759 36.2162 25.2759C36.2162 25.2759 36.2162 25.2759 36.2162 25.2759C36.2162 25.2759 36.2162 25.2759 36.2162 25.2759C36.2162 25.2759 36.2162 25.2759 36.2162 25.2759C36.2162 25.2759 36.2162 25.2759 36.2162 25.2759C36.2162 25.2759 36.2162 25.2759 36.2162 25.2759C36.2162 25.2759 36.2162 25.2759 36.2162 25.2759C36.2162 25.2759 36.2162 25.2759 36.2162 25.2759C36.2162 25.2759 36.2162 25.2759 36.2162 25.2759C36.2162 25.2759 36.2162 25.2759 36.2162 25.2759C36.2162 25.2759 36.2162 25.2759 36.2162 25.2759C36.2162 25.2759 36.2162 25.2759 36.2162 25.2759C36.2162 25.2759 36.2162 25.2759 36.2162 25.2759C36.2162 25.2759 36.2162 25.2759 36.2162 25.2759C36.2162 25.2759 36.2162 25.2759 36.2162 25.2759C36.2162 25.2759 36.2162 25.2759 36.2162 25.2759C36.2162 25.2759 36.2162 25.2759 36.2162 25.2759C36.2162 25.2759 36.2162 25.2759 36.2162 25.2759C36.2162 25.2759 36.2162 25.2759 36.2162 25.2759C36.2162 25.2759 36.2162 25.2759 36.2162 25.2759C36.2162 25.2759 36.2162 25.2759 36.2162 25.2759C36.2162 25.2759 36.2162 25.2759 36.2162 25.2759C36.2162 25.2759 36.2162 25.2759 36.2162 25.2759C36.2162 25.2759 36.2162 25.2759 36.2162 25.2759C36.2162 25.2759 36.2162 25.2759 36.2162 25.2759C36.2162 25.2759 36.2162 25.2759 36.2162 25.2759C36.2162 25.2759 36.2162 25.2759 36.2162 25.2759C36.2162 25.2759 36.2162 25.2759 36.2162 25.2759C36.2162 25.2759 36.2162 25.2759 36.2162 25.2759C36.2162 25.2758 36.2162 25.2759 36.2162 25.2759C36.2162 25.2758 36.2162 25.2759 36.2162 25.2759C36.2162 25.2759 36.2162 25.2759 36.2162 25.2759C36.2162 25.2759 36.2162 25.2759 36.2162 25.2759C36.2162 25.2759 36.2162 25.2759 36.2162 25.2759C36.2162 25.2759 36.2162 25.2759 36.2162 25.2759C36.2162 25.2758 36.2162 25.2759 36.2162 25.2759C36.2162 25.2758 36.2162 25.2759 36.2162 25.2759C36.2162 25.2759 36.2162 25.2759 36.2162 25.2758C36.2162 25.2758 36.2162 25.2758 36.2162 25.2758C36.2162 25.2758 36.2162 25.2758 36.2162 25.2758C36.2162 25.2758 36.2162 25.2758 36.2162 25.2758C36.2162 25.2758 36.2162 25.2759 36.2162 25.2758C36.2162 25.2758 36.2162 25.2759 36.2162 25.2758C36.2162 25.2758 36.2162 25.2758 36.2162 25.2758C36.2162 25.2758 36.2162 25.2758 36.2162 25.2758C36.2162 25.2758 36.2162 25.2758 36.2162 25.2758C36.2162 25.2758 36.2162 25.2758 36.2162 25.2758C36.2163 25.2758 36.2162 25.2759 36.2162 25.2758C36.2162 25.2758 36.2162 25.2759 36.2162 25.2758C36.2162 25.2758 36.2162 25.2758 36.2162 25.2758C36.2162 25.2758 36.2162 25.2758 36.2162 25.2758C36.2162 25.2758 36.2162 25.2758 36.2162 25.2758C36.2162 25.2758 36.2162 25.2758 36.2162 25.2758C36.2163 25.2758 36.2162 25.2759 36.2162 25.2758C36.2162 25.2758 36.2162 25.2758 36.2162 25.2758C36.2162 25.2758 36.2162 25.2758 36.2162 25.2758C36.2162 25.2758 36.2162 25.2758 36.2162 25.2758C36.2162 25.2758 36.2162 25.2758 36.2162 25.2758C36.2162 25.2758 36.2162 25.2758 36.2162 25.2758C36.2163 25.2758 36.2162 25.2758 36.2162 25.2758C36.2163 25.2758 36.2162 25.2758 36.2163 25.2758C36.2163 25.2758 36.2163 25.2758 36.2163 25.2758C36.2163 25.2758 36.2163 25.2758 36.2163 25.2758C36.2163 25.2758 36.2163 25.2758 36.2163 25.2758C36.2163 25.2758 36.2163 25.2758 36.2163 25.2758C36.2163 25.2758 36.2162 25.2758 36.2163 25.2758C36.2163 25.2758 36.2162 25.2758 36.2163 25.2758C36.2163 25.2758 36.2163 25.2758 36.2163 25.2758C36.2163 25.2758 36.2163 25.2758 36.2163 25.2758C36.2163 25.2758 36.2163 25.2758 36.2163 25.2758C36.2163 25.2758 36.2163 25.2758 36.2163 25.2758C36.2163 25.2758 36.2162 25.2758 36.2163 25.2758C36.2163 25.2758 36.2163 25.2758 36.2163 25.2758C36.2163 25.2758 36.2163 25.2758 36.2163 25.2758C36.2163 25.2758 36.2163 25.2758 36.2163 25.2758C36.2163 25.2758 36.2163 25.2758 36.2163 25.2758C36.2163 25.2758 36.2163 25.2758 36.2163 25.2758C36.2163 25.2758 36.2162 25.2758 36.2163 25.2758C36.2163 25.2758 36.2163 25.2758 36.2163 25.2758C36.2163 25.2758 36.2163 25.2758 36.2163 25.2758C36.2163 25.2758 36.2163 25.2758 36.2163 25.2758C36.2163 25.2758 36.2163 25.2758 36.2163 25.2758C36.2163 25.2758 36.2163 25.2758 36.2163 25.2758C36.2163 25.2758 36.2163 25.2758 36.2163 25.2758C36.2163 25.2758 36.2163 25.2758 36.2163 25.2758C36.2163 25.2758 36.2163 25.2758 36.2163 25.2758C36.2163 25.2758 36.2163 25.2758 36.2163 25.2758C36.2163 25.2758 36.2163 25.2758 36.2163 25.2758C36.2163 25.2758 36.2163 25.2758 36.2163 25.2758C36.2163 25.2758 36.2163 25.2758 36.2163 25.2758C36.2163 25.2758 36.2163 25.2758 36.2163 25.2758C36.2163 25.2758 36.2163 25.2758 36.2163 25.2758C36.2163 25.2758 36.2163 25.2758 36.2163 25.2758C36.2163 25.2758 36.2163 25.2758 36.2163 25.2758C36.2163 25.2758 36.2163 25.2758 36.2163 25.2758C36.2163 25.2758 36.2163 25.2758 36.2163 25.2758C36.2163 25.2758 36.2163 25.2758 36.2163 25.2758C36.2163 25.2758 36.2163 25.2758 36.2163 25.2758C36.2163 25.2758 36.2163 25.2758 36.2163 25.2758C36.2163 25.2758 36.2163 25.2758 36.2163 25.2758C36.2163 25.2758 36.2163 25.2758 36.2163 25.2758C36.2163 25.2758 36.2163 25.2758 36.2163 25.2758C36.2163 25.2758 36.2163 25.2758 36.2163 25.2758C36.2163 25.2758 36.2163 25.2758 36.2163 25.2758C36.2163 25.2758 36.2163 25.2758 36.2163 25.2758C36.2163 25.2758 36.2163 25.2758 36.2163 25.2758C36.2163 25.2758 36.2163 25.2758 36.2163 25.2758C36.2163 25.2758 36.2163 25.2758 36.2163 25.2758C36.2163 25.2758 36.2163 25.2758 36.2163 25.2758C36.2163 25.2758 36.2163 25.2758 36.2163 25.2758C36.2163 25.2758 36.2163 25.2758 36.2163 25.2758C36.2163 25.2758 36.2163 25.2758 36.2163 25.2758C36.2163 25.2758 36.2163 25.2758 36.2163 25.2758C36.2163 25.2758 36.2163 25.2758 36.2163 25.2758C36.2163 25.2758 36.2163 25.2758 36.2163 25.2758C36.2163 25.2758 36.2163 25.2758 36.2163 25.2758C36.2163 25.2758 36.2163 25.2758 36.2163 25.2758C36.2163 25.2758 36.2163 25.2758 36.2163 25.2758C36.2163 25.2758 36.2163 25.2758 36.2163 25.2758C36.2163 25.2758 36.2163 25.2758 36.2163 25.2758C36.2163 25.2758 36.2163 25.2758 36.2163 25.2758C36.2163 25.2758 36.2163 25.2758 36.2163 25.2758C36.2163 25.2758 36.2163 25.2758 36.2163 25.2758C36.2163 25.2758 36.2163 25.2758 36.2163 25.2758C36.2163 25.2758 36.2163 25.2758 36.2163 25.2758C36.2163 25.2758 36.2163 25.2758 36.2163 25.2758C36.2163 25.2758 36.2163 25.2758 36.2163 25.2758C36.2163 25.2758 36.2163 25.2758 36.2163 25.2758C36.2163 25.2758 36.2163 25.2758 36.2163 25.2758C36.2163 25.2758 36.2163 25.2758 36.2163 25.2758C36.2163 25.2758 36.2163 25.2758 36.2163 25.2758L29.148 18.2019ZM29.1463 18.2036L23.355 23.9949L30.4261 31.066L36.2174 25.2747L29.1463 18.2036ZM23.355 23.9949C20.8244 26.5256 20.8244 30.6285 23.355 33.1592L30.4261 26.0881C31.8007 27.4627 31.8007 29.6914 30.4261 31.066L23.355 23.9949ZM23.355 33.1592C25.8856 35.6898 29.9886 35.6898 32.5192 33.1592L25.4482 26.0881C26.8228 24.7135 29.0515 24.7135 30.4261 26.0881L23.355 33.1592ZM32.5192 33.1592L35.7842 29.8942L28.7131 22.8231L25.4482 26.0881L32.5192 33.1592Z" fill="#24243A" mask="url(#path-3-outside-1_5344_271)"/>
</svg>
