<svg width="22" height="28" viewBox="0 0 22 28" fill="none" xmlns="http://www.w3.org/2000/svg">
<path fill-rule="evenodd" clip-rule="evenodd" d="M7.76244 3.33165L3.56736 12.7502H8.21553C9.14597 12.7502 9.80133 13.6584 9.50736 14.5398L7.2743 21.2229L17.1154 11.4047H13.6499C13.4177 11.4047 13.1894 11.3454 12.9866 11.2325C12.7839 11.1197 12.6134 10.957 12.4914 10.7599C12.3694 10.5628 12.2999 10.3378 12.2895 10.1064C12.2792 9.87497 12.3283 9.64474 12.4322 9.43758L15.4919 3.33165H7.76244ZM5.65074 1.44793C5.86919 0.95682 6.35599 0.640625 6.89538 0.640625H17.6521C18.6635 0.640625 19.3229 1.70358 18.8698 2.60776L15.8101 8.71369H20.3383C21.5519 8.71369 22.1587 10.1776 21.3011 11.0334L5.18282 27.1162C4.16608 28.1308 2.4724 27.0866 2.92818 25.7263L6.36408 15.4412H1.51229C1.28541 15.4412 1.06212 15.3847 0.862703 15.2767C0.66329 15.1687 0.494074 15.0127 0.370423 14.8229C0.246773 14.6331 0.172605 14.4155 0.154658 14.1898C0.136712 13.9641 0.175553 13.7375 0.267656 13.5306L5.65074 1.44793Z" fill="#F5F5F5" stroke="#F5F5F5" stroke-width="0.2"/>
</svg>
