<svg width="24" height="14" viewBox="0 0 24 14" fill="none" xmlns="http://www.w3.org/2000/svg">
<path fill-rule="evenodd" clip-rule="evenodd" d="M11.1047 0.642161C9.43963 0.827859 7.73962 1.44513 6.04021 2.48097C4.72779 3.28098 3.22041 4.51575 2.08911 5.71763C1.06547 6.80509 0.922835 7.02474 0.994016 7.40414C1.03532 7.62429 1.5303 8.22066 2.38636 9.08172C5.50018 12.2136 8.90598 13.9111 12.076 13.9111C15.0112 13.9111 18.1362 12.4601 21.1296 9.70726C21.7553 9.13195 22.621 8.21418 22.9628 7.76402C23.1338 7.53878 23.1532 7.48665 23.1532 7.25165C23.1532 7.01623 23.1338 6.96443 22.9598 6.73396C22.6294 6.29638 21.7549 5.37098 21.1221 4.78951C17.7906 1.72786 14.3058 0.285147 11.1047 0.642161ZM12.8988 2.12086C15.0008 2.35179 17.1985 3.41141 19.4068 5.25877C19.6358 5.4503 20.1977 5.97738 20.6556 6.43004L21.4881 7.25313L20.6094 8.11997C18.0316 10.6628 15.4225 12.1052 12.8988 12.3824C9.86015 12.7163 6.55462 11.1675 3.28891 7.8796L2.66517 7.25165L3.28891 6.6237C5.34427 4.55437 7.3302 3.22229 9.37705 2.54003C10.5981 2.13298 11.7554 1.99524 12.8988 2.12086ZM11.3822 3.61797C10.518 3.80131 9.80849 4.21937 9.25467 4.87165C8.2057 6.10712 8.09127 7.90203 8.97518 9.25599C10.2636 11.2296 13.0242 11.5221 14.6853 9.86096C16.3464 8.19984 16.0539 5.4392 14.0803 4.15083C13.7323 3.92359 13.417 3.78604 12.9555 3.6601C12.5956 3.56191 11.7529 3.53934 11.3822 3.61797ZM12.6059 5.1024C13.4037 5.31021 14.0181 5.92664 14.2271 6.72869C14.5266 7.87882 13.7904 9.09236 12.6059 9.4009C11.4486 9.70236 10.2362 8.96956 9.92675 7.7816C9.51451 6.19897 11.0233 4.69016 12.6059 5.1024Z" fill="#A0A0A0"/>
</svg>
