<svg width="120" height="38" viewBox="0 0 120 38" fill="none" xmlns="http://www.w3.org/2000/svg">
<path fill-rule="evenodd" clip-rule="evenodd" d="M7.07359 0.990454C6.06075 1.82753 5.39667 4.59231 2.78347 18.8401C1.08331 28.113 -0.162047 36.0802 0.0171568 36.5455C0.28256 37.236 1.43377 37.3616 6.29666 37.2314L12.2518 37.0713L14.9563 30.4986C19.0411 20.5714 19.0672 21.507 14.7056 21.507C11.9858 21.507 10.9815 21.3044 10.9815 20.7548C10.9815 20.3405 12.6402 15.566 14.6676 10.1439C16.695 4.72248 18.3538 0.221862 18.3538 0.143191C18.3538 0.0645212 16.0854 0 13.3128 0C9.34596 0 8.01611 0.211108 7.07359 0.990454ZM33.2838 1.27344C32.6527 1.97412 30.5572 4.83228 28.6268 7.62593C24.6979 13.3117 24.7303 13.4679 29.8376 13.5437C31.3188 13.5653 32.5313 13.8324 32.5313 14.1369C32.5313 14.4414 29.655 18.0704 26.1395 22.202C16.5368 33.487 13.817 36.8064 13.8164 37.2422C13.8158 37.4595 18.6345 37.5631 24.5244 37.4725C33.7897 37.3299 35.3458 37.1777 36.07 36.3406C36.826 35.4667 42.7408 5.4724 42.7397 2.51858C42.7385 0.605026 41.5771 0 37.904 0C35.0197 0 34.236 0.216202 33.2838 1.27344Z" fill="#00A2FF"/>
<path d="M95.7559 25.0898C95.7559 25.5072 95.4167 25.8472 94.9985 25.8472L92.9468 25.8487V21.8582H94.9985C95.4167 21.8582 95.7559 22.1952 95.7559 22.6141V25.0898ZM96.0403 17.1846H88.9726C88.5848 17.1846 88.2715 17.4989 88.2715 17.8844V21.0461C88.2715 21.0522 88.273 21.0583 88.273 21.0643C88.273 21.0795 88.2715 21.0947 88.2715 21.1084V35.419C88.2715 35.8076 88.5635 36.1248 88.9255 36.1339H92.2197C92.6136 36.1339 92.9345 35.8152 92.9345 35.4205L92.9467 30.5162H96.0402C98.6288 30.5162 100.433 28.7236 100.433 26.1295V21.5774C100.433 18.9834 98.6288 17.1846 96.0403 17.1846Z" fill="#00BAF2"/>
<path fill-rule="evenodd" clip-rule="evenodd" d="M105.008 36.1339L115.239 26.82L110.393 17.1846L105.008 36.1339Z" fill="#3BDC80"/>
<path fill-rule="evenodd" clip-rule="evenodd" d="M101.562 36.1339L111.793 26.82L106.947 17.1846L101.562 36.1339Z" fill="#FF9F66"/>
<path d="M85.9946 26.8754C85.9954 26.2298 85.9407 25.5853 85.8311 24.949H76.8785V28.5979H82.0061C81.9012 29.1807 81.6791 29.7363 81.3532 30.2311C81.0274 30.7259 80.6045 31.1497 80.1101 31.4771V33.8456H83.1703C84.9622 32.1968 85.9946 29.7585 85.9946 26.8754Z" fill="#4285F4"/>
<path d="M76.8785 36.1339C79.4403 36.1339 81.5974 35.2944 83.1703 33.8469L80.1101 31.4784C79.2584 32.0547 78.1614 32.3837 76.8785 32.3837C74.4023 32.3837 72.3007 30.7178 71.5491 28.4729H68.3966V30.9138C69.1867 32.483 70.3983 33.8021 71.8961 34.7239C73.3938 35.6457 75.1188 36.1338 76.8785 36.1339Z" fill="#34A853"/>
<path d="M71.5491 28.4729C71.1518 27.2966 71.1518 26.0226 71.5491 24.8463V22.4053H68.3966C67.7319 23.7254 67.3857 25.1822 67.3857 26.6596C67.3857 28.1369 67.7319 29.5938 68.3966 30.9138L71.5491 28.4729Z" fill="#FBBC04"/>
<path d="M76.8785 20.9355C78.2323 20.9134 79.5404 21.4239 80.5202 22.3566L83.2297 19.6525C81.5116 18.042 79.2354 17.1578 76.8785 17.1853C75.1188 17.1853 73.3938 17.6735 71.8961 18.5953C70.3983 19.5171 69.1867 20.8362 68.3966 22.4053L71.5491 24.8463C72.3007 22.6014 74.4023 20.9355 76.8785 20.9355Z" fill="#EA4335"/>
<path d="M65.2309 28.8361C66.4355 23.7446 63.2764 18.6425 58.1747 17.4403C53.0731 16.238 47.9608 19.3909 46.7562 24.4824C45.5515 29.5739 48.7107 34.676 53.8123 35.8783C58.914 37.0805 64.0262 33.9276 65.2309 28.8361Z" fill="#AE7BE5"/>
<path d="M60.3022 24.1877C60.3022 23.8172 59.984 23.4997 59.6128 23.4997H58.3402L55.4237 20.1657C55.1586 19.8481 54.7344 19.7423 54.3102 19.8481L53.3027 20.1657C53.1436 20.2186 53.0906 20.4303 53.1966 20.5361L56.3782 23.5526H51.5528C51.3937 23.5526 51.2877 23.6585 51.2877 23.8172V24.3464C51.2877 24.7169 51.6058 25.0344 51.977 25.0344H52.7194V27.5746C52.7194 29.4798 53.7269 30.5911 55.4237 30.5911C55.954 30.5911 56.3782 30.5382 56.9085 30.3265V32.02C56.9085 32.4963 57.2797 32.8667 57.7569 32.8667H58.4993C58.6583 32.8667 58.8174 32.7079 58.8174 32.5492V24.9815H60.037C60.1961 24.9815 60.3022 24.8756 60.3022 24.7169V24.1877ZM56.9085 28.7389C56.5903 28.8976 56.1661 28.9506 55.8479 28.9506C54.9995 28.9506 54.5753 28.5272 54.5753 27.5746V25.0344H56.9085V28.7389Z" fill="white"/>
<path fill-rule="evenodd" clip-rule="evenodd" d="M48.0842 2.05336C48.0204 2.069 47.9205 2.10982 47.8621 2.14405C47.7228 2.22569 47.5664 2.43764 47.534 2.58876C47.5169 2.66841 47.5096 3.88019 47.5098 6.57905C47.51 9.79009 47.5154 10.475 47.5411 10.5716C47.5982 10.7862 47.75 10.956 47.9797 11.062L48.0868 11.1115H50.2715H52.4562L52.5808 11.0531C52.8584 10.9228 53.0111 10.6799 53.0107 10.3692C53.0102 9.99926 52.7573 9.71454 52.3739 9.65233C52.2845 9.63784 51.6133 9.6289 50.6054 9.62881L48.9811 9.62862V8.48533V7.34203L50.3791 7.34185C51.8254 7.34169 51.9965 7.33272 52.1619 7.2485C52.3937 7.13051 52.5617 6.86427 52.5655 6.6088C52.5688 6.39182 52.5076 6.24605 52.345 6.08374C52.1093 5.8484 52.2177 5.86181 50.4809 5.85302L48.9811 5.84544V4.68161V3.51775L50.7526 3.51119L52.5241 3.50462L52.6563 3.44272C52.8601 3.34725 52.9551 3.2598 53.0379 3.09167C53.2289 2.70377 53.0792 2.27898 52.6879 2.09825L52.5468 2.03305L50.3734 2.02897C48.694 2.02585 48.1737 2.03137 48.0842 2.05336ZM54.7144 2.05675C54.5133 2.11088 54.3358 2.25191 54.2456 2.42924C54.133 2.65045 54.1303 2.86589 54.2375 3.07673C54.2789 3.1583 54.8795 3.97577 55.576 4.89874C56.3763 5.95934 56.8331 6.58297 56.8222 6.60049C56.8128 6.61571 56.2494 7.37203 55.5701 8.28121C54.8909 9.19039 54.318 9.96086 54.2971 9.99335C54.2288 10.0997 54.1817 10.3063 54.1943 10.4446C54.2255 10.7889 54.4718 11.0449 54.8312 11.1064C54.9583 11.1282 54.9908 11.1252 55.1375 11.078C55.273 11.0345 55.324 11.0032 55.4299 10.8986C55.5004 10.8289 56.0521 10.1075 56.656 9.29542C57.2598 8.48333 57.7628 7.82156 57.7736 7.82477C57.7845 7.82799 58.3143 8.52205 58.9509 9.36714C60.1971 11.0214 60.1916 11.0151 60.4563 11.0925C60.7595 11.1811 61.1199 11.0158 61.2851 10.7123C61.3385 10.6142 61.3528 10.5563 61.3607 10.4057C61.3696 10.2351 61.3648 10.2083 61.302 10.0771C61.2596 9.98855 60.7512 9.29759 59.9642 8.25893C59.266 7.3375 58.6947 6.57851 58.6947 6.57228C58.6947 6.56606 59.2609 5.80197 59.9529 4.87431C60.645 3.94666 61.2377 3.13163 61.2702 3.06315C61.3497 2.89577 61.3549 2.62922 61.2818 2.47054C61.1384 2.15913 60.7832 1.97355 60.4638 2.04315C60.3111 2.07643 60.1807 2.14776 60.0823 2.25186C60.0222 2.31536 59.4661 3.05672 58.0175 5.00465C57.8855 5.18217 57.7706 5.3248 57.7622 5.3216C57.744 5.31468 57.5897 5.11244 56.3629 3.48694C55.848 2.80483 55.3896 2.21731 55.3442 2.18134C55.2484 2.1055 55.0153 2.02105 54.9077 2.02322C54.8668 2.02404 54.7798 2.03914 54.7144 2.05675ZM62.51 2.07772C61.9134 2.32374 61.9044 3.13983 62.4951 3.43093C62.5982 3.48175 62.6043 3.482 63.8269 3.48821L65.0551 3.49443L65.0556 6.90678C65.0558 8.84337 65.065 10.381 65.0767 10.4621C65.1024 10.6403 65.165 10.7641 65.2983 10.9009C65.4403 11.0466 65.5872 11.1071 65.8022 11.1084C66.0971 11.1101 66.3324 10.9641 66.4633 10.6982L66.538 10.5465L66.5439 7.02046L66.5499 3.49443L67.7778 3.48821L69.0057 3.48198L69.1302 3.42282C69.2886 3.34759 69.4147 3.22154 69.4899 3.06315C69.5741 2.88588 69.5742 2.62978 69.4903 2.45188C69.4169 2.29655 69.2846 2.15917 69.1396 2.08781L69.0283 2.03305L65.8362 2.02775L62.644 2.02248L62.51 2.07772ZM72.9154 2.04588C72.8618 2.05644 72.7714 2.08833 72.7145 2.11677C72.5428 2.20248 72.456 2.32505 72.3048 2.69523C71.1151 5.60677 69.2611 10.2408 69.2507 10.3288C69.235 10.4613 69.2751 10.6487 69.3455 10.7719C69.4823 11.0115 69.8237 11.1581 70.1045 11.0979C70.286 11.059 70.4621 10.9376 70.5472 10.793C70.5769 10.7423 70.7429 10.3501 70.9161 9.92138L71.2309 9.14187H73.0923H74.9536L75.2748 9.91162C75.4515 10.335 75.6181 10.7235 75.645 10.775C75.722 10.9222 75.9128 11.0573 76.1009 11.0976C76.4069 11.1632 76.7334 11.01 76.87 10.7367C76.9544 10.5677 76.9751 10.4049 76.9329 10.2399C76.9038 10.1259 73.7771 2.59544 73.6792 2.40352C73.5897 2.2282 73.4029 2.09286 73.1872 2.04715C73.0539 2.0189 73.0525 2.0189 72.9154 2.04588ZM84.7228 2.04738C84.4908 2.08175 84.2768 2.24142 84.1628 2.46524L84.1062 2.5764L84.0949 5.37682L84.0836 8.17725L81.9442 5.34409C80.7675 3.78585 79.7458 2.43707 79.6737 2.34683C79.4894 2.11595 79.3642 2.05567 79.069 2.05576C78.8875 2.0558 78.8385 2.06402 78.7554 2.1083C78.6058 2.18802 78.4688 2.32652 78.4093 2.45806L78.3558 2.5764L78.3499 6.54247L78.344 10.5085L78.3928 10.6391C78.4542 10.8031 78.5974 10.9587 78.7652 11.0436C79.0207 11.1728 79.3531 11.1188 79.5835 10.9106C79.6346 10.8644 79.7022 10.7676 79.7393 10.6873L79.8047 10.5455L79.8161 7.76908L79.8274 4.99263L82.0509 7.92821C83.2738 9.54278 84.3028 10.8908 84.3375 10.9238C84.3722 10.9568 84.4566 11.0122 84.5251 11.0471C84.6327 11.1018 84.6757 11.1103 84.842 11.11C85.0758 11.1096 85.2042 11.053 85.3676 10.8784C85.5749 10.6567 85.5544 11.1091 85.5611 6.61358C85.567 2.67905 85.5666 2.63506 85.5217 2.51581C85.4021 2.19891 85.0588 1.99759 84.7228 2.04738ZM87.4003 2.05241C87.0768 2.15825 86.8649 2.46159 86.8841 2.79147C86.9001 3.06722 87.0598 3.3041 87.3097 3.42282L87.4342 3.48198L88.6621 3.48821L89.8899 3.49443L89.896 7.02046L89.902 10.5465L89.9767 10.6982C90.0596 10.8667 90.1765 10.9778 90.3566 11.0591C90.5177 11.1319 90.764 11.1286 90.9325 11.0515C91.0995 10.975 91.2556 10.8148 91.321 10.6528L91.3735 10.5229L91.3797 7.00866L91.3859 3.49443L92.6136 3.48821C93.8356 3.482 93.8417 3.48175 93.9448 3.43093C94.2659 3.27272 94.4375 2.95013 94.3735 2.62503C94.3231 2.36863 94.1483 2.15843 93.9121 2.07006L93.7829 2.02173L90.6312 2.02411C88.3308 2.02583 87.4581 2.03348 87.4003 2.05241ZM99.3539 2.05784C99.1818 2.10366 99.0418 2.19533 98.9414 2.32809C98.7757 2.54719 98.788 2.20839 98.788 6.57547V10.5099L98.8363 10.6391C98.9 10.8095 99.0308 10.9473 99.2145 11.0378C99.3444 11.1017 99.3857 11.111 99.5357 11.1097C99.6688 11.1086 99.7332 11.096 99.8195 11.0542C99.9513 10.9904 100.113 10.8477 100.163 10.7505C100.254 10.574 100.259 10.4986 100.259 9.22677L100.26 7.99858L101.046 7.99821C102.151 7.99772 102.531 7.95778 102.915 7.80157C103.854 7.42 104.488 6.69476 104.76 5.68934C104.814 5.49215 104.819 5.43569 104.82 5.01015C104.822 4.3903 104.766 4.12465 104.538 3.66889C104.392 3.37784 104.254 3.18699 104.006 2.9373C103.68 2.60809 103.376 2.40594 102.95 2.23556C102.458 2.0383 102.282 2.02141 100.747 2.02322C99.7089 2.02445 99.4558 2.03072 99.3539 2.05784ZM108.693 2.05356C108.451 2.11335 108.289 2.25865 108.185 2.50848C108.016 2.91755 105.108 10.1247 105.085 10.1923C105.044 10.3137 105.053 10.5397 105.105 10.6778C105.166 10.8415 105.342 11.0098 105.512 11.0669C105.868 11.1867 106.231 11.043 106.392 10.7184C106.427 10.6482 106.587 10.2623 106.747 9.86068L107.037 9.13055H108.896H110.754L111.023 9.78144C111.386 10.6592 111.465 10.823 111.571 10.9236C111.773 11.1165 112.078 11.1652 112.339 11.0462C112.503 10.9712 112.605 10.8765 112.685 10.7266C112.737 10.6283 112.745 10.5868 112.745 10.4097L112.744 10.2059L111.14 6.35721C110.258 4.24041 109.516 2.46981 109.493 2.42256C109.391 2.22098 109.21 2.08885 108.976 2.04439C108.835 2.0177 108.838 2.01761 108.693 2.05356ZM113.204 2.04722C112.993 2.07849 112.76 2.24543 112.663 2.43452C112.569 2.61903 112.573 2.91658 112.672 3.10632C112.702 3.16351 113.35 4.10835 114.111 5.20594L115.494 7.20157L115.501 8.87405L115.507 10.5465L115.582 10.6983C115.665 10.8667 115.782 10.9778 115.962 11.0591C116.123 11.1319 116.369 11.1286 116.538 11.0515C116.705 10.975 116.861 10.8148 116.926 10.6528L116.979 10.5229L116.985 8.86413L116.992 7.2054L118.444 5.1852C119.434 3.80865 119.914 3.12215 119.952 3.03041C119.997 2.91878 120.005 2.86854 119.996 2.7361C119.977 2.44319 119.824 2.21632 119.567 2.1011C119.44 2.04416 119.41 2.03952 119.233 2.04962C119.094 2.05752 119.01 2.07498 118.941 2.11009C118.759 2.20305 118.855 2.07753 117.142 4.4668C116.682 5.10807 116.293 5.64617 116.278 5.66256C116.255 5.68667 116.028 5.37171 115.09 4.01867C114.453 3.09813 113.888 2.30137 113.836 2.24808C113.681 2.09001 113.438 2.01265 113.204 2.04722ZM102.258 3.55961C102.516 3.63355 102.718 3.75606 102.932 3.96873C103.076 4.11098 103.148 4.20396 103.208 4.32521C103.484 4.87846 103.381 5.54992 102.943 6.0448C102.814 6.19101 102.552 6.3683 102.362 6.43848C102.22 6.49067 102.201 6.49173 101.239 6.49909L100.26 6.50658V5.01126V3.51594H101.182C102.026 3.51594 102.118 3.5197 102.258 3.55961ZM73.7157 6.17145L74.3523 7.69294L73.096 7.69878C72.4051 7.70202 71.8349 7.69976 71.8289 7.69378C71.823 7.68782 72.097 6.99573 72.438 6.15583C72.7789 5.31592 73.0626 4.63352 73.0684 4.63934C73.0743 4.64518 73.3655 5.33462 73.7157 6.17145ZM109.519 6.17609C109.858 6.98546 110.14 7.66041 110.146 7.67596C110.155 7.6984 109.894 7.70426 108.885 7.70426C107.876 7.70426 107.615 7.6984 107.624 7.67596C107.759 7.34592 108.829 4.71077 108.845 4.67056C108.866 4.61677 108.868 4.6162 108.886 4.65924C108.896 4.68414 109.181 5.36673 109.519 6.17609Z" fill="#00A2FF"/>
</svg>
