<svg width="92" height="29" viewBox="0 0 92 29" fill="none" xmlns="http://www.w3.org/2000/svg">
<path d="M91.6896 8.50517C90.8545 6.1175 88.5787 4.40293 85.9056 4.40293H85.8496C84.112 4.40293 82.5459 5.12616 81.4311 6.2872C80.3144 5.12616 78.7484 4.40293 77.0126 4.40293H76.9566C75.4292 4.40293 74.0329 4.96221 72.9605 5.888V5.41739C72.9239 4.9487 72.5381 4.58039 72.0617 4.58039H67.9615C67.46 4.58039 67.055 4.98539 67.055 5.48874V27.755C67.055 28.2583 67.46 28.6634 67.9615 28.6634H72.0617C72.5188 28.6634 72.8949 28.322 72.9547 27.8803L72.9528 11.8957C72.9524 11.8423 72.9549 11.7888 72.9605 11.7356C73.0261 11.022 73.5487 10.4357 74.3742 10.3624H75.1302C75.4754 10.3933 75.7666 10.5148 75.9961 10.698C76.3529 10.9815 76.5516 11.4174 76.5516 11.8957L76.567 27.8013C76.567 28.3046 76.9739 28.7115 77.4734 28.7115H81.5737C82.0579 28.7115 82.4513 28.3258 82.4745 27.8456L82.4725 11.8745C82.4706 11.3499 82.7137 10.8755 83.1399 10.5939C83.3501 10.4588 83.6028 10.3682 83.8939 10.3412H84.65C85.5372 10.4184 86.0733 11.0915 86.0714 11.8745L86.0868 27.7589C86.0868 28.2622 86.4938 28.6672 86.9932 28.6672H91.0936C91.5931 28.6672 92 28.2622 92 27.7589V10.6749C92 9.50996 91.8689 9.01432 91.6896 8.50517ZM63.9313 4.63839H61.5862V0.827381C61.5861 0.370282 61.2158 0 60.7587 0C60.7047 0 60.6527 0.00765385 60.6025 0.0173305C58.0027 0.730942 58.5234 4.33175 53.777 4.63839H53.3161C53.2466 4.63839 53.1811 4.64802 53.1174 4.66152H53.1136L53.1174 4.66343C52.7124 4.75413 52.4077 5.11282 52.4077 5.54488V9.64516C52.4077 10.1447 52.8146 10.5516 53.3161 10.5516H55.7906L55.7867 27.9384C55.7867 28.434 56.1878 28.8352 56.6835 28.8352H60.7375C61.2312 28.8352 61.6325 28.434 61.6325 27.9384L61.6343 10.5516H63.9313C64.4309 10.5516 64.8378 10.1447 64.8378 9.64516V5.54488C64.8378 5.04536 64.4309 4.63839 63.9313 4.63839Z" fill="#00BAF2"/>
<path d="M49.1789 4.63841H45.0787C44.5792 4.63841 44.1741 5.04538 44.1741 5.54485V14.0232C44.1645 14.5478 43.7402 14.9683 43.2136 14.9683H41.4972C40.9648 14.9683 40.5348 14.5401 40.5348 14.0078L40.5193 5.5449C40.5193 5.04538 40.1124 4.63847 39.6129 4.63847H35.5126C35.0111 4.63847 34.6061 5.04538 34.6061 5.5449V14.8371C34.6061 18.3665 37.123 20.8834 40.6543 20.8834C40.6543 20.8834 43.3043 20.8834 43.3853 20.8988C43.8636 20.9529 44.2358 21.354 44.2358 21.8477C44.2358 22.3357 43.8713 22.7349 43.3988 22.7947C43.3757 22.7985 43.3545 22.8043 43.3294 22.8082L37.3332 22.8294C36.8318 22.8294 36.4268 23.2363 36.4268 23.7359V27.8343C36.4268 28.3357 36.8318 28.7407 37.3332 28.7407H44.0372C47.5704 28.7407 50.0854 26.2258 50.0854 22.6944V5.5449C50.0854 5.04538 49.6804 4.63841 49.1789 4.63841ZM9.49087 14.6819C9.49087 15.2122 9.06078 15.6443 8.53043 15.6443L5.92867 15.6462V10.5758H8.53043C9.06078 10.5758 9.49087 11.0039 9.49087 11.5362V14.6819ZM9.85153 4.63743H0.889103C0.397289 4.63743 0 5.03669 0 5.52653V9.54393C0 9.55164 0.00191346 9.55934 0.00191346 9.56705C0.00191346 9.58635 0 9.60565 0 9.62298V27.8063C0 28.3 0.370282 28.7031 0.829348 28.7147H5.00671C5.50623 28.7147 5.91314 28.3097 5.91314 27.8082L5.92861 21.5768H9.85148C13.134 21.5768 15.4214 19.299 15.4214 16.003V10.219C15.4214 6.92292 13.134 4.63743 9.85153 4.63743ZM26.5036 22.418C26.5036 22.4701 26.496 22.5203 26.4883 22.5685C26.4786 22.6137 26.4657 22.6582 26.4497 22.7015C26.3223 23.0603 25.9636 23.3206 25.5374 23.3206H23.8306C23.2982 23.3206 22.8643 22.9156 22.8643 22.418V21.6447C22.8643 21.635 22.8624 21.6254 22.8624 21.6157L22.8643 18.9137L22.8662 18.9079C22.8682 18.4122 23.2982 18.0111 23.8306 18.0111H25.5374C26.0716 18.0111 26.5037 18.4142 26.5037 18.9137L26.5036 22.418ZM25.8518 4.66099H20.1623C19.6589 4.66099 19.252 5.04286 19.252 5.5115V7.1065C19.252 7.11613 19.254 7.12772 19.254 7.13734C19.254 7.14893 19.252 7.16046 19.252 7.17205V9.35723C19.252 9.85292 19.684 10.2579 20.2164 10.2579H25.6339C26.062 10.3254 26.4015 10.6379 26.4497 11.1258V11.6543C26.4015 12.1191 26.0659 12.4585 25.657 12.4971H22.9743C19.4063 12.4971 16.8644 14.8674 16.8644 18.1962V22.9639C16.8644 26.2734 19.0495 28.6282 22.5924 28.6282H30.0273C31.3619 28.6282 32.4439 27.6177 32.4439 26.3737V10.8153C32.4439 7.04287 30.4999 4.66099 25.8518 4.66099Z" fill="white"/>
</svg>
