<svg width="79" height="22" viewBox="0 0 79 22" fill="none" xmlns="http://www.w3.org/2000/svg">
<path fill-rule="evenodd" clip-rule="evenodd" d="M67.6855 21.0933L79 10.7719L73.6406 0.0941221L67.6855 21.0933Z" fill="#3BDC80"/>
<path fill-rule="evenodd" clip-rule="evenodd" d="M63.8745 21.0933L75.189 10.7719L69.8296 0.0941221L63.8745 21.0933Z" fill="#FF9F66"/>
<path fill-rule="evenodd" clip-rule="evenodd" d="M9.80312 0.214212L5.03937 17.1796L21.9511 17.2981L26.5963 0.214212H30.8837L25.3141 20.075C25.1008 20.8334 24.2887 21.4496 23.5011 21.4496H1.82403C0.509458 21.4496 -0.269491 20.4226 0.0860127 19.1586L5.39803 0.214212H9.80312ZM62.0875 0.0957109H66.3748L60.4198 21.4496H56.0115L62.0875 0.0957109ZM31.3609 8.99279L52.7985 8.87429L54.2285 4.36571H32.4321L33.742 0.213422L56.9682 0.000119589C58.4139 -0.0133106 59.275 1.10613 58.8943 2.50208L56.7059 10.5001C56.3244 11.8953 54.8415 13.0258 53.3958 13.0258H34.2191L31.9581 21.8051H27.7869L31.3609 8.99279Z" fill="#F0EBEB"/>
</svg>
