<svg width="23" height="28" viewBox="0 0 23 28" fill="none" xmlns="http://www.w3.org/2000/svg">
<path d="M16.1599 26.4489C14.499 27.2305 13.1638 27.5798 11.8313 27.5816C11.8309 27.5816 11.8301 27.5816 11.8297 27.5816H11.8296C11.829 27.5816 11.8285 27.5816 11.8279 27.5816C10.4954 27.5798 9.1604 27.2305 7.49925 26.4489C3.49037 24.563 1 20.9736 1 17.0814C1 15.6356 1.25365 14.2909 1.7547 13.0763C1.71538 13.0619 1.67665 13.0455 1.63898 13.0269C1.13769 12.7803 0.979098 12.2524 1.28459 11.8478C2.35507 10.4298 3.65593 9.26635 5.1135 8.39435C4.85843 7.81308 4.7296 7.20474 4.7296 6.57924C4.72912 3.50285 7.91433 1 11.8294 1C15.7446 1 18.9296 3.50285 18.9296 6.57924C18.9296 7.20569 18.8009 7.81375 18.5461 8.39444C20.0035 9.26644 21.3043 10.4299 22.375 11.8478C22.6805 12.2524 22.5218 12.7803 22.0205 13.0269C21.9827 13.0455 21.9439 13.0619 21.9045 13.0764C22.4055 14.2907 22.6591 15.6354 22.6591 17.0814C22.6591 20.9737 20.1687 24.5631 16.1599 26.4489ZM6.85472 6.57924C6.85472 6.88246 6.89888 7.17977 6.98651 7.46859C8.50501 6.86473 10.1416 6.54607 11.8297 6.54607C13.5176 6.54607 15.1541 6.86473 16.6726 7.46859C16.76 7.17996 16.804 6.88275 16.804 6.57924C16.804 4.44891 14.5725 2.71578 11.8294 2.71578C9.08636 2.71578 6.85472 4.44901 6.85472 6.57924ZM3.53525 12.1966C3.55107 12.2049 3.56654 12.2135 3.58166 12.2224C5.55929 13.3301 8.55957 13.9645 11.8213 13.9645C11.8291 13.9645 11.8369 13.9645 11.8447 13.9645C15.1068 13.9615 18.1056 13.3266 20.0771 12.2224C20.0923 12.2135 20.1079 12.2048 20.1239 12.1965C17.9923 9.68748 15.0057 8.26204 11.8299 8.26204C8.65345 8.26195 5.66675 9.68719 3.53525 12.1966ZM15.0895 24.9667C18.4476 23.3869 20.5335 20.3654 20.5335 17.0814C20.5335 16.0538 20.3895 15.0915 20.1042 14.2083C15.4609 16.1688 8.19821 16.1688 3.55473 14.2083C3.26943 15.0916 3.12536 16.0539 3.12536 17.0814C3.12536 20.3654 5.2114 23.3868 8.56937 24.9667C9.88771 25.587 10.8932 25.8643 11.8294 25.866C12.7658 25.8643 13.7713 25.587 15.0895 24.9667ZM14.3725 17.1244C13.7855 17.1244 13.3097 17.5085 13.3097 17.9823C13.3097 18.4562 13.7855 18.8402 14.3725 18.8402H14.373C14.96 18.8402 15.4355 18.4562 15.4355 17.9823C15.4355 17.5085 14.9595 17.1244 14.3725 17.1244ZM9.28593 17.1248C8.69891 17.1248 8.22313 17.5089 8.22313 17.9827C8.22313 18.4565 8.69891 18.8406 9.28593 18.8406H9.28628C9.8733 18.8406 10.349 18.4565 10.349 17.9827C10.349 17.5089 9.87295 17.1248 9.28593 17.1248Z" fill="#C7C7CC" stroke="#C7C7CC" stroke-width="0.5"/>
</svg>
