<svg width="27" height="27" viewBox="0 0 27 27" fill="none" xmlns="http://www.w3.org/2000/svg">
<path d="M6.09667 16.6348L4.08516 25.3434C4.02287 25.6071 4.04157 25.8834 4.13881 26.1363C4.23606 26.3892 4.40733 26.6069 4.63025 26.761C4.85317 26.9151 5.11739 26.9984 5.38839 27C5.65939 27.0016 5.92458 26.9214 6.14932 26.77L13.5001 21.8705L20.8509 26.77C21.0809 26.9227 21.3521 27.0013 21.628 26.9952C21.904 26.9892 22.1715 26.8988 22.3945 26.7362C22.6175 26.5736 22.7854 26.3466 22.8756 26.0858C22.9658 25.825 22.9739 25.5428 22.8989 25.2772L20.4297 16.6389L26.5533 11.1292C26.7495 10.9527 26.8895 10.7225 26.9562 10.4672C27.0229 10.2119 27.0133 9.94266 26.9285 9.69277C26.8438 9.44288 26.6876 9.2233 26.4794 9.0612C26.2711 8.8991 26.0199 8.80157 25.7568 8.78069L18.0604 8.16791L14.73 0.796977C14.6238 0.559633 14.4511 0.358089 14.2329 0.21667C14.0147 0.0752508 13.7602 0 13.5001 0C13.2401 0 12.9855 0.0752508 12.7673 0.21667C12.5491 0.358089 12.3765 0.559633 12.2703 0.796977L8.93979 8.16791L1.24339 8.77934C0.984806 8.79982 0.737596 8.89435 0.531338 9.05163C0.32508 9.2089 0.168507 9.42225 0.0803517 9.66616C-0.00780356 9.91007 -0.0238087 10.1742 0.0342513 10.427C0.0923113 10.6797 0.221978 10.9104 0.407738 11.0914L6.09667 16.6348ZM9.94824 10.7959C10.1892 10.7769 10.4206 10.6934 10.6183 10.5543C10.8159 10.4151 10.9724 10.2254 11.0715 10.0049L13.5001 4.63159L15.9288 10.0049C16.0278 10.2254 16.1844 10.4151 16.382 10.5543C16.5796 10.6934 16.811 10.7769 17.052 10.7959L22.4142 11.221L17.9983 15.1947C17.6149 15.5402 17.4624 16.072 17.6028 16.5687L19.2943 22.4873L14.2507 19.1251C14.0293 18.9765 13.7688 18.8972 13.5021 18.8972C13.2355 18.8972 12.9749 18.9765 12.7536 19.1251L7.48313 22.6385L8.90064 16.5026C8.95261 16.2769 8.94564 16.0416 8.88038 15.8194C8.81513 15.5972 8.69379 15.3956 8.52804 15.2338L4.42671 11.2359L9.94824 10.7959Z" fill="#F5F5F5"/>
</svg>
