<svg width="31" height="33" viewBox="0 0 31 33" fill="none" xmlns="http://www.w3.org/2000/svg">
<path d="M10.4457 0.0371971C10.2135 0.0694504 9.7493 0.16621 9.414 0.256519C7.7053 0.688713 6.33188 1.49504 5.08743 2.79807C3.88166 4.05595 3.11436 5.50735 2.77262 7.19742C2.70169 7.54575 2.64366 7.84248 2.64366 7.86183C2.64366 7.87473 2.41798 7.9973 2.14717 8.13276C1.77319 8.31338 1.52172 8.5069 1.16063 8.86813C0.599659 9.42934 0.315949 9.92604 0.128959 10.655C0.00644795 11.1388 0 11.4032 0 20.3567C0 29.3102 0.00644795 29.5747 0.128959 30.0585C0.315949 30.7874 0.599659 31.2841 1.16063 31.8389C1.71515 32.4001 2.21165 32.6839 2.94026 32.871C3.42386 32.9935 3.68178 33 11.6063 33C19.5308 33 19.7888 32.9935 20.2723 32.871C21.001 32.6839 21.4975 32.4001 22.0584 31.8389C22.6194 31.2777 22.9482 30.6907 23.1159 29.9488C23.1997 29.5618 23.2191 29.1683 23.1997 27.8008C23.1804 26.1688 23.1739 26.1236 23.0256 25.8849C22.9418 25.7495 22.7548 25.5624 22.613 25.4656C22.3937 25.3173 22.2777 25.2915 21.923 25.2915C21.5684 25.2915 21.4523 25.3173 21.2331 25.4656C21.0912 25.5624 20.9042 25.7495 20.8204 25.8849C20.6721 26.1236 20.6657 26.1817 20.6334 27.8395C20.6012 29.4973 20.5947 29.5554 20.4464 29.794C20.3626 29.9295 20.1756 30.1166 20.0338 30.2133C19.7888 30.3746 19.7178 30.3875 18.9118 30.4068L18.0543 30.4326V29.5683C18.0543 28.0846 17.7576 27.2783 16.8936 26.4203C16.3391 25.8591 15.8426 25.5753 15.114 25.3882C14.6562 25.2657 14.3918 25.2592 11.6063 25.2592C8.82079 25.2592 8.55643 25.2657 8.09862 25.3882C7.37 25.5753 6.87351 25.8591 6.31899 26.4203C5.45496 27.2783 5.15836 28.0846 5.15836 29.5683V30.4326L4.30078 30.4068C3.49479 30.3875 3.42386 30.3746 3.17884 30.2133C3.03698 30.1166 2.84999 29.9295 2.76617 29.794L2.61142 29.5489L2.59208 26.1172L2.57273 22.679L12.4574 22.6661L22.3421 22.6467L22.5872 22.4919C22.7226 22.408 22.9096 22.221 23.0063 22.0791L23.1804 21.8146L23.1997 16.5444C23.2191 10.6614 23.2255 10.7388 22.787 9.84218C22.4582 9.17131 21.7554 8.46819 21.0719 8.13276C20.6076 7.90699 20.569 7.86828 20.5303 7.65541C20.2014 5.62991 19.2923 3.90114 17.8092 2.48199C16.1392 0.882233 14.1855 0.0629997 11.8642 0.00494385C11.3161 -0.00795746 10.6778 0.00494385 10.4457 0.0371971ZM12.6702 2.64971C15.2301 3.10126 17.2998 5.03645 17.8866 7.53285L17.9253 7.71347H11.6063H5.28732L5.326 7.53285C5.41628 7.13936 5.63551 6.5588 5.84184 6.14596C7.11853 3.59151 9.8976 2.16591 12.6702 2.64971ZM20.008 10.4808C20.1434 10.5647 20.3304 10.7517 20.4271 10.8936L20.6012 11.1581L20.6205 15.6284L20.6399 20.0987H11.6063H2.57918V15.7574C2.57918 12.9062 2.60497 11.3387 2.65011 11.1775C2.73393 10.8743 3.14015 10.4485 3.43031 10.3647C3.55927 10.326 6.73166 10.3066 11.703 10.3131L19.763 10.326L20.008 10.4808ZM14.8496 28.0266C14.985 28.1104 15.172 28.2975 15.2687 28.4394C15.4299 28.6845 15.4428 28.7555 15.4622 29.5618L15.488 30.4197H11.6128H7.73754V29.6908C7.73754 29.2973 7.76978 28.8587 7.80847 28.7232C7.89229 28.42 8.29851 27.9943 8.58867 27.9104C8.71763 27.8717 9.98142 27.8524 11.703 27.8588L14.6046 27.8717L14.8496 28.0266Z" fill="#C7C7CC"/>
<path d="M6.01012 12.6888C5.70707 12.7791 5.3073 13.2048 5.22347 13.5209C5.17834 13.6951 5.15899 14.3402 5.17189 15.3529L5.19123 16.9204L5.36533 17.1784C5.6297 17.5784 5.94564 17.7461 6.44858 17.7461C6.95152 17.7461 7.26747 17.5784 7.53184 17.1784L7.70593 16.914V15.2045C7.70593 13.508 7.70593 13.4887 7.55118 13.2435C7.24813 12.7533 6.57754 12.5146 6.01012 12.6888Z" fill="#C7C7CC"/>
<path d="M11.1664 12.6888C10.8633 12.7791 10.4635 13.2048 10.3797 13.5209C10.3346 13.6951 10.3152 14.3402 10.3281 15.3529L10.3475 16.9204L10.5216 17.1784C10.7859 17.5784 11.1019 17.7461 11.6048 17.7461C12.1078 17.7461 12.4237 17.5784 12.6881 17.1784L12.8622 16.914V15.2045C12.8622 13.508 12.8622 13.4887 12.7074 13.2435C12.4044 12.7533 11.7338 12.5146 11.1664 12.6888Z" fill="#C7C7CC"/>
<path d="M16.3265 12.6888C16.0235 12.7791 15.6237 13.2048 15.5399 13.5209C15.4947 13.6951 15.4754 14.3402 15.4883 15.3529L15.5076 16.9204L15.6817 17.1784C15.9461 17.5784 16.2621 17.7461 16.765 17.7461C17.2679 17.7461 17.5839 17.5784 17.8482 17.1784L18.0223 16.914V15.2045C18.0223 13.508 18.0223 13.4887 17.8676 13.2435C17.5645 12.7533 16.8939 12.5146 16.3265 12.6888Z" fill="#C7C7CC"/>
<path d="M26.7467 9.6222C26.1439 9.78263 25.7126 10.0316 25.2426 10.5074C24.7614 10.9831 24.5181 11.4091 24.3578 12.0343C24.1587 12.8143 24.2582 13.6607 24.6453 14.3965C24.9108 14.9055 25.5578 15.5306 26.0554 15.7685L26.4536 15.9566L26.4425 18.9993L26.4315 22.0421L26.2988 22.2523C26.1052 22.5676 25.8343 22.7225 25.3531 22.7889C24.6177 22.894 24.2748 23.2481 24.2748 23.8954C24.2748 24.7639 24.9605 25.1622 26.0389 24.9243C26.6914 24.775 27.1946 24.4984 27.6757 24.0115C28.1568 23.5302 28.4001 23.1042 28.5605 22.4791C28.6656 22.0808 28.6711 21.854 28.6766 19.0049V15.9566L29.0748 15.7685C29.6278 15.5085 30.2361 14.8944 30.5181 14.3246C30.9992 13.3343 30.9881 12.2279 30.4849 11.2653C30.2527 10.8172 29.578 10.1422 29.1301 9.90987C28.4001 9.52815 27.5209 9.42304 26.7467 9.6222ZM28.1734 11.9125C28.4997 12.1283 28.6435 12.4049 28.6435 12.8309C28.6435 13.2624 28.4997 13.5335 28.1568 13.7603C27.8471 13.965 27.3107 13.9761 26.9955 13.7769C26.5753 13.5169 26.3817 13.0024 26.5089 12.51C26.5863 12.2279 26.9236 11.8628 27.1891 11.7853C27.4822 11.6968 27.9356 11.7521 28.1734 11.9125Z" fill="#C7C7CC"/>
</svg>
