<svg width="13" height="21" viewBox="0 0 13 21" fill="none" xmlns="http://www.w3.org/2000/svg">
<path fill-rule="evenodd" clip-rule="evenodd" d="M20.5523 0C21.5522 0 22.3791 0.568757 22.9845 1.16635C23.6149 1.78621 24.1928 2.61969 24.7065 3.53835C25.7379 5.38092 26.6356 7.78831 27.2293 10.1669C27.819 12.5271 28.1453 14.9921 27.9369 16.9304C27.7272 18.8765 26.7247 20.968 24.4838 20.968C22.5495 20.968 21.0083 19.972 19.7476 18.9616L19.2876 18.5829L18.6429 18.039L18.061 17.5568C16.7256 16.4756 15.5396 15.726 13.9997 15.726C12.4599 15.726 11.2739 16.4756 9.9385 17.5568L9.35664 18.039L8.71187 18.5829L8.2532 18.9616C6.98987 19.972 5.44872 20.968 3.51574 20.968C1.27347 20.968 0.270934 18.8765 0.0625647 16.9304C-0.144494 14.9908 0.18051 12.5271 0.770235 10.1656C1.36389 7.78831 2.26159 5.38223 3.29295 3.53704C3.80667 2.61969 4.3846 1.78621 5.01495 1.16504C5.6204 0.568757 6.44733 0 7.44724 0C8.12215 0 8.78133 0.161192 9.43003 0.353835L10.2058 0.591036C10.3356 0.630351 10.464 0.669666 10.5924 0.70505C11.726 1.03005 12.8858 1.3105 13.9997 1.3105C15.1137 1.3105 16.2735 1.03005 17.407 0.70505L18.5668 0.355146C19.2195 0.162502 19.8839 0 20.5523 0ZM20.5523 2.621C20.0503 2.621 19.5261 2.77302 19.0177 2.93945L18.4174 3.13734C18.3214 3.16858 18.2248 3.19829 18.1278 3.22645C16.968 3.5567 15.5068 3.9315 13.9997 3.9315C12.4927 3.9315 11.0315 3.5567 9.87167 3.22645L9.58336 3.13734L8.98184 2.93945C8.47336 2.77171 7.94916 2.621 7.44724 2.621C6.89945 2.72322 6.40801 3.38765 6.03714 4.00358L5.83008 4.36397L5.58109 4.8174C4.68732 6.41359 3.86433 8.59165 3.31392 10.8012C2.79627 12.8678 2.54465 14.8467 2.64032 16.3197L2.67439 16.7036L2.7006 16.9343L2.73992 17.2069C2.83034 17.7324 3.02561 18.347 3.51574 18.347C4.57986 18.347 5.46838 17.8176 6.57314 16.9395L7.10127 16.5097L8.09725 15.6762L8.54806 15.3093C9.94243 14.2045 11.6867 13.105 13.9997 13.105C16.3128 13.105 18.0571 14.2058 19.4514 15.3093L19.9036 15.6762L20.8995 16.5097L21.4264 16.9395C22.5311 17.8176 23.4183 18.347 24.4838 18.347C24.9293 18.347 25.1311 17.8399 25.232 17.3523L25.2818 17.0667L25.3303 16.6512C25.4915 15.1494 25.2425 13.0277 24.6869 10.8025C24.181 8.77643 23.4471 6.7766 22.6399 5.22759L22.1694 4.36266L21.9624 4.00489C21.5915 3.38765 21.1 2.72322 20.5523 2.621ZM9.41299 5.242C10.2819 5.242 11.1152 5.58718 11.7297 6.2016C12.3441 6.81601 12.6892 7.64934 12.6892 8.51826C12.6892 9.38717 12.3441 10.2205 11.7297 10.8349C11.1152 11.4493 10.2819 11.7945 9.41299 11.7945C8.54408 11.7945 7.71075 11.4493 7.09633 10.8349C6.48191 10.2205 6.13674 9.38717 6.13674 8.51826C6.13674 7.64934 6.48191 6.81601 7.09633 6.2016C7.71075 5.58718 8.54408 5.242 9.41299 5.242ZM18.5865 5.242C18.9075 5.24205 19.2173 5.35989 19.4572 5.57319C19.697 5.78648 19.8503 6.0804 19.8878 6.39918L19.897 6.55251V7.20776H20.5523C20.8863 7.20813 21.2075 7.33603 21.4504 7.56532C21.6933 7.79462 21.8395 8.10801 21.859 8.44146C21.8786 8.7749 21.7701 9.10324 21.5557 9.35938C21.3414 9.61552 21.0373 9.78014 20.7056 9.81959L20.5523 9.82876H19.897V10.484C19.8966 10.818 19.7687 11.1393 19.5394 11.3822C19.3101 11.6251 18.9967 11.7712 18.6633 11.7908C18.3299 11.8104 18.0015 11.7019 17.7454 11.4875C17.4892 11.2731 17.3246 10.969 17.2852 10.6373L17.276 10.484V9.82876H16.6207C16.2867 9.82839 15.9655 9.70049 15.7226 9.47119C15.4797 9.24189 15.3335 8.92851 15.314 8.59506C15.2944 8.26161 15.4029 7.93328 15.6173 7.67714C15.8316 7.42099 16.1357 7.25638 16.4674 7.21693L16.6207 7.20776H17.276V6.55251C17.276 6.20494 17.4141 5.87161 17.6598 5.62584C17.9056 5.38008 18.2389 5.242 18.5865 5.242ZM9.41299 7.86301C9.23921 7.86301 9.07254 7.93204 8.94966 8.05492C8.82677 8.17781 8.75774 8.34447 8.75774 8.51826C8.75774 8.69204 8.82677 8.85871 8.94966 8.98159C9.07254 9.10447 9.23921 9.17351 9.41299 9.17351C9.58677 9.17351 9.75344 9.10447 9.87632 8.98159C9.99921 8.85871 10.0682 8.69204 10.0682 8.51826C10.0682 8.34447 9.99921 8.17781 9.87632 8.05492C9.75344 7.93204 9.58677 7.86301 9.41299 7.86301Z" fill="#CCCCCC"/>
</svg>
