<svg width="30" height="34" viewBox="0 0 30 34" fill="none" xmlns="http://www.w3.org/2000/svg">
<path d="M13.3745 1.06255C10.9851 1.43784 9.10864 2.11337 7.41982 3.20172C0.0140343 7.99296 -1.24945 18.2385 4.75524 24.681C5.24312 25.1939 6.03124 25.907 6.50661 26.2697L7.36978 26.9077L6.85688 27.8585C6.58167 28.3714 6.05625 29.3221 5.70598 29.9601L5.05547 31.1235H2.32834H1.60121L1.30098 31.4363C0.900664 31.8241 0.900664 32.2995 1.30098 32.6873L1.60121 33H15.0007H28.4003L28.7005 32.6873C29.1008 32.2995 29.1008 31.8241 28.7005 31.4363L28.4003 31.1235H27.6731H24.946L24.2955 29.9601C23.9452 29.3221 23.4198 28.3714 23.1446 27.8585L22.6317 26.9077L23.4949 26.2697C28.774 22.3417 30.5504 14.8858 27.6356 8.90618C25.2588 4.00234 20.2674 0.91243 14.8756 0.987488C14.2251 0.999996 13.5496 1.03753 13.3745 1.06255ZM17.903 3.21423C22.2189 4.34011 25.3964 7.405 26.7224 11.6959C27.0351 12.7217 27.0602 12.9593 27.0602 15.0485C27.0602 17.1376 27.0351 17.3753 26.7224 18.4011C25.9468 20.903 24.5582 23.0047 22.6442 24.5184C22.1438 24.9187 21.706 25.2439 21.6935 25.2189C21.6685 25.1939 20.6427 23.3299 19.4042 21.0782L17.1399 16.975L17.4527 16.387C17.7279 15.8866 17.7654 15.674 17.7279 14.8984C17.6778 13.76 17.265 13.097 16.2642 12.584C15.376 12.1212 14.6254 12.1212 13.7373 12.584C12.7365 13.097 12.3237 13.76 12.2736 14.8984C12.2361 15.674 12.2736 15.8866 12.5488 16.387L12.8616 16.975L10.5973 21.0782C9.35884 23.3299 8.33303 25.1939 8.30801 25.2189C8.2955 25.2439 7.85766 24.9187 7.35727 24.5184C5.44328 23.0047 4.05469 20.903 3.27908 18.4011C2.96634 17.3753 2.94132 17.1376 2.94132 15.0485C2.94132 12.9593 2.96634 12.7217 3.27908 11.6959C4.68018 7.1423 8.25797 3.91478 12.8491 3.03909C14.1626 2.7889 16.627 2.87646 17.903 3.21423ZM15.6012 14.3604C16.1892 14.9109 15.7889 15.9867 15.0007 15.9867C14.5254 15.9867 14.1251 15.5614 14.1251 15.0485C14.1251 14.5356 14.5254 14.1102 15.0007 14.1102C15.1759 14.1102 15.4511 14.2228 15.6012 14.3604ZM17.7654 21.9914C18.9914 24.2306 20.0047 26.0946 20.0047 26.1321C20.0047 26.2697 18.0406 26.8827 17.0523 27.0579C15.1008 27.4081 12.8616 27.2205 10.9726 26.545C10.4722 26.3573 10.0344 26.1947 10.0093 26.1697C9.98432 26.1446 10.3346 25.4691 10.7724 24.656C11.2228 23.8428 12.2486 21.9789 13.0617 20.5152L14.5254 17.8507L15.0258 17.8882L15.5136 17.9257L17.7654 21.9914ZM10.4972 28.3589C13.3244 29.3471 16.6771 29.3471 19.5043 28.3589C20.0922 28.1587 20.6552 27.9586 20.7677 27.921C20.9679 27.846 21.5934 28.8092 22.4941 30.5856L22.7568 31.1235H14.9882H7.21966L7.82013 30.0227C8.90848 28.0211 9.02107 27.846 9.23374 27.921C9.34632 27.9586 9.90926 28.1587 10.4972 28.3589Z" fill="#C7C7CC" stroke="#C7C7CC" stroke-width="0.4"/>
<path d="M15.371 6.42989C15.0547 6.58803 14.7664 6.83919 14.5896 7.09035C14.3292 7.45314 14.3105 7.55547 14.3105 8.26245C14.3105 8.96942 14.3292 9.07175 14.5896 9.43454C14.9617 9.95547 15.7059 10.3555 16.3105 10.3555C16.9152 10.3555 17.6594 9.95547 18.0315 9.43454C18.2919 9.07175 18.3105 8.96942 18.3105 8.26245C18.3105 7.55547 18.2919 7.45314 18.0315 7.09035C17.6594 6.56942 16.9152 6.16942 16.3105 6.16942C16.0036 6.16942 15.7152 6.25314 15.371 6.42989ZM16.7571 7.75082C17.1943 8.16012 16.8966 8.96012 16.3105 8.96012C15.9571 8.96012 15.6594 8.64384 15.6594 8.26245C15.6594 7.88105 15.9571 7.56477 16.3105 7.56477C16.4408 7.56477 16.6454 7.64849 16.7571 7.75082Z" fill="#C7C7CC" stroke="#C7C7CC" stroke-width="0.4"/>
<path d="M9.4949 7.81578C8.83188 8.50382 8.39404 9.10429 8.00623 9.82985C7.36823 11.0808 7.3182 11.5312 7.79357 11.944C8.45659 12.5069 8.91945 12.2442 9.55745 10.9057C9.84517 10.3052 10.2955 9.66723 10.7959 9.12931C11.2338 8.66644 11.6216 8.16605 11.6716 8.02845C11.8342 7.49053 11.2838 6.85253 10.6458 6.85253C10.5332 6.85253 10.0203 7.29037 9.4949 7.81578Z" fill="#C7C7CC" stroke="#C7C7CC" stroke-width="0.4"/>
<path d="M21.4261 11.3498C21.0008 11.5624 20.613 11.9002 20.3753 12.238C20.025 12.7259 20 12.8635 20 13.8142C20 14.765 20.025 14.9026 20.3753 15.3904C20.8757 16.091 21.8765 16.6289 22.6896 16.6289C23.5027 16.6289 24.5035 16.091 25.0039 15.3904C25.3542 14.9026 25.3792 14.765 25.3792 13.8142C25.3792 12.8635 25.3542 12.7259 25.0039 12.238C24.5035 11.5374 23.5027 10.9995 22.6896 10.9995C22.2768 10.9995 21.889 11.1121 21.4261 11.3498ZM23.2901 13.1262C23.878 13.6766 23.4777 14.7524 22.6896 14.7524C22.2142 14.7524 21.8139 14.3271 21.8139 13.8142C21.8139 13.3013 22.2142 12.876 22.6896 12.876C22.8647 12.876 23.14 12.9886 23.2901 13.1262Z" fill="#C7C7CC"/>
<path d="M5.86515 16.4377C5.54887 16.5958 5.2605 16.847 5.08376 17.0982C4.82329 17.461 4.80469 17.5633 4.80469 18.2703C4.80469 18.9772 4.82329 19.0796 5.08376 19.4424C5.45585 19.9633 6.20004 20.3633 6.80469 20.3633C7.40934 20.3633 8.15352 19.9633 8.52562 19.4424C8.78608 19.0796 8.80469 18.9772 8.80469 18.2703C8.80469 17.5633 8.78608 17.461 8.52562 17.0982C8.15352 16.5772 7.40934 16.1772 6.80469 16.1772C6.49771 16.1772 6.20934 16.261 5.86515 16.4377ZM7.2512 17.7586C7.68841 18.1679 7.39073 18.9679 6.80469 18.9679C6.4512 18.9679 6.15352 18.6517 6.15352 18.2703C6.15352 17.8889 6.4512 17.5726 6.80469 17.5726C6.93492 17.5726 7.13957 17.6563 7.2512 17.7586Z" fill="#C7C7CC" stroke="#C7C7CC" stroke-width="0.4"/>
</svg>
