<svg width="27" height="24" viewBox="0 0 27 24" fill="none" xmlns="http://www.w3.org/2000/svg">
<path d="M9.33341 5.33338H17.3335V22.6668H9.33341V5.33338Z" fill="#F5F5F5"/>
<path d="M17.0668 2.15049L26.0015 17.0319C27.2855 19.1693 26.6549 21.9813 24.5922 23.312C23.8999 23.7603 23.0929 23.9992 22.2682 24H4.39737C1.96935 24 0 21.96 0 19.4413C0 18.5893 0.230669 17.7559 0.664005 17.0319L9.60008 2.15049C10.8828 0.0131446 13.5948 -0.641527 15.6575 0.68915C16.2281 1.05715 16.7108 1.55716 17.0668 2.15049ZM13.3334 18.6666C13.6871 18.6666 14.0262 18.5261 14.2763 18.2761C14.5263 18.026 14.6668 17.6869 14.6668 17.3333C14.6668 16.9797 14.5263 16.6405 14.2763 16.3905C14.0262 16.1404 13.6871 15.9999 13.3334 15.9999C12.9798 15.9999 12.6407 16.1404 12.3906 16.3905C12.1406 16.6405 12.0001 16.9797 12.0001 17.3333C12.0001 17.6869 12.1406 18.026 12.3906 18.2761C12.6407 18.5261 12.9798 18.6666 13.3334 18.6666ZM13.3334 6.66653C12.9798 6.66653 12.6407 6.80701 12.3906 7.05706C12.1406 7.30711 12.0001 7.64625 12.0001 7.99987V13.3332C12.0001 13.6869 12.1406 14.026 12.3906 14.2761C12.6407 14.5261 12.9798 14.6666 13.3334 14.6666C13.6871 14.6666 14.0262 14.5261 14.2763 14.2761C14.5263 14.026 14.6668 13.6869 14.6668 13.3332V7.99987C14.6668 7.64625 14.5263 7.30711 14.2763 7.05706C14.0262 6.80701 13.6871 6.66653 13.3334 6.66653Z" fill="#C71B4A"/>
</svg>
