<svg width="76" height="34" viewBox="0 0 76 34" fill="none" xmlns="http://www.w3.org/2000/svg">
<path d="M71 7L76 10H71V7Z" fill="#08C78D" fill-opacity="0.63"/>
<path d="M14.5732 10.4375H75.6875L72.7304 23.5625H6.6875L14.5732 10.4375Z" fill="#08C78D"/>
<path d="M22.3974 20.7L23.9574 12.9H25.8774L24.3174 20.7H22.3974ZM26.5922 20.7L28.1522 12.9H30.0002L31.0802 16.596L31.4642 18.348H31.5122C31.5522 17.924 31.5882 17.444 31.6202 16.908C31.6602 16.364 31.7282 15.86 31.8242 15.396L32.3282 12.9H34.1522L32.5922 20.7H30.7442L29.6642 17.004L29.3042 15.252H29.2562C29.2242 15.692 29.1842 16.172 29.1362 16.692C29.0882 17.212 29.0162 17.708 28.9202 18.18L28.4162 20.7H26.5922ZM37.4684 20.844C36.9724 20.844 36.4724 20.732 35.9684 20.508C35.4724 20.276 35.0204 19.888 34.6124 19.344L35.9804 18.264C36.1884 18.544 36.4364 18.772 36.7244 18.948C37.0204 19.124 37.3164 19.212 37.6124 19.212C37.8924 19.212 38.1124 19.152 38.2724 19.032C38.4404 18.912 38.5244 18.744 38.5244 18.528C38.5244 18.352 38.4444 18.212 38.2844 18.108C38.1244 17.996 37.9084 17.856 37.6364 17.688L36.9644 17.268C36.6044 17.036 36.3204 16.768 36.1124 16.464C35.9124 16.16 35.8124 15.764 35.8124 15.276C35.8124 14.804 35.9404 14.38 36.1964 14.004C36.4524 13.62 36.7964 13.316 37.2284 13.092C37.6684 12.868 38.1524 12.756 38.6804 12.756C39.1364 12.756 39.5724 12.864 39.9884 13.08C40.4124 13.296 40.7844 13.592 41.1044 13.968L39.9044 15.096C39.7044 14.896 39.5004 14.732 39.2924 14.604C39.0924 14.476 38.8644 14.412 38.6084 14.412C38.3364 14.412 38.1284 14.48 37.9844 14.616C37.8484 14.744 37.7804 14.9 37.7804 15.084C37.7804 15.244 37.8604 15.38 38.0204 15.492C38.1884 15.596 38.4284 15.748 38.7404 15.948L39.4604 16.392C39.8364 16.616 40.1044 16.868 40.2644 17.148C40.4324 17.428 40.5164 17.796 40.5164 18.252C40.5164 18.724 40.3924 19.16 40.1444 19.56C39.8964 19.952 39.5444 20.264 39.0884 20.496C38.6324 20.728 38.0924 20.844 37.4684 20.844ZM42.8661 20.7L44.0901 14.508H42.1221L42.4341 12.9H48.2901L47.9781 14.508H46.0101L44.7861 20.7H42.8661ZM50.5997 16.572L50.1917 17.484H51.6317L51.6077 16.572C51.5997 16.196 51.5877 15.828 51.5717 15.468C51.5637 15.108 51.5597 14.732 51.5597 14.34H51.5117C51.3597 14.724 51.2117 15.1 51.0677 15.468C50.9237 15.828 50.7677 16.196 50.5997 16.572ZM46.6157 20.7L50.6957 12.9H52.9997L53.7437 20.7H51.7277L51.6797 18.924H49.5317L48.7277 20.7H46.6157ZM54.938 20.7L56.498 12.9H58.346L59.426 16.596L59.81 18.348H59.858C59.898 17.924 59.934 17.444 59.966 16.908C60.006 16.364 60.074 15.86 60.17 15.396L60.674 12.9H62.498L60.938 20.7H59.09L58.01 17.004L57.65 15.252H57.602C57.57 15.692 57.53 16.172 57.482 16.692C57.434 17.212 57.362 17.708 57.266 18.18L56.762 20.7H54.938ZM64.6381 20.7L65.8621 14.508H63.8941L64.2061 12.9H70.0621L69.7501 14.508H67.7821L66.5581 20.7H64.6381Z" fill="#24243A"/>
<path d="M15.126 2.12832C15.2728 2.2347 15.3864 2.40016 15.4483 2.59768C15.5101 2.79519 15.5166 3.01309 15.4665 3.21576L12.7652 14.1876H17.7494C17.8959 14.1876 18.0392 14.2411 18.1616 14.3417C18.284 14.4422 18.3801 14.5854 18.4382 14.7535C18.4963 14.9216 18.5137 15.1072 18.4883 15.2875C18.4629 15.4679 18.3958 15.6349 18.2954 15.7682L6.29605 31.7048C6.17995 31.8591 6.02545 31.9597 5.85774 31.9902C5.69003 32.0207 5.51899 31.9793 5.37251 31.8728C5.22603 31.7662 5.11274 31.6008 5.05111 31.4035C4.98948 31.2061 4.98314 30.9885 5.03313 30.7861L7.73447 19.8123H2.75026C2.60378 19.8124 2.4605 19.7588 2.33809 19.6583C2.21568 19.5577 2.11951 19.4146 2.06144 19.2465C2.00338 19.0784 1.98596 18.8927 2.01135 18.7124C2.03673 18.5321 2.10381 18.365 2.20429 18.2318L14.2036 2.29519C14.3196 2.14107 14.4738 2.04052 14.6413 2.00988C14.8088 1.97925 14.9796 2.02033 15.126 2.12645V2.12832Z" fill="#08C78D" stroke="#24243A" stroke-width="3"/>
</svg>
