<svg width="28" height="32" viewBox="0 0 28 32" fill="none" xmlns="http://www.w3.org/2000/svg">
<path fill-rule="evenodd" clip-rule="evenodd" d="M10.7547 1.15755C9.37132 1.65395 8.49126 2.80924 8.32937 4.34152L8.24521 5.13731L6.85031 4.62503C6.083 4.34327 5.23573 4.08264 4.9674 4.04587C4.23312 3.94514 3.39625 4.26822 2.8465 4.86465C2.39643 5.35301 2.22147 5.75125 1.28667 8.41641C0.738092 9.98067 0.135004 9.61826 8.14273 12.5374L14.9989 15.0368L8.31443 15.0952L1.62982 15.1535L1.40677 15.4291C1.19306 15.6931 1.18384 15.9779 1.18629 22.2572C1.18863 28.344 1.20392 28.8428 1.40152 29.2765C1.67488 29.8769 2.44405 30.5688 3.01376 30.7271C3.31069 30.8095 6.52466 30.8512 12.6285 30.8515L21.7971 30.8522L22.4143 30.5447C23.1572 30.1744 23.6457 29.5467 23.8188 28.7396C23.8965 28.377 23.9439 26.2988 23.9439 23.2461V18.3361L24.2065 18.4108C25.3544 18.7377 25.4827 18.6071 26.3368 16.2403C27.2318 13.7605 27.2243 13.0228 26.2941 12.0209C25.8996 11.5959 25.6115 11.4496 24.0868 10.8995C23.3984 10.6511 22.7427 10.411 22.63 10.366C22.4478 10.2932 22.4659 10.2373 22.7927 9.86512C23.3819 9.19399 23.6384 8.49846 23.6403 7.56681C23.6442 5.6434 22.2673 4.16994 20.3423 4.03723C19.1675 3.95623 18.5427 4.24184 17.0627 5.53625C15.6499 6.77207 15.7694 6.82156 15.4846 4.88228C15.1928 2.89432 14.6614 2.00061 13.3863 1.3534C12.6345 0.971731 11.5063 0.887811 10.7547 1.15755ZM12.8325 3.03836C13.4369 3.48959 13.5595 3.79119 13.8117 5.44638C13.9458 6.32714 14.0228 7.08045 13.9829 7.12048C13.845 7.25832 10.9536 6.11833 10.6126 5.79187C9.72264 4.93912 10.0105 3.40088 11.1573 2.88078C11.617 2.67244 12.447 2.75053 12.8325 3.03836ZM8.59117 7.11838C10.6478 7.86678 12.3444 8.48912 12.3614 8.5015C12.3786 8.51375 12.1249 9.25842 11.798 10.1565L11.2036 11.789L7.21494 10.3405C5.02121 9.5438 3.18172 8.84862 3.12721 8.79551C3.0727 8.74252 3.22327 8.15554 3.46184 7.49106C3.89195 6.29306 4.2616 5.75767 4.65844 5.75767C4.76489 5.75767 6.53458 6.36998 8.59117 7.11838ZM20.8309 5.91687C21.3548 6.13584 21.8054 6.70718 21.9012 7.2742C22.0802 8.33412 20.9965 9.48742 19.9755 9.32366C19.5539 9.25608 16.7657 8.26853 16.7657 8.18682C16.7657 8.08714 18.8914 6.24089 19.2751 6.00722C19.7459 5.72067 20.2862 5.68927 20.8309 5.91687ZM14.926 9.42626C15.2622 9.53679 15.5634 9.66927 15.595 9.72051C15.6267 9.77186 15.4157 10.4638 15.1261 11.2582C14.8366 12.0526 14.5765 12.7683 14.5481 12.8487C14.51 12.9574 14.2952 12.9191 13.7117 12.6994C13.28 12.5369 12.9123 12.3895 12.8947 12.3719C12.8668 12.3441 13.1583 11.517 13.8604 9.63087C13.9636 9.35389 14.108 9.14929 14.1813 9.17625C14.2546 9.20321 14.5897 9.31573 14.926 9.42626ZM21.201 11.7085C23.1911 12.431 24.8904 13.0792 24.9773 13.1492C25.3676 13.4634 25.3494 13.7823 24.8627 15.1538C24.6008 15.8919 24.3263 16.4953 24.2527 16.4949C24.1792 16.4943 22.3332 15.8404 20.1505 15.0416C17.4842 14.0658 16.1933 13.5397 16.2162 13.4378C16.3618 12.7906 17.3585 10.3105 17.4578 10.348C17.5266 10.3739 19.2109 10.9861 21.201 11.7085ZM9.93764 22.9737V29.1014H6.72262H3.50748L3.22105 28.8149L2.93451 28.5285V22.6872V16.846H6.43607H9.93764V22.9737ZM13.4392 22.9737V29.1014H12.5638H11.6884V22.9737V16.846H12.5638H13.4392V22.9737ZM21.0843 17.2442L22.1348 17.6297L22.1672 22.8696C22.1849 25.7514 22.1705 28.2288 22.135 28.3749C22.0995 28.521 21.9668 28.7442 21.84 28.8709C21.6217 29.0893 21.4402 29.1014 18.3998 29.1014H15.19V22.9737V16.846L17.6119 16.8523L20.0338 16.8586L21.0843 17.2442Z" fill="#F5F5F5" stroke="#F5F5F5" stroke-width="0.8"/>
</svg>
