<svg width="36" height="36" viewBox="0 0 36 36" fill="none" xmlns="http://www.w3.org/2000/svg">
<path fill-rule="evenodd" clip-rule="evenodd" d="M24.9244 2.14015C22.8511 2.81572 21.1631 4.52208 20.5414 6.57098C20.3131 7.3235 20.3054 9.1018 20.5268 9.92966C20.7675 10.829 21.2962 11.8099 21.8841 12.4477L22.3936 13.0004L21.7822 13.2699C21.4461 13.4181 20.828 13.7472 20.4089 14.0011L19.647 14.463L19.291 13.7832C18.2985 11.8874 15.9566 10.4902 13.781 10.4956C9.71431 10.5055 6.64014 14.2349 7.4596 18.1645C7.65413 19.0971 8.22354 20.2462 8.83619 20.9422C9.12284 21.2679 9.33629 21.5516 9.31059 21.5728C9.2849 21.594 8.83243 21.8165 8.30526 22.0673C5.74962 23.2829 3.5626 25.5819 2.41876 28.2553C2.06193 29.0892 2.00089 29.3781 2.00001 30.2344C1.99926 31.0781 2.05165 31.3365 2.33052 31.8638C2.74614 32.6498 3.45669 33.3414 4.18766 33.6715C4.72987 33.9166 4.99019 33.9265 10.9342 33.9291L17.1168 33.9319L17.4831 33.5655C18.1675 32.8812 17.8469 31.8261 16.8725 31.5555C16.5862 31.476 14.2589 31.4262 10.8063 31.4259L5.2044 31.4251L4.8527 31.1227C4.34395 30.6851 4.37366 30.0033 4.9541 28.793C6.40789 25.7615 9.17335 23.8187 12.6644 23.3763C14.6178 23.1286 16.7494 23.5959 18.5096 24.6575C19.528 25.2716 20.1543 25.3259 20.6385 24.8419C21.1894 24.2909 21.1687 23.6148 20.5832 23.0425C20.372 22.836 19.7269 22.4275 19.1496 22.1348C18.5724 21.8422 18.1002 21.5793 18.1002 21.551C18.1002 21.5225 18.3339 21.2368 18.6196 20.9159C19.2291 20.2314 19.7667 19.1184 19.9741 18.1115C20.1006 17.4979 20.2065 17.3197 20.7071 16.8791C22.1094 15.6447 24.034 14.9028 26.1241 14.7911C28.0352 14.689 29.172 14.9407 31.073 15.8866C31.9005 16.2983 32.6788 16.6352 32.8027 16.6352C33.1826 16.6352 33.7108 16.2953 33.8683 15.9494C34.2686 15.0708 33.7753 14.3976 32.1266 13.5722L31.0115 13.014L31.517 12.4299C32.6253 11.1492 33.0781 9.73952 32.9945 7.82874C32.9463 6.72564 32.9003 6.54628 32.416 5.56902C31.7145 4.15321 30.8297 3.27007 29.4065 2.56467C28.3506 2.04139 28.3124 2.03286 26.8833 2.00404C25.9448 1.98511 25.2531 2.03311 24.9244 2.14015ZM28.0736 4.68752C28.9136 4.97317 30.0129 6.07251 30.2986 6.91252C30.4141 7.25231 30.5086 7.87675 30.5086 8.30026C30.5086 9.45688 30.2062 10.1881 29.3899 11.0043C28.5737 11.8206 27.8424 12.1231 26.6858 12.1231C26.2623 12.1231 25.6379 12.0286 25.2981 11.913C24.4581 11.6274 23.3587 10.528 23.0731 9.68801C22.8045 8.89838 22.8045 7.70215 23.0731 6.91252C23.3464 6.1086 24.4588 4.97342 25.2451 4.69605C25.9972 4.4307 27.3066 4.42669 28.0736 4.68752ZM15.4054 13.4087C16.1519 13.7924 16.8361 14.4821 17.2387 15.2565C17.6538 16.0553 17.653 17.5506 17.2367 18.4811C16.8939 19.2477 16.0673 20.0563 15.2395 20.4352C14.3389 20.8475 12.991 20.8156 12.0638 20.3603C10.6627 19.6723 9.89567 18.4431 9.89567 16.8859C9.89567 15.0942 10.9406 13.6927 12.7106 13.1102C13.3243 12.9083 14.736 13.0646 15.4054 13.4087ZM27.7922 22.1238C27.3764 22.1867 26.9152 22.7247 26.8288 23.2477C26.7861 23.5056 26.7506 24.4077 26.7499 25.2522L26.7485 26.7876H24.9248C22.9278 26.7876 22.5261 26.891 22.2608 27.4735C22.0637 27.9056 22.0718 28.2281 22.2896 28.6495C22.5752 29.2019 22.9548 29.2944 24.937 29.2944H26.7485L26.7499 30.8298C26.7516 32.7664 26.8293 33.2265 27.2205 33.6177C27.6599 34.0571 28.4691 34.0571 28.9086 33.6177C29.2997 33.2265 29.3774 32.7664 29.3792 30.8298L29.3806 29.2944H31.2042C33.2013 29.2944 33.603 29.191 33.8683 28.6085C34.1613 27.9654 33.95 27.2645 33.3732 26.9662C33.1207 26.8356 32.5375 26.7876 31.2042 26.7876H29.3806L29.3792 25.2522C29.3785 24.4077 29.343 23.5056 29.3002 23.2477C29.1729 22.4771 28.546 22.0099 27.7922 22.1238Z" fill="#C7C7CC" stroke="#C7C7CC"/>
</svg>
