<svg width="26" height="34" viewBox="0 0 26 34" fill="none" xmlns="http://www.w3.org/2000/svg">
<path d="M21.1135 1.1256L21.1136 1.12553C21.4711 0.838744 21.8888 0.761239 22.3602 0.877853C22.8064 0.988225 23.304 1.27203 23.8765 1.69487L21.1135 1.1256ZM21.1135 1.1256C21.0777 1.15432 21.0465 1.19095 21.0333 1.20645L21.0325 1.20733C21.0125 1.2308 20.9891 1.25968 20.9635 1.29218C20.9119 1.3576 20.8444 1.44641 20.7638 1.55464C20.602 1.77161 20.382 2.0736 20.1201 2.43797C19.5959 3.16709 18.9004 4.15027 18.16 5.21184L15.6125 8.86428L15.3143 8.78051C15.3143 8.7805 15.3143 8.7805 15.3143 8.78049C14.6717 8.5999 13.9468 8.64151 13.4878 8.98818L13.4877 8.98823M21.1135 1.1256L13.4877 8.98823M13.4877 8.98823C13.4477 9.01848 13.4133 9.05794 13.399 9.07439L13.3981 9.07536C13.3763 9.10036 13.351 9.13112 13.3235 9.16565C13.268 9.23515 13.1957 9.32955 13.1093 9.44457C12.9363 9.67515 12.7014 9.99631 12.422 10.3839C11.8629 11.1595 11.122 12.2059 10.3341 13.3362L10.3341 13.3363M13.4877 8.98823L10.3341 13.3363M10.3341 13.3363L7.65 17.1873L7.41369 17.0608C7.41368 17.0608 7.41367 17.0608 7.41366 17.0608C5.44829 16.0087 2.97344 16.8011 2.06927 18.8029L2.06926 18.803M10.3341 13.3363L2.06926 18.803M2.06926 18.803C1.92407 19.1244 1.81621 19.5493 1.75562 19.9531C1.69562 20.3529 1.67539 20.7753 1.73181 21.0882C1.79627 21.4457 1.97233 21.8577 2.1891 22.2315C2.40698 22.6073 2.6838 22.9752 2.97265 23.2365C2.97266 23.2365 2.97266 23.2365 2.97267 23.2365L3.25148 23.4887L1.92835 25.4178C1.34595 26.2669 0.967906 26.8375 0.740254 27.2257C0.626851 27.4191 0.543469 27.5794 0.490972 27.7134C0.441768 27.839 0.399826 27.9893 0.427381 28.1421C0.459754 28.3216 0.578109 28.5373 0.700909 28.7316C0.833971 28.9421 1.00894 29.1826 1.20331 29.4269C1.59041 29.9133 2.07374 30.4385 2.49104 30.7916L2.49106 30.7916M2.06926 18.803L2.49106 30.7916M2.49106 30.7916C2.88851 31.1279 3.54993 31.5724 3.97853 31.7896L3.9786 31.7896M2.49106 30.7916L3.9786 31.7896M3.9786 31.7896C4.44644 32.0266 5.06715 32.2617 5.61575 32.4292C5.89086 32.5132 6.15437 32.5823 6.37706 32.6263C6.58062 32.6665 6.80515 32.698 6.97045 32.6682C7.07221 32.6498 7.1468 32.5938 7.17686 32.5705C7.21817 32.5385 7.25911 32.4996 7.29836 32.4592C7.37762 32.3775 7.47616 32.2621 7.59608 32.1122C7.83727 31.8108 8.18643 31.3429 8.67802 30.6616C9.66234 29.2975 11.2312 27.0591 13.677 23.5416L13.3896 23.3418M3.9786 31.7896L13.3896 23.3418M13.3896 23.3418L13.677 23.5416C15.3855 21.0842 16.9653 18.7894 18.1342 17.0716C18.7186 16.2129 19.2009 15.4976 19.5453 14.978C19.7175 14.7184 19.856 14.5064 19.956 14.3493C20.0471 14.2062 20.1256 14.0791 20.1554 14.0107C20.3118 13.6511 20.392 13.3125 20.3427 12.9632C20.2937 12.6158 20.1233 12.3059 19.8746 11.9901L19.8746 11.99M13.3896 23.3418L19.8746 11.99M19.8746 11.99L19.6899 11.7556M19.8746 11.99L19.6899 11.7556M19.6899 11.7556L22.272 8.00571L21.9837 7.80722L22.272 8.00571C23.0234 6.91439 23.711 5.89174 24.2136 5.12285C24.4647 4.73873 24.6708 4.41605 24.8161 4.17907C24.8884 4.06102 24.9476 3.9611 24.99 3.88411C25.0111 3.846 25.0303 3.80943 25.0455 3.77694L25.0466 3.77471C25.0557 3.75523 25.0845 3.69424 25.0933 3.62599M19.6899 11.7556L23.8765 1.69488C24.3163 2.01966 24.643 2.31402 24.8478 2.61901C25.0642 2.94119 25.1397 3.26804 25.0933 3.62599M25.0933 3.62599C25.0933 3.62603 25.0933 3.62607 25.0933 3.62612L24.7462 3.58111L25.0933 3.62599ZM17.8475 13.0525L17.8474 13.0525C17.6305 12.7772 17.4743 12.5114 17.3985 12.221C17.3214 11.9258 17.3352 11.636 17.4085 11.3259L17.8475 13.0525ZM17.8475 13.0525L18.0399 13.2966L12.1463 21.7824L6.25145 30.2697L5.87199 30.1509L5.87194 30.1509M17.8475 13.0525L5.87194 30.1509M5.87194 30.1509C5.01023 29.8813 4.13824 29.3173 3.39071 28.5298L2.89118 28.0035L4.15116 26.1859L5.48553 24.2611M5.87194 30.1509L5.48553 24.2611M7.71942 23.59L7.7194 23.59C7.45507 23.7709 7.24631 23.8981 7.00178 23.9882C6.76042 24.0771 6.50203 24.1234 6.14929 24.1711M7.71942 23.59L5.57339 24.1343L5.48553 24.2611M7.71942 23.59C8.36526 23.1479 8.83434 22.5881 9.10371 21.9244C9.37267 21.2617 9.43406 20.5165 9.29857 19.7153L9.17084 18.9599L11.9687 14.9294L14.7091 10.9817L15.1069 11.0837L15.1069 11.0837L7.71942 23.59ZM6.14929 24.1711L6.10235 23.8243L6.14933 24.1711L6.14929 24.1711ZM6.14929 24.1711L5.48553 24.2611M19.4314 6.70188L19.7185 6.90217C18.4668 8.69605 17.7732 9.68118 17.3412 10.2347C16.9098 10.7872 16.6952 10.9707 16.3893 11.0791C16.3892 11.0792 16.3892 11.0792 16.3891 11.0792L16.2722 10.7493L19.4314 6.70188ZM19.4314 6.70188L19.7185 6.90216L22.2359 3.29439L22.3658 3.38167C22.4415 3.43251 22.5119 3.48542 22.5697 3.53324M19.4314 6.70188L22.5697 3.53324M6.25639 18.9953L6.25632 18.9952C6.04066 18.8848 5.72944 18.8332 5.40432 18.8587C5.07824 18.8843 4.78849 18.9834 4.60773 19.1209L4.60769 19.1209C3.63858 19.8576 3.78468 21.3327 4.92932 21.8985L6.25639 18.9953ZM6.25639 18.9953C6.45459 19.0967 6.66537 19.2791 6.83786 19.4989C7.01197 19.7208 7.12236 19.949 7.15417 20.1254C7.20205 20.391 7.12963 20.7683 6.95329 21.1282C6.77523 21.4917 6.53263 21.7539 6.32396 21.8482L6.32392 21.8482M6.25639 18.9953L6.32392 21.8482M6.32392 21.8482C6.17154 21.917 5.88914 21.9689 5.5823 21.977M6.32392 21.8482L5.5823 21.977M22.5697 3.53324C22.5507 3.5637 22.5293 3.59752 22.5056 3.63469C22.3788 3.83367 22.1926 4.11625 21.9603 4.46253C21.4961 5.15448 20.8522 6.09431 20.1408 7.11467C19.4271 8.1384 18.7676 9.11236 18.2798 9.85736C18.0361 10.2296 17.834 10.5466 17.689 10.785C17.6167 10.9039 17.5568 11.0061 17.5125 11.0873C17.4905 11.1277 17.4706 11.166 17.4546 11.2003C17.4414 11.2284 17.4204 11.2753 17.4085 11.3257L22.5697 3.53324ZM5.5823 21.977C5.43424 21.981 5.29254 21.9744 5.17249 21.9583M5.5823 21.977L5.17249 21.9583M5.17249 21.9583C5.04705 21.9415 4.96734 21.9172 4.92935 21.8985L5.17249 21.9583Z" fill="white" stroke="white" stroke-width="0.7"/>
</svg>
