<?xml version="1.0" encoding="UTF-8"?>
<svg width="39px" height="37px" viewBox="0 0 39 37" version="1.1" xmlns="http://www.w3.org/2000/svg" xmlns:xlink="http://www.w3.org/1999/xlink">
    <title>star-icon</title>
    <g id="Page-1" stroke="none" stroke-width="1" fill="none" fill-rule="evenodd">
        <g id="star-icon" transform="translate(1.000000, 1.000000)" fill="#C71B4A" stroke="#C71B4A" stroke-width="2">
            <path d="M35.137511,12.2102031 L24.252111,10.6281031 L19.386111,0.76315307 C19.253211,0.49305307 19.034511,0.27440307 18.764411,0.14149307 C18.087011,-0.19290993 17.263911,0.08576307 16.925211,0.76315307 L12.059111,10.6281031 L1.17378099,12.2102031 C0.873670993,12.2530031 0.599290993,12.3945031 0.389210993,12.6089031 C0.135240993,12.8699031 -0.00470900677,13.2211031 4.4408921e-16,13.5853031 C0.00494099323,13.9494031 0.154140993,14.2968031 0.414930993,14.5510031 L8.29064099,22.2295031 L6.42997099,33.0720031 C6.38633099,33.3242031 6.41424099,33.5836031 6.51053099,33.8208031 C6.60682099,34.0579031 6.76764099,34.2634031 6.97474099,34.4138031 C7.18185099,34.5642031 7.42696099,34.6536031 7.68227099,34.6718031 C7.93759099,34.6900031 8.19290099,34.6363031 8.41926099,34.5168031 L18.155611,29.3978031 L27.892011,34.5168031 C28.157811,34.6583031 28.466511,34.7054031 28.762311,34.6540031 C29.508311,34.5254031 30.009911,33.8180031 29.881311,33.0720031 L28.020611,22.2295031 L35.896311,14.5510031 C36.110711,14.3409031 36.252211,14.0665031 36.295011,13.7664031 C36.410811,13.0162031 35.887711,12.3216031 35.137511,12.2102031 L35.137511,12.2102031 Z" id="Path"></path>
        </g>
    </g>
</svg>