<svg width="36" height="36" viewBox="0 0 36 36" fill="none" xmlns="http://www.w3.org/2000/svg">
<path d="M8.56865 10.5114C8.56871 10.052 8.73735 9.60866 9.04259 9.2654C9.34782 8.92214 9.76842 8.70284 10.2246 8.6491L10.444 8.63597L28.4871 8.63597L25.0589 5.20777C24.719 4.87106 24.5206 4.41716 24.5044 3.93898C24.4882 3.4608 24.6553 2.9945 24.9716 2.63553C25.2879 2.27655 25.7295 2.05205 26.2059 2.00798C26.6824 1.9639 27.1576 2.10359 27.5344 2.39844L27.7107 2.55597L34.3421 9.18546C34.6649 9.50838 34.8589 9.93804 34.8876 10.3938C34.9162 10.8496 34.7776 11.3001 34.4977 11.661L34.3421 11.8372L27.7107 18.4686C27.3732 18.805 26.9203 19.0002 26.4441 19.0148C25.9678 19.0293 25.5039 18.862 25.1465 18.5469C24.7891 18.2318 24.5651 17.7924 24.5199 17.3181C24.4747 16.8438 24.6118 16.37 24.9032 15.9931L25.0589 15.8149L28.4852 12.3867L10.444 12.3867C9.94665 12.3867 9.46964 12.1892 9.11794 11.8375C8.76623 11.4857 8.56865 11.0087 8.56865 10.5114V10.5114ZM1.54909 24.1885L8.18044 17.559C8.35344 17.3799 8.56038 17.2371 8.78919 17.1388C9.01799 17.0405 9.26408 16.9887 9.51309 16.9866C9.7621 16.9844 10.0091 17.0319 10.2395 17.1262C10.47 17.2205 10.6794 17.3597 10.8555 17.5358C11.0316 17.7119 11.1708 17.9213 11.2651 18.1518C11.3594 18.3822 11.4069 18.6292 11.4047 18.8782C11.4025 19.1272 11.3508 19.3733 11.2525 19.6021C11.1542 19.8309 11.0114 20.0378 10.8322 20.2108L7.40404 23.639L25.4452 23.639C25.9426 23.639 26.4196 23.8366 26.7713 24.1883C27.123 24.54 27.3206 25.017 27.3206 25.5144C27.3206 26.0118 27.123 26.4888 26.7713 26.8405C26.4196 27.1922 25.9426 27.3898 25.4452 27.3898L7.40591 27.3898L10.8322 30.8218C11.1739 31.1755 11.3629 31.6492 11.3586 32.1409C11.3543 32.6326 11.1571 33.103 10.8094 33.4507C10.4617 33.7984 9.99131 33.9957 9.49959 33.9999C9.00787 34.0042 8.53415 33.8152 8.18045 33.4736L1.54909 26.8422C1.19751 26.4905 1 26.0136 1 25.5163C1 25.019 1.19751 24.5421 1.54909 24.1904L1.54909 24.1885Z" fill="#C7C7CC"/>
</svg>
