<svg width="30" height="30" viewBox="0 0 30 30" fill="none" xmlns="http://www.w3.org/2000/svg">
<circle cx="15" cy="15" r="14" stroke="#F5F5F5" stroke-width="2"/>
<path d="M15 8C14.0717 8 13.1815 8.36875 12.5251 9.02513C11.8687 9.6815 11.5 10.5717 11.5 11.5C11.5 12.4283 11.8687 13.3185 12.5251 13.9749C13.1815 14.6313 14.0717 15 15 15C15.9283 15 16.8185 14.6313 17.4749 13.9749C18.1313 13.3185 18.5 12.4283 18.5 11.5C18.5 10.5717 18.1313 9.6815 17.4749 9.02513C16.8185 8.36875 15.9283 8 15 8ZM15 9.6625C15.2413 9.6625 15.4802 9.71003 15.7032 9.80237C15.9261 9.89471 16.1287 10.0301 16.2993 10.2007C16.4699 10.3713 16.6053 10.5739 16.6976 10.7968C16.79 11.0198 16.8375 11.2587 16.8375 11.5C16.8375 11.7413 16.79 11.9802 16.6976 12.2032C16.6053 12.4261 16.4699 12.6287 16.2993 12.7993C16.1287 12.9699 15.9261 13.1053 15.7032 13.1976C15.4802 13.29 15.2413 13.3375 15 13.3375C14.7587 13.3375 14.5198 13.29 14.2968 13.1976C14.0739 13.1053 13.8713 12.9699 13.7007 12.7993C13.5301 12.6287 13.3947 12.4261 13.3024 12.2032C13.21 11.9802 13.1625 11.7413 13.1625 11.5C13.1625 11.0127 13.3561 10.5453 13.7007 10.2007C14.0453 9.85609 14.5127 9.6625 15 9.6625ZM15 15.875C12.6638 15.875 8 17.0387 8 19.375V22H22V19.375C22 17.0387 17.3363 15.875 15 15.875ZM15 17.5375C17.5988 17.5375 20.3375 18.815 20.3375 19.375V20.3375H9.6625V19.375C9.6625 18.815 12.375 17.5375 15 17.5375Z" fill="#F5F5F5"/>
</svg>
