<svg width="26" height="26" viewBox="0 0 26 26" fill="none" xmlns="http://www.w3.org/2000/svg">
<path fill-rule="evenodd" clip-rule="evenodd" d="M4.97068 1.22999C4.77002 1.43056 4.74069 1.5441 4.74069 2.11995V2.77993H3.0581C1.43527 2.77993 1.36828 2.78743 1.17408 2.99071C0.985505 3.1881 0.976043 3.26717 1.02532 4.23198C1.19357 7.52598 2.19371 10.4283 3.89907 12.5715C5.10062 14.0815 6.46329 14.9594 8.12154 15.2919C8.83716 15.4354 8.95248 15.4903 9.37789 15.8896C9.63551 16.1314 9.96227 16.405 10.1039 16.4977L10.3615 16.6662V18.248V19.8298H9.58192C8.64231 19.8298 8.08809 20.0009 7.55833 20.4543C6.93891 20.9845 6.68719 21.5823 6.63492 22.6475C6.59136 23.5331 6.58733 23.5461 6.3224 23.6462C5.84069 23.828 5.75366 24.5471 6.17748 24.8439C6.47463 25.052 19.4946 25.052 19.7917 24.8439C20.2155 24.5471 20.1285 23.828 19.6468 23.6462C19.3819 23.5461 19.3778 23.5331 19.3343 22.6475C19.282 21.5823 19.0303 20.9845 18.4109 20.4543C17.8811 20.0009 17.3269 19.8298 16.3873 19.8298H15.6077V18.248V16.6662L15.8653 16.4977C16.0069 16.405 16.3337 16.1314 16.5913 15.8896C17.0167 15.4903 17.132 15.4354 17.8477 15.2919C19.5059 14.9594 20.8686 14.0815 22.0701 12.5715C23.7755 10.4283 24.7756 7.52598 24.9439 4.23198C24.9931 3.26717 24.9837 3.1881 24.7951 2.99071C24.6009 2.78743 24.5339 2.77993 22.9111 2.77993H21.2285V2.11995C21.2285 1.5441 21.1992 1.43056 20.9985 1.22999L20.7686 1H12.9846H5.20057L4.97068 1.22999ZM19.7889 2.94387C19.76 3.24009 19.7102 3.86194 19.6784 4.32566C19.6465 4.78938 19.5198 5.75898 19.3968 6.48032C18.3701 12.4986 15.4261 16.5434 12.4703 15.9971C10.2372 15.5842 8.23882 12.9163 7.08037 8.80144C6.742 7.59943 6.3713 5.49808 6.29083 4.32566C6.25898 3.86194 6.20923 3.24009 6.18029 2.94387L6.12754 2.40521H12.9846H19.8416L19.7889 2.94387ZM4.87232 4.39592C4.8978 4.56333 4.94323 4.93225 4.97321 5.21563C5.24601 7.79363 5.94543 10.3194 6.99034 12.4993C7.29293 13.1305 7.51711 13.6469 7.48863 13.6469C7.24815 13.6469 6.17223 12.9161 5.62888 12.3835C4.26976 11.0517 3.26794 9.11574 2.78549 6.88877C2.56187 5.85669 2.36973 4.30768 2.44945 4.17887C2.47915 4.13081 3.02596 4.09146 3.66468 4.09146H4.82585L4.87232 4.39592ZM23.4939 4.79407C23.4545 5.66164 23.0727 7.55483 22.7637 8.41492C22.1794 10.0412 21.3581 11.3861 20.3403 12.3835C19.797 12.9161 18.721 13.6469 18.4806 13.6469C18.4521 13.6469 18.6763 13.1305 18.9788 12.4993C20.0238 10.3194 20.7232 7.79363 20.996 5.21563C21.026 4.93225 21.0716 4.56211 21.0974 4.39321L21.1444 4.08593L22.334 4.11216L23.5237 4.1383L23.4939 4.79407ZM12.9846 17.4205C13.3195 17.4205 13.7306 17.3902 13.898 17.353L14.2024 17.2855V18.5577V19.8298H12.9846H11.7667V18.5577V17.2855L12.0712 17.353C12.2386 17.3902 12.6497 17.4205 12.9846 17.4205ZM17.3698 21.4248C17.7788 21.6741 17.9497 22.1143 17.9497 22.9183V23.577H12.9846H8.01952V22.9183C8.01952 22.1143 8.19039 21.6741 8.5994 21.4248C8.89787 21.2428 9.06218 21.2357 12.9846 21.2357C16.907 21.2357 17.0713 21.2428 17.3698 21.4248Z" fill="#F5F5F5" stroke="#F5F5F5" stroke-width="0.7"/>
</svg>
