<?xml version="1.0" encoding="UTF-8"?>
<svg width="47px" height="43px" viewBox="0 0 47 43" version="1.1" xmlns="http://www.w3.org/2000/svg" xmlns:xlink="http://www.w3.org/1999/xlink">
    <title>withdraw-ic</title>
    <defs>
        <rect id="path-1" x="0" y="0" width="25" height="27"></rect>
        <path d="M10.7916,16.9467 L10.7916,7.0061 C10.7916,6.1887 11.4543,5.5261 12.2717,5.5261 C13.0892,5.5261 13.7518,6.1887 13.7518,7.0061 L13.7518,16.9467 L17.0168,13.6817 C17.5948,13.1037 18.5319,13.1037 19.1099,13.6817 C19.6879,14.2597 19.6879,15.1969 19.1099,15.7749 L13.3186,21.5662 C13.3185,21.5663 13.3184,21.5664 13.3183,21.5665 C13.3173,21.5675 13.3162,21.5686 13.3152,21.5696 C13.0476,21.8356 12.6788,22 12.2717,22 C12.071,22 11.8797,21.9601 11.7052,21.8877 C11.5319,21.816 11.3695,21.71 11.2283,21.5696 C11.2272,21.5686 11.2262,21.5675 11.2252,21.5665 C11.2251,21.5664 11.225,21.5663 11.2249,21.5662 L5.4335,15.7749 C4.8555,15.1969 4.8555,14.2597 5.4335,13.6817 C6.0115,13.1037 6.9487,13.1037 7.5267,13.6817 L10.7916,16.9467 Z" id="path-3"></path>
    </defs>
    <g id="Page-1" stroke="none" stroke-width="1" fill="none" fill-rule="evenodd">
        <g id="withdraw-ic" transform="translate(2.000000, 2.000000)">
            <path d="M16.7313,33.4627 C25.9718,33.4627 33.4627,25.9718 33.4627,16.7313 C33.4627,7.49087 25.9718,0 16.7313,0 C7.49087,0 0,7.49087 0,16.7313 C0,25.9718 7.49087,33.4627 16.7313,33.4627 Z" id="Path" stroke="#C7C7CC" stroke-width="3" stroke-linecap="round" stroke-linejoin="round"></path>
            <path d="M22.3027,9.2947 L11.1484,9.2947 L13.0075,9.2947 C14.4866,9.2947 15.9052,9.8823 16.9511,10.9282 C17.997,11.9741 18.5846,13.3927 18.5846,14.8718 C18.5846,16.351 17.997,17.7696 16.9511,18.8155 C15.9052,19.8614 14.4866,20.449 13.0075,20.449 L11.1484,20.449 L16.7255,26.0261 M11.1484,14.8718 L22.3027,14.8718" id="Shape" stroke="#FFFFFF" stroke-width="3" stroke-linecap="round" stroke-linejoin="round"></path>
            <path d="M30.2486,30.726 L30.2486,20.7854 C30.2486,19.968 30.9113,19.3054 31.7287,19.3054 C32.5462,19.3054 33.2088,19.968 33.2088,20.7854 L33.2088,30.726 L36.4738,27.461 C37.0518,26.883 37.9889,26.883 38.5669,27.461 C39.1449,28.039 39.1449,28.9762 38.5669,29.5542 L32.7756,35.3455 C32.7755,35.3456 32.7754,35.3457 32.7753,35.3458 C32.7743,35.3468 32.7732,35.3479 32.7722,35.3489 C32.5046,35.6149 32.1358,35.7793 31.7287,35.7793 C31.528,35.7793 31.3367,35.7394 31.1622,35.667 C30.9889,35.5953 30.8265,35.4893 30.6853,35.3489 C30.6842,35.3479 30.6832,35.3468 30.6822,35.3458 C30.6821,35.3457 30.682,35.3456 30.6819,35.3455 L24.8905,29.5542 C24.3125,28.9762 24.3125,28.039 24.8905,27.461 C25.4685,26.883 26.4057,26.883 26.9837,27.461 L30.2486,30.726 Z" id="Path" fill="#FFFFFF"></path>
            <g id="Clipped" transform="translate(19.457000, 13.779300)">
                <mask id="mask-2" fill="white">
                    <use xlink:href="#path-1"></use>
                </mask>
                <g id="Rectangle"></g>
                <path d="M10.7916,16.9467 L15.7916,16.9467 C15.7916,18.969 14.5734,20.7922 12.7051,21.5661 C10.8367,22.34 8.6861,21.9122 7.2561,20.4822 L10.7916,16.9467 Z M13.7518,16.9467 L17.2873,20.4822 C15.8573,21.9122 13.7068,22.34 11.8384,21.5661 C9.97,20.7922 8.7518,18.969 8.7518,16.9467 L13.7518,16.9467 Z M17.0168,13.6817 L20.5523,17.2173 L20.5523,17.2173 L17.0168,13.6817 Z M19.1099,13.6817 L15.5744,17.2173 L15.5744,17.2173 L19.1099,13.6817 Z M19.1099,15.7749 L15.5744,12.2393 L15.5744,12.2393 L19.1099,15.7749 Z M13.3186,21.5662 L16.8541,25.1017 L16.8527,25.1031 L13.3186,21.5662 Z M13.3183,21.5665 L9.7829,18.0308 L9.7841,18.0296 L13.3183,21.5665 Z M13.3152,21.5696 L9.7902,18.0236 L9.7903,18.0235 L13.3152,21.5696 Z M11.7052,21.8877 L13.6168,17.2675 L13.6204,17.2691 L11.7052,21.8877 Z M11.2283,21.5696 L14.7532,18.0235 L14.7534,18.0237 L11.2283,21.5696 Z M11.2252,21.5665 L14.7593,18.0296 L14.7606,18.0308 L11.2252,21.5665 Z M11.2249,21.5662 L7.6907,25.1031 L7.6893,25.1017 L11.2249,21.5662 Z M5.4335,15.7749 L8.9691,12.2393 L8.9691,12.2393 L5.4335,15.7749 Z M5.4335,13.6817 L8.9691,17.2173 L8.9691,17.2173 L5.4335,13.6817 Z M7.5267,13.6817 L3.9912,17.2173 L7.5267,13.6817 Z M5.7916,16.9467 L5.7916,7.0061 L15.7916,7.0061 L15.7916,16.9467 L5.7916,16.9467 Z M5.7916,7.0061 C5.7916,3.4273 8.6929,0.5261 12.2717,0.5261 L12.2717,10.5261 C14.2157,10.5261 15.7916,8.9501 15.7916,7.0061 L5.7916,7.0061 Z M12.2717,0.5261 C15.8506,0.5261 18.7518,3.4273 18.7518,7.0061 L8.7518,7.0061 C8.7518,8.9501 10.3277,10.5261 12.2717,10.5261 L12.2717,0.5261 Z M18.7518,7.0061 L18.7518,16.9467 L8.7518,16.9467 L8.7518,7.0061 L18.7518,7.0061 Z M10.2163,13.4112 L13.4812,10.1462 L20.5523,17.2173 L17.2873,20.4822 L10.2163,13.4112 Z M13.4812,10.1462 C16.0119,7.6156 20.1148,7.6156 22.6454,10.1462 L15.5744,17.2173 C16.949,18.5919 19.1777,18.5919 20.5523,17.2173 L13.4812,10.1462 Z M22.6454,10.1462 C25.1761,12.6768 25.1761,16.7798 22.6454,19.3104 L15.5744,12.2393 C14.1998,13.614 14.1998,15.8426 15.5744,17.2173 L22.6454,10.1462 Z M22.6454,19.3104 L16.8541,25.1017 L9.7831,18.0307 L15.5744,12.2393 L22.6454,19.3104 Z M16.8527444,25.1031 C16.8527444,25.1031 16.8527444,25.1031 16.8527444,25.1031 C16.8527444,25.1031 16.8527444,25.1031 16.8527444,25.1031 C16.8527444,25.1031 16.8527444,25.1031 16.8527444,25.1031 C16.8527444,25.1031 16.8527444,25.1031 16.8527444,25.1031 C16.8527444,25.1031 16.8527444,25.1031 16.8527444,25.1031 C16.8527444,25.1031 16.8527444,25.1031 16.8527444,25.1031 C16.8527444,25.1031 16.8527444,25.1031 16.8527444,25.1031 C16.8527444,25.1031 16.8527444,25.1031 16.8527444,25.1031 C16.8527444,25.1031 16.8527444,25.1031 16.8527444,25.1031 C16.8527444,25.1031 16.8527444,25.1031 16.8527444,25.1031 C16.8527444,25.1031 16.8527444,25.1031 16.8527444,25.1031 C16.8527444,25.1031 16.8527444,25.1031 16.8527444,25.1031 C16.8527444,25.1031 16.8527444,25.1031 16.8527444,25.1031 C16.8527444,25.1031 16.8527444,25.1031 16.8527444,25.1031 C16.8527444,25.1031 16.8527444,25.1031 16.8527444,25.1031 C16.8527444,25.1031 16.8527444,25.1031 16.8527444,25.1031 C16.8527444,25.1031 16.8527444,25.1031 16.8527444,25.1031 C16.8527444,25.1031 16.8527444,25.1031 16.8527444,25.1031 C16.8527444,25.1031 16.8527444,25.1031 16.8527444,25.1031 C16.8527444,25.1031 16.8527444,25.1031 16.8527444,25.1031 C16.8527444,25.1031 16.8527444,25.1031 16.8527444,25.1031 C16.8527444,25.1031 16.8527444,25.1031 16.8527444,25.1031 C16.8527444,25.1031 16.8527444,25.1031 16.8527444,25.1031 C16.8527444,25.1031 16.8527444,25.1031 16.8527444,25.1031 C16.8527444,25.1031 16.8527444,25.1031 16.8527444,25.1031 C16.8527444,25.1031 16.8527444,25.1031 16.8527444,25.1031 C16.8527444,25.1031 16.8527444,25.1031 16.8527444,25.1031 C16.8527444,25.1031 16.8527444,25.1031 16.8527444,25.1031 C16.8527444,25.1031 16.8527444,25.1031 16.8527444,25.1031 C16.8527444,25.1032 16.8527444,25.1031 16.8527444,25.1031 C16.8527444,25.1031 16.8527444,25.1031 16.8527444,25.1031 C16.8527444,25.1031 16.8527444,25.1031 16.8527444,25.1031 C16.8527444,25.1031 16.8527444,25.1031 16.8527444,25.1031 C16.8527444,25.1031 16.8527444,25.1031 16.8527444,25.1031 C16.8527444,25.1031 16.8527444,25.1031 16.8527444,25.1031 C16.8527444,25.1032 16.8527444,25.1031 16.8527444,25.1031 C16.8527444,25.1031 16.8527444,25.1031 16.8527444,25.1031 C16.8527444,25.1031 16.8527444,25.1031 16.8527444,25.1031 C16.8527444,25.1031 16.8527444,25.1031 16.8527444,25.1031 C16.8527444,25.1031 16.8527444,25.1031 16.8527444,25.1031 C16.8527444,25.1032 16.8527444,25.1031 16.8527444,25.1031 C16.8527444,25.1032 16.8527444,25.1031 16.8527444,25.1031 C16.8527444,25.1031 16.8527444,25.1031 16.8527444,25.1031 C16.8527444,25.1031 16.8527444,25.1031 16.8527444,25.1031 C16.8527444,25.1031 16.8527444,25.1031 16.8527444,25.1031 C16.8527444,25.1031 16.8527444,25.1031 16.8527444,25.1031 C16.8527444,25.1032 16.8527444,25.1031 16.8527444,25.1031 C16.8527444,25.1032 16.8527444,25.1031 16.8527444,25.1031 C16.8527444,25.1031 16.8527444,25.1031 16.8527444,25.1031 C16.8527444,25.1031 16.8527444,25.1032 16.8527444,25.1032 C16.8527444,25.1032 16.8527444,25.1032 16.8527444,25.1032 C16.8527444,25.1032 16.8527444,25.1032 16.8527444,25.1032 C16.8527444,25.1032 16.8527444,25.1031 16.8527444,25.1032 C16.8527444,25.1032 16.8527444,25.1031 16.8527444,25.1032 C16.8527444,25.1032 16.8527444,25.1032 16.8527444,25.1032 C16.8527444,25.1032 16.8527444,25.1032 16.8527444,25.1032 C16.8527444,25.1032 16.8527444,25.1032 16.8527444,25.1032 C16.8527444,25.1032 16.8527444,25.1032 16.8527444,25.1032 C16.8527444,25.1032 16.8527444,25.1031 16.8527444,25.1032 C16.8527444,25.1032 16.8527444,25.1031 16.8527444,25.1032 C16.8527444,25.1032 16.8527444,25.1032 16.8527444,25.1032 C16.8527444,25.1032 16.8527444,25.1032 16.8527444,25.1032 C16.8527444,25.1032 16.8527444,25.1032 16.8527444,25.1032 C16.8527444,25.1032 16.8527444,25.1032 16.8527444,25.1032 C16.8527444,25.1032 16.8527444,25.1032 16.8527444,25.1032 C16.8527444,25.1032 16.8527444,25.1031 16.8527444,25.1032 C16.8527444,25.1032 16.8527444,25.1032 16.8527444,25.1032 C16.8527444,25.1032 16.8527444,25.1032 16.8527444,25.1032 C16.8527444,25.1032 16.8527444,25.1032 16.8527444,25.1032 C16.8527444,25.1032 16.8527444,25.1032 16.8527444,25.1032 C16.8527444,25.1032 16.8527444,25.1032 16.8527444,25.1032 C16.8527444,25.1032 16.8527444,25.1032 16.8527444,25.1032 C16.8527444,25.1032 16.8527444,25.1032 16.8527444,25.1032 C16.8527444,25.1032 16.8527444,25.1032 16.8527444,25.1032 C16.8527444,25.1032 16.8527444,25.1032 16.8527444,25.1032 C16.8527444,25.1032 16.8527444,25.1032 16.8527444,25.1032 C16.8527444,25.1032 16.8527444,25.1032 16.8527444,25.1032 C16.8527444,25.1032 16.8527444,25.1032 16.8527444,25.1032 C16.8527444,25.1032 16.8527444,25.1032 16.8527444,25.1032 C16.8527444,25.1032 16.8527444,25.1032 16.8527444,25.1032 C16.8527444,25.1032 16.8527444,25.1032 16.8527444,25.1032 C16.8527444,25.1032 16.8527444,25.1032 16.8527444,25.1032 C16.8527444,25.1032 16.8527444,25.1032 16.8527444,25.1032 C16.8527444,25.1032 16.8527444,25.1032 16.8527444,25.1032 C16.8527444,25.1032 16.8527444,25.1032 16.8527444,25.1032 C16.8527444,25.1032 16.8527444,25.1032 16.8527444,25.1032 C16.8527444,25.1032 16.8527444,25.1032 16.8527444,25.1032 C16.8527444,25.1032 16.8527444,25.1032 16.8527444,25.1032 C16.8527444,25.1032 16.8527444,25.1032 16.8527444,25.1032 C16.8527444,25.1032 16.8527444,25.1032 16.8527444,25.1032 C16.8527444,25.1032 16.8527444,25.1032 16.8527444,25.1032 C16.8527444,25.1032 16.8527444,25.1032 16.8527444,25.1032 C16.8527444,25.1032 16.8527444,25.1032 16.8527444,25.1032 C16.8527444,25.1032 16.8527444,25.1032 16.8527444,25.1032 C16.8527444,25.1032 16.8527444,25.1032 16.8527444,25.1032 C16.8527444,25.1032 16.8527444,25.1032 16.8527444,25.1032 C16.8527444,25.1032 16.8527444,25.1032 16.8527444,25.1032 C16.8527444,25.1032 16.8527444,25.1032 16.8527444,25.1032 C16.8527444,25.1032 16.8527444,25.1032 16.8527444,25.1032 C16.8527444,25.1032 16.8527444,25.1032 16.8527444,25.1032 C16.8527444,25.1032 16.8527444,25.1032 16.8527444,25.1032 C16.8527444,25.1032 16.8527444,25.1032 16.8527444,25.1032 C16.8527444,25.1032 16.8527444,25.1032 16.8527444,25.1032 C16.8527444,25.1032 16.8527444,25.1032 16.8527444,25.1032 C16.8527444,25.1032 16.8527444,25.1032 16.8527444,25.1032 C16.8527444,25.1032 16.8527444,25.1032 16.8527444,25.1032 C16.8527444,25.1032 16.8527444,25.1032 16.8527444,25.1032 C16.8526,25.1032 16.8527444,25.1032 16.8527444,25.1032 C16.8527444,25.1032 16.8527444,25.1032 16.8527444,25.1032 C16.8527444,25.1032 16.8527444,25.1032 16.8527444,25.1032 C16.8527444,25.1032 16.8527444,25.1032 16.8527444,25.1032 C16.8527444,25.1032 16.8527444,25.1032 16.8527444,25.1032 C16.8527444,25.1032 16.8527444,25.1032 16.8527444,25.1032 C16.8526,25.1032 16.8527444,25.1032 16.8527444,25.1032 C16.8527444,25.1032 16.8527444,25.1032 16.8527444,25.1032 C16.8527444,25.1032 16.8527444,25.1032 16.8527444,25.1032 C16.8527444,25.1032 16.8527444,25.1032 16.8527444,25.1032 C16.8527444,25.1032 16.8527444,25.1032 16.8527444,25.1032 C16.8526,25.1032 16.8527444,25.1032 16.8527444,25.1032 C16.8526,25.1032 16.8527444,25.1032 16.8527444,25.1032 C16.8527444,25.1032 16.8527444,25.1032 16.8527444,25.1032 C16.8527444,25.1032 16.8527444,25.1032 16.8527444,25.1032 C16.8527444,25.1032 16.8527444,25.1032 16.8527444,25.1032 C16.8527444,25.1032 16.8527444,25.1032 16.8527444,25.1032 C16.8526,25.1032 16.8527444,25.1032 16.8527444,25.1032 C16.8526,25.1032 16.8527444,25.1032 16.8526,25.1032 C16.8526,25.1032 16.8526,25.1032 16.8526,25.1032 C16.8526,25.1032 16.8526,25.1032 16.8526,25.1032 C16.8526,25.1032 16.8526,25.1032 16.8526,25.1032 C16.8526,25.1032 16.8526,25.1032 16.8526,25.1032 C16.8526,25.1032 16.8527444,25.1032 16.8526,25.1032 C16.8526,25.1032 16.8527444,25.1032 16.8526,25.1032 C16.8526,25.1032 16.8526,25.1032 16.8526,25.1032 C16.8526,25.1032 16.8526,25.1032 16.8526,25.1032 C16.8526,25.1032 16.8526,25.1032 16.8526,25.1032 C16.8526,25.1032 16.8526,25.1032 16.8526,25.1032 C16.8526,25.1032 16.8527444,25.1032 16.8526,25.1032 C16.8526,25.1032 16.8527444,25.1032 16.8526,25.1032 C16.8526,25.1032 16.8526,25.1032 16.8526,25.1032 C16.8526,25.1032 16.8526,25.1032 16.8526,25.1032 C16.8526,25.1032 16.8526,25.1032 16.8526,25.1032 C16.8526,25.1032 16.8526,25.1032 16.8526,25.1032 C16.8526,25.1032 16.8526,25.1032 16.8526,25.1032 C16.8526,25.1032 16.8527444,25.1032 16.8526,25.1032 C16.8526,25.1032 16.8526,25.1032 16.8526,25.1032 C16.8526,25.1032 16.8526,25.1032 16.8526,25.1032 C16.8526,25.1032 16.8526,25.1032 16.8526,25.1032 C16.8526,25.1032 16.8526,25.1032 16.8526,25.1032 C16.8526,25.1032 16.8526,25.1032 16.8526,25.1032 C16.8526,25.1032 16.8526,25.1032 16.8526,25.1032 C16.8526,25.1032 16.8526,25.1032 16.8526,25.1032 C16.8526,25.1032 16.8526,25.1032 16.8526,25.1032 C16.8526,25.1032 16.8526,25.1032 16.8526,25.1032 C16.8526,25.1032 16.8526,25.1032 16.8526,25.1032 C16.8526,25.1032 16.8526,25.1032 16.8526,25.1032 C16.8526,25.1033 16.8526,25.1032 16.8526,25.1032 C16.8526,25.1032 16.8526,25.1032 16.8526,25.1032 C16.8526,25.1032 16.8526,25.1032 16.8526,25.1032 C16.8526,25.1032 16.8526,25.1032 16.8526,25.1032 C16.8526,25.1032 16.8526,25.1032 16.8526,25.1032 C16.8526,25.1032 16.8526,25.1032 16.8526,25.1032 C16.8526,25.1033 16.8526,25.1032 16.8526,25.1032 C16.8526,25.1032 16.8526,25.1032 16.8526,25.1032 C16.8526,25.1032 16.8526,25.1032 16.8526,25.1032 C16.8526,25.1032 16.8526,25.1032 16.8526,25.1032 C16.8526,25.1032 16.8526,25.1032 16.8526,25.1032 C16.8526,25.1032 16.8526,25.1032 16.8526,25.1032 C16.8526,25.1033 16.8526,25.1032 16.8526,25.1032 C16.8526,25.1032 16.8526,25.1032 16.8526,25.1032 C16.8526,25.1032 16.8526,25.1032 16.8526,25.1032 C16.8526,25.1032 16.8526,25.1032 16.8526,25.1032 C16.8526,25.1032 16.8526,25.1032 16.8526,25.1032 C16.8526,25.1033 16.8526,25.1032 16.8526,25.1032 C16.8526,25.1033 16.8526,25.1032 16.8526,25.1032 C16.8526,25.1032 16.8526,25.1032 16.8526,25.1032 C16.8526,25.1032 16.8526,25.1032 16.8526,25.1032 C16.8526,25.1032 16.8526,25.1032 16.8526,25.1032 C16.8526,25.1032 16.8526,25.1032 16.8526,25.1032 C16.8526,25.1033 16.8526,25.1032 16.8526,25.1032 C16.8526,25.1033 16.8526,25.1032 16.8526,25.1033 C16.8526,25.1033 16.8526,25.1033 16.8526,25.1033 C16.8526,25.1033 16.8526,25.1033 16.8526,25.1033 C16.8526,25.1033 16.8526,25.1033 16.8526,25.1033 C16.8526,25.1033 16.8526,25.1033 16.8526,25.1033 C16.8526,25.1033 16.8526,25.1032 16.8526,25.1033 C16.8526,25.1033 16.8526,25.1032 16.8526,25.1033 C16.8526,25.1033 16.8526,25.1033 16.8526,25.1033 C16.8526,25.1033 16.8526,25.1033 16.8526,25.1033 C16.8526,25.1033 16.8526,25.1033 16.8526,25.1033 C16.8526,25.1033 16.8526,25.1033 16.8526,25.1033 C16.8526,25.1033 16.8526,25.1032 16.8526,25.1033 C16.8526,25.1033 16.8526,25.1032 16.8526,25.1033 C16.8526,25.1033 16.8526,25.1033 16.8526,25.1033 C16.8526,25.1033 16.8526,25.1033 16.8526,25.1033 C16.8526,25.1033 16.8526,25.1033 16.8526,25.1033 C16.8526,25.1033 16.8526,25.1033 16.8526,25.1033 C16.8526,25.1033 16.8526,25.1033 16.8526,25.1033 C16.8526,25.1033 16.8526,25.1032 16.8526,25.1033 C16.8526,25.1033 16.8526,25.1033 16.8526,25.1033 C16.8526,25.1033 16.8526,25.1033 16.8526,25.1033 C16.8526,25.1033 16.8526,25.1033 16.8526,25.1033 C16.8526,25.1033 16.8526,25.1033 16.8526,25.1033 C16.8526,25.1033 16.8526,25.1033 16.8526,25.1033 C16.8526,25.1033 16.8526,25.1032 16.8526,25.1033 C16.8526,25.1033 16.8526,25.1033 16.8526,25.1033 C16.8526,25.1033 16.8526,25.1033 16.8526,25.1033 C16.8526,25.1033 16.8526,25.1033 16.8526,25.1033 C16.8526,25.1033 16.8526,25.1033 16.8526,25.1033 C16.8526,25.1033 16.8526,25.1033 16.8526,25.1033 C16.8526,25.1033 16.8526,25.1033 16.8526,25.1033 C16.8526,25.1033 16.8526,25.1033 16.8526,25.1033 C16.8526,25.1033 16.8526,25.1033 16.8526,25.1033 C16.8526,25.1033 16.8526,25.1033 16.8526,25.1033 C16.8526,25.1033 16.8526,25.1033 16.8526,25.1033 C16.8526,25.1033 16.8526,25.1033 16.8526,25.1033 C16.8526,25.1033 16.8526,25.1033 16.8526,25.1033 C16.8526,25.1033 16.8526,25.1033 16.8526,25.1033 C16.8526,25.1033 16.8526,25.1033 16.8526,25.1033 C16.8526,25.1033 16.8526,25.1033 16.8526,25.1033 C16.8526,25.1033 16.8526,25.1033 16.8526,25.1033 C16.8526,25.1033 16.8526,25.1033 16.8526,25.1033 C16.8526,25.1033 16.8526,25.1033 16.8526,25.1033 C16.8526,25.1033 16.8526,25.1033 16.8526,25.1033 C16.8526,25.1033 16.8526,25.1033 16.8526,25.1033 C16.8526,25.1033 16.8526,25.1033 16.8526,25.1033 C16.8526,25.1033 16.8526,25.1033 16.8526,25.1033 C16.8526,25.1033 16.8526,25.1033 16.8526,25.1033 C16.8526,25.1033 16.8526,25.1033 16.8526,25.1033 C16.8526,25.1033 16.8526,25.1033 16.8526,25.1033 C16.8526,25.1033 16.8526,25.1033 16.8526,25.1033 C16.8526,25.1033 16.8526,25.1033 16.8526,25.1033 C16.8526,25.1033 16.8526,25.1033 16.8526,25.1033 C16.8526,25.1033 16.8526,25.1033 16.8526,25.1033 C16.8526,25.1033 16.8526,25.1033 16.8526,25.1033 C16.8526,25.1033 16.8526,25.1033 16.8526,25.1033 C16.8526,25.1033 16.8526,25.1033 16.8526,25.1033 C16.8526,25.1033 16.8526,25.1033 16.8526,25.1033 C16.8526,25.1033 16.8526,25.1033 16.8526,25.1033 C16.8526,25.1033 16.8526,25.1033 16.8526,25.1033 C16.8525,25.1033 16.8526,25.1033 16.8526,25.1033 C16.8526,25.1033 16.8526,25.1033 16.8526,25.1033 C16.8526,25.1033 16.8526,25.1033 16.8526,25.1033 C16.8526,25.1033 16.8526,25.1033 16.8526,25.1033 C16.8526,25.1033 16.8526,25.1033 16.8526,25.1033 C16.8526,25.1033 16.8526,25.1033 16.8526,25.1033 C16.8525,25.1033 16.8526,25.1033 16.8526,25.1033 C16.8526,25.1033 16.8526,25.1033 16.8526,25.1033 C16.8526,25.1033 16.8526,25.1033 16.8526,25.1033 C16.8526,25.1033 16.8526,25.1033 16.8526,25.1033 C16.8526,25.1033 16.8526,25.1033 16.8526,25.1033 C16.8525,25.1033 16.8526,25.1033 16.8526,25.1033 C16.8525,25.1033 16.8526,25.1033 16.8526,25.1033 C16.8526,25.1033 16.8526,25.1033 16.8526,25.1033 C16.8526,25.1033 16.8526,25.1033 16.8526,25.1033 C16.8526,25.1033 16.8526,25.1033 16.8526,25.1033 C16.8526,25.1033 16.8526,25.1033 16.8526,25.1033 C16.8525,25.1033 16.8526,25.1033 16.8525,25.1033 C16.8525,25.1033 16.8526,25.1033 16.8525,25.1033 C16.8525,25.1033 16.8525,25.1033 16.8525,25.1033 C16.8525,25.1033 16.8525,25.1033 16.8525,25.1033 C16.8525,25.1033 16.8525,25.1033 16.8525,25.1033 C16.8525,25.1033 16.8525,25.1033 16.8525,25.1033 C16.8525,25.1033 16.8526,25.1033 16.8525,25.1033 C16.8525,25.1033 16.8526,25.1033 16.8525,25.1033 C16.8525,25.1033 16.8525,25.1033 16.8525,25.1033 C16.8525,25.1033 16.8525,25.1033 16.8525,25.1033 C16.8525,25.1033 16.8525,25.1033 16.8525,25.1033 C16.8525,25.1033 16.8525,25.1033 16.8525,25.1033 C16.8525,25.1033 16.8526,25.1033 16.8525,25.1033 C16.8525,25.1033 16.8526,25.1033 16.8525,25.1033 C16.8525,25.1033 16.8525,25.1033 16.8525,25.1033 C16.8525,25.1033 16.8525,25.1033 16.8525,25.1033 C16.8525,25.1033 16.8525,25.1033 16.8525,25.1033 C16.8525,25.1033 16.8525,25.1033 16.8525,25.1033 C16.8525,25.1033 16.8525,25.1033 16.8525,25.1033 C16.8525,25.1033 16.8525,25.1033 16.8525,25.1033 C16.8525,25.1033 16.8525,25.1033 16.8525,25.1033 C16.8525,25.1033 16.8525,25.1033 16.8525,25.1033 C16.8525,25.1033 16.8525,25.1033 16.8525,25.1033 C16.8525,25.1033 16.8525,25.1033 16.8525,25.1033 C16.8525,25.1033 16.8525,25.1033 16.8525,25.1033 C16.8525,25.1033 16.8525,25.1033 16.8525,25.1033 C16.8525,25.1033 16.8525,25.1033 16.8525,25.1033 C16.8525,25.1033 16.8525,25.1033 16.8525,25.1033 C16.8525,25.1033 16.8525,25.1033 16.8525,25.1033 C16.8525,25.1033 16.8525,25.1033 16.8525,25.1033 C16.8525,25.1033 16.8525,25.1033 16.8525,25.1033 C16.8525,25.1033 16.8525,25.1033 16.8525,25.1033 C16.8525,25.1033 16.8525,25.1033 16.8525,25.1033 C16.8525,25.1033 16.8525,25.1033 16.8525,25.1033 C16.8525,25.1033 16.8525,25.1033 16.8525,25.1033 C16.8525,25.1033 16.8525,25.1033 16.8525,25.1033 C16.8525,25.1033 16.8525,25.1033 16.8525,25.1033 C16.8525,25.1034 16.8525,25.1033 16.8525,25.1033 C16.8525,25.1033 16.8525,25.1033 16.8525,25.1033 C16.8525,25.1033 16.8525,25.1033 16.8525,25.1033 C16.8525,25.1033 16.8525,25.1033 16.8525,25.1033 C16.8525,25.1033 16.8525,25.1033 16.8525,25.1033 C16.8525,25.1033 16.8525,25.1033 16.8525,25.1033 C16.8525,25.1034 16.8525,25.1033 16.8525,25.1033 C16.8525,25.1033 16.8525,25.1033 16.8525,25.1033 C16.8525,25.1033 16.8525,25.1033 16.8525,25.1033 C16.8525,25.1033 16.8525,25.1033 16.8525,25.1033 C16.8525,25.1033 16.8525,25.1033 16.8525,25.1033 C16.8525,25.1034 16.8525,25.1033 16.8525,25.1033 C16.8525,25.1034 16.8525,25.1033 16.8525,25.1033 C16.8525,25.1033 16.8525,25.1033 16.8525,25.1033 C16.8525,25.1033 16.8525,25.1033 16.8525,25.1033 C16.8525,25.1033 16.8525,25.1033 16.8525,25.1033 C16.8525,25.1033 16.8525,25.1033 16.8525,25.1033 C16.8525,25.1034 16.8525,25.1033 16.8525,25.1034 C16.8525,25.1034 16.8525,25.1033 16.8525,25.1034 C16.8525,25.1034 16.8525,25.1034 16.8525,25.1034 C16.8525,25.1034 16.8525,25.1034 16.8525,25.1034 C16.8525,25.1034 16.8525,25.1034 16.8525,25.1034 C16.8525,25.1034 16.8525,25.1034 16.8525,25.1034 C16.8525,25.1034 16.8525,25.1033 16.8525,25.1034 C16.8525,25.1034 16.8525,25.1033 16.8525,25.1034 C16.8525,25.1034 16.8525,25.1034 16.8525,25.1034 C16.8525,25.1034 16.8525,25.1034 16.8525,25.1034 C16.8525,25.1034 16.8525,25.1034 16.8525,25.1034 C16.8525,25.1034 16.8525,25.1034 16.8525,25.1034 C16.8525,25.1034 16.8525,25.1034 16.8525,25.1034 C16.8525,25.1034 16.8525,25.1033 16.8525,25.1034 C16.8525,25.1034 16.8525,25.1034 16.8525,25.1034 C16.8525,25.1034 16.8525,25.1034 16.8525,25.1034 C16.8525,25.1034 16.8525,25.1034 16.8525,25.1034 C16.8525,25.1034 16.8525,25.1034 16.8525,25.1034 C16.8525,25.1034 16.8525,25.1034 16.8525,25.1034 C16.8525,25.1034 16.8525,25.1034 16.8525,25.1034 C16.8525,25.1034 16.8525,25.1034 16.8525,25.1034 C16.8525,25.1034 16.8525,25.1034 16.8525,25.1034 C16.8525,25.1034 16.8525,25.1034 16.8525,25.1034 C16.8525,25.1034 16.8525,25.1034 16.8525,25.1034 C16.8525,25.1034 16.8525,25.1034 16.8525,25.1034 C16.8525,25.1034 16.8525,25.1034 16.8525,25.1034 C16.8525,25.1034 16.8525,25.1034 16.8525,25.1034 C16.8525,25.1034 16.8525,25.1034 16.8525,25.1034 C16.8525,25.1034 16.8525,25.1034 16.8525,25.1034 C16.8525,25.1034 16.8525,25.1034 16.8525,25.1034 C16.8525,25.1034 16.8525,25.1034 16.8525,25.1034 C16.8525,25.1034 16.8525,25.1034 16.8525,25.1034 C16.8525,25.1034 16.8525,25.1034 16.8525,25.1034 C16.8525,25.1034 16.8525,25.1034 16.8525,25.1034 C16.8525,25.1034 16.8525,25.1034 16.8525,25.1034 C16.8525,25.1034 16.8525,25.1034 16.8525,25.1034 C16.8525,25.1034 16.8525,25.1034 16.8525,25.1034 C16.8525,25.1034 16.8525,25.1034 16.8525,25.1034 C16.8525,25.1034 16.8525,25.1034 16.8525,25.1034 C16.8525,25.1034 16.8525,25.1034 16.8525,25.1034 C16.8525,25.1034 16.8525,25.1034 16.8525,25.1034 C16.8525,25.1034 16.8525,25.1034 16.8525,25.1034 C16.8525,25.1034 16.8525,25.1034 16.8525,25.1034 C16.8525,25.1034 16.8525,25.1034 16.8525,25.1034 C16.8525,25.1034 16.8525,25.1034 16.8525,25.1034 C16.8525,25.1034 16.8525,25.1034 16.8525,25.1034 C16.8525,25.1034 16.8525,25.1034 16.8525,25.1034 C16.8525,25.1034 16.8525,25.1034 16.8525,25.1034 C16.8525,25.1034 16.8525,25.1034 16.8525,25.1034 C16.8525,25.1034 16.8525,25.1034 16.8525,25.1034 C16.8525,25.1034 16.8525,25.1034 16.8525,25.1034 C16.8525,25.1034 16.8525,25.1034 16.8525,25.1034 C16.8525,25.1034 16.8525,25.1034 16.8525,25.1034 C16.8525,25.1034 16.8525,25.1034 16.8525,25.1034 C16.8525,25.1034 16.8525,25.1034 16.8525,25.1034 C16.8524,25.1034 16.8525,25.1034 16.8525,25.1034 C16.8525,25.1034 16.8525,25.1034 16.8525,25.1034 C16.8525,25.1034 16.8525,25.1034 16.8525,25.1034 C16.8525,25.1034 16.8525,25.1034 16.8525,25.1034 C16.8525,25.1034 16.8525,25.1034 16.8525,25.1034 C16.8525,25.1034 16.8525,25.1034 16.8525,25.1034 C16.8524,25.1034 16.8525,25.1034 16.8525,25.1034 C16.8525,25.1034 16.8525,25.1034 16.8525,25.1034 C16.8525,25.1034 16.8525,25.1034 16.8525,25.1034 C16.8525,25.1034 16.8525,25.1034 16.8525,25.1034 C16.8525,25.1034 16.8525,25.1034 16.8525,25.1034 C16.8524,25.1034 16.8525,25.1034 16.8525,25.1034 C16.8524,25.1034 16.8525,25.1034 16.8525,25.1034 C16.8525,25.1034 16.8525,25.1034 16.8525,25.1034 C16.8525,25.1034 16.8525,25.1034 16.8525,25.1034 C16.8525,25.1034 16.8525,25.1034 16.8525,25.1034 C16.8525,25.1034 16.8525,25.1034 16.8525,25.1034 C16.8524,25.1034 16.8525,25.1034 16.8525,25.1034 C16.8524,25.1034 16.8525,25.1034 16.8525,25.1034 L9.7841,18.0296 C9.7841,18.0296 9.7841,18.0296 9.7841,18.0296 C9.7841,18.0296 9.7841,18.0296 9.7841,18.0296 C9.7841,18.0296 9.7841,18.0296 9.7841,18.0296 C9.7841,18.0296 9.7841,18.0296 9.7841,18.0296 C9.7842,18.0296 9.7841,18.0296 9.7842,18.0296 C9.7842,18.0296 9.7841,18.0296 9.7842,18.0296 C9.7842,18.0296 9.7842,18.0296 9.7842,18.0296 C9.7842,18.0296 9.7842,18.0296 9.7842,18.0296 C9.7842,18.0296 9.7842,18.0296 9.7842,18.0296 C9.7842,18.0296 9.7842,18.0296 9.7842,18.0296 C9.7842,18.0296 9.7841,18.0296 9.7842,18.0296 C9.7842,18.0295 9.7841,18.0296 9.7842,18.0296 C9.7842,18.0296 9.7842,18.0296 9.7842,18.0296 C9.7842,18.0296 9.7842,18.0296 9.7842,18.0296 C9.7842,18.0296 9.7842,18.0296 9.7842,18.0296 C9.7842,18.0296 9.7842,18.0296 9.7842,18.0296 C9.7842,18.0296 9.7842,18.0296 9.7842,18.0296 C9.7842,18.0295 9.7841,18.0296 9.7842,18.0296 C9.7842,18.0296 9.7842,18.0296 9.7842,18.0296 C9.7842,18.0296 9.7842,18.0296 9.7842,18.0296 C9.7842,18.0296 9.7842,18.0296 9.7842,18.0296 C9.7842,18.0296 9.7842,18.0296 9.7842,18.0296 C9.7842,18.0296 9.7842,18.0296 9.7842,18.0296 C9.7842,18.0295 9.7842,18.0296 9.7842,18.0296 C9.7842,18.0296 9.7842,18.0296 9.7842,18.0296 C9.7842,18.0296 9.7842,18.0296 9.7842,18.0296 C9.7842,18.0296 9.7842,18.0296 9.7842,18.0296 C9.7842,18.0296 9.7842,18.0296 9.7842,18.0296 C9.7842,18.0295 9.7842,18.0296 9.7842,18.0296 C9.7842,18.0295 9.7842,18.0296 9.7842,18.0296 C9.7842,18.0296 9.7842,18.0296 9.7842,18.0296 C9.7842,18.0296 9.7842,18.0296 9.7842,18.0296 C9.7842,18.0296 9.7842,18.0296 9.7842,18.0296 C9.7842,18.0296 9.7842,18.0296 9.7842,18.0296 C9.7842,18.0295 9.7842,18.0296 9.7842,18.0296 C9.7842,18.0295 9.7842,18.0296 9.7842,18.0295 C9.7842,18.0295 9.7842,18.0295 9.7842,18.0295 C9.7842,18.0295 9.7842,18.0295 9.7842,18.0295 C9.7842,18.0295 9.7842,18.0295 9.7842,18.0295 C9.7842,18.0295 9.7842,18.0295 9.7842,18.0295 C9.7842,18.0295 9.7842,18.0296 9.7842,18.0295 C9.7842,18.0295 9.7842,18.0296 9.7842,18.0295 C9.7842,18.0295 9.7842,18.0295 9.7842,18.0295 C9.7842,18.0295 9.7842,18.0295 9.7842,18.0295 C9.7842,18.0295 9.7842,18.0295 9.7842,18.0295 C9.7842,18.0295 9.7842,18.0295 9.7842,18.0295 C9.7842,18.0295 9.7842,18.0296 9.7842,18.0295 C9.7842,18.0295 9.7842,18.0296 9.7842,18.0295 C9.7842,18.0295 9.7842,18.0295 9.7842,18.0295 C9.7842,18.0295 9.7842,18.0295 9.7842,18.0295 C9.7842,18.0295 9.7842,18.0295 9.7842,18.0295 C9.7842,18.0295 9.7842,18.0295 9.7842,18.0295 C9.7842,18.0295 9.7842,18.0295 9.7842,18.0295 C9.7842,18.0295 9.7842,18.0296 9.7842,18.0295 C9.7842,18.0295 9.7842,18.0295 9.7842,18.0295 C9.7842,18.0295 9.7842,18.0295 9.7842,18.0295 C9.7842,18.0295 9.7842,18.0295 9.7842,18.0295 C9.7842,18.0295 9.7842,18.0295 9.7842,18.0295 C9.7842,18.0295 9.7842,18.0295 9.7842,18.0295 C9.7842,18.0295 9.7842,18.0295 9.7842,18.0295 C9.7842,18.0295 9.7842,18.0295 9.7842,18.0295 C9.7842,18.0295 9.7842,18.0295 9.7842,18.0295 C9.7842,18.0295 9.7842,18.0295 9.7842,18.0295 C9.7842,18.0295 9.7842,18.0295 9.7842,18.0295 C9.7842,18.0295 9.7842,18.0295 9.7842,18.0295 C9.7842,18.0295 9.7842,18.0295 9.7842,18.0295 C9.7842,18.0295 9.7842,18.0295 9.7842,18.0295 C9.7842,18.0295 9.7842,18.0295 9.7842,18.0295 C9.7842,18.0295 9.7842,18.0295 9.7842,18.0295 C9.7842,18.0295 9.7842,18.0295 9.7842,18.0295 C9.7842,18.0295 9.7842,18.0295 9.7842,18.0295 C9.7842,18.0295 9.7842,18.0295 9.7842,18.0295 C9.7842,18.0295 9.7842,18.0295 9.7842,18.0295 C9.7842,18.0295 9.7842,18.0295 9.7842,18.0295 C9.7842,18.0295 9.7842,18.0295 9.7842,18.0295 C9.7842,18.0295 9.7842,18.0295 9.7842,18.0295 C9.7842,18.0295 9.7842,18.0295 9.7842,18.0295 C9.7842,18.0295 9.7842,18.0295 9.7842,18.0295 C9.7842,18.0295 9.7842,18.0295 9.7842,18.0295 C9.7842,18.0295 9.7842,18.0295 9.7842,18.0295 C9.7842,18.0295 9.7842,18.0295 9.7842,18.0295 C9.7842,18.0295 9.7842,18.0295 9.7842,18.0295 C9.7842,18.0295 9.7842,18.0295 9.7842,18.0295 C9.7842,18.0295 9.7842,18.0295 9.7842,18.0295 C9.7842,18.0295 9.7842,18.0295 9.7842,18.0295 C9.7842,18.0295 9.7842,18.0295 9.7842,18.0295 C9.7842,18.0295 9.7842,18.0295 9.7842,18.0295 C9.7842,18.0295 9.7842,18.0295 9.7842,18.0295 C9.7842,18.0295 9.7842,18.0295 9.7842,18.0295 C9.7842,18.0295 9.7842,18.0295 9.7842,18.0295 C9.7842,18.0295 9.7842,18.0295 9.7842,18.0295 C9.7842,18.0295 9.7842,18.0295 9.7842,18.0295 C9.7842,18.0295 9.7842,18.0295 9.7842,18.0295 C9.7842,18.0295 9.7842,18.0295 9.7842,18.0295 C9.7842,18.0295 9.7842,18.0295 9.7842,18.0295 C9.7842,18.0295 9.7842,18.0295 9.7842,18.0295 C9.7842,18.0295 9.7842,18.0295 9.7842,18.0295 C9.7842,18.0295 9.7842,18.0295 9.7842,18.0295 C9.7842,18.0295 9.7842,18.0295 9.7842,18.0295 C9.7842,18.0295 9.7842,18.0295 9.7842,18.0295 C9.7842,18.0295 9.7842,18.0295 9.7842,18.0295 C9.7842,18.0295 9.7842,18.0295 9.7842,18.0295 C9.7842,18.0295 9.7842,18.0295 9.7842,18.0295 C9.7842,18.0295 9.7842,18.0295 9.7842,18.0295 C9.7842,18.0295 9.7842,18.0295 9.7842,18.0295 C9.7842,18.0295 9.7842,18.0295 9.7842,18.0295 C9.7842,18.0295 9.7842,18.0295 9.7842,18.0295 C9.7842,18.0295 9.7842,18.0295 9.7842,18.0295 C9.7842,18.0295 9.7842,18.0295 9.7842,18.0295 C9.7842,18.0295 9.7842,18.0295 9.7842,18.0295 C9.7842,18.0295 9.7842,18.0295 9.7842,18.0295 C9.7842,18.0295 9.7842,18.0295 9.7842,18.0295 C9.7842,18.0295 9.7842,18.0295 9.7842,18.0295 C9.7842,18.0295 9.7842,18.0295 9.7842,18.0295 C9.7842,18.0295 9.7842,18.0295 9.7842,18.0295 C9.7842,18.0295 9.7842,18.0295 9.7842,18.0295 C9.7842,18.0295 9.7842,18.0295 9.7842,18.0295 C9.7842,18.0295 9.7842,18.0295 9.7842,18.0295 C9.7842,18.0295 9.7842,18.0295 9.7842,18.0295 C9.7843,18.0295 9.7842,18.0295 9.7842,18.0295 C9.7842,18.0295 9.7842,18.0295 9.7842,18.0295 C9.7842,18.0295 9.7842,18.0295 9.7842,18.0295 C9.7842,18.0295 9.7842,18.0295 9.7842,18.0295 C9.7842,18.0295 9.7842,18.0295 9.7842,18.0295 C9.7843,18.0295 9.7842,18.0295 9.7842,18.0295 C9.7843,18.0295 9.7842,18.0295 9.7842,18.0295 C9.7842,18.0295 9.7842,18.0295 9.7842,18.0295 C9.7842,18.0295 9.7842,18.0295 9.7842,18.0295 C9.7842,18.0295 9.7842,18.0295 9.7842,18.0295 C9.7842,18.0295 9.7842,18.0295 9.7842,18.0295 C9.7843,18.0295 9.7842,18.0295 9.7842,18.0295 C9.7843,18.0295 9.7842,18.0295 9.7842,18.0295 C9.7842,18.0295 9.7842,18.0295 9.7842,18.0295 C9.7842,18.0295 9.7842,18.0295 9.7842,18.0295 C9.7842,18.0295 9.7843,18.0295 9.7843,18.0295 C9.7843,18.0295 9.7843,18.0295 9.7843,18.0295 C9.7843,18.0295 9.7842,18.0295 9.7843,18.0295 C9.7843,18.0295 9.7842,18.0295 9.7843,18.0295 C9.7843,18.0295 9.7843,18.0295 9.7843,18.0295 C9.7843,18.0295 9.7843,18.0295 9.7843,18.0295 C9.7843,18.0295 9.7843,18.0295 9.7843,18.0295 C9.7843,18.0295 9.7843,18.0295 9.7843,18.0295 C9.7843,18.0295 9.7842,18.0295 9.7843,18.0295 C9.7843,18.0295 9.7842,18.0295 9.7843,18.0295 C9.7843,18.0295 9.7843,18.0295 9.7843,18.0295 C9.7843,18.0295 9.7843,18.0295 9.7843,18.0295 C9.7843,18.0295 9.7843,18.0295 9.7843,18.0295 C9.7843,18.0295 9.7843,18.0295 9.7843,18.0295 C9.7843,18.0295 9.7843,18.0295 9.7843,18.0295 C9.7843,18.0294 9.7842,18.0295 9.7843,18.0295 C9.7843,18.0295 9.7843,18.0295 9.7843,18.0295 C9.7843,18.0295 9.7843,18.0295 9.7843,18.0295 C9.7843,18.0295 9.7843,18.0295 9.7843,18.0295 C9.7843,18.0295 9.7843,18.0295 9.7843,18.0295 C9.7843,18.0294 9.7843,18.0295 9.7843,18.0295 C9.7843,18.0294 9.7842,18.0295 9.7843,18.0295 C9.7843,18.0295 9.7843,18.0295 9.7843,18.0295 C9.7843,18.0295 9.7843,18.0295 9.7843,18.0295 C9.7843,18.0295 9.7843,18.0295 9.7843,18.0295 C9.7843,18.0295 9.7843,18.0295 9.7843,18.0295 C9.7843,18.0294 9.7843,18.0295 9.7843,18.0295 C9.7843,18.0294 9.7843,18.0295 9.7843,18.0295 C9.7843,18.0295 9.7843,18.0295 9.7843,18.0295 C9.7843,18.0295 9.7843,18.0295 9.7843,18.0295 C9.7843,18.0295 9.7843,18.0295 9.7843,18.0295 C9.7843,18.0295 9.7843,18.0295 9.7843,18.0295 C9.7843,18.0294 9.7843,18.0295 9.7843,18.0294 C9.7843,18.0294 9.7843,18.0295 9.7843,18.0294 C9.7843,18.0294 9.7843,18.0294 9.7843,18.0294 C9.7843,18.0294 9.7843,18.0294 9.7843,18.0294 C9.7843,18.0294 9.7843,18.0294 9.7843,18.0294 C9.7843,18.0294 9.7843,18.0294 9.7843,18.0294 C9.7843,18.0294 9.7843,18.0295 9.7843,18.0294 C9.7843,18.0294 9.7843,18.0295 9.7843,18.0294 C9.7843,18.0294 9.7843,18.0294 9.7843,18.0294 C9.7843,18.0294 9.7843,18.0294 9.7843,18.0294 C9.7843,18.0294 9.7843,18.0294 9.7843,18.0294 C9.7843,18.0294 9.7843,18.0294 9.7843,18.0294 C9.7843,18.0294 9.7843,18.0294 9.7843,18.0294 C9.7843,18.0294 9.7843,18.0295 9.7843,18.0294 C9.7843,18.0294 9.7843,18.0294 9.7843,18.0294 C9.7843,18.0294 9.7843,18.0294 9.7843,18.0294 C9.7843,18.0294 9.7843,18.0294 9.7843,18.0294 C9.7843,18.0294 9.7843,18.0294 9.7843,18.0294 C9.7843,18.0294 9.7843,18.0294 9.7843,18.0294 C9.7843,18.0294 9.7843,18.0294 9.7843,18.0294 C9.7843,18.0294 9.7843,18.0294 9.7843,18.0294 C9.7843,18.0294 9.7843,18.0294 9.7843,18.0294 C9.7843,18.0294 9.7843,18.0294 9.7843,18.0294 C9.7843,18.0294 9.7843,18.0294 9.7843,18.0294 C9.7843,18.0294 9.7843,18.0294 9.7843,18.0294 C9.7843,18.0294 9.7843,18.0294 9.7843,18.0294 C9.7843,18.0294 9.7843,18.0294 9.7843,18.0294 C9.7843,18.0294 9.7843,18.0294 9.7843,18.0294 C9.7843,18.0294 9.7843,18.0294 9.7843,18.0294 C9.7843,18.0294 9.7843,18.0294 9.7843,18.0294 C9.7843,18.0294 9.7843,18.0294 9.7843,18.0294 C9.7843,18.0294 9.7843,18.0294 9.7843,18.0294 C9.7843,18.0294 9.7843,18.0294 9.7843,18.0294 C9.7843,18.0294 9.7843,18.0294 9.7843,18.0294 C9.7843,18.0294 9.7843,18.0294 9.7843,18.0294 C9.7843,18.0294 9.7843,18.0294 9.7843,18.0294 C9.7843,18.0294 9.7843,18.0294 9.7843,18.0294 C9.7843,18.0294 9.7843,18.0294 9.7843,18.0294 C9.7843,18.0294 9.7843,18.0294 9.7843,18.0294 C9.7843,18.0294 9.7843,18.0294 9.7843,18.0294 C9.7843,18.0294 9.7843,18.0294 9.7843,18.0294 C9.7843,18.0294 9.7843,18.0294 9.7843,18.0294 C9.7843,18.0294 9.7843,18.0294 9.7843,18.0294 C9.7843,18.0294 9.7843,18.0294 9.7843,18.0294 C9.7843,18.0294 9.7843,18.0294 9.7843,18.0294 C9.7843,18.0294 9.7843,18.0294 9.7843,18.0294 C9.7843,18.0294 9.7843,18.0294 9.7843,18.0294 C9.7843,18.0294 9.7843,18.0294 9.7843,18.0294 C9.7843,18.0294 9.7843,18.0294 9.7843,18.0294 C9.7843,18.0294 9.7843,18.0294 9.7843,18.0294 C9.7843,18.0294 9.7843,18.0294 9.7843,18.0294 C9.7843,18.0294 9.7843,18.0294 9.7843,18.0294 C9.7843,18.0294 9.7843,18.0294 9.7843,18.0294 C9.7843,18.0294 9.7843,18.0294 9.7843,18.0294 C9.7843,18.0294 9.7843,18.0294 9.7843,18.0294 C9.7843,18.0294 9.7843,18.0294 9.7843,18.0294 C9.7843,18.0294 9.7843,18.0294 9.7843,18.0294 C9.7843,18.0294 9.7843,18.0294 9.7843,18.0294 C9.7843,18.0294 9.7843,18.0294 9.7843,18.0294 C9.7843,18.0294 9.7843,18.0294 9.7843,18.0294 C9.7843,18.0294 9.7843,18.0294 9.7843,18.0294 C9.7843,18.0294 9.7843,18.0294 9.7843,18.0294 C9.7843,18.0294 9.7843,18.0294 9.7843,18.0294 C9.7843,18.0294 9.7843,18.0294 9.7843,18.0294 C9.7843,18.0294 9.7843,18.0294 9.7843,18.0294 C9.7843,18.0294 9.7843,18.0294 9.7843,18.0294 C9.7843,18.0294 9.7843,18.0294 9.7843,18.0294 C9.7843,18.0294 9.7843,18.0294 9.7843,18.0294 C9.7843,18.0294 9.7843,18.0294 9.7843,18.0294 C9.7843,18.0294 9.7843,18.0294 9.7843,18.0294 C9.7843,18.0294 9.7843,18.0294 9.7843,18.0294 C9.7843,18.0294 9.7843,18.0294 9.7843,18.0294 C9.7843,18.0294 9.7843,18.0294 9.7843,18.0294 C9.7843,18.0294 9.7843,18.0294 9.7843,18.0294 C9.7843,18.0294 9.7843,18.0294 9.7843,18.0294 C9.7843,18.0294 9.7843,18.0294 9.7843,18.0294 C9.7843,18.0294 9.7843,18.0294 9.7843,18.0294 C9.7843,18.0294 9.7843,18.0294 9.7843,18.0294 C9.7843,18.0294 9.7843,18.0294 9.7843,18.0294 C9.7843,18.0294 9.7843,18.0294 9.7843,18.0294 C9.7843,18.0294 9.7843,18.0294 9.7843,18.0294 C9.7843,18.0294 9.7843,18.0294 9.7843,18.0294 C9.7843,18.0294 9.7843,18.0294 9.7843,18.0294 C9.7843,18.0294 9.7843,18.0294 9.7843,18.0294 C9.7843,18.0294 9.7843,18.0294 9.7843,18.0294 C9.7844,18.0294 9.7843,18.0294 9.7843,18.0294 C9.7843,18.0294 9.7843,18.0294 9.7843,18.0294 C9.7843,18.0294 9.7843,18.0294 9.7843,18.0294 C9.7843,18.0294 9.7843,18.0294 9.7843,18.0294 C9.7843,18.0294 9.7843,18.0294 9.7843,18.0294 C9.7844,18.0294 9.7843,18.0294 9.7843,18.0294 C9.7844,18.0294 9.7843,18.0294 9.7843,18.0294 C9.7843,18.0294 9.7843,18.0294 9.7843,18.0294 C9.7843,18.0294 9.7843,18.0294 9.7843,18.0294 C9.7843,18.0294 9.7843,18.0294 9.7843,18.0294 C9.7843,18.0294 9.7843,18.0294 9.7843,18.0294 C9.7844,18.0294 9.7843,18.0294 9.7843,18.0294 C9.7844,18.0294 9.7843,18.0294 9.7843,18.0294 C9.7843,18.0294 9.7844,18.0294 9.7844,18.0294 C9.7844,18.0294 9.7844,18.0294 9.7844,18.0294 C9.7844,18.0294 9.7844,18.0294 9.7844,18.0294 C9.7844,18.0294 9.7844,18.0294 9.7844,18.0294 C9.7844,18.0294 9.7843,18.0294 9.7844,18.0294 C9.7844,18.0294 9.7843,18.0294 9.7844,18.0294 C9.7844,18.0294 9.7844,18.0294 9.7844,18.0294 C9.7844,18.0294 9.7844,18.0294 9.7844,18.0294 C9.7844,18.0294 9.7844,18.0294 9.7844,18.0294 C9.7844,18.0294 9.7844,18.0294 9.7844,18.0294 C9.7844,18.0294 9.7843,18.0294 9.7844,18.0294 C9.7844,18.0294 9.7843,18.0294 9.7844,18.0294 C9.7844,18.0294 9.7844,18.0294 9.7844,18.0294 C9.7844,18.0294 9.7844,18.0294 9.7844,18.0294 C9.7844,18.0294 9.7844,18.0294 9.7844,18.0294 C9.7844,18.0294 9.7844,18.0294 9.7844,18.0294 C9.7844,18.0294 9.7844,18.0294 9.7844,18.0294 C9.7844,18.0293 9.7843,18.0294 9.7844,18.0294 C9.7844,18.0294 9.7844,18.0294 9.7844,18.0294 C9.7844,18.0294 9.7844,18.0294 9.7844,18.0294 C9.7844,18.0294 9.7844,18.0294 9.7844,18.0294 C9.7844,18.0294 9.7844,18.0294 9.7844,18.0294 C9.7844,18.0293 9.7844,18.0294 9.7844,18.0294 C9.7844,18.0293 9.7844,18.0294 9.7844,18.0294 C9.7844,18.0294 9.7844,18.0294 9.7844,18.0294 C9.7844,18.0294 9.7844,18.0294 9.7844,18.0294 C9.7844,18.0294 9.7844,18.0294 9.7844,18.0294 C9.7844,18.0294 9.7844,18.0294 9.7844,18.0294 C9.7844,18.0293 9.7844,18.0294 9.7844,18.0294 C9.7844,18.0293 9.7844,18.0294 9.7844,18.0294 C9.7844,18.0294 9.7844,18.0294 9.7844,18.0294 C9.7844,18.0294 9.7844,18.0294 9.7844,18.0294 C9.7844,18.0293 9.7844,18.0293 9.7844,18.0293 C9.7844,18.0293 9.7844,18.0293 9.7844,18.0293 C9.7844,18.0293 9.7844,18.0294 9.7844,18.0293 C9.7844,18.0293 9.7844,18.0294 9.7844,18.0293 C9.7844,18.0293 9.7844,18.0293 9.7844,18.0293 C9.7844,18.0293 9.7844,18.0293 9.7844,18.0293 C9.7844,18.0293 9.7844,18.0293 9.7844,18.0293 C9.7844,18.0293 9.7844,18.0293 9.7844,18.0293 C9.7844,18.0293 9.7844,18.0294 9.7844,18.0293 C9.7844,18.0293 9.7844,18.0294 9.7844,18.0293 C9.7844,18.0293 9.7844,18.0293 9.7844,18.0293 C9.7844,18.0293 9.7844,18.0293 9.7844,18.0293 C9.7844,18.0293 9.7844,18.0293 9.7844,18.0293 C9.7844,18.0293 9.7844,18.0293 9.7844,18.0293 C9.7844,18.0293 9.7844,18.0293 9.7844,18.0293 C9.7844,18.0293 9.7844,18.0294 9.7844,18.0293 C9.7844,18.0293 9.7844,18.0293 9.7844,18.0293 C9.7844,18.0293 9.7844,18.0293 9.7844,18.0293 C9.7844,18.0293 9.7844,18.0293 9.7844,18.0293 C9.7844,18.0293 9.7844,18.0293 9.7844,18.0293 C9.7844,18.0293 9.7844,18.0293 9.7844,18.0293 C9.7844,18.0293 9.7844,18.0294 9.7844,18.0293 C9.7844,18.0293 9.7844,18.0293 9.7844,18.0293 C9.7844,18.0293 9.7844,18.0293 9.7844,18.0293 C9.7844,18.0293 9.7844,18.0293 9.7844,18.0293 C9.7844,18.0293 9.7844,18.0293 9.7844,18.0293 C9.7844,18.0293 9.7844,18.0293 9.7844,18.0293 C9.7844,18.0293 9.7844,18.0293 9.7844,18.0293 C9.7844,18.0293 9.7844,18.0293 9.7844,18.0293 C9.7844,18.0293 9.7844,18.0293 9.7844,18.0293 C9.7844,18.0293 9.7844,18.0293 9.7844,18.0293 C9.7844,18.0293 9.7844,18.0293 9.7844,18.0293 C9.7844,18.0293 9.7844,18.0293 9.7844,18.0293 C9.7844,18.0293 9.7844,18.0293 9.7844,18.0293 C9.7844,18.0293 9.7844,18.0293 9.7844,18.0293 C9.7844,18.0293 9.7844,18.0293 9.7844,18.0293 C9.7844,18.0293 9.7844,18.0293 9.7844,18.0293 C9.7844,18.0293 9.7844,18.0293 9.7844,18.0293 C9.7844,18.0293 9.7844,18.0293 9.7844,18.0293 C9.7844,18.0293 9.7844,18.0293 9.7844,18.0293 C9.7844,18.0293 9.7844,18.0293 9.7844,18.0293 C9.7844,18.0293 9.7844,18.0293 9.7844,18.0293 C9.7844,18.0293 9.7844,18.0293 9.7844,18.0293 C9.7844,18.0293 9.7844,18.0293 9.7844,18.0293 C9.7844,18.0293 9.7844,18.0293 9.7844,18.0293 C9.7844,18.0293 9.7844,18.0293 9.7844,18.0293 C9.7844,18.0293 9.7844,18.0293 9.7844,18.0293 C9.7844,18.0293 9.7844,18.0293 9.7844,18.0293 C9.7844,18.0293 9.7844,18.0293 9.7844,18.0293 C9.7844,18.0293 9.7844,18.0293 9.7844,18.0293 C9.7844,18.0293 9.7844,18.0293 9.7844,18.0293 C9.7844,18.0293 9.7844,18.0293 9.7844,18.0293 C9.7844,18.0293 9.7844,18.0293 9.7844,18.0293 C9.7844,18.0293 9.7844,18.0293 9.7844,18.0293 C9.7844,18.0293 9.7844,18.0293 9.7844,18.0293 C9.7844,18.0293 9.7844,18.0293 9.7844,18.0293 C9.7844,18.0293 9.7844,18.0293 9.7844,18.0293 C9.7844,18.0293 9.7844,18.0293 9.7844,18.0293 C9.7844,18.0293 9.7844,18.0293 9.7844,18.0293 C9.7844,18.0293 9.7844,18.0293 9.7844,18.0293 C9.7844,18.0293 9.7844,18.0293 9.7844,18.0293 C9.7844,18.0293 9.7844,18.0293 9.7844,18.0293 C9.7844,18.0293 9.7844,18.0293 9.7844,18.0293 C9.7844,18.0293 9.7844,18.0293 9.7844,18.0293 C9.7844,18.0293 9.7844,18.0293 9.7844,18.0293 C9.7844,18.0293 9.7844,18.0293 9.7844,18.0293 C9.7844,18.0293 9.7844,18.0293 9.7844,18.0293 C9.7844,18.0293 9.7844,18.0293 9.7844,18.0293 C9.7844,18.0293 9.7844,18.0293 9.7844,18.0293 C9.7844,18.0293 9.7844,18.0293 9.7844,18.0293 C9.7844,18.0293 9.7844,18.0293 9.7844,18.0293 C9.7844,18.0293 9.7844,18.0293 9.7844,18.0293 C9.7844,18.0293 9.7844,18.0293 9.7844,18.0293 C9.7844,18.0293 9.7844,18.0293 9.7844,18.0293 C9.7844,18.0293 9.7844,18.0293 9.7844,18.0293 C9.7844,18.0293 9.7844,18.0293 9.7844,18.0293 C9.7844,18.0293 9.7844,18.0293 9.7844,18.0293 C9.7844,18.0293 9.7844,18.0293 9.7844,18.0293 C9.7844,18.0293 9.7844,18.0293 9.7844,18.0293 C9.7844,18.0293 9.7844,18.0293 9.7844,18.0293 C9.7844,18.0293 9.7844,18.0293 9.7844,18.0293 C9.7845,18.0293 9.7844,18.0293 9.7844,18.0293 C9.7844,18.0293 9.7844,18.0293 9.7844,18.0293 C9.7844,18.0293 9.7844,18.0293 9.7844,18.0293 C9.7844,18.0293 9.7844,18.0293 9.7844,18.0293 C9.7844,18.0293 9.7844,18.0293 9.7844,18.0293 C9.7844,18.0293 9.7844,18.0293 9.7844,18.0293 C9.7845,18.0293 9.7844,18.0293 9.7844,18.0293 L16.8527444,25.1031 Z M16.8537,25.1022 C16.8495,25.1064 16.8449,25.1109 16.84,25.1158 L9.7903,18.0235 C9.7875,18.0262 9.785,18.0287 9.7829,18.0308 L16.8537,25.1022 Z M16.8401,25.1157 C15.6739,26.2749 14.0527,27 12.2717,27 L12.2717,17 C11.305,17 10.4212,17.3963 9.7902,18.0236 L16.8401,25.1157 Z M12.2717,27 C11.4023,27 10.5609,26.826 9.7899,26.5063 L13.6204,17.2691 C13.1985,17.0941 12.7398,17 12.2717,17 L12.2717,27 Z M9.7936,26.5078 C9.0281,26.1911 8.315,25.7238 7.7032,25.1155 L14.7534,18.0237 C14.4239,17.6962 14.0357,17.4409 13.6168,17.2675 L9.7936,26.5078 Z M7.7034,25.1158 C7.6985,25.1109 7.694,25.1064 7.6897,25.1022 L14.7606,18.0308 C14.7584,18.0287 14.7559,18.0262 14.7532,18.0235 L7.7034,25.1158 Z M7.691,25.1034 C7.691,25.1034 7.691,25.1034 7.691,25.1034 C7.691,25.1034 7.691,25.1034 7.691,25.1034 C7.691,25.1034 7.691,25.1034 7.691,25.1034 C7.691,25.1034 7.691,25.1034 7.691,25.1034 C7.691,25.1034 7.691,25.1034 7.691,25.1034 C7.691,25.1034 7.691,25.1034 7.691,25.1034 C7.691,25.1034 7.691,25.1034 7.691,25.1034 C7.691,25.1034 7.691,25.1034 7.691,25.1034 C7.691,25.1034 7.691,25.1034 7.691,25.1034 C7.691,25.1034 7.691,25.1034 7.691,25.1034 C7.691,25.1034 7.691,25.1034 7.691,25.1034 C7.691,25.1034 7.691,25.1034 7.691,25.1034 C7.691,25.1034 7.691,25.1034 7.691,25.1034 C7.691,25.1034 7.691,25.1034 7.691,25.1034 C7.691,25.1034 7.691,25.1034 7.691,25.1034 C7.691,25.1034 7.691,25.1034 7.691,25.1034 C7.691,25.1034 7.691,25.1034 7.691,25.1034 C7.691,25.1034 7.691,25.1034 7.691,25.1034 C7.691,25.1034 7.691,25.1034 7.691,25.1034 C7.691,25.1034 7.691,25.1034 7.691,25.1034 C7.691,25.1034 7.691,25.1034 7.691,25.1034 C7.691,25.1034 7.691,25.1034 7.691,25.1034 C7.691,25.1034 7.691,25.1034 7.691,25.1034 C7.691,25.1034 7.691,25.1034 7.691,25.1034 C7.691,25.1034 7.691,25.1034 7.691,25.1034 C7.691,25.1034 7.691,25.1034 7.691,25.1034 C7.691,25.1034 7.691,25.1034 7.691,25.1034 C7.691,25.1034 7.691,25.1034 7.691,25.1034 C7.691,25.1034 7.691,25.1034 7.691,25.1034 C7.691,25.1034 7.691,25.1034 7.691,25.1034 C7.691,25.1034 7.691,25.1034 7.691,25.1034 C7.691,25.1034 7.691,25.1034 7.691,25.1034 C7.691,25.1034 7.691,25.1034 7.691,25.1034 C7.691,25.1034 7.691,25.1034 7.691,25.1034 C7.691,25.1034 7.691,25.1034 7.691,25.1034 C7.691,25.1034 7.691,25.1034 7.691,25.1034 C7.691,25.1034 7.691,25.1034 7.691,25.1034 C7.691,25.1034 7.691,25.1034 7.691,25.1034 C7.691,25.1034 7.691,25.1034 7.691,25.1034 C7.691,25.1034 7.691,25.1034 7.691,25.1034 C7.691,25.1034 7.691,25.1034 7.691,25.1034 C7.691,25.1034 7.691,25.1034 7.691,25.1034 C7.6909,25.1034 7.691,25.1034 7.691,25.1034 C7.6909,25.1034 7.691,25.1034 7.691,25.1034 C7.691,25.1034 7.691,25.1034 7.691,25.1034 C7.691,25.1034 7.691,25.1034 7.691,25.1034 C7.691,25.1034 7.691,25.1034 7.691,25.1034 C7.691,25.1034 7.691,25.1034 7.691,25.1034 C7.6909,25.1033 7.691,25.1034 7.691,25.1034 C7.6909,25.1034 7.691,25.1034 7.691,25.1034 C7.691,25.1034 7.691,25.1034 7.691,25.1034 C7.691,25.1034 7.691,25.1034 7.691,25.1034 C7.691,25.1034 7.691,25.1034 7.691,25.1034 C7.691,25.1034 7.691,25.1034 7.691,25.1034 C7.6909,25.1033 7.691,25.1034 7.691,25.1034 C7.6909,25.1033 7.691,25.1034 7.691,25.1034 C7.691,25.1034 7.691,25.1034 7.691,25.1034 C7.691,25.1034 7.691,25.1034 7.691,25.1034 C7.691,25.1034 7.691,25.1034 7.691,25.1034 C7.691,25.1034 7.691,25.1034 7.691,25.1034 C7.6909,25.1033 7.691,25.1034 7.691,25.1034 C7.6909,25.1033 7.691,25.1034 7.691,25.1034 C7.691,25.1034 7.691,25.1034 7.6909,25.1034 C7.6909,25.1034 7.6909,25.1034 7.6909,25.1034 C7.6909,25.1034 7.6909,25.1034 7.6909,25.1034 C7.6909,25.1034 7.6909,25.1034 7.6909,25.1034 C7.6909,25.1033 7.691,25.1034 7.6909,25.1034 C7.6909,25.1033 7.691,25.1034 7.6909,25.1034 C7.6909,25.1034 7.6909,25.1034 7.6909,25.1034 C7.6909,25.1034 7.6909,25.1034 7.6909,25.1034 C7.6909,25.1034 7.6909,25.1034 7.6909,25.1034 C7.6909,25.1034 7.6909,25.1034 7.6909,25.1034 C7.6909,25.1033 7.691,25.1034 7.6909,25.1034 C7.6909,25.1033 7.691,25.1034 7.6909,25.1033 C7.6909,25.1033 7.6909,25.1033 7.6909,25.1033 C7.6909,25.1033 7.6909,25.1033 7.6909,25.1033 C7.6909,25.1033 7.6909,25.1033 7.6909,25.1033 C7.6909,25.1033 7.6909,25.1033 7.6909,25.1033 C7.6909,25.1033 7.691,25.1034 7.6909,25.1033 C7.6909,25.1033 7.691,25.1034 7.6909,25.1033 C7.6909,25.1033 7.6909,25.1033 7.6909,25.1033 C7.6909,25.1033 7.6909,25.1033 7.6909,25.1033 C7.6909,25.1033 7.6909,25.1033 7.6909,25.1033 C7.6909,25.1033 7.6909,25.1033 7.6909,25.1033 C7.6909,25.1033 7.691,25.1034 7.6909,25.1033 C7.6909,25.1033 7.6909,25.1034 7.6909,25.1033 C7.6909,25.1033 7.6909,25.1033 7.6909,25.1033 C7.6909,25.1033 7.6909,25.1033 7.6909,25.1033 C7.6909,25.1033 7.6909,25.1033 7.6909,25.1033 C7.6909,25.1033 7.6909,25.1033 7.6909,25.1033 C7.6909,25.1033 7.691,25.1034 7.6909,25.1033 C7.6909,25.1033 7.6909,25.1034 7.6909,25.1033 C7.6909,25.1033 7.6909,25.1033 7.6909,25.1033 C7.6909,25.1033 7.6909,25.1033 7.6909,25.1033 C7.6909,25.1033 7.6909,25.1033 7.6909,25.1033 C7.6909,25.1033 7.6909,25.1033 7.6909,25.1033 C7.6909,25.1033 7.6909,25.1034 7.6909,25.1033 C7.6909,25.1033 7.6909,25.1033 7.6909,25.1033 C7.6909,25.1033 7.6909,25.1033 7.6909,25.1033 C7.6909,25.1033 7.6909,25.1033 7.6909,25.1033 C7.6909,25.1033 7.6909,25.1033 7.6909,25.1033 C7.6909,25.1033 7.6909,25.1033 7.6909,25.1033 C7.6909,25.1033 7.6909,25.1034 7.6909,25.1033 C7.6909,25.1033 7.6909,25.1033 7.6909,25.1033 C7.6909,25.1033 7.6909,25.1033 7.6909,25.1033 C7.6909,25.1033 7.6909,25.1033 7.6909,25.1033 C7.6909,25.1033 7.6909,25.1033 7.6909,25.1033 C7.6909,25.1033 7.6909,25.1033 7.6909,25.1033 C7.6909,25.1033 7.6909,25.1033 7.6909,25.1033 C7.6909,25.1033 7.6909,25.1033 7.6909,25.1033 C7.6909,25.1033 7.6909,25.1033 7.6909,25.1033 C7.6909,25.1033 7.6909,25.1033 7.6909,25.1033 C7.6909,25.1033 7.6909,25.1033 7.6909,25.1033 C7.6909,25.1033 7.6909,25.1033 7.6909,25.1033 C7.6909,25.1033 7.6909,25.1033 7.6909,25.1033 C7.6909,25.1033 7.6909,25.1033 7.6909,25.1033 C7.6909,25.1033 7.6909,25.1033 7.6909,25.1033 C7.6909,25.1033 7.6909,25.1033 7.6909,25.1033 C7.6909,25.1033 7.6909,25.1033 7.6909,25.1033 C7.6909,25.1033 7.6909,25.1033 7.6909,25.1033 C7.6909,25.1033 7.6909,25.1033 7.6909,25.1033 C7.6909,25.1033 7.6909,25.1033 7.6909,25.1033 C7.6909,25.1033 7.6909,25.1033 7.6909,25.1033 C7.6909,25.1033 7.6909,25.1033 7.6909,25.1033 C7.6909,25.1033 7.6909,25.1033 7.6909,25.1033 C7.6909,25.1033 7.6909,25.1033 7.6909,25.1033 C7.6909,25.1033 7.6909,25.1033 7.6909,25.1033 C7.6909,25.1033 7.6909,25.1033 7.6909,25.1033 C7.6909,25.1033 7.6909,25.1033 7.6909,25.1033 C7.6909,25.1033 7.6909,25.1033 7.6909,25.1033 C7.6909,25.1033 7.6909,25.1033 7.6909,25.1033 C7.6909,25.1033 7.6909,25.1033 7.6909,25.1033 C7.6909,25.1033 7.6909,25.1033 7.6909,25.1033 C7.6909,25.1033 7.6909,25.1033 7.6909,25.1033 C7.6909,25.1033 7.6909,25.1033 7.6909,25.1033 C7.6909,25.1033 7.6909,25.1033 7.6909,25.1033 C7.6909,25.1033 7.6909,25.1033 7.6909,25.1033 C7.6909,25.1033 7.6909,25.1033 7.6909,25.1033 C7.6909,25.1033 7.6909,25.1033 7.6909,25.1033 C7.6909,25.1033 7.6909,25.1033 7.6909,25.1033 C7.6909,25.1033 7.6909,25.1033 7.6909,25.1033 C7.6909,25.1033 7.6909,25.1033 7.6909,25.1033 C7.6909,25.1033 7.6909,25.1033 7.6909,25.1033 C7.6909,25.1033 7.6909,25.1033 7.6909,25.1033 C7.6909,25.1033 7.6909,25.1033 7.6909,25.1033 C7.6909,25.1033 7.6909,25.1033 7.6909,25.1033 C7.6909,25.1033 7.6909,25.1033 7.6909,25.1033 C7.6909,25.1033 7.6909,25.1033 7.6909,25.1033 C7.6909,25.1033 7.6909,25.1033 7.6909,25.1033 C7.6909,25.1033 7.6909,25.1033 7.6909,25.1033 C7.6909,25.1033 7.6909,25.1033 7.6909,25.1033 C7.6909,25.1033 7.6909,25.1033 7.6909,25.1033 C7.6909,25.1033 7.6909,25.1033 7.6909,25.1033 C7.6909,25.1033 7.6909,25.1033 7.6909,25.1033 C7.6909,25.1033 7.6909,25.1033 7.6909,25.1033 C7.6909,25.1033 7.6909,25.1033 7.6909,25.1033 C7.6909,25.1033 7.6909,25.1033 7.6909,25.1033 C7.6909,25.1033 7.6909,25.1033 7.6909,25.1033 C7.6909,25.1033 7.6909,25.1033 7.6909,25.1033 C7.6909,25.1033 7.6909,25.1033 7.6909,25.1033 C7.6909,25.1033 7.6909,25.1033 7.6909,25.1033 C7.6909,25.1033 7.6909,25.1033 7.6909,25.1033 C7.6908,25.1033 7.6909,25.1033 7.6909,25.1033 C7.6909,25.1033 7.6909,25.1033 7.6909,25.1033 C7.6909,25.1033 7.6909,25.1033 7.6909,25.1033 C7.6909,25.1033 7.6909,25.1033 7.6909,25.1033 C7.6909,25.1033 7.6909,25.1033 7.6909,25.1033 C7.6909,25.1033 7.6909,25.1033 7.6909,25.1033 C7.6908,25.1033 7.6909,25.1033 7.6909,25.1033 C7.6909,25.1033 7.6909,25.1033 7.6909,25.1033 C7.6909,25.1033 7.6909,25.1033 7.6909,25.1033 C7.6909,25.1033 7.6909,25.1033 7.6909,25.1033 C7.6909,25.1033 7.6909,25.1033 7.6909,25.1033 C7.6909,25.1033 7.6909,25.1033 7.6909,25.1033 C7.6908,25.1033 7.6909,25.1033 7.6909,25.1033 C7.6908,25.1033 7.6909,25.1033 7.6909,25.1033 C7.6909,25.1033 7.6909,25.1033 7.6909,25.1033 C7.6909,25.1033 7.6909,25.1033 7.6909,25.1033 C7.6909,25.1033 7.6909,25.1033 7.6909,25.1033 C7.6909,25.1033 7.6909,25.1033 7.6909,25.1033 C7.6908,25.1032 7.6909,25.1033 7.6909,25.1033 C7.6908,25.1033 7.6909,25.1033 7.6909,25.1033 C7.6909,25.1033 7.6909,25.1033 7.6909,25.1033 C7.6909,25.1033 7.6909,25.1033 7.6909,25.1033 C7.6909,25.1033 7.6909,25.1033 7.6909,25.1033 C7.6909,25.1033 7.6909,25.1033 7.6909,25.1033 C7.6908,25.1032 7.6909,25.1033 7.6909,25.1033 C7.6908,25.1032 7.6909,25.1033 7.6909,25.1033 C7.6909,25.1033 7.6909,25.1033 7.6909,25.1033 C7.6909,25.1033 7.6909,25.1033 7.6909,25.1033 C7.6909,25.1033 7.6909,25.1033 7.6909,25.1033 C7.6909,25.1033 7.6909,25.1033 7.6909,25.1033 C7.6908,25.1032 7.6909,25.1033 7.6909,25.1033 C7.6908,25.1032 7.6909,25.1033 7.6908,25.1033 C7.6908,25.1033 7.6908,25.1033 7.6908,25.1033 C7.6908,25.1033 7.6908,25.1033 7.6908,25.1033 C7.6908,25.1033 7.6908,25.1033 7.6908,25.1033 C7.6908,25.1033 7.6908,25.1033 7.6908,25.1033 C7.6908,25.1032 7.6909,25.1033 7.6908,25.1033 C7.6908,25.1032 7.6909,25.1033 7.6908,25.1033 C7.6908,25.1033 7.6908,25.1033 7.6908,25.1033 C7.6908,25.1033 7.6908,25.1033 7.6908,25.1033 C7.6908,25.1033 7.6908,25.1033 7.6908,25.1033 C7.6908,25.1033 7.6908,25.1033 7.6908,25.1033 C7.6908,25.1032 7.6909,25.1033 7.6908,25.1032 C7.6908,25.1032 7.6909,25.1033 7.6908,25.1032 C7.6908,25.1032 7.6908,25.1032 7.6908,25.1032 C7.6908,25.1032 7.6908,25.1032 7.6908,25.1032 C7.6908,25.1032 7.6908,25.1032 7.6908,25.1032 C7.6908,25.1032 7.6908,25.1032 7.6908,25.1032 C7.6908,25.1032 7.6909,25.1033 7.6908,25.1032 C7.6908,25.1032 7.6908,25.1033 7.6908,25.1032 C7.6908,25.1032 7.6908,25.1032 7.6908,25.1032 C7.6908,25.1032 7.6908,25.1032 7.6908,25.1032 C7.6908,25.1032 7.6908,25.1032 7.6908,25.1032 C7.6908,25.1032 7.6908,25.1032 7.6908,25.1032 C7.6908,25.1032 7.6909,25.1033 7.6908,25.1032 C7.6908,25.1032 7.6908,25.1033 7.6908,25.1032 C7.6908,25.1032 7.6908,25.1032 7.6908,25.1032 C7.6908,25.1032 7.6908,25.1032 7.6908,25.1032 C7.6908,25.1032 7.6908,25.1032 7.6908,25.1032 C7.6908,25.1032 7.6908,25.1032 7.6908,25.1032 C7.6908,25.1032 7.6909,25.1033 7.6908,25.1032 C7.6908,25.1032 7.6908,25.1033 7.6908,25.1032 C7.6908,25.1032 7.6908,25.1032 7.6908,25.1032 C7.6908,25.1032 7.6908,25.1032 7.6908,25.1032 C7.6908,25.1032 7.6908,25.1032 7.6908,25.1032 C7.6908,25.1032 7.6908,25.1032 7.6908,25.1032 C7.6908,25.1032 7.6908,25.1033 7.6908,25.1032 C7.6908,25.1032 7.6908,25.1032 7.6908,25.1032 C7.6908,25.1032 7.6908,25.1032 7.6908,25.1032 C7.6908,25.1032 7.6908,25.1032 7.6908,25.1032 C7.6908,25.1032 7.6908,25.1032 7.6908,25.1032 C7.6908,25.1032 7.6908,25.1032 7.6908,25.1032 C7.6908,25.1032 7.6908,25.1032 7.6908,25.1032 C7.6908,25.1032 7.6908,25.1032 7.6908,25.1032 C7.6908,25.1032 7.6908,25.1032 7.6908,25.1032 C7.6908,25.1032 7.6908,25.1032 7.6908,25.1032 C7.6908,25.1032 7.6908,25.1032 7.6908,25.1032 C7.6908,25.1032 7.6908,25.1032 7.6908,25.1032 C7.6908,25.1032 7.6908,25.1032 7.6908,25.1032 C7.6908,25.1032 7.6908,25.1032 7.6908,25.1032 C7.6908,25.1032 7.6908,25.1032 7.6908,25.1032 C7.6908,25.1032 7.6908,25.1032 7.6908,25.1032 C7.6908,25.1032 7.6908,25.1032 7.6908,25.1032 C7.6908,25.1032 7.6908,25.1032 7.6908,25.1032 C7.6908,25.1032 7.6908,25.1032 7.6908,25.1032 C7.6908,25.1032 7.6908,25.1032 7.6908,25.1032 C7.6908,25.1032 7.6908,25.1032 7.6908,25.1032 C7.6908,25.1032 7.6908,25.1032 7.6908,25.1032 C7.6908,25.1032 7.6908,25.1032 7.6908,25.1032 C7.6908,25.1032 7.6908,25.1032 7.6908,25.1032 C7.6908,25.1032 7.6908,25.1032 7.6908,25.1032 C7.6908,25.1032 7.6908,25.1032 7.6908,25.1032 C7.6908,25.1032 7.6908,25.1032 7.6908,25.1032 C7.6908,25.1032 7.6908,25.1032 7.6908,25.1032 C7.6908,25.1032 7.6908,25.1032 7.6908,25.1032 C7.6908,25.1032 7.6908,25.1032 7.6908,25.1032 C7.6908,25.1032 7.6908,25.1032 7.6908,25.1032 C7.6908,25.1032 7.6908,25.1032 7.6908,25.1032 C7.6908,25.1032 7.6908,25.1032 7.6908,25.1032 C7.6908,25.1032 7.6908,25.1032 7.6908,25.1032 C7.6908,25.1032 7.6908,25.1032 7.6908,25.1032 C7.6908,25.1032 7.6908,25.1032 7.6908,25.1032 C7.6908,25.1032 7.6908,25.1032 7.6908,25.1032 C7.6908,25.1032 7.6908,25.1032 7.6908,25.1032 C7.6908,25.1032 7.6908,25.1032 7.6908,25.1032 C7.6908,25.1032 7.6908,25.1032 7.6908,25.1032 C7.6908,25.1032 7.6908,25.1032 7.6908,25.1032 C7.6908,25.1032 7.6908,25.1032 7.6908,25.1032 C7.6908,25.1032 7.6908,25.1032 7.6908,25.1032 C7.6908,25.1032 7.6908,25.1032 7.6908,25.1032 C7.6908,25.1032 7.6908,25.1032 7.6908,25.1032 C7.6908,25.1032 7.6908,25.1032 7.6908,25.1032 C7.6908,25.1032 7.6908,25.1032 7.6908,25.1032 C7.6908,25.1032 7.6908,25.1032 7.6908,25.1032 C7.6908,25.1032 7.6908,25.1032 7.6908,25.1032 C7.6908,25.1032 7.6908,25.1032 7.6908,25.1032 C7.6908,25.1032 7.6908,25.1032 7.6908,25.1032 C7.6908,25.1032 7.6908,25.1032 7.6908,25.1032 C7.6908,25.1032 7.6908,25.1032 7.6908,25.1032 C7.6908,25.1032 7.6908,25.1032 7.6908,25.1032 C7.6908,25.1032 7.6908,25.1032 7.6908,25.1032 C7.6908,25.1032 7.6908,25.1032 7.6908,25.1032 C7.6908,25.1032 7.6908,25.1032 7.6908,25.1032 C7.6908,25.1032 7.6908,25.1032 7.6908,25.1032 C7.6908,25.1032 7.6908,25.1032 7.6908,25.1032 C7.6908,25.1032 7.6908,25.1032 7.6908,25.1032 C7.6908,25.1032 7.6908,25.1032 7.6908,25.1032 C7.6908,25.1032 7.6908,25.1032 7.6908,25.1032 C7.6908,25.1032 7.6908,25.1032 7.6908,25.1032 C7.6908,25.1032 7.6908,25.1032 7.6908,25.1032 C7.6908,25.1032 7.6908,25.1032 7.6908,25.1032 C7.6908,25.1032 7.6908,25.1032 7.6908,25.1032 C7.6907,25.1032 7.6908,25.1032 7.6908,25.1032 C7.6908,25.1032 7.6908,25.1032 7.6908,25.1032 C7.6908,25.1032 7.6908,25.1032 7.6908,25.1032 C7.6908,25.1032 7.6908,25.1032 7.6908,25.1032 C7.6908,25.1032 7.6908,25.1032 7.6908,25.1032 C7.6908,25.1032 7.6908,25.1032 7.6908,25.1032 C7.6907,25.1032 7.6908,25.1032 7.6908,25.1032 C7.6908,25.1032 7.6908,25.1032 7.6908,25.1032 C7.6908,25.1032 7.6908,25.1032 7.6908,25.1032 C7.6908,25.1032 7.6908,25.1032 7.6908,25.1032 C7.6908,25.1032 7.6908,25.1032 7.6908,25.1032 C7.6908,25.1032 7.6908,25.1032 7.6908,25.1032 C7.6907,25.1031 7.6908,25.1032 7.6908,25.1032 C7.6907,25.1032 7.6908,25.1032 7.6908,25.1032 C7.6908,25.1032 7.6908,25.1032 7.6908,25.1032 C7.6908,25.1032 7.6908,25.1032 7.6908,25.1032 C7.6908,25.1032 7.6908,25.1032 7.6908,25.1032 C7.6908,25.1032 7.6908,25.1032 7.6908,25.1032 C7.6907,25.1031 7.6908,25.1032 7.6908,25.1032 C7.6907,25.1031 7.6908,25.1032 7.6908,25.1032 C7.6908,25.1032 7.6908,25.1032 7.6908,25.1032 C7.6908,25.1032 7.6908,25.1032 7.6908,25.1032 C7.6908,25.1032 7.6908,25.1032 7.6908,25.1032 C7.6908,25.1032 7.6908,25.1032 7.6908,25.1032 C7.6907,25.1031 7.6908,25.1032 7.6908,25.1032 C7.6907,25.1031 7.6908,25.1032 7.6908,25.1032 C7.6908,25.1032 7.6908,25.1032 7.6908,25.1032 C7.6908,25.1032 7.6908,25.1032 7.6908,25.1032 C7.6908,25.1032 7.6908,25.1032 7.6908,25.1032 C7.6908,25.1032 7.6908,25.1032 7.6908,25.1032 C7.6907,25.1031 7.6908,25.1032 7.6907,25.1032 C7.6907,25.1031 7.6908,25.1032 7.6907,25.1032 C7.6907,25.1032 7.6907,25.1032 7.6907,25.1032 C7.6907,25.1032 7.6907,25.1032 7.6907,25.1032 C7.6907,25.1032 7.6907,25.1032 7.6907,25.1032 C7.6907,25.1032 7.6907,25.1032 7.6907,25.1032 C7.6907,25.1031 7.6908,25.1032 7.6907,25.1032 C7.6907,25.1031 7.6908,25.1032 7.6907,25.1032 C7.6907,25.1032 7.6907,25.1032 7.6907,25.1032 C7.6907,25.1032 7.6907,25.1032 7.6907,25.1032 C7.6907,25.1032 7.6907,25.1031 7.6907,25.1031 C7.6907,25.1031 7.6907,25.1031 7.6907,25.1031 C7.6907,25.1031 7.6908,25.1032 7.6907,25.1031 C7.6907,25.1031 7.6908,25.1032 7.6907,25.1031 C7.6907,25.1031 7.6907,25.1031 7.6907,25.1031 C7.6907,25.1031 7.6907,25.1031 7.6907,25.1031 C7.6907,25.1031 7.6907,25.1031 7.6907,25.1031 C7.6907,25.1031 7.6907,25.1031 7.6907,25.1031 C7.6907,25.1031 7.6908,25.1032 7.6907,25.1031 C7.6907,25.1031 7.6908,25.1032 7.6907,25.1031 C7.6907,25.1031 7.6907,25.1031 7.6907,25.1031 C7.6907,25.1031 7.6907,25.1031 7.6907,25.1031 C7.6907,25.1031 7.6907,25.1031 7.6907,25.1031 C7.6907,25.1031 7.6907,25.1031 7.6907,25.1031 C7.6907,25.1031 7.6908,25.1032 7.6907,25.1031 C7.6907,25.1031 7.6907,25.1032 7.6907,25.1031 C7.6907,25.1031 7.6907,25.1031 7.6907,25.1031 C7.6907,25.1031 7.6907,25.1031 7.6907,25.1031 C7.6907,25.1031 7.6907,25.1031 7.6907,25.1031 C7.6907,25.1031 7.6907,25.1031 7.6907,25.1031 C7.6907,25.1031 7.6908,25.1032 7.6907,25.1031 C7.6907,25.1031 7.6907,25.1031 7.6907,25.1031 C7.6907,25.1031 7.6907,25.1031 7.6907,25.1031 C7.6907,25.1031 7.6907,25.1031 7.6907,25.1031 C7.6907,25.1031 7.6907,25.1031 7.6907,25.1031 C7.6907,25.1031 7.6907,25.1031 7.6907,25.1031 C7.6907,25.1031 7.6907,25.1032 7.6907,25.1031 C7.6907,25.1031 7.6907,25.1031 7.6907,25.1031 C7.6907,25.1031 7.6907,25.1031 7.6907,25.1031 C7.6907,25.1031 7.6907,25.1031 7.6907,25.1031 C7.6907,25.1031 7.6907,25.1031 7.6907,25.1031 C7.6907,25.1031 7.6907,25.1031 7.6907,25.1031 C7.6907,25.1031 7.6907,25.1031 7.6907,25.1031 C7.6907,25.1031 7.6907,25.1031 7.6907,25.1031 C7.6907,25.1031 7.6907,25.1031 7.6907,25.1031 C7.6907,25.1031 7.6907,25.1031 7.6907,25.1031 C7.6907,25.1031 7.6907,25.1031 7.6907,25.1031 C7.6907,25.1031 7.6907,25.1031 7.6907,25.1031 C7.6907,25.1031 7.6907,25.1031 7.6907,25.1031 C7.6907,25.1031 7.6907,25.1031 7.6907,25.1031 C7.6907,25.1031 7.6907,25.1031 7.6907,25.1031 C7.6907,25.1031 7.6907,25.1031 7.6907,25.1031 C7.6907,25.1031 7.6907,25.1031 7.6907,25.1031 C7.6907,25.1031 7.6907,25.1031 7.6907,25.1031 C7.6907,25.1031 7.6907,25.1031 7.6907,25.1031 C7.6907,25.1031 7.6907,25.1031 7.6907,25.1031 C7.6907,25.1031 7.6907,25.1031 7.6907,25.1031 C7.6907,25.1031 7.6907,25.1031 7.6907,25.1031 C7.6907,25.1031 7.6907,25.1031 7.6907,25.1031 C7.6907,25.1031 7.6907,25.1031 7.6907,25.1031 L14.759,18.0293 C14.759,18.0293 14.759,18.0293 14.759,18.0293 C14.759,18.0293 14.759,18.0293 14.759,18.0293 C14.759,18.0293 14.759,18.0293 14.759,18.0293 C14.759,18.0293 14.759,18.0293 14.759,18.0293 C14.759,18.0293 14.759,18.0293 14.759,18.0293 C14.759,18.0293 14.759,18.0293 14.759,18.0293 C14.759,18.0293 14.759,18.0293 14.759,18.0293 C14.759,18.0293 14.759,18.0293 14.759,18.0293 C14.759,18.0293 14.759,18.0293 14.759,18.0293 C14.759,18.0293 14.759,18.0293 14.759,18.0293 C14.759,18.0293 14.759,18.0293 14.759,18.0293 C14.759,18.0293 14.759,18.0293 14.759,18.0293 C14.759,18.0293 14.759,18.0293 14.759,18.0293 C14.759,18.0293 14.759,18.0293 14.759,18.0293 C14.759,18.0293 14.759,18.0293 14.759,18.0293 C14.759,18.0293 14.759,18.0293 14.759,18.0293 C14.759,18.0293 14.759,18.0293 14.759,18.0293 C14.759,18.0293 14.759,18.0293 14.759,18.0293 C14.759,18.0293 14.759,18.0293 14.759,18.0293 C14.759,18.0293 14.759,18.0293 14.759,18.0293 C14.759,18.0293 14.759,18.0293 14.759,18.0293 C14.759,18.0293 14.759,18.0293 14.759,18.0293 C14.759,18.0293 14.759,18.0293 14.759,18.0293 C14.759,18.0293 14.759,18.0293 14.759,18.0293 C14.759,18.0293 14.759,18.0293 14.759,18.0293 C14.759,18.0293 14.759,18.0293 14.759,18.0293 C14.759,18.0293 14.759,18.0293 14.759,18.0293 C14.759,18.0293 14.759,18.0293 14.759,18.0293 C14.759,18.0293 14.759,18.0293 14.759,18.0293 C14.759,18.0293 14.759,18.0293 14.759,18.0293 C14.759,18.0293 14.759,18.0293 14.759,18.0293 C14.759,18.0293 14.759,18.0293 14.759,18.0293 C14.759,18.0293 14.759,18.0293 14.759,18.0293 C14.759,18.0293 14.759,18.0293 14.759,18.0293 C14.759,18.0293 14.759,18.0293 14.759,18.0293 C14.759,18.0293 14.759,18.0293 14.759,18.0293 C14.759,18.0293 14.759,18.0293 14.759,18.0293 C14.759,18.0293 14.759,18.0293 14.759,18.0293 C14.759,18.0293 14.759,18.0293 14.759,18.0293 C14.759,18.0293 14.759,18.0293 14.759,18.0293 C14.759,18.0293 14.759,18.0293 14.759,18.0293 C14.759,18.0293 14.759,18.0293 14.759,18.0293 C14.7591,18.0293 14.759,18.0293 14.759,18.0293 C14.7591,18.0293 14.759,18.0293 14.759,18.0293 C14.759,18.0293 14.759,18.0293 14.759,18.0293 C14.759,18.0293 14.759,18.0293 14.759,18.0293 C14.759,18.0293 14.759,18.0293 14.759,18.0293 C14.759,18.0293 14.759,18.0293 14.759,18.0293 C14.7591,18.0293 14.759,18.0293 14.759,18.0293 C14.7591,18.0293 14.759,18.0293 14.759,18.0293 C14.759,18.0293 14.759,18.0293 14.759,18.0293 C14.759,18.0293 14.759,18.0293 14.759,18.0293 C14.759,18.0293 14.759,18.0293 14.759,18.0293 C14.7591,18.0293 14.7591,18.0293 14.7591,18.0293 C14.7591,18.0293 14.759,18.0293 14.7591,18.0293 C14.7591,18.0293 14.759,18.0293 14.7591,18.0293 C14.7591,18.0293 14.7591,18.0293 14.7591,18.0293 C14.7591,18.0293 14.7591,18.0293 14.7591,18.0293 C14.7591,18.0293 14.7591,18.0293 14.7591,18.0293 C14.7591,18.0293 14.7591,18.0293 14.7591,18.0293 C14.7591,18.0293 14.759,18.0293 14.7591,18.0293 C14.7591,18.0293 14.759,18.0293 14.7591,18.0293 C14.7591,18.0293 14.7591,18.0293 14.7591,18.0293 C14.7591,18.0293 14.7591,18.0293 14.7591,18.0293 C14.7591,18.0293 14.7591,18.0293 14.7591,18.0293 C14.7591,18.0293 14.7591,18.0293 14.7591,18.0293 C14.7591,18.0294 14.759,18.0293 14.7591,18.0293 C14.7591,18.0293 14.7591,18.0293 14.7591,18.0293 C14.7591,18.0293 14.7591,18.0293 14.7591,18.0293 C14.7591,18.0293 14.7591,18.0293 14.7591,18.0293 C14.7591,18.0293 14.7591,18.0293 14.7591,18.0293 C14.7591,18.0293 14.7591,18.0293 14.7591,18.0293 C14.7591,18.0294 14.7591,18.0293 14.7591,18.0293 C14.7591,18.0293 14.7591,18.0293 14.7591,18.0293 C14.7591,18.0293 14.7591,18.0293 14.7591,18.0293 C14.7591,18.0293 14.7591,18.0293 14.7591,18.0293 C14.7591,18.0293 14.7591,18.0293 14.7591,18.0293 C14.7591,18.0293 14.7591,18.0293 14.7591,18.0293 C14.7591,18.0294 14.7591,18.0293 14.7591,18.0293 C14.7591,18.0294 14.7591,18.0293 14.7591,18.0293 C14.7591,18.0293 14.7591,18.0293 14.7591,18.0293 C14.7591,18.0293 14.7591,18.0293 14.7591,18.0293 C14.7591,18.0293 14.7591,18.0293 14.7591,18.0293 C14.7591,18.0293 14.7591,18.0293 14.7591,18.0293 C14.7591,18.0294 14.7591,18.0293 14.7591,18.0293 C14.7591,18.0294 14.7591,18.0293 14.7591,18.0293 C14.7591,18.0293 14.7591,18.0293 14.7591,18.0293 C14.7591,18.0293 14.7591,18.0293 14.7591,18.0294 C14.7591,18.0294 14.7591,18.0294 14.7591,18.0294 C14.7591,18.0294 14.7591,18.0294 14.7591,18.0294 C14.7591,18.0294 14.7591,18.0293 14.7591,18.0294 C14.7591,18.0294 14.7591,18.0293 14.7591,18.0294 C14.7591,18.0294 14.7591,18.0294 14.7591,18.0294 C14.7591,18.0294 14.7591,18.0294 14.7591,18.0294 C14.7591,18.0294 14.7591,18.0294 14.7591,18.0294 C14.7591,18.0294 14.7591,18.0294 14.7591,18.0294 C14.7591,18.0294 14.7591,18.0293 14.7591,18.0294 C14.7591,18.0294 14.7591,18.0293 14.7591,18.0294 C14.7591,18.0294 14.7591,18.0294 14.7591,18.0294 C14.7591,18.0294 14.7591,18.0294 14.7591,18.0294 C14.7591,18.0294 14.7591,18.0294 14.7591,18.0294 C14.7591,18.0294 14.7591,18.0294 14.7591,18.0294 C14.7591,18.0294 14.7591,18.0293 14.7591,18.0294 C14.7591,18.0294 14.7591,18.0294 14.7591,18.0294 C14.7591,18.0294 14.7591,18.0294 14.7591,18.0294 C14.7591,18.0294 14.7591,18.0294 14.7591,18.0294 C14.7591,18.0294 14.7591,18.0294 14.7591,18.0294 C14.7591,18.0294 14.7591,18.0294 14.7591,18.0294 C14.7591,18.0294 14.7591,18.0294 14.7591,18.0294 C14.7591,18.0294 14.7591,18.0294 14.7591,18.0294 C14.7591,18.0294 14.7591,18.0294 14.7591,18.0294 C14.7591,18.0294 14.7591,18.0294 14.7591,18.0294 C14.7591,18.0294 14.7591,18.0294 14.7591,18.0294 C14.7591,18.0294 14.7591,18.0294 14.7591,18.0294 C14.7591,18.0294 14.7591,18.0294 14.7591,18.0294 C14.7591,18.0294 14.7591,18.0294 14.7591,18.0294 C14.7591,18.0294 14.7591,18.0294 14.7591,18.0294 C14.7591,18.0294 14.7591,18.0294 14.7591,18.0294 C14.7591,18.0294 14.7591,18.0294 14.7591,18.0294 C14.7591,18.0294 14.7591,18.0294 14.7591,18.0294 C14.7591,18.0294 14.7591,18.0294 14.7591,18.0294 C14.7591,18.0294 14.7591,18.0294 14.7591,18.0294 C14.7591,18.0294 14.7591,18.0294 14.7591,18.0294 C14.7591,18.0294 14.7591,18.0294 14.7591,18.0294 C14.7591,18.0294 14.7591,18.0294 14.7591,18.0294 C14.7591,18.0294 14.7591,18.0294 14.7591,18.0294 C14.7591,18.0294 14.7591,18.0294 14.7591,18.0294 C14.7591,18.0294 14.7591,18.0294 14.7591,18.0294 C14.7591,18.0294 14.7591,18.0294 14.7591,18.0294 C14.7591,18.0294 14.7591,18.0294 14.7591,18.0294 C14.7591,18.0294 14.7591,18.0294 14.7591,18.0294 C14.7591,18.0294 14.7591,18.0294 14.7591,18.0294 C14.7591,18.0294 14.7591,18.0294 14.7591,18.0294 C14.7591,18.0294 14.7591,18.0294 14.7591,18.0294 C14.7591,18.0294 14.7591,18.0294 14.7591,18.0294 C14.7591,18.0294 14.7591,18.0294 14.7591,18.0294 C14.7591,18.0294 14.7591,18.0294 14.7591,18.0294 C14.7591,18.0294 14.7591,18.0294 14.7591,18.0294 C14.7591,18.0294 14.7591,18.0294 14.7591,18.0294 C14.7591,18.0294 14.7591,18.0294 14.7591,18.0294 C14.7591,18.0294 14.7591,18.0294 14.7591,18.0294 C14.7591,18.0294 14.7591,18.0294 14.7591,18.0294 C14.7591,18.0294 14.7591,18.0294 14.7591,18.0294 C14.7591,18.0294 14.7591,18.0294 14.7591,18.0294 C14.7591,18.0294 14.7591,18.0294 14.7591,18.0294 C14.7591,18.0294 14.7591,18.0294 14.7591,18.0294 C14.7591,18.0294 14.7591,18.0294 14.7591,18.0294 C14.7591,18.0294 14.7591,18.0294 14.7591,18.0294 C14.7591,18.0294 14.7591,18.0294 14.7591,18.0294 C14.7591,18.0294 14.7591,18.0294 14.7591,18.0294 C14.7591,18.0294 14.7591,18.0294 14.7591,18.0294 C14.7591,18.0294 14.7591,18.0294 14.7591,18.0294 C14.7591,18.0294 14.7591,18.0294 14.7591,18.0294 C14.7591,18.0294 14.7591,18.0294 14.7591,18.0294 C14.7591,18.0294 14.7591,18.0294 14.7591,18.0294 C14.7591,18.0294 14.7591,18.0294 14.7591,18.0294 C14.7591,18.0294 14.7591,18.0294 14.7591,18.0294 C14.7591,18.0294 14.7591,18.0294 14.7591,18.0294 C14.7591,18.0294 14.7591,18.0294 14.7591,18.0294 C14.7591,18.0294 14.7591,18.0294 14.7591,18.0294 C14.7591,18.0294 14.7591,18.0294 14.7591,18.0294 C14.7591,18.0294 14.7591,18.0294 14.7591,18.0294 C14.7592,18.0294 14.7591,18.0294 14.7591,18.0294 C14.7591,18.0294 14.7591,18.0294 14.7591,18.0294 C14.7591,18.0294 14.7591,18.0294 14.7591,18.0294 C14.7591,18.0294 14.7591,18.0294 14.7591,18.0294 C14.7591,18.0294 14.7591,18.0294 14.7591,18.0294 C14.7591,18.0294 14.7591,18.0294 14.7591,18.0294 C14.7592,18.0294 14.7591,18.0294 14.7591,18.0294 C14.7591,18.0294 14.7591,18.0294 14.7591,18.0294 C14.7591,18.0294 14.7591,18.0294 14.7591,18.0294 C14.7591,18.0294 14.7591,18.0294 14.7591,18.0294 C14.7591,18.0294 14.7591,18.0294 14.7591,18.0294 C14.7591,18.0294 14.7591,18.0294 14.7591,18.0294 C14.7592,18.0294 14.7591,18.0294 14.7591,18.0294 C14.7592,18.0294 14.7591,18.0294 14.7591,18.0294 C14.7591,18.0294 14.7591,18.0294 14.7591,18.0294 C14.7591,18.0294 14.7591,18.0294 14.7591,18.0294 C14.7591,18.0294 14.7591,18.0294 14.7591,18.0294 C14.7591,18.0294 14.7591,18.0294 14.7591,18.0294 C14.7592,18.0294 14.7591,18.0294 14.7591,18.0294 C14.7592,18.0294 14.7591,18.0294 14.7591,18.0294 C14.7591,18.0294 14.7591,18.0294 14.7591,18.0294 C14.7592,18.0294 14.7592,18.0294 14.7592,18.0294 C14.7592,18.0294 14.7592,18.0294 14.7592,18.0294 C14.7592,18.0294 14.7592,18.0294 14.7592,18.0294 C14.7592,18.0294 14.7591,18.0294 14.7592,18.0294 C14.7592,18.0294 14.7591,18.0294 14.7592,18.0294 C14.7592,18.0294 14.7592,18.0294 14.7592,18.0294 C14.7592,18.0294 14.7592,18.0294 14.7592,18.0294 C14.7592,18.0294 14.7592,18.0294 14.7592,18.0294 C14.7592,18.0294 14.7592,18.0294 14.7592,18.0294 C14.7592,18.0294 14.7591,18.0294 14.7592,18.0294 C14.7592,18.0294 14.7591,18.0294 14.7592,18.0294 C14.7592,18.0294 14.7592,18.0294 14.7592,18.0294 C14.7592,18.0294 14.7592,18.0294 14.7592,18.0294 C14.7592,18.0294 14.7592,18.0294 14.7592,18.0294 C14.7592,18.0294 14.7592,18.0294 14.7592,18.0294 C14.7592,18.0294 14.7591,18.0294 14.7592,18.0294 C14.7592,18.0294 14.7592,18.0294 14.7592,18.0294 C14.7592,18.0294 14.7592,18.0294 14.7592,18.0294 C14.7592,18.0294 14.7592,18.0294 14.7592,18.0294 C14.7592,18.0294 14.7592,18.0294 14.7592,18.0294 C14.7592,18.0294 14.7592,18.0294 14.7592,18.0294 C14.7592,18.0295 14.7592,18.0294 14.7592,18.0294 C14.7592,18.0294 14.7592,18.0294 14.7592,18.0294 C14.7592,18.0294 14.7592,18.0294 14.7592,18.0294 C14.7592,18.0294 14.7592,18.0294 14.7592,18.0294 C14.7592,18.0294 14.7592,18.0294 14.7592,18.0294 C14.7592,18.0294 14.7592,18.0294 14.7592,18.0294 C14.7592,18.0295 14.7592,18.0294 14.7592,18.0294 C14.7592,18.0294 14.7592,18.0294 14.7592,18.0294 C14.7592,18.0294 14.7592,18.0294 14.7592,18.0294 C14.7592,18.0294 14.7592,18.0294 14.7592,18.0294 C14.7592,18.0294 14.7592,18.0294 14.7592,18.0294 C14.7592,18.0294 14.7592,18.0294 14.7592,18.0294 C14.7592,18.0295 14.7592,18.0294 14.7592,18.0294 C14.7592,18.0295 14.7592,18.0294 14.7592,18.0295 C14.7592,18.0295 14.7592,18.0295 14.7592,18.0295 C14.7592,18.0295 14.7592,18.0295 14.7592,18.0295 C14.7592,18.0295 14.7592,18.0295 14.7592,18.0295 C14.7592,18.0295 14.7592,18.0295 14.7592,18.0295 C14.7592,18.0295 14.7592,18.0294 14.7592,18.0295 C14.7592,18.0295 14.7592,18.0294 14.7592,18.0295 C14.7592,18.0295 14.7592,18.0295 14.7592,18.0295 C14.7592,18.0295 14.7592,18.0295 14.7592,18.0295 C14.7592,18.0295 14.7592,18.0295 14.7592,18.0295 C14.7592,18.0295 14.7592,18.0295 14.7592,18.0295 C14.7592,18.0295 14.7592,18.0294 14.7592,18.0295 C14.7592,18.0295 14.7592,18.0294 14.7592,18.0295 C14.7592,18.0295 14.7592,18.0295 14.7592,18.0295 C14.7592,18.0295 14.7592,18.0295 14.7592,18.0295 C14.7592,18.0295 14.7592,18.0295 14.7592,18.0295 C14.7592,18.0295 14.7592,18.0295 14.7592,18.0295 C14.7592,18.0295 14.7592,18.0294 14.7592,18.0295 C14.7592,18.0295 14.7592,18.0295 14.7592,18.0295 C14.7592,18.0295 14.7592,18.0295 14.7592,18.0295 C14.7592,18.0295 14.7592,18.0295 14.7592,18.0295 C14.7592,18.0295 14.7592,18.0295 14.7592,18.0295 C14.7592,18.0295 14.7592,18.0295 14.7592,18.0295 C14.7592,18.0295 14.7592,18.0295 14.7592,18.0295 C14.7592,18.0295 14.7592,18.0295 14.7592,18.0295 C14.7592,18.0295 14.7592,18.0295 14.7592,18.0295 C14.7592,18.0295 14.7592,18.0295 14.7592,18.0295 C14.7592,18.0295 14.7592,18.0295 14.7592,18.0295 C14.7592,18.0295 14.7592,18.0295 14.7592,18.0295 C14.7592,18.0295 14.7592,18.0295 14.7592,18.0295 C14.7592,18.0295 14.7592,18.0295 14.7592,18.0295 C14.7592,18.0295 14.7592,18.0295 14.7592,18.0295 C14.7592,18.0295 14.7592,18.0295 14.7592,18.0295 C14.7592,18.0295 14.7592,18.0295 14.7592,18.0295 C14.7592,18.0295 14.7592,18.0295 14.7592,18.0295 C14.7592,18.0295 14.7592,18.0295 14.7592,18.0295 C14.7592,18.0295 14.7592,18.0295 14.7592,18.0295 C14.7592,18.0295 14.7592,18.0295 14.7592,18.0295 C14.7592,18.0295 14.7592,18.0295 14.7592,18.0295 C14.7592,18.0295 14.7592,18.0295 14.7592,18.0295 C14.7592,18.0295 14.7592,18.0295 14.7592,18.0295 C14.7592,18.0295 14.7592,18.0295 14.7592,18.0295 C14.7592,18.0295 14.7592,18.0295 14.7592,18.0295 C14.7592,18.0295 14.7592,18.0295 14.7592,18.0295 C14.7592,18.0295 14.7592,18.0295 14.7592,18.0295 C14.7592,18.0295 14.7592,18.0295 14.7592,18.0295 C14.7592,18.0295 14.7592,18.0295 14.7592,18.0295 C14.7592,18.0295 14.7592,18.0295 14.7592,18.0295 C14.7592,18.0295 14.7592,18.0295 14.7592,18.0295 C14.7592,18.0295 14.7592,18.0295 14.7592,18.0295 C14.7592,18.0295 14.7592,18.0295 14.7592,18.0295 C14.7592,18.0295 14.7592,18.0295 14.7592,18.0295 C14.7592,18.0295 14.7592,18.0295 14.7592,18.0295 C14.7592,18.0295 14.7592,18.0295 14.7592,18.0295 C14.7592,18.0295 14.7592,18.0295 14.7592,18.0295 C14.7592,18.0295 14.7592,18.0295 14.7592,18.0295 C14.7592,18.0295 14.7592,18.0295 14.7592,18.0295 C14.7592,18.0295 14.7592,18.0295 14.7592,18.0295 C14.7592,18.0295 14.7592,18.0295 14.7592,18.0295 C14.7592,18.0295 14.7592,18.0295 14.7592,18.0295 C14.7592,18.0295 14.7592,18.0295 14.7592,18.0295 C14.7592,18.0295 14.7592,18.0295 14.7592,18.0295 C14.7592,18.0295 14.7592,18.0295 14.7592,18.0295 C14.7592,18.0295 14.7592,18.0295 14.7592,18.0295 C14.7592,18.0295 14.7592,18.0295 14.7592,18.0295 C14.7592,18.0295 14.7592,18.0295 14.7592,18.0295 C14.7592,18.0295 14.7592,18.0295 14.7592,18.0295 C14.7592,18.0295 14.7592,18.0295 14.7592,18.0295 C14.7592,18.0295 14.7592,18.0295 14.7592,18.0295 C14.7592,18.0295 14.7592,18.0295 14.7592,18.0295 C14.7592,18.0295 14.7592,18.0295 14.7592,18.0295 C14.7592,18.0295 14.7592,18.0295 14.7592,18.0295 C14.7592,18.0295 14.7592,18.0295 14.7592,18.0295 C14.7592,18.0295 14.7592,18.0295 14.7592,18.0295 C14.7592,18.0295 14.7592,18.0295 14.7592,18.0295 C14.7592,18.0295 14.7592,18.0295 14.7592,18.0295 C14.7592,18.0295 14.7592,18.0295 14.7592,18.0295 C14.7592,18.0295 14.7592,18.0295 14.7592,18.0295 C14.7592,18.0295 14.7592,18.0295 14.7592,18.0295 C14.7592,18.0295 14.7592,18.0295 14.7592,18.0295 C14.7592,18.0295 14.7592,18.0295 14.7592,18.0295 C14.7592,18.0295 14.7592,18.0295 14.7592,18.0295 C14.7592,18.0295 14.7592,18.0295 14.7592,18.0295 C14.7593,18.0295 14.7592,18.0295 14.7592,18.0295 C14.7592,18.0295 14.7592,18.0295 14.7592,18.0295 C14.7592,18.0295 14.7592,18.0295 14.7592,18.0295 C14.7592,18.0295 14.7592,18.0295 14.7592,18.0295 C14.7592,18.0295 14.7592,18.0295 14.7592,18.0295 C14.7592,18.0295 14.7592,18.0295 14.7592,18.0295 C14.7593,18.0295 14.7592,18.0295 14.7592,18.0295 C14.7592,18.0295 14.7592,18.0295 14.7592,18.0295 C14.7592,18.0295 14.7592,18.0295 14.7592,18.0295 C14.7592,18.0295 14.7592,18.0295 14.7592,18.0295 C14.7592,18.0295 14.7592,18.0295 14.7592,18.0295 C14.7592,18.0295 14.7592,18.0295 14.7592,18.0295 C14.7593,18.0295 14.7592,18.0295 14.7592,18.0295 C14.7593,18.0295 14.7592,18.0295 14.7593,18.0295 C14.7593,18.0295 14.7593,18.0295 14.7593,18.0295 C14.7593,18.0295 14.7593,18.0295 14.7593,18.0295 C14.7593,18.0295 14.7593,18.0295 14.7593,18.0295 C14.7593,18.0295 14.7593,18.0295 14.7593,18.0295 C14.7593,18.0295 14.7592,18.0295 14.7593,18.0295 C14.7593,18.0295 14.7592,18.0295 14.7593,18.0295 C14.7593,18.0295 14.7593,18.0295 14.7593,18.0295 C14.7593,18.0295 14.7593,18.0295 14.7593,18.0295 C14.7593,18.0295 14.7593,18.0295 14.7593,18.0295 C14.7593,18.0295 14.7593,18.0295 14.7593,18.0295 C14.7593,18.0295 14.7592,18.0295 14.7593,18.0295 C14.7593,18.0295 14.7593,18.0295 14.7593,18.0295 C14.7593,18.0295 14.7593,18.0295 14.7593,18.0295 C14.7593,18.0295 14.7593,18.0295 14.7593,18.0295 C14.7593,18.0295 14.7593,18.0295 14.7593,18.0295 C14.7593,18.0295 14.7593,18.0295 14.7593,18.0295 C14.7593,18.0296 14.7592,18.0295 14.7593,18.0295 C14.7593,18.0295 14.7593,18.0295 14.7593,18.0295 C14.7593,18.0295 14.7593,18.0295 14.7593,18.0295 C14.7593,18.0295 14.7593,18.0295 14.7593,18.0295 C14.7593,18.0295 14.7593,18.0295 14.7593,18.0295 C14.7593,18.0295 14.7593,18.0295 14.7593,18.0295 C14.7593,18.0296 14.7593,18.0295 14.7593,18.0295 C14.7593,18.0296 14.7593,18.0295 14.7593,18.0295 C14.7593,18.0295 14.7593,18.0295 14.7593,18.0295 C14.7593,18.0295 14.7593,18.0295 14.7593,18.0295 C14.7593,18.0295 14.7593,18.0295 14.7593,18.0295 C14.7593,18.0295 14.7593,18.0295 14.7593,18.0295 C14.7593,18.0296 14.7593,18.0295 14.7593,18.0295 C14.7593,18.0296 14.7593,18.0295 14.7593,18.0295 C14.7593,18.0295 14.7593,18.0295 14.7593,18.0295 C14.7593,18.0295 14.7593,18.0295 14.7593,18.0295 C14.7593,18.0295 14.7593,18.0295 14.7593,18.0295 C14.7593,18.0295 14.7593,18.0295 14.7593,18.0295 C14.7593,18.0296 14.7593,18.0295 14.7593,18.0296 C14.7593,18.0296 14.7593,18.0295 14.7593,18.0296 C14.7593,18.0296 14.7593,18.0296 14.7593,18.0296 C14.7593,18.0296 14.7593,18.0296 14.7593,18.0296 C14.7593,18.0296 14.7593,18.0296 14.7593,18.0296 C14.7593,18.0296 14.7593,18.0296 14.7593,18.0296 C14.7593,18.0296 14.7593,18.0295 14.7593,18.0296 C14.7593,18.0296 14.7593,18.0296 14.7593,18.0296 C14.7593,18.0296 14.7593,18.0296 14.7593,18.0296 C14.7593,18.0296 14.7593,18.0296 14.7593,18.0296 C14.7593,18.0296 14.7593,18.0296 14.7593,18.0296 C14.7593,18.0296 14.7593,18.0296 14.7593,18.0296 C14.7593,18.0296 14.7593,18.0295 14.7593,18.0296 C14.7593,18.0296 14.7593,18.0296 14.7593,18.0296 C14.7593,18.0296 14.7593,18.0296 14.7593,18.0296 C14.7593,18.0296 14.7593,18.0296 14.7593,18.0296 C14.7593,18.0296 14.7593,18.0296 14.7593,18.0296 C14.7593,18.0296 14.7593,18.0296 14.7593,18.0296 C14.7593,18.0296 14.7593,18.0295 14.7593,18.0296 C14.7593,18.0296 14.7593,18.0296 14.7593,18.0296 C14.7593,18.0296 14.7593,18.0296 14.7593,18.0296 C14.7593,18.0296 14.7593,18.0296 14.7593,18.0296 C14.7593,18.0296 14.7593,18.0296 14.7593,18.0296 C14.7593,18.0296 14.7593,18.0296 14.7593,18.0296 C14.7593,18.0296 14.7593,18.0296 14.7593,18.0296 C14.7593,18.0296 14.7593,18.0296 14.7593,18.0296 C14.7593,18.0296 14.7593,18.0296 14.7593,18.0296 C14.7593,18.0296 14.7593,18.0296 14.7593,18.0296 C14.7593,18.0296 14.7593,18.0296 14.7593,18.0296 C14.7593,18.0296 14.7593,18.0296 14.7593,18.0296 C14.7593,18.0296 14.7593,18.0296 14.7593,18.0296 C14.7593,18.0296 14.7593,18.0296 14.7593,18.0296 C14.7593,18.0296 14.7593,18.0296 14.7593,18.0296 C14.7593,18.0296 14.7593,18.0296 14.7593,18.0296 C14.7593,18.0296 14.7593,18.0296 14.7593,18.0296 C14.7593,18.0296 14.7593,18.0296 14.7593,18.0296 L7.691,25.1034 Z M7.6893,25.1017 L1.898,19.3104 L8.9691,12.2393 L14.7604,18.0307 L7.6893,25.1017 Z M1.898,19.3104 C-0.6326,16.7798 -0.6326,12.6768 1.898,10.1462 L8.9691,17.2173 C10.3437,15.8426 10.3437,13.614 8.9691,12.2393 L1.898,19.3104 Z M1.898,10.1462 C4.4286,7.6156 8.5316,7.6156 11.0622,10.1462 L3.9912,17.2173 C5.3658,18.5919 7.5945,18.5919 8.9691,17.2173 L1.898,10.1462 Z M11.0622,10.1462 L14.3272,13.4112 L7.2561,20.4822 L3.9912,17.2173 L11.0622,10.1462 Z" id="Shape" fill="#C71B4A" fill-rule="nonzero" mask="url(#mask-2)"></path>
                <mask id="mask-4" fill="white">
                    <use xlink:href="#path-3"></use>
                </mask>
                <use id="Path" fill="#FFFFFF" xlink:href="#path-3"></use>
            </g>
        </g>
    </g>
</svg>